<svg width="35" height="35" viewBox="0 0 35 35" fill="none" xmlns="http://www.w3.org/2000/svg">
<path d="M29 17.0063C29 10.3669 23.6331 5 17.0063 5C10.3795 5 5 10.3669 5 17.0063C5 23.6457 10.3669 29.0126 17.0063 29.0126C23.6457 29.0126 29 23.6331 29 17.0063Z" fill="#9391F7"/>
<path d="M14.7641 17.5856C15.7972 17.4218 16.4901 16.4517 16.3263 15.4187C16.1626 14.3856 15.1925 13.6927 14.1594 13.8565C13.1263 14.0203 12.4334 14.9903 12.5972 16.0234C12.7736 17.0565 13.7437 17.7494 14.7641 17.5856ZM19.7027 17.5856C20.7358 17.4218 21.4287 16.4517 21.2649 15.4187C21.1011 14.3856 20.1311 13.6927 19.098 13.8565C18.0649 14.0203 17.372 14.9903 17.5358 16.0234C17.6996 17.0565 18.6696 17.7494 19.7027 17.5856Z" fill="white"/>
<path d="M16.9305 7.93555C11.803 7.93555 7.64551 12.1686 7.64551 17.3844H10.014C10.014 13.4663 13.088 10.3041 16.9179 10.3041C20.7605 10.3041 23.8219 13.4789 23.8219 17.3844H26.1904C26.2156 12.1686 22.0581 7.93555 16.9305 7.93555Z" fill="white"/>
</svg>
