<svg width="35" height="36" viewBox="0 0 35 36" fill="none" xmlns="http://www.w3.org/2000/svg">
<path d="M35 17.5092C35 7.82677 27.1732 0 17.5092 0C7.84515 0 0 7.82677 0 17.5092C0 27.1916 7.82677 35.0184 17.5092 35.0184C27.1916 35.0184 35 27.1732 35 17.5092Z" fill="#9391F7"/>
<path d="M14.239 18.3544C15.7455 18.1155 16.756 16.7008 16.5172 15.1943C16.2784 13.6877 14.8637 12.6772 13.3571 12.916C11.8505 13.1549 10.84 14.5696 11.0789 16.0761C11.3361 17.5827 12.7508 18.5932 14.239 18.3544ZM21.4411 18.3544C22.9476 18.1155 23.9581 16.7008 23.7193 15.1943C23.4805 13.6877 22.0658 12.6772 20.5592 12.916C19.0526 13.1549 18.0421 14.5696 18.281 16.0761C18.5198 17.5827 19.9345 18.5932 21.4411 18.3544Z" fill="white"/>
<path d="M17.3991 4.28076C9.92139 4.28076 3.8584 10.454 3.8584 18.0603H7.31247C7.31247 12.3464 11.7954 7.73483 17.3807 7.73483C22.9844 7.73483 27.4489 12.3648 27.4489 18.0603H30.903C30.9398 10.454 24.8768 4.28076 17.3991 4.28076Z" fill="white"/>
</svg>
