<svg width="35" height="35" viewBox="0 0 35 35" fill="none" xmlns="http://www.w3.org/2000/svg">
<circle cx="17" cy="17" r="12" fill="#0033AD"/>
<g clip-path="url(#clip0_251_162)">
<path d="M13.2626 17.1438C13.2273 17.7573 13.6996 18.2826 14.3131 18.3179C14.3352 18.3179 14.3572 18.3179 14.3793 18.3179C14.9972 18.3179 15.496 17.8191 15.4916 17.2012C15.4916 16.5832 14.9928 16.0845 14.3749 16.0889C13.7834 16.0889 13.2935 16.5523 13.2626 17.1438Z" fill="white"/>
<path d="M9.10457 16.8567C8.90595 16.8435 8.73381 16.998 8.72498 17.1966C8.71615 17.3952 8.86622 17.5674 9.06484 17.5762C9.26346 17.5894 9.43119 17.435 9.44443 17.2363C9.45767 17.0377 9.30319 16.87 9.10457 16.8567Z" fill="white"/>
<path d="M13.1915 10.6731C13.368 10.5849 13.4387 10.3642 13.3504 10.1876C13.2621 10.0111 13.0414 9.94045 12.8649 10.0287C12.6883 10.117 12.6177 10.3333 12.706 10.5098C12.7942 10.6908 13.0105 10.7658 13.1915 10.6731Z" fill="white"/>
<path d="M14.3213 12.6461C14.5949 12.5092 14.7053 12.1738 14.5684 11.9001C14.4316 11.6265 14.0962 11.5161 13.8225 11.653C13.5488 11.7898 13.4385 12.1252 13.5753 12.3989C13.7122 12.6725 14.0476 12.7829 14.3213 12.6461Z" fill="white"/>
<path d="M10.5171 14.0008C10.729 14.1377 11.0114 14.0803 11.1527 13.8684C11.2895 13.6566 11.2321 13.3741 11.0203 13.2328C10.8084 13.096 10.5259 13.1534 10.3847 13.3652C10.2434 13.5771 10.3052 13.864 10.5171 14.0008Z" fill="white"/>
<path d="M11.1925 16.6582C10.8835 16.6405 10.6231 16.8744 10.6054 17.1834C10.5878 17.4924 10.8217 17.7528 11.1307 17.7704C11.4396 17.7881 11.7001 17.5542 11.7177 17.2452C11.7354 16.9406 11.5014 16.6758 11.1925 16.6582Z" fill="white"/>
<path d="M10.5785 20.3965C10.3534 20.5113 10.2607 20.7849 10.3755 21.0144C10.4903 21.2395 10.7639 21.3322 10.9934 21.2175C11.2185 21.1027 11.3112 20.8291 11.1965 20.5995C11.0817 20.3744 10.8036 20.2817 10.5785 20.3965Z" fill="white"/>
<path d="M12.7417 15.5059C13.0463 15.7045 13.4523 15.6207 13.6466 15.3161C13.8452 15.0116 13.7613 14.6055 13.4568 14.4113C13.1522 14.2127 12.7461 14.2965 12.5519 14.6011C12.3533 14.9012 12.4372 15.3073 12.7417 15.5059Z" fill="white"/>
<path d="M19.6045 12.6019C19.8605 12.7696 20.2092 12.699 20.3769 12.443C20.5447 12.187 20.474 11.8383 20.218 11.6706C19.962 11.5028 19.6133 11.5735 19.4456 11.8295C19.2735 12.0899 19.3441 12.4342 19.6045 12.6019Z" fill="white"/>
<path d="M20.7442 10.6378C20.9119 10.7481 21.1326 10.6996 21.2429 10.5319C21.3533 10.3641 21.3047 10.1434 21.137 10.0331C20.9693 9.92276 20.7486 9.97131 20.6382 10.1346C20.5323 10.3023 20.5808 10.5274 20.7442 10.6378Z" fill="white"/>
<path d="M19.6886 16.08C19.0751 16.0447 18.5454 16.5169 18.5146 17.1305C18.4792 17.744 18.9515 18.2736 19.565 18.3045C19.5871 18.3045 19.6092 18.3045 19.6268 18.3045C20.2403 18.3045 20.7391 17.8058 20.7391 17.1878C20.7435 16.6008 20.2801 16.1109 19.6886 16.08Z" fill="white"/>
<path d="M14.6876 15.4265C14.8774 15.8017 15.2614 16.0401 15.6851 16.0401C16.2986 16.0401 16.7974 15.5413 16.7974 14.9234C16.7974 14.7512 16.7576 14.5791 16.6782 14.4202C16.4001 13.8685 15.7292 13.6478 15.1819 13.9259C14.6302 14.2083 14.4095 14.8792 14.6876 15.4265Z" fill="white"/>
<path d="M23.4227 14.0011C23.6478 13.8863 23.736 13.6083 23.6213 13.3832C23.5065 13.1581 23.2285 13.0698 23.0034 13.1845C22.7783 13.2993 22.69 13.5729 22.8003 13.7981C22.9195 14.0232 23.1932 14.1158 23.4227 14.0011Z" fill="white"/>
<path d="M20.5977 14.3542C20.2755 14.5176 20.1431 14.9104 20.3064 15.2326C20.4697 15.5548 20.8625 15.6872 21.1847 15.5239C21.5069 15.3606 21.6393 14.9678 21.476 14.6456C21.3127 14.3234 20.9199 14.1954 20.5977 14.3542Z" fill="white"/>
<path d="M16.9566 10.47C17.2082 10.4832 17.4245 10.289 17.4421 10.0374C17.4598 9.78585 17.2612 9.56958 17.0096 9.55192C16.758 9.53868 16.5417 9.72847 16.5241 9.98006C16.5108 10.2361 16.705 10.4523 16.9566 10.47Z" fill="white"/>
<path d="M16.9527 13.3521C17.3147 13.3742 17.6236 13.0961 17.6413 12.7342C17.6633 12.3723 17.3853 12.0633 17.0233 12.0457C16.6614 12.0236 16.3524 12.3017 16.3348 12.6636C16.3171 13.0255 16.5908 13.3345 16.9527 13.3521Z" fill="white"/>
<path d="M13.4035 20.0434C13.7257 19.8801 13.8581 19.4873 13.6948 19.1651C13.5315 18.8429 13.1386 18.7105 12.8164 18.8738C12.4942 19.0371 12.3618 19.4299 12.5251 19.7521C12.6884 20.0743 13.0813 20.2067 13.4035 20.0434Z" fill="white"/>
<path d="M17.3761 14.3098C17.0406 14.8262 17.1819 15.5148 17.6983 15.8502C18.2147 16.1857 18.9032 16.0444 19.2387 15.528C19.5741 15.0116 19.4329 14.3231 18.9165 13.9876C18.7355 13.8684 18.5237 13.8066 18.3074 13.8066C17.9322 13.8066 17.5835 13.9964 17.3761 14.3098Z" fill="white"/>
<path d="M19.3139 18.971C19.0359 18.4193 18.365 18.1986 17.8177 18.4766C17.2659 18.7547 17.0452 19.4256 17.3233 19.9729C17.6014 20.5246 18.2723 20.7453 18.8196 20.4673C19.3669 20.1936 19.592 19.5315 19.3183 18.9798C19.3183 18.9754 19.3183 18.9754 19.3139 18.971Z" fill="white"/>
<path d="M21.2605 18.8913C20.9559 18.6927 20.5498 18.7765 20.3556 19.0811C20.157 19.3856 20.2409 19.7917 20.5454 19.9859C20.85 20.1845 21.2561 20.1007 21.4503 19.7961C21.6489 19.496 21.565 19.0899 21.2605 18.8913Z" fill="white"/>
<path d="M23.3964 17.2188C23.4141 16.9099 23.1801 16.6495 22.8712 16.6318C22.5622 16.6141 22.3018 16.8481 22.2841 17.157C22.2665 17.466 22.5004 17.7264 22.8094 17.7441C23.1139 17.7617 23.3788 17.5234 23.3964 17.2188Z" fill="white"/>
<path d="M24.9366 16.8216C24.738 16.8084 24.5658 16.9628 24.557 17.1615C24.5482 17.3601 24.6983 17.5322 24.8969 17.541C25.0955 17.5543 25.2632 17.3998 25.2765 17.2012C25.2853 17.0026 25.1352 16.8348 24.9366 16.8216Z" fill="white"/>
<path d="M23.4851 20.3964C23.2733 20.2596 22.9908 20.317 22.8495 20.5288C22.7127 20.7407 22.7701 21.0232 22.9819 21.1644C23.1938 21.3012 23.4763 21.2439 23.6175 21.032C23.7588 20.8201 23.697 20.5332 23.4851 20.3964Z" fill="white"/>
<path d="M13.2535 23.7602C13.0858 23.6498 12.8651 23.6984 12.7548 23.8617C12.6444 24.0294 12.693 24.2501 12.8563 24.3604C13.024 24.4708 13.2447 24.4222 13.3551 24.2589C13.4698 24.0956 13.4213 23.8705 13.2535 23.7602Z" fill="white"/>
<path d="M20.8102 23.7244C20.6336 23.8127 20.563 24.0334 20.6513 24.2099C20.7396 24.3865 20.9603 24.4571 21.1368 24.3688C21.3134 24.2805 21.384 24.0643 21.2957 23.8877C21.2074 23.7067 20.9911 23.6317 20.8102 23.7244Z" fill="white"/>
<path d="M16.6259 20.0879C16.9614 19.5715 16.8201 18.8829 16.3037 18.5431C15.7873 18.2076 15.0987 18.3489 14.7589 18.8653C14.419 19.3817 14.5647 20.0702 15.0811 20.4101C15.262 20.5293 15.4739 20.5911 15.6902 20.5911C16.0698 20.5955 16.4185 20.4057 16.6259 20.0879Z" fill="white"/>
<path d="M14.3966 21.7956C14.1406 21.6278 13.7919 21.6985 13.6242 21.9545C13.4565 22.2105 13.5271 22.5592 13.7831 22.7269C14.0391 22.8946 14.3878 22.824 14.5555 22.568C14.7276 22.312 14.657 21.9633 14.3966 21.7956Z" fill="white"/>
<path d="M16.9964 23.9279C16.7448 23.9146 16.5285 24.1088 16.5109 24.3604C16.4932 24.612 16.6918 24.8283 16.9434 24.846C17.195 24.8592 17.4113 24.6694 17.4289 24.4178C17.4422 24.1618 17.248 23.9455 16.9964 23.9279Z" fill="white"/>
<path d="M17.0013 21.0457C16.6394 21.0236 16.3304 21.3017 16.3128 21.6636C16.2907 22.0255 16.5688 22.3345 16.9307 22.3521C17.2926 22.3698 17.6016 22.0961 17.6192 21.7342C17.6413 21.3767 17.3632 21.0633 17.0013 21.0457Z" fill="white"/>
<path d="M19.6803 21.7516C19.4067 21.8928 19.2963 22.2283 19.4376 22.5019C19.5788 22.7756 19.9142 22.8859 20.1879 22.7447C20.4616 22.6079 20.5719 22.2724 20.4351 21.9988C20.2938 21.7251 19.9584 21.6103 19.6803 21.7516Z" fill="white"/>
</g>
<defs>
<clipPath id="clip0_251_162">
<rect width="16.5517" height="15.2938" fill="white" transform="translate(8.72461 9.55176)"/>
</clipPath>
</defs>
</svg>
