<svg width="35" height="35" viewBox="0 0 35 35" fill="none" xmlns="http://www.w3.org/2000/svg">
<circle cx="17.5" cy="17.5" r="17.5" fill="#0033AD"/>
<g clip-path="url(#clip0_247_11)">
<path d="M12.0486 17.7091C11.9971 18.6038 12.6858 19.3698 13.5806 19.4213C13.6127 19.4213 13.6449 19.4213 13.6771 19.4213C14.5783 19.4213 15.3056 18.6939 15.2992 17.7928C15.2992 16.8916 14.5718 16.1643 13.6707 16.1707C12.8081 16.1707 12.0937 16.8466 12.0486 17.7091Z" fill="white"/>
<path d="M5.98477 17.2907C5.69511 17.2714 5.44408 17.4967 5.4312 17.7863C5.41833 18.076 5.63718 18.327 5.92684 18.3399C6.21649 18.3592 6.46109 18.1339 6.4804 17.8443C6.49971 17.5546 6.27442 17.31 5.98477 17.2907Z" fill="white"/>
<path d="M11.9451 8.27278C12.2026 8.14404 12.3056 7.82221 12.1768 7.56473C12.0481 7.30726 11.7263 7.20427 11.4688 7.33301C11.2113 7.46175 11.1083 7.77715 11.2371 8.03462C11.3658 8.29853 11.6812 8.40795 11.9451 8.27278Z" fill="white"/>
<path d="M13.5934 11.1501C13.9925 10.9506 14.1534 10.4614 13.9538 10.0623C13.7543 9.66323 13.2651 9.50231 12.866 9.70185C12.4669 9.90139 12.306 10.3906 12.5056 10.7897C12.7051 11.1887 13.1943 11.3497 13.5934 11.1501Z" fill="white"/>
<path d="M8.0443 13.1261C8.35326 13.3256 8.76522 13.2419 8.97119 12.933C9.17074 12.624 9.08706 12.212 8.77809 12.0061C8.46913 11.8065 8.05717 11.8902 7.85119 12.1992C7.64522 12.5081 7.73533 12.9265 8.0443 13.1261Z" fill="white"/>
<path d="M9.02933 17.0011C8.57876 16.9754 8.19899 17.3165 8.17324 17.7671C8.14749 18.2177 8.48864 18.5974 8.93922 18.6232C9.38979 18.6489 9.76956 18.3078 9.79531 17.8572C9.82106 17.4131 9.47991 17.0269 9.02933 17.0011Z" fill="white"/>
<path d="M8.13464 22.453C7.80636 22.6204 7.67119 23.0195 7.83855 23.3542C8.0059 23.6825 8.40498 23.8176 8.7397 23.6503C9.06797 23.4829 9.20314 23.0839 9.03579 22.7491C8.86843 22.4209 8.46291 22.2857 8.13464 22.453Z" fill="white"/>
<path d="M11.2892 15.3211C11.7333 15.6108 12.3255 15.4885 12.6087 15.0443C12.8984 14.6002 12.7761 14.008 12.3319 13.7248C11.8878 13.4351 11.2956 13.5574 11.0124 14.0016C10.7227 14.4393 10.845 15.0314 11.2892 15.3211Z" fill="white"/>
<path d="M21.2976 11.0858C21.6709 11.3304 22.1794 11.2274 22.424 10.8541C22.6686 10.4807 22.5656 9.97224 22.1923 9.72764C21.819 9.48305 21.3105 9.58603 21.0659 9.95937C20.8148 10.3391 20.9178 10.8412 21.2976 11.0858Z" fill="white"/>
<path d="M22.9581 8.22125C23.2027 8.38217 23.5246 8.31136 23.6855 8.06676C23.8464 7.82217 23.7756 7.50033 23.531 7.33941C23.2864 7.17849 22.9646 7.24929 22.8036 7.48745C22.6491 7.73205 22.72 8.06033 22.9581 8.22125Z" fill="white"/>
<path d="M21.42 16.158C20.5253 16.1065 19.7528 16.7952 19.7078 17.6899C19.6563 18.5846 20.345 19.3571 21.2397 19.4021C21.2719 19.4021 21.3041 19.4021 21.3299 19.4021C22.2246 19.4021 22.9519 18.6748 22.9519 17.7736C22.9584 16.9175 22.2825 16.203 21.42 16.158Z" fill="white"/>
<path d="M14.1274 15.2053C14.4042 15.7525 14.9642 16.1 15.5821 16.1C16.4768 16.1 17.2042 15.3727 17.2042 14.4715C17.2042 14.2205 17.1463 13.9695 17.0304 13.7377C16.6249 12.9331 15.6465 12.6113 14.8483 13.0168C14.0437 13.4288 13.7219 14.4072 14.1274 15.2053Z" fill="white"/>
<path d="M26.8654 13.1262C27.1937 12.9588 27.3224 12.5533 27.155 12.225C26.9877 11.8967 26.5822 11.768 26.2539 11.9354C25.9256 12.1027 25.7969 12.5018 25.9578 12.8301C26.1316 13.1583 26.5307 13.2935 26.8654 13.1262Z" fill="white"/>
<path d="M22.7457 13.6411C22.2759 13.8792 22.0828 14.4521 22.3209 14.922C22.5591 15.3919 23.1319 15.585 23.6018 15.3468C24.0717 15.1087 24.2648 14.5358 24.0267 14.0659C23.7885 13.596 23.2156 13.4094 22.7457 13.6411Z" fill="white"/>
<path d="M17.4354 7.97677C17.8023 7.99608 18.1177 7.71286 18.1435 7.34596C18.1692 6.97906 17.8796 6.66366 17.5127 6.63791C17.1458 6.6186 16.8304 6.89539 16.8046 7.26228C16.7853 7.63562 17.0686 7.95102 17.4354 7.97677Z" fill="white"/>
<path d="M17.4297 12.18C17.9575 12.2122 18.4081 11.8067 18.4338 11.2789C18.466 10.7511 18.0605 10.3005 17.5327 10.2747C17.0048 10.2426 16.5543 10.6481 16.5285 11.1759C16.5028 11.7037 16.9019 12.1543 17.4297 12.18Z" fill="white"/>
<path d="M12.2542 21.938C12.7241 21.6999 12.9172 21.127 12.679 20.6571C12.4408 20.1872 11.868 19.9941 11.3981 20.2323C10.9282 20.4704 10.7351 21.0433 10.9733 21.5132C11.2114 21.9831 11.7843 22.1762 12.2542 21.938Z" fill="white"/>
<path d="M18.0473 13.5768C17.5581 14.3299 17.764 15.3341 18.5171 15.8232C19.2702 16.3124 20.2744 16.1065 20.7636 15.3534C21.2528 14.6003 21.0468 13.5961 20.2937 13.1069C20.0298 12.9331 19.7208 12.843 19.4054 12.843C18.8583 12.843 18.3498 13.1198 18.0473 13.5768Z" fill="white"/>
<path d="M20.8732 20.374C20.4677 19.5694 19.4893 19.2475 18.6911 19.6531C17.8865 20.0586 17.5647 21.037 17.9702 21.8351C18.3757 22.6397 19.3541 22.9616 20.1523 22.556C20.9504 22.157 21.2787 21.1914 20.8796 20.3869C20.8796 20.3804 20.8796 20.3804 20.8732 20.374Z" fill="white"/>
<path d="M23.7118 20.2582C23.2677 19.9686 22.6755 20.0909 22.3923 20.535C22.1026 20.9791 22.2249 21.5713 22.669 21.8545C23.1132 22.1442 23.7054 22.0219 23.9886 21.5778C24.2782 21.1401 24.1559 20.5479 23.7118 20.2582Z" fill="white"/>
<path d="M26.8275 17.8186C26.8533 17.3681 26.5121 16.9883 26.0616 16.9625C25.611 16.9368 25.2312 17.278 25.2055 17.7285C25.1797 18.1791 25.5209 18.5589 25.9714 18.5846C26.4156 18.6104 26.8018 18.2628 26.8275 17.8186Z" fill="white"/>
<path d="M29.0736 17.2392C28.784 17.2199 28.5329 17.4452 28.5201 17.7348C28.5072 18.0245 28.726 18.2755 29.0157 18.2884C29.3054 18.3077 29.55 18.0824 29.5693 17.7928C29.5821 17.5031 29.3633 17.2585 29.0736 17.2392Z" fill="white"/>
<path d="M26.9559 22.4531C26.6469 22.2535 26.235 22.3372 26.029 22.6462C25.8295 22.9552 25.9132 23.3671 26.2221 23.5731C26.5311 23.7726 26.943 23.689 27.149 23.38C27.355 23.071 27.2649 22.6526 26.9559 22.4531Z" fill="white"/>
<path d="M12.0358 27.358C11.7912 27.197 11.4693 27.2678 11.3084 27.506C11.1475 27.7506 11.2183 28.0724 11.4564 28.2334C11.701 28.3943 12.0229 28.3235 12.1838 28.0853C12.3512 27.8472 12.2804 27.5189 12.0358 27.358Z" fill="white"/>
<path d="M23.0547 27.3064C22.7973 27.4351 22.6943 27.757 22.823 28.0144C22.9517 28.2719 23.2736 28.3749 23.531 28.2462C23.7885 28.1174 23.8915 27.802 23.7628 27.5445C23.634 27.2806 23.3186 27.1712 23.0547 27.3064Z" fill="white"/>
<path d="M16.9535 22.0025C17.4427 21.2494 17.2367 20.2453 16.4836 19.7496C15.7305 19.2605 14.7264 19.4664 14.2308 20.2195C13.7351 20.9726 13.9475 21.9768 14.7006 22.4724C14.9646 22.6462 15.2735 22.7363 15.5889 22.7363C16.1425 22.7428 16.651 22.466 16.9535 22.0025Z" fill="white"/>
<path d="M13.7025 24.4935C13.3291 24.2489 12.8206 24.3519 12.576 24.7252C12.3314 25.0986 12.4344 25.6071 12.8078 25.8517C13.1811 26.0963 13.6896 25.9933 13.9342 25.6199C14.1852 25.2466 14.0822 24.7381 13.7025 24.4935Z" fill="white"/>
<path d="M17.4938 27.6025C17.1269 27.5832 16.8115 27.8664 16.7858 28.2333C16.76 28.6002 17.0497 28.9156 17.4166 28.9413C17.7835 28.9607 18.0989 28.6839 18.1246 28.317C18.1439 27.9436 17.8607 27.6282 17.4938 27.6025Z" fill="white"/>
<path d="M17.5001 23.3993C16.9723 23.3671 16.5217 23.7726 16.4959 24.3004C16.4637 24.8282 16.8693 25.2788 17.3971 25.3045C17.9249 25.3303 18.3755 24.9312 18.4012 24.4034C18.4334 23.882 18.0279 23.425 17.5001 23.3993Z" fill="white"/>
<path d="M21.4077 24.4293C21.0086 24.6353 20.8477 25.1245 21.0537 25.5235C21.2597 25.9226 21.7488 26.0835 22.1479 25.8776C22.547 25.678 22.7079 25.1888 22.5084 24.7897C22.3024 24.3907 21.8132 24.2233 21.4077 24.4293Z" fill="white"/>
</g>
<defs>
<clipPath id="clip0_247_11">
<rect width="24.1379" height="22.3034" fill="white" transform="translate(5.43164 6.63794)"/>
</clipPath>
</defs>
</svg>
