<svg width="35" height="35" viewBox="0 0 35 35" fill="none" xmlns="http://www.w3.org/2000/svg">
<g clip-path="url(#clip0_156_193)">
<mask id="mask0_156_193" style="mask-type:luminance" maskUnits="userSpaceOnUse" x="5" y="6" width="24" height="24">
<path d="M29 6H5V30H29V6Z" fill="white"/>
</mask>
<g mask="url(#mask0_156_193)">
<path fill-rule="evenodd" clip-rule="evenodd" d="M17 6C23.6279 6 29 11.3721 29 18C29 24.6279 23.6279 30 17 30C10.3721 30 5 24.6279 5 18C5 11.3721 10.3721 6 17 6Z" fill="#F0B90B"/>
<path d="M11.5951 18L11.6037 21.1731L14.2999 22.7596V24.6173L10.0259 22.1106V17.0721L11.5951 18ZM11.5951 14.8269V16.676L10.0249 15.7471V13.8981L11.5951 12.9692L13.173 13.8981L11.5951 14.8269ZM15.4259 13.8981L16.996 12.9692L18.5739 13.8981L16.996 14.8269L15.4259 13.8981Z" fill="white"/>
<path d="M12.73 20.5154V18.6577L14.3002 19.5865V21.4356L12.73 20.5154ZM15.4261 23.425L16.9963 24.3538L18.5742 23.425V25.274L16.9963 26.2029L15.4261 25.274V23.425ZM20.8261 13.8981L22.3963 12.9692L23.9742 13.8981V15.7471L22.3963 16.676V14.8269L20.8261 13.8981ZM22.3963 21.1731L22.405 18L23.9751 17.0712V22.1096L19.7011 24.6164V22.7587L22.3963 21.1731Z" fill="white"/>
<path d="M21.2704 20.5153L19.7002 21.4355V19.5865L21.2704 18.6577V20.5153Z" fill="white"/>
<path d="M21.2703 15.4846L21.279 17.3423L18.5751 18.9288V22.1096L17.005 23.0298L15.4348 22.1096V18.9288L12.7309 17.3423V15.4846L14.3079 14.5557L16.9954 16.15L19.6992 14.5557L21.2771 15.4846H21.2703ZM12.73 12.3124L16.9963 9.79706L21.2703 12.3124L19.7002 13.2413L16.9963 11.6471L14.3002 13.2413L12.73 12.3124Z" fill="white"/>
</g>
</g>
<defs>
<clipPath id="clip0_156_193">
<rect width="24" height="24" fill="white" transform="translate(5 6)"/>
</clipPath>
</defs>
</svg>
