<svg width="58" height="58" viewBox="0 0 58 58" fill="none" xmlns="http://www.w3.org/2000/svg">
<g clip-path="url(#clip0_23_2217)">
<path fill-rule="evenodd" clip-rule="evenodd" d="M29 0C45.0174 0 58 12.9826 58 29C58 45.0174 45.0174 58 29 58C12.9826 58 0 45.0174 0 29C0 12.9826 12.9826 0 29 0Z" fill="#F0B90B"/>
<path d="M15.9382 29L15.9591 36.6682L22.4748 40.5024V44.9918L12.1459 38.9339V26.7576L15.9382 29ZM15.9382 21.3317V25.8002L12.1436 23.5555V19.087L15.9382 16.8423L19.7514 19.087L15.9382 21.3317ZM25.1959 19.087L28.9905 16.8423L32.8037 19.087L28.9905 21.3317L25.1959 19.087Z" fill="white"/>
<path d="M18.6807 35.0788V30.5894L22.4753 32.8341V37.3026L18.6807 35.0788ZM25.1964 42.1104L28.991 44.3551L32.8042 42.1104V46.5789L28.991 48.8236L25.1964 46.5789V42.1104ZM38.2464 19.087L42.041 16.8423L45.8542 19.087V23.5555L42.041 25.8002V21.3317L38.2464 19.087ZM42.041 36.6682L42.0619 29L45.8565 26.7553V38.9315L35.5276 44.9895V40.5001L42.041 36.6682Z" fill="white"/>
<path d="M39.32 35.0788L35.5254 37.3026V32.8341L39.32 30.5894V35.0788Z" fill="white"/>
<path d="M39.3199 22.9211L39.3408 27.4105L32.8065 31.2446V38.9315L29.0119 41.1553L25.2173 38.9315V31.2446L18.683 27.4105V22.9211L22.4939 20.6763L28.9887 24.5291L35.523 20.6763L39.3362 22.9211H39.3199ZM18.6807 15.2551L28.991 9.17627L39.3199 15.2551L35.5253 17.4998L28.991 13.6471L22.4753 17.4998L18.6807 15.2551Z" fill="white"/>
</g>
<defs>
<clipPath id="clip0_23_2217">
<rect width="58" height="58" fill="white"/>
</clipPath>
</defs>
</svg>
