<svg width="35" height="35" viewBox="0 0 35 35" fill="none" xmlns="http://www.w3.org/2000/svg">
<mask id="mask0_156_220" style="mask-type:luminance" maskUnits="userSpaceOnUse" x="5" y="5" width="24" height="25">
<path d="M29 5H5V29.0027H29V5Z" fill="white"/>
</mask>
<g mask="url(#mask0_156_220)">
<path d="M28.641 19.9045C27.0381 26.3339 20.5262 30.2467 14.096 28.6434C7.66863 27.0405 3.75585 20.5282 5.35942 14.0994C6.96159 7.66933 13.4735 3.75625 19.9016 5.35912C26.3312 6.96199 30.244 13.4749 28.641 19.9045Z" fill="#F7931A"/>
<path d="M22.2918 15.2914C22.5307 13.6943 21.3148 12.8358 19.6521 12.2631L20.1915 10.0997L18.8745 9.77147L18.3495 11.878C18.0032 11.7916 17.6477 11.7103 17.2943 11.6296L17.8232 9.50921L16.507 9.18103L15.9674 11.3438C15.6809 11.2785 15.3995 11.2141 15.1265 11.1461L15.128 11.1393L13.3119 10.6858L12.9615 12.0924C12.9615 12.0924 13.9386 12.3164 13.918 12.3302C14.4513 12.4633 14.5478 12.8163 14.5318 13.0961L13.9173 15.5608C13.9541 15.5701 14.0017 15.5836 14.0542 15.6047C14.0103 15.5938 13.9635 15.5819 13.915 15.5703L13.0538 19.0229C12.9886 19.1849 12.8232 19.4281 12.4504 19.3358C12.4636 19.3549 11.4932 19.0969 11.4932 19.0969L10.8394 20.6044L12.5532 21.0316C12.872 21.1116 13.1844 21.1952 13.4921 21.2739L12.9471 23.4622L14.2625 23.7903L14.8023 21.6253C15.1616 21.7228 15.5103 21.8128 15.8518 21.8976L15.3139 24.0524L16.6309 24.3806L17.1758 22.1964C19.4215 22.6214 21.11 22.4501 21.8208 20.4189C22.3935 18.7835 21.7923 17.8402 20.6108 17.2251C21.4714 17.0267 22.1195 16.4607 22.2923 15.2916L22.2918 15.2914ZM19.2829 19.5107C18.8759 21.1461 16.1225 20.262 15.2297 20.0404L15.9529 17.1413C16.8456 17.3642 19.7082 17.8052 19.2829 19.5107ZM19.6902 15.2677C19.3189 16.7553 17.0272 15.9995 16.2838 15.8142L16.9395 13.1849C17.6829 13.3702 20.0768 13.7161 19.6902 15.2677Z" fill="white"/>
</g>
</svg>
