<svg width="58" height="58" viewBox="0 0 58 58" fill="none" xmlns="http://www.w3.org/2000/svg">
<g clip-path="url(#clip0_26_99)">
<path d="M57.1323 36.0193C53.2587 51.5569 37.5216 61.0128 21.9821 57.1382C6.44919 53.2646 -3.00669 37.5265 0.868605 21.9902C4.7405 6.45088 20.4776 -3.00572 36.0122 0.867877C51.5505 4.74147 61.0059 20.4812 57.1318 36.0196L57.1321 36.0193H57.1323Z" fill="#F7931A"/>
<path d="M41.7891 24.8709C42.3664 21.0112 39.4279 18.9365 35.4097 17.5525L36.7132 12.3242L33.5306 11.5311L32.2617 16.6218C31.425 16.4131 30.5657 16.2165 29.7117 16.0215L30.9899 10.8973L27.8092 10.1042L26.505 15.3309C25.8126 15.1732 25.1326 15.0174 24.4728 14.8532L24.4765 14.8368L20.0876 13.7408L19.2409 17.1401C19.2409 17.1401 21.6022 17.6813 21.5524 17.7146C22.8412 18.0363 23.0743 18.8894 23.0356 19.5657L21.5507 25.5219C21.6395 25.5445 21.7546 25.5771 21.8816 25.6281C21.7754 25.6017 21.6624 25.573 21.5452 25.5449L19.4639 33.8888C19.3064 34.2803 18.9067 34.8679 18.0056 34.6448C18.0375 34.691 15.6924 34.0675 15.6924 34.0675L14.1123 37.7106L18.254 38.7431C19.0245 38.9363 19.7795 39.1385 20.5231 39.3286L19.2061 44.6169L22.385 45.4099L23.6893 40.1778C24.5577 40.4135 25.4005 40.631 26.2256 40.836L24.9257 46.0434L28.1085 46.8365L29.4254 41.5581C34.8524 42.5852 38.9331 42.1711 40.6508 37.2624C42.0348 33.3102 40.5819 31.0306 37.7267 29.5441C39.8063 29.0645 41.3726 27.6968 41.7903 24.8714L41.7893 24.8707L41.7891 24.8709ZM34.5176 35.0676C33.534 39.0197 26.8798 36.8833 24.7224 36.3476L26.4701 29.3415C28.6274 29.8801 35.5455 30.9459 34.5177 35.0676H34.5176ZM35.5018 24.8137C34.6046 28.4086 29.0663 26.5822 27.2697 26.1344L28.8542 19.7803C30.6508 20.2281 36.4365 21.064 35.5021 24.8137H35.5018Z" fill="white"/>
</g>
<defs>
<clipPath id="clip0_26_99">
<rect width="58" height="58.0065" fill="white"/>
</clipPath>
</defs>
</svg>
