<svg width="58" height="58" viewBox="0 0 58 58" fill="none" xmlns="http://www.w3.org/2000/svg">
<g clip-path="url(#clip0_23_2212)">
<path d="M29 58C45.0163 58 58 45.0163 58 29C58 12.9837 45.0163 0 29 0C12.9837 0 0 12.9837 0 29C0 45.0163 12.9837 58 29 58Z" fill="#988430"/>
<path d="M28.9998 57.0711C44.503 57.0711 57.0709 44.5033 57.0709 29C57.0709 13.4968 44.503 0.928955 28.9998 0.928955C13.4966 0.928955 0.928711 13.4968 0.928711 29C0.928711 44.5033 13.4966 57.0711 28.9998 57.0711Z" fill="#7A6A2A"/>
<path d="M29.0001 56.4795C44.1767 56.4795 56.4798 44.1765 56.4798 28.9999C56.4798 13.8233 44.1767 1.52026 29.0001 1.52026C13.8236 1.52026 1.52051 13.8233 1.52051 28.9999C1.52051 44.1765 13.8236 56.4795 29.0001 56.4795Z" fill="#BA9F33"/>
<path fill-rule="evenodd" clip-rule="evenodd" d="M12.679 25.9029C12.5148 25.7529 12.3412 25.6025 12.1816 25.4525C12.022 25.3025 11.8581 25.1521 11.6938 25.0021L11.2057 24.5381C11.1259 24.4583 11.0414 24.3881 10.9616 24.308C10.8818 24.2377 10.7881 24.1579 10.7083 24.0874C10.0605 23.4728 9.40906 22.8581 8.77029 22.2432C9.43195 22.8485 10.0797 23.4496 10.7414 24.0639L10.9712 24.294C11.051 24.3735 11.1355 24.4441 11.2153 24.5239L11.7031 24.9743C11.8673 25.1243 12.0269 25.2746 12.1912 25.4383C12.3555 25.6019 12.5151 25.7525 12.6793 25.9023L12.679 25.9029ZM4.08234 25.8101C4.08234 25.8101 6.43791 26.0538 7.58771 26.2181C8.65274 26.3684 11.9846 26.8798 11.9846 26.8798L4.08234 25.8101ZM4.08234 25.8101C4.744 25.8664 5.40567 25.9366 6.06733 26.0071C6.40512 26.0399 6.729 26.0774 7.05287 26.1101L7.54997 26.1667C7.71422 26.1899 7.87384 26.2135 8.0381 26.237L10.0092 26.5512L10.9944 26.7155C11.3183 26.7718 11.6421 26.8331 11.9799 26.8894C11.6561 26.8566 11.3183 26.8095 10.9944 26.7625L10.0092 26.6218L8.0381 26.331C7.87384 26.3075 7.71422 26.2744 7.54997 26.2512L7.05256 26.194C6.72869 26.1612 6.3909 26.1142 6.06702 26.0764C5.40536 25.9969 4.7437 25.9122 4.08203 25.8092L4.08234 25.8101ZM11.7501 27.4935C11.7501 27.4935 9.23491 28.1319 8.38548 28.376C7.55028 28.6058 5.02086 29.3755 5.02086 29.3755L11.7498 27.4938L11.7501 27.4935Z" fill="#CFB66C"/>
<path fill-rule="evenodd" clip-rule="evenodd" d="M11.7501 27.4937C11.1918 27.6579 10.6365 27.8175 10.0701 27.9679L8.39012 28.4183C7.83177 28.5825 7.27652 28.7421 6.71972 28.9064L5.88452 29.1362C5.60767 29.216 5.32617 29.2862 5.04004 29.3664C5.31658 29.2736 5.59839 29.1786 5.87524 29.0988L6.71044 28.8315C7.26879 28.6577 7.82404 28.4934 8.38084 28.3199C8.94847 28.1791 9.50712 28.0288 10.0747 27.8927C10.6142 27.7566 11.1822 27.6208 11.7501 27.494V27.4937ZM5.37319 30.9242C5.64974 30.8208 8.84082 29.3336 9.58229 28.9862C9.95349 28.8123 11.0324 28.4294 11.0324 28.4294L5.37319 30.9242Z" fill="#CFB66C"/>
<path fill-rule="evenodd" clip-rule="evenodd" d="M5.37336 30.924C5.61711 30.8312 5.84725 30.7177 6.08173 30.6097L6.77618 30.2858L8.17004 29.6149C8.63404 29.3943 9.08505 29.1509 9.56359 28.9436C9.80765 28.8406 10.0517 28.7562 10.2955 28.6764L10.6667 28.5591C10.7932 28.5263 10.9107 28.4886 11.0379 28.4558C10.5739 28.6764 10.0854 28.8641 9.62081 29.0797C9.15681 29.3099 8.68229 29.4976 8.20345 29.704L6.78639 30.3279C6.31064 30.5206 5.84664 30.7269 5.37305 30.924H5.37336ZM5.68269 32.2232C5.68269 32.2232 8.5731 30.5293 9.56792 29.9848C10.0888 29.6941 11.7735 28.8586 11.7735 28.8586L5.68269 32.2232Z" fill="#CFB66C"/>
<path fill-rule="evenodd" clip-rule="evenodd" d="M5.68262 32.2238C6.17044 31.9234 6.66784 31.6184 7.16525 31.3087L7.90765 30.858C8.161 30.708 8.40506 30.5673 8.66335 30.4172C8.9167 30.2669 9.16076 30.1169 9.41874 29.9761C9.54156 29.9003 9.67024 29.8344 9.80356 29.7791L10.1976 29.582C10.7186 29.3287 11.2395 29.0704 11.7885 28.8499C11.2911 29.1644 10.7795 29.432 10.2682 29.7086C10.0148 29.8493 9.75654 29.9761 9.50319 30.1169C9.24985 30.2576 9.00579 30.408 8.74749 30.5441C8.49415 30.6941 8.25008 30.8348 7.9921 30.971L7.22712 31.3886L5.68324 32.2238H5.68262ZM11.7499 29.2297C11.7499 29.2297 9.95265 30.6093 9.3708 31.0504C8.78894 31.4916 7.07616 32.7304 7.07616 32.7304L11.7499 29.2297Z" fill="#CFB66C"/>
<path fill-rule="evenodd" clip-rule="evenodd" d="M22.0642 40.3559L21.1445 38.6149L21.6794 36.4375L25.4944 34.9642L23.8707 31.6327L24.6731 28.2681L26.1796 25.2551L30.8347 24.5233L34.2553 21.262L41.6416 21.8203L43.0914 29.7179L40.2994 39.6614L38.7088 44.8093L32.261 45.0534L29.2673 42.9793L25.762 41.5149L22.0642 40.3559Z" fill="#E2CC85"/>
<path fill-rule="evenodd" clip-rule="evenodd" d="M33.3735 40.2996C33.3735 40.2996 32.4817 40.7079 30.9607 40.6138C30.5205 40.0227 27.4377 39.7458 27.4377 39.7458C27.4377 39.7458 27.0529 39.6286 26.3724 39.9101C25.6875 40.1885 25.0398 40.1542 24.4344 40.3042C23.829 40.4542 23.228 39.666 22.764 39.5018C22.3 39.3282 21.6847 38.9106 21.6847 38.9106L20.3855 38.7838L17.7766 37.681L13.6319 33.5518L12.5056 35.315L12.1582 37.497L13.4113 40.0827L16.7852 43.1562L23.3641 44.8266L27.2636 43.6778L32.1486 41.613L33.3735 40.2992V40.2996Z" fill="#F1D789"/>
<path fill-rule="evenodd" clip-rule="evenodd" d="M9.99934 25.7058L10.8345 23.1767L11.8297 21.5435L15.0344 21.2759L14.0723 24.0822L11.3932 28.8499L12.5052 33.106L10.5345 34.0912L9.92881 33.1623L9.44099 31.0319L9.4082 28.6386L9.99934 25.7058Z" fill="#F4ECB4"/>
<path fill-rule="evenodd" clip-rule="evenodd" d="M13.5947 40.1262L12.9801 39.2674C12.9801 39.2674 12.8158 38.8591 12.9098 38.5025C13.0026 38.1412 12.9893 38.1176 12.9426 37.9815C12.8959 37.8454 12.5015 37.3762 12.525 36.9725C12.5482 36.5642 12.4922 36.4281 12.7923 36.1045C13.1066 35.7902 13.0129 35.2458 13.0129 35.2458L13.4212 35.4991L13.514 35.3584C13.514 35.3584 13.664 35.4756 13.664 35.6588C13.6968 35.4054 13.5607 34.2321 13.8703 33.9648C14.18 33.6976 14.729 35.2176 14.729 35.2176L14.3912 33.0121L13.5229 30.7506L11.9791 28.6858L11.8863 26.4097V26.2126C11.8863 26.2126 11.1776 27.3015 10.9805 28.1614C10.8398 28.7526 11.1776 29.4705 11.1074 30.32C11.0508 31.1648 10.9805 31.0989 11.1869 31.4336C11.3932 31.7683 11.8955 32.4565 11.6985 32.9539C11.525 33.3811 10.9335 33.0808 10.9335 33.0808C10.9335 33.0808 10.8163 33.4278 10.6567 33.5547C10.6004 33.3483 10.5394 33.2169 10.4268 33.0907C10.4172 33.1705 10.394 33.2784 10.394 33.2784C10.394 33.2784 10.2907 32.9546 10.1874 32.5462C10.047 32.0021 9.89663 31.2842 9.76052 30.8994C9.70422 31.1199 9.56348 31.7909 9.56348 31.7909L9.64329 32.8234L10.0281 34.2405L10.3993 35.1685L10.7606 36.304L11.0746 37.0668L11.3279 37.6487L11.5485 38.9581L12.6135 40.0841L13.1814 40.3377L13.5941 40.1265L13.5947 40.1262Z" fill="#F3E19D"/>
<path fill-rule="evenodd" clip-rule="evenodd" d="M10.5581 23.6411C10.5581 23.6411 9.79315 24.9403 9.5729 26.25C9.35266 27.5597 9.1553 28.9437 9.2945 30.7267C9.43525 32.5242 9.70282 33.6267 9.91874 34.4151C10.2899 35.7246 11.2513 37.5453 11.2513 37.5453L11.2841 37.4748C11.1225 37.1684 10.9936 36.846 10.8993 36.5127C10.7725 36.0153 10.7255 35.4242 10.6082 35.1566C10.5049 34.8894 10.3314 34.6592 10.2469 34.3307C10.1671 34.0164 10.1541 33.519 9.90915 33.1484C9.80583 32.9981 9.679 32.604 9.64157 32.2099C9.59456 31.6185 9.66508 30.9568 9.60879 30.4127C9.50547 29.507 9.43525 28.8923 9.52898 28.4181C9.6227 27.9439 10.1111 26.5977 10.4115 25.5277C10.6086 24.8425 10.491 24.2653 10.8523 23.6692C11.2136 23.0781 11.4345 22.5572 11.514 22.1959C11.6068 21.8673 10.5569 23.6411 10.5569 23.6411H10.5581Z" fill="#F2E8B0"/>
<path fill-rule="evenodd" clip-rule="evenodd" d="M14.1855 23.1201C14.1855 23.1201 13.7914 23.2377 13.6036 23.444C13.4158 23.641 13.336 23.8053 13.0827 24.1384C12.8293 24.4716 12.8151 24.7438 12.6085 25.1614C12.4022 25.5697 11.9468 26.1844 11.8905 26.4049C11.8342 26.6255 11.7405 27.6577 11.6233 28.1459C11.5199 28.634 11.7405 29.2347 11.7405 29.2347L12.0078 29.1781C12.0078 29.1781 12.0078 29.5255 12.2753 29.7603C12.5426 29.9901 12.5896 28.9811 12.5896 28.9811L13.5891 25.6072L15.0952 24.5842L15.2595 23.7583L14.1848 23.1201H14.1855Z" fill="#F5EEC0"/>
<path fill-rule="evenodd" clip-rule="evenodd" d="M14.9173 24.6501C14.9173 24.6501 14.2086 24.6969 13.8616 24.9505C13.7208 25.0535 13.6645 25.138 13.5145 25.2648C13.2376 25.4946 12.9558 25.7059 12.82 26.0072C12.6697 26.3072 12.5055 26.7626 12.3929 27.6213C12.3458 27.9826 12.3458 28.3157 12.3131 28.6068C12.266 29.0009 12.1958 29.3152 12.2332 29.5348C12.2803 29.9852 12.7449 30.22 12.79 30.7313L13.7521 30.2435L14.6578 26.6723L16.5819 25.4659L15.493 24.2458L14.9161 24.648L14.9173 24.6501Z" fill="#E6DB9D"/>
<path fill-rule="evenodd" clip-rule="evenodd" d="M9.84211 48.698C9.84613 48.6627 9.85015 48.6274 9.85417 48.5912C9.99461 47.3848 10.0184 46.4705 10.1214 45.8979C10.2715 45.0862 10.3748 44.7843 10.3513 44.4805C10.3185 43.9927 10.2811 43.636 10.3281 43.2605C10.3983 42.7631 10.8864 42.172 10.8725 41.7636C10.8629 41.4398 10.6986 41.2288 10.5579 41.0318C10.4172 40.8347 10.3046 40.6705 10.3046 40.6705C10.3046 40.6705 11.2666 40.0088 11.2573 37.3433C11.277 37.3488 11.2959 37.3567 11.3136 37.3668L11.7875 38.7133L12.1114 39.1074L13.3549 41.4255L14.9551 42.979L17.3199 44.5696L18.8029 46.1834L18.9529 50.4865L17.0149 53.0017L16.6976 53.5765C14.1761 52.3106 11.8639 50.6652 9.8418 48.6977L9.84211 48.698Z" fill="#E5CB7A"/>
<path fill-rule="evenodd" clip-rule="evenodd" d="M15.7627 52.8146C15.7627 52.8146 15.7955 52.2797 16.2366 51.9323C16.3071 52.0496 16.3538 52.1625 16.3399 52.2466C16.4197 52.1062 16.9781 51.2051 18.2405 50.9703C19.5028 50.7405 19.8078 49.8208 19.8078 49.8208L22.487 47.3855L25.5512 44.5653L29.2772 43.2559L31.0184 42.8287C31.0184 42.8287 31.0512 42.9555 30.9856 43.237C31.3092 43.2138 32.0271 43.0495 32.7732 42.7866C33.0736 42.6694 33.3554 42.6223 33.5054 42.7773C33.726 42.9836 33.7588 43.4718 33.7727 43.7625C34.134 43.6827 34.5516 43.3357 34.8863 43.3685C35.4214 43.4247 35.8953 44.0536 36.4398 44.0536C37.1577 44.0536 37.4813 43.6125 37.9837 43.2651C38.284 43.0588 38.7155 42.8011 38.9596 42.627C39.5415 42.1998 45.6981 40.3181 45.6981 40.3181L47.8566 40.4589L48.204 42.777L48.0184 48.8368C47.9955 48.8588 47.9726 48.8817 47.9494 48.9037L38.1349 54.0296L24.5304 56.1151C21.483 55.6172 18.5421 54.6057 15.8332 53.1236L15.7636 52.8143L15.7627 52.8146Z" fill="#D8C173"/>
<path fill-rule="evenodd" clip-rule="evenodd" d="M10.667 49.4688C10.8603 49.0645 11.0342 48.7264 11.0648 48.6055C11.0889 48.8492 11.1332 49.3841 11.2222 49.9526C11.0352 49.7936 10.8501 49.6322 10.667 49.4685V49.4688Z" fill="#F1D789"/>
<path fill-rule="evenodd" clip-rule="evenodd" d="M20.6057 55.1719L22.3652 54.6825L22.5152 54.7295C22.5152 54.7295 22.595 54.7765 22.595 54.9358C22.8156 54.8093 23.0033 54.8325 23.1394 54.7484C23.2097 54.8984 23.2799 55.3958 23.5898 55.4568C23.9134 55.5273 24.2608 55.316 24.6128 55.0488C24.9599 54.7719 25.3552 54.4245 25.6543 54.2838C25.7641 54.4856 25.8613 54.6939 25.9454 54.9077C26.3395 54.5934 27.0247 53.3171 28.0006 53.3403C28.2827 52.6737 28.7539 52.1044 29.3561 51.7027C30.2618 51.0881 30.8295 51.041 31.5381 51.0973C31.8196 50.7317 32.1665 50.4214 32.5611 50.1823C32.6783 50.2293 33.0022 50.4264 33.4059 50.2386C33.8142 50.0512 34.2739 49.3236 34.8793 49.2299C35.2055 49.185 35.5372 49.2546 35.8178 49.4269C35.8178 49.4269 37.581 47.6764 38.7976 47.0946C38.7506 46.9538 38.6568 46.4236 40.0832 45.2503C40.163 45.3208 40.1067 45.5179 40.163 45.5287C40.1862 45.5287 40.5342 45.3787 40.9747 45.0406C41.5191 44.6326 42.1712 44.2054 42.5653 44.0881C43.3077 43.8676 44.0952 44.318 44.0952 44.318C44.1622 44.271 44.2368 44.2361 44.3158 44.2147C44.5032 44.1819 44.6393 44.1584 44.7427 44.1219C44.7334 44.3659 44.8695 44.7835 44.7427 45.1448C44.8896 45.2275 45.0452 45.2935 45.2067 45.3419C45.1272 45.5154 44.9533 45.9565 44.6625 46.1678C44.9063 46.285 44.9391 46.4211 45.2865 46.539C45.1457 46.736 44.9153 47.0741 44.8126 47.2814C44.7092 47.502 44.3384 48.417 44.1741 48.764C44.0006 49.1114 43.7661 49.7496 43.6532 49.8776C43.5403 50.0057 43.1323 50.5486 42.818 50.8158C43.0964 50.7125 44.2353 50.3654 44.7185 50.234C44.5747 50.4449 43.8456 51.5267 43.1446 52.567C39.7885 54.5785 36.0422 55.8517 32.1554 56.3017C28.2686 56.7517 24.3305 56.3681 20.6035 55.1765L20.6057 55.1719Z" fill="#E0CD81"/>
<path fill-rule="evenodd" clip-rule="evenodd" d="M15.0337 24.5234C15.0337 24.5234 14.6257 24.5234 14.5459 24.5797C14.4661 24.636 14.9542 24.7535 15.1042 24.8098C15.2542 24.8661 15.5781 25.1241 15.6626 25.3307C15.7424 25.5278 18.5953 26.6772 18.5953 26.6772L20.6131 26.5739L21.3088 25.6128L19.9855 24.4538L20.9135 21.718L19.6842 21.9151L16.7279 23.6783L15.245 24.2462L15.0337 24.5234Z" fill="#DFC57C"/>
<path fill-rule="evenodd" clip-rule="evenodd" d="M19.4652 25.429C19.4943 25.4762 19.5354 25.5149 19.5843 25.5413C19.6332 25.5676 19.6881 25.5806 19.7436 25.579C20.1612 25.579 20.5457 25.6823 20.7053 25.8933C20.9729 26.2314 21.7143 27.3107 21.7143 27.3107L23.4881 27.9488L23.6025 25.8602L21.6645 24.5137L19.459 25.3254V25.4287H19.4639L19.4652 25.429Z" fill="#E5CC7C"/>
<path fill-rule="evenodd" clip-rule="evenodd" d="M19.1166 26.2034C19.1166 26.2034 19.4402 26.2269 19.8485 26.0766C20.2568 25.9263 20.9278 25.6027 21.2189 25.7295C21.6269 25.9031 21.5424 26.4475 21.9839 26.9359C22.2511 27.2363 22.7393 27.227 23.0161 27.5509C23.293 27.8748 24.2454 27.7244 24.2454 27.7244L24.6067 29.6732L23.1568 31.5317L22.6826 33.8402H20.7221L18.931 33.1297L18.0488 30.9953L18.4899 28.8368L19.1166 26.2034Z" fill="#D2C281"/>
<path fill-rule="evenodd" clip-rule="evenodd" d="M22.9088 26.2972C22.9574 26.3121 23.0079 26.3201 23.0588 26.3207C23.0025 26.3677 22.885 26.4707 22.932 26.7383C22.979 27.0058 23.129 27.3436 23.0025 27.55C23.1035 27.6604 23.1788 27.7918 23.2231 27.9348C23.3029 28.1649 23.3264 28.3759 23.847 28.409C23.7718 28.4552 23.7026 28.5104 23.6407 28.5732C23.6407 28.5732 24.002 28.8875 24.1851 29.1783C24.3725 29.1702 24.8699 29.0156 24.8699 29.0156L24.9733 29.0861L25.1938 28.9933C25.1938 28.9933 24.9875 28.9135 25.1375 28.4115C25.2783 27.9703 25.4051 27.9939 25.4159 27.9611C25.4267 27.9283 25.5192 27.4637 25.5192 27.2759C25.5895 27.0321 25.6458 26.2907 25.6458 26.2907L25.4957 24.6531L24.6512 24.1414L23.9645 23.4785L23.3168 24.6985L22.8902 25.1239L22.8574 26.1796L22.9088 26.2972Z" fill="#E2C270"/>
<path fill-rule="evenodd" clip-rule="evenodd" d="M24.9414 24.927C24.9414 24.927 25.0914 25.3538 25.148 25.6823C25.168 25.6185 25.179 25.5522 25.1808 25.4853C25.1808 25.4853 25.2981 26.133 25.3213 26.4006C25.3683 26.391 25.4141 26.3771 25.4246 26.4238C25.4351 26.4705 25.5421 26.9918 25.5174 27.2825C25.7128 26.9602 25.9832 26.6898 26.3056 26.4943C26.4933 26.3768 26.7139 26.2503 26.944 26.2407C27.3053 26.2314 27.568 26.4708 27.9998 26.4708C29.0413 26.4708 29.9848 25.7059 30.6792 25.4714C31.1906 25.2975 31.6317 25.171 31.9413 24.8892C32.0916 24.7627 32.3592 24.4812 32.603 24.0633C32.9268 23.5065 33.2646 23.0218 33.6027 22.9608C33.4498 22.9889 33.2941 22.9999 33.1387 22.9936C33.1387 22.9936 33.2421 22.8903 33.4171 22.7496C33.5922 22.6088 33.802 22.4353 34.102 22.4353C34.6372 22.4353 34.9044 22.5148 35.2048 22.5148C35.5051 22.5055 35.6787 22.4353 35.6787 22.4353C35.6787 22.4353 35.9933 22.6558 36.7016 22.6558C37.4103 22.6651 37.8842 22.726 38.2551 22.7591C38.626 22.7922 39.8692 22.6558 40.2259 22.6663C40.4584 22.6753 40.6867 22.7312 40.8971 22.8306L39.7473 19.4898L35.6171 15.8799L33.1582 17.6208L29.3757 21.403L25.7157 22.7591L24.9507 23.6179V24.927H24.9414Z" fill="#CCB360"/>
<path fill-rule="evenodd" clip-rule="evenodd" d="M33.1534 23.0122C33.1534 23.0122 33.2567 22.9092 33.43 22.7684C33.6032 22.6277 33.8151 22.4538 34.1151 22.4538C34.65 22.4538 34.9176 22.5336 35.2179 22.5336C35.5183 22.5244 35.6918 22.4538 35.6918 22.4538C35.6918 22.4538 36.0067 22.6741 36.7148 22.6741C37.4235 22.6834 37.8974 22.7443 38.2683 22.7771C38.6391 22.8099 39.8824 22.6741 40.239 22.6843C40.4715 22.693 40.6997 22.7489 40.91 22.8485L40.389 21.3421L39.784 20.1926L38.057 18.3013C38.057 18.3013 35.9844 17.0813 35.9687 17.072C35.9594 17.0628 35.2507 16.875 35.2507 16.875L33.3737 18.0106L31.6705 22.417L31.6377 23.345L32.7402 23.8659C33.017 23.4019 33.3223 23.0307 33.6085 22.9837C33.3502 23.0119 33.1531 23.0119 33.1531 23.0119L33.1534 23.0122Z" fill="#D5B457"/>
<path fill-rule="evenodd" clip-rule="evenodd" d="M33.1299 23.3269C32.9656 23.3362 32.8298 23.3034 32.7921 23.1862C32.6513 22.7921 32.5387 22.7358 32.4209 22.7358C32.303 22.7358 32.144 22.9892 32.0497 23.0124C31.9553 23.0356 31.8434 22.7216 31.8434 22.7216L31.74 22.6746C31.74 22.6746 31.1347 23.0687 30.7078 23.5333C30.2809 23.9979 29.5815 24.7864 29.2672 24.9268C28.9529 25.0673 27.8734 25.1146 27.504 25.1944C27.1347 25.2742 26.7251 25.5418 26.6688 25.6027C26.6125 25.6636 26.8334 25.7292 26.8662 25.7902C26.899 25.8465 26.5046 25.823 26.4718 25.883C26.4486 25.93 26.5646 26.1972 26.6221 26.3334C26.7228 26.2833 26.8333 26.256 26.9457 26.2535C27.307 26.2443 27.5699 26.4837 28.0014 26.4837C29.0433 26.4837 29.9864 25.7187 30.6809 25.4839C31.1925 25.3104 31.6336 25.1836 31.9433 24.9021C32.0933 24.7756 32.3609 24.4937 32.6049 24.0761C32.7831 23.79 32.957 23.5224 33.1308 23.3254L33.1299 23.3269Z" fill="#D2B257"/>
<path fill-rule="evenodd" clip-rule="evenodd" d="M18.189 46.5504C18.189 46.5504 18.0962 46.203 17.2363 45.3069C16.9922 45.0535 16.8422 44.8429 16.6779 44.6922C16.2696 44.3071 16.0302 44.2041 15.7394 43.9835C15.1013 43.5096 14.4068 43.5096 13.872 42.9278C13.3371 42.3459 12.7138 41.2342 12.2808 40.098C11.8539 38.9624 11.7363 38.6011 11.7363 38.5684C11.7363 38.5356 11.8539 38.315 12.0039 38.3478C12.1539 38.3806 12.1539 38.6714 12.1917 38.7419C12.2664 38.857 12.3512 38.9653 12.445 39.0655C12.6656 39.3191 12.9798 39.6223 13.1395 40.0745C13.1067 39.6897 12.9752 39.2628 12.9752 39.2628C12.9752 39.2628 13.8011 39.7837 14.5049 40.3278C15.2135 40.8723 15.5043 41.06 15.7113 41.4071C15.9182 41.7542 16.4057 42.6695 16.6393 42.9371C16.8728 43.2046 20.0729 44.2134 20.0729 44.2134L21.5951 45.3483L22.3508 47.0048L21.7593 47.9328L20.6238 48.1769L18.7795 47.3509L18.189 46.5501V46.5504Z" fill="#D2B159"/>
<path fill-rule="evenodd" clip-rule="evenodd" d="M14.0918 40.844C14.0918 40.844 14.4766 41.4586 15.4151 42.0405C16.2599 42.5521 17.5972 43.0167 18.7893 43.2936C19.4742 43.4579 20.1594 43.5844 20.774 43.594C22.4305 43.6172 23.5707 43.1436 24.9834 42.9886C25.7484 42.9088 26.6869 42.8479 27.6629 42.6174C28.9157 42.317 29.6571 41.9789 30.6662 41.5038C31.3981 41.166 32.0693 40.9127 32.6134 40.5888C33.3784 40.1384 33.9368 39.6364 34.5845 39.4863C34.5047 39.7069 34.4203 40.101 33.7821 40.5093C34.1199 40.4997 34.5845 40.4765 34.5845 40.4765C34.5845 40.4765 34.1341 40.7438 33.341 41.3445C32.8529 41.7157 32.2054 42.3439 31.5438 42.7615C31.1166 43.0291 30.652 43.2256 30.347 43.3858C29.6046 43.7941 29.3051 44.0004 28.8173 44.4994C28.9908 44.4901 29.0051 44.4994 29.0051 44.4994C29.0051 44.4994 28.3901 44.5792 27.9493 44.8137C27.8565 44.8137 27.6957 44.7809 27.4142 44.8607C27.1936 44.9309 26.9025 45.0908 26.6025 45.175C26.1753 45.3018 26.0348 45.2455 26.0348 45.2455L26.1051 45.3862C26.1051 45.3862 25.5483 45.3767 25.3627 45.3955C25.3955 45.4048 25.3862 45.419 25.3862 45.419C25.3536 45.4245 25.3222 45.4356 25.2934 45.4518C25.2041 45.5097 25.1058 45.5524 25.0026 45.5783C24.9463 45.5876 24.8993 45.5876 24.8288 45.6018C24.8523 45.6581 25.0354 45.973 25.1198 46.1586C25.0496 46.2057 23.9936 47.0034 23.9936 47.0034C24.0263 47.055 24.0531 47.1101 24.0734 47.1677C24.1062 47.2707 24.1204 47.421 24.1532 47.4913C24.2327 47.632 24.2797 47.6555 24.2797 47.6555C24.2797 47.6555 24.1532 47.679 23.9323 47.7353C23.7449 47.7823 23.5147 47.8618 23.1899 47.9089C23.0903 47.9218 22.99 47.9297 22.8895 47.9324C22.9366 48.0357 23.1429 48.4298 22.7627 48.8848C22.3825 49.3398 22.2653 49.406 22.1481 49.6968C22.0891 49.6522 22.0262 49.6128 21.9603 49.5793C21.8338 49.523 21.6599 49.4388 21.599 49.3259C21.5635 49.4763 21.5164 49.6238 21.4583 49.767C21.341 50.0813 21.1675 50.3913 21.1347 50.6257C21.0079 50.485 20.7734 50.2081 20.4495 50.2644C20.1257 50.3207 19.8677 50.7618 19.8114 50.8887C19.8114 50.8089 19.7551 50.7479 19.7412 50.8416C19.7316 50.945 19.5534 52.0239 18.5586 52.8969C18.5493 52.6763 18.5493 52.1882 18.5258 52.0289C18.433 52.1217 18.3195 52.2587 17.6436 52.5498C16.9819 52.8406 17.0868 53.1316 17.0868 53.1316C17.0868 53.1316 17.0305 52.6676 17.3871 52.1789C17.7484 51.6911 17.969 51.4609 17.969 51.4235C17.9632 51.3854 17.9469 51.3496 17.922 51.3202C17.8749 51.2732 17.7812 51.2169 17.7812 51.1794C17.8375 51.1562 18.3959 50.8887 18.3631 50.3346C18.3303 49.8375 18.1193 49.5793 17.969 49.3964C17.9458 49.3729 18.1898 49.1994 18.1567 49.1431C18.1332 49.1103 17.8332 48.8894 17.7954 48.7719C17.8043 48.7017 17.8201 48.6326 17.8425 48.5656C17.8753 48.4623 17.8988 48.3917 17.8895 48.3215C17.866 48.2043 17.7391 47.8804 17.7017 47.8476C17.7345 47.8569 17.969 47.8476 17.969 47.8476C17.969 47.8476 17.7815 47.5472 17.7484 47.4065C17.7153 47.2658 17.6451 46.8949 17.6077 46.8246C17.6875 46.8339 17.8845 46.8478 17.8845 46.8246C17.8941 46.7541 17.711 46.6369 17.7917 46.5462C17.848 46.5555 17.956 46.6025 18.059 46.734C18.0027 46.5837 17.909 46.2929 17.7116 46.1757C17.8044 46.1429 18.1199 46.0581 18.3968 46.2224C18.6736 46.3866 18.768 46.6165 18.768 46.6165C18.768 46.6165 18.9322 46.7433 19.1859 46.9311C19.4767 47.1609 19.8473 47.4879 20.4387 47.7192C20.5655 47.7898 20.8891 47.7898 21.1239 47.7427C21.2261 47.7184 21.3241 47.6789 21.4146 47.6255C21.4473 47.6062 21.482 47.5905 21.518 47.5785C21.4675 47.4772 21.4095 47.3799 21.3444 47.2874C21.4242 47.2874 21.518 47.297 21.518 47.297C21.518 47.297 21.5743 47.1702 21.3209 46.9258C21.3772 46.8695 21.4477 46.833 21.4477 46.738C21.3679 46.7288 21.2272 46.6115 21.1944 46.5645C21.2411 46.5317 21.3116 46.4237 21.3914 46.391C21.3209 46.3347 21.1474 46.0999 21.0676 46.0767C21.1438 46.0484 21.2176 46.0138 21.2881 45.9734C21.2881 45.9734 20.894 45.87 20.7672 45.7856C20.6404 45.6928 20.4529 45.5322 20.3403 45.4852C20.2228 45.4382 20.0165 45.415 19.932 45.321C20.0115 45.3445 20.1383 45.321 20.2324 45.321C20.3026 45.321 20.3357 45.3303 20.3589 45.3303C20.3496 45.2975 20.3496 45.2269 20.5327 45.2037C20.6208 45.1905 20.7063 45.1635 20.7861 45.1239C20.7861 45.1239 20.6122 45.1146 20.4149 44.9269C20.2175 44.7391 20.0536 44.5891 19.941 44.5656C19.8237 44.5421 19.6032 44.6454 19.4671 44.6358C19.2793 44.6126 19.1995 44.5186 19.1995 44.5186C19.1995 44.5186 18.5756 44.5749 17.1913 43.7304C15.9945 42.9982 15.4736 42.3508 15.4736 42.3508C15.3616 42.3101 15.2533 42.2598 15.15 42.2004C14.6996 41.9659 14.0754 41.4778 14.0943 40.8394L14.0918 40.844Z" fill="#C2A44D"/>
<path fill-rule="evenodd" clip-rule="evenodd" d="M31.3559 12.6792C31.4645 12.7144 31.5609 12.7795 31.6343 12.8669C31.8549 13.1203 31.9956 13.5988 31.4936 14.1104C31.6906 14.1807 31.772 14.2032 31.9439 14.1807C31.7704 14.3873 31.3763 14.8284 31.3528 15.2132C31.3293 15.5275 31.5263 15.6215 31.5263 15.6215C31.5263 15.6215 31.226 15.9686 31.2121 16.5495C31.3539 16.3896 31.5091 16.242 31.6761 16.1084C32.0234 15.8316 32.502 15.5173 32.8259 15.3202C32.8215 15.4028 32.8326 15.4855 32.8586 15.564C32.8586 15.564 33.4637 15.0666 33.9722 15.2875C34.2021 15.3908 34.0988 15.7143 34.0988 15.7143C34.0988 15.7143 34.4134 15.5971 34.6339 15.8177C34.8545 16.0382 35.1663 16.6071 35.3262 16.8276C35.3964 16.9309 35.5795 17.128 35.767 17.433C36.0231 17.86 36.2369 18.311 36.4055 18.7795C36.4147 18.5355 36.4757 18.1556 37.1704 18.3947C37.8649 18.6388 38.6531 19.1504 39.3147 20.1579C39.9764 21.1654 40.1404 22.3028 40.4735 22.7359C40.8113 23.1535 41.1587 23.848 41.1822 24.139C41.2057 24.4301 41.0789 25.3683 41.7733 27.907C41.9704 27.1188 42.2707 25.3683 42.2707 25.3683L42.435 23.8244L42.6228 19.0474L37.6344 14.9033L33.735 12.0735L31.1963 12.3176L31.3556 12.6789L31.3559 12.6792Z" fill="#CAA13E"/>
<path fill-rule="evenodd" clip-rule="evenodd" d="M40.6234 19.7882C40.6234 19.7882 40.5529 19.3242 39.3799 18.5354C38.2066 17.7565 37.2916 17.7565 36.4471 17.0949C35.7994 16.574 35.1238 15.3772 34.6839 14.9831C34.2567 14.5936 34.1865 13.4673 34.1865 13.4673L35.6271 12.2609L37.7695 9.16419L39.5807 7.16992L40.4487 8.37632L41.6551 9.79338L42.326 12.6371L42.5701 16.7995L40.6213 19.7886L40.6234 19.7882Z" fill="#B59544"/>
<path fill-rule="evenodd" clip-rule="evenodd" d="M42.0735 24.7776C42.1091 24.1464 42.0311 23.5139 41.8434 22.9102C41.5341 21.9481 40.8582 20.24 40.5442 19.6003C40.4174 18.8916 40.5114 18.8353 40.6475 18.7555C40.7836 18.6757 41.2953 18.3843 41.5755 17.362C41.8558 16.3396 42.7253 16.3062 42.7253 16.3062L43.2602 15.9121L44.0722 17.9438L44.7805 19.7788L45.0011 21.1819L45.1653 22.3784L44.7805 24.9078L42.8803 26.6252L42.0732 24.7776H42.0735Z" fill="#C89D3A"/>
<path fill-rule="evenodd" clip-rule="evenodd" d="M15.5557 52.9698V52.9179C15.5952 52.8932 15.63 52.8618 15.6587 52.8251C15.6915 52.778 15.7153 52.7217 15.7385 52.7078C15.7855 52.6843 16.0061 52.615 16.1233 52.6373C16.2405 52.6596 16.5505 52.7873 16.7147 52.778C17.0525 52.7688 17.4466 52.5105 18.0709 52.628C19.0094 52.8016 19.2299 53.4397 19.7744 53.801C20.1456 54.0547 20.5297 53.9418 20.586 53.9418H20.7126C20.7361 53.9418 20.9096 53.7447 21.0036 53.7543C21.1914 53.7636 21.21 53.9186 21.3272 53.9278C21.6041 53.9606 22.1392 53.7871 22.4068 53.8576C22.4861 53.8825 22.5583 53.9261 22.6171 53.9849C22.6759 54.0437 22.7196 54.1158 22.7446 54.1951C22.8009 54.3686 22.7539 54.5892 22.6177 54.716C22.327 54.9833 22.0501 55.2369 21.9938 55.4584C22.0654 55.513 22.1342 55.5712 22.1998 55.6329C19.878 55.0413 17.6441 54.1469 15.5557 52.9726V52.9698Z" fill="#CEB052"/>
<path fill-rule="evenodd" clip-rule="evenodd" d="M40.5439 43.5941C40.5439 43.5941 41.2758 42.6182 41.5295 42.1347C41.7828 41.6364 40.7271 35.326 40.7271 35.326L42.8482 28.3765L42.7916 26.1146C42.7916 26.1146 42.8949 24.0263 43.1389 23.1206C43.43 23.6415 44.3358 24.2704 44.5328 24.6035C44.6256 23.9651 44.9408 22.6185 44.8941 21.1826C45.0676 21.4499 45.4852 24.1389 45.4852 24.1389L45.9028 25.9501L46.4473 27.8741L47.0526 29.9061L47.4139 31.3093L47.6203 31.6471L47.7941 32.2382L47.9584 32.8767L48.4323 34.3735L48.7107 35.6028L48.9312 37.8319C48.9792 38.0025 49.0137 38.1767 49.0345 38.3528C49.0438 38.5968 49.0017 38.7376 49.0017 38.78C49.0017 38.8223 49.0815 39.3148 49.0488 39.6857C49.0017 40.0569 49.0017 40.3474 48.7107 40.6137C48.4196 40.88 48.2368 42.4719 48.2368 42.4719L47.7158 42.1248C47.7158 42.1248 47.8192 41.6506 47.5751 41.2191C47.331 40.7875 46.8571 40.6981 46.5896 40.7687C46.3223 40.825 45.7875 40.9091 45.6136 41.0594C45.4493 41.2095 45.046 41.6741 44.6751 41.8854C44.2111 42.1638 43.4551 42.1857 43.0517 42.2795C42.6434 42.3723 42.193 42.6507 41.7188 42.9739C41.347 43.2146 40.9544 43.4217 40.5458 43.5926L40.5439 43.5941Z" fill="#CCA847"/>
<path fill-rule="evenodd" clip-rule="evenodd" d="M40.5439 53.8472C40.5439 53.8472 40.5749 53.8673 40.6346 53.9001C43.9684 52.3381 46.9556 50.124 49.4196 47.3886C49.3927 46.4389 49.3578 45.4655 49.3194 45.1048C49.2399 44.3398 49.2962 43.5609 49.2727 43.1105C49.2492 42.6601 48.9959 40.8252 48.8786 40.3513C48.7518 39.8774 48.5074 39.6426 48.4703 39.6426C48.4375 39.6522 48.2402 40.5344 48.2402 40.7562C48.2402 40.978 48.1931 41.5119 48.1931 41.648C48.1603 41.6384 48.1464 41.5552 48.1464 41.5212C48.0994 41.6384 48.0431 41.845 48.0196 41.8685C47.9961 41.892 48.0524 41.6715 48.0196 41.6245C47.9868 41.5775 47.9268 41.601 47.9398 41.4837C47.9454 41.4142 47.9563 41.3452 47.9726 41.2774C47.9726 41.2774 47.8318 41.4837 47.7288 42.0093C47.6255 42.5302 47.6255 42.5444 47.5881 42.5911C47.5553 42.6477 47.3675 42.8352 47.3579 42.9057C47.3487 43.0323 47.5318 43.1591 47.5457 43.2293C47.555 43.3468 47.3814 43.891 47.3251 44.1573C47.2689 44.4236 47.2924 44.9455 47.2323 45.2131C47.1853 45.4571 47.1395 45.5979 46.979 45.7009C47.0962 45.7244 47.2088 45.7572 47.2088 45.7572C47.2088 45.7572 47.3731 46.4516 46.9555 47.0431C46.8055 47.2494 46.768 47.3434 46.6084 47.5312C46.2938 47.8783 46.0498 48.2736 46.0263 48.5307C46.01 48.4548 45.9991 48.3779 45.9935 48.3005C45.9935 48.3005 45.5057 48.8684 45.299 49.1923C45.0318 49.6099 44.6609 49.5864 44.5566 49.6897C44.4524 49.793 44.4298 49.9805 44.4638 50.1308C44.371 50.154 44.1966 50.1871 44.079 50.5484C44.0227 50.7359 43.882 50.9196 43.6614 51.0458C43.4408 51.172 43.1733 51.2101 43.0372 51.2429C43.1544 51.2757 43.2014 51.2757 43.2577 51.3131C43.1875 51.4303 42.8636 51.6135 42.5023 51.8483C42.141 52.0688 41.9672 52.3924 41.8781 52.6036C41.7853 52.8007 41.6483 52.9275 41.4277 52.951C41.5205 53.0073 41.6579 53.1385 41.7281 53.1809C41.6248 53.2044 41.4497 53.2044 41.1369 53.4719C40.8084 53.7442 40.6958 53.824 40.5455 53.8475L40.5439 53.8472Z" fill="#C39D3C"/>
<path fill-rule="evenodd" clip-rule="evenodd" d="M34.0142 56.0217C34.1939 55.8958 34.3885 55.7926 34.5936 55.7145C35.3255 55.4238 36.0998 55.3675 36.4048 55.2737C36.6959 55.1809 36.9257 55.0529 37.287 54.9827C37.2774 55.0649 37.2694 55.1423 37.2607 55.2153C36.1955 55.5502 35.1108 55.8195 34.0127 56.0217H34.0142Z" fill="#D2BA6B"/>
<path fill-rule="evenodd" clip-rule="evenodd" d="M47.5137 36.771C47.5137 36.771 47.3636 37.5826 47.0961 38.0943C46.8285 38.6059 46.5393 39.3143 46.5393 39.3143C46.541 39.1547 46.5599 38.9957 46.5956 38.8401C46.2578 39.0371 45.4365 39.5113 45.2036 39.7223C44.983 39.9193 44.6121 40.2667 44.5184 40.431C44.739 39.7836 44.9688 39.2017 45.0065 38.9341C44.6687 39.1782 43.0918 40.478 42.2708 41.3367L39.7132 43.4062C39.4181 43.5654 39.1141 43.7077 38.8028 43.8324C38.362 44.0199 37.8411 44.1795 37.4563 44.3298C37.5596 44.053 37.7236 43.8086 37.9537 43.5741C38.1978 43.3443 38.9297 42.5512 39.0423 42.1821C39.1456 41.7973 39.1691 41.5675 39.033 41.2436C38.9062 41.2764 38.6154 41.2906 38.4183 41.3469C38.2213 41.4032 38.01 41.6142 38.01 41.6142C38.01 41.6142 38.1601 40.7555 38.4839 39.9438C38.2399 39.9531 37.8223 40.0233 37.8223 40.0233C37.8223 40.0233 38.4041 39.0473 39.3999 38.3671C39.0949 38.432 38.7965 38.5246 38.5084 38.6437C37.9265 38.8877 37.2884 39.249 36.8145 39.4461C37.0817 39.0749 38.9588 36.396 40.0758 33.8994C41.1894 31.4077 41.6054 30.7696 41.8495 29.4323C41.976 28.7707 41.9423 27.7929 41.976 26.9171C42.0088 26.0488 42.1167 25.2699 42.0465 24.749C42.3373 25.1103 43.4261 26.1286 43.4636 28.4047C43.4964 30.6805 42.422 33.7543 41.2815 35.4105C41.5599 35.4903 42.2813 35.5844 43.0225 34.2969C43.7636 33.0095 43.7547 32.65 44.0222 32.1149C44.055 32.3824 44.0454 32.4762 44.0454 32.4762C44.0454 32.4762 45.125 31.1671 45.6363 29.5199C45.7396 30.2286 46.0447 30.8528 45.5658 32.1526C45.1389 33.3256 44.5806 33.612 44.5806 33.612C44.5806 33.612 44.8574 33.565 45.2654 33.321C45.336 33.4945 45.322 33.6922 45.4393 33.7621C45.5565 33.832 45.7161 33.9498 45.7396 34.0624C45.8662 33.8747 46.0632 33.6352 46.1245 33.4571C46.0774 33.8283 46.0446 35.4513 46.2173 36.2773C46.5789 36.2445 46.9494 36.221 47.2028 35.5686C47.0293 36.207 47.0293 36.5915 47.1465 37.136C47.3389 37.0048 47.5124 36.77 47.5124 36.77L47.5137 36.771Z" fill="#C0993A"/>
<path fill-rule="evenodd" clip-rule="evenodd" d="M35.3213 10.9057C35.3213 10.9057 34.96 11.0557 34.3454 11.0557C33.8106 11.0557 33.9606 10.8494 33.1254 10.8494C31.8398 10.8494 27.3489 11.5918 26.5604 11.5812C26.0488 11.572 28.2871 11.8018 28.2871 11.8018L34.0076 11.8816L35.1571 11.7888L35.5843 10.9196L35.3213 10.9057Z" fill="#A88F33"/>
<path fill-rule="evenodd" clip-rule="evenodd" d="M20.4879 22.0879C20.4879 22.0879 19.7557 22.6462 19.446 23.0734C19.1364 23.5006 18.9721 23.7818 18.6201 24.1291C18.7028 24.1323 18.7853 24.1212 18.8642 24.0964C18.8642 24.0964 18.8642 24.1892 18.8079 24.2136C18.8565 24.2082 18.9058 24.2137 18.952 24.2297C18.9983 24.2458 19.0403 24.272 19.0751 24.3064C18.9718 24.3627 18.6903 24.6445 18.9109 24.9777C19.0751 25.231 19.4225 25.2542 19.4225 25.2542C19.4225 25.2542 19.3427 25.4843 19.6759 25.4608C20.3938 25.428 21.1962 25.1134 21.5668 25.1933C21.938 25.2861 22.149 25.3201 22.4116 25.7754C22.69 26.2258 22.9325 26.2963 22.9325 26.2963C22.9325 26.2963 23.0968 25.8784 23.0594 25.2545C23.194 24.9182 23.2687 24.5609 23.2799 24.1987L23.0359 22.4015L21.9708 21.0547L20.5912 21.8197L20.4879 22.0869V22.0879Z" fill="#E3C571"/>
<path fill-rule="evenodd" clip-rule="evenodd" d="M21.7969 21.8204C21.7969 21.8204 21.9002 22.0645 22.332 22.0877C22.285 22.191 22.285 22.2052 22.2992 22.2847C22.3085 22.3645 22.3224 22.4818 22.3224 22.4818C22.37 22.4588 22.4129 22.4273 22.4493 22.389C22.4728 22.4923 22.4257 22.6562 22.4493 22.7738C22.4638 22.8453 22.4874 22.9146 22.5195 22.9801C22.5263 22.9641 22.5342 22.9485 22.543 22.9334C22.5523 22.9099 22.6358 23.1867 22.8669 23.3974C22.8667 23.365 22.8746 23.3331 22.8901 23.3046C22.8936 23.3634 22.9131 23.4202 22.9464 23.4689C22.9291 23.4606 22.9133 23.4495 22.8996 23.4361C22.8996 23.4361 22.9228 24.1785 23.0497 24.5623C23.0709 24.5375 23.0897 24.5108 23.106 24.4825C23.106 24.4593 23.0967 24.6892 23.0732 24.8537C23.0404 25.018 23.0639 25.2478 23.0639 25.2478C23.1485 25.1812 23.2415 25.126 23.3404 25.0836C23.4812 25.027 23.7116 24.8534 23.8521 24.4686C23.9336 24.2507 23.9964 24.0262 24.0399 23.7977C24.0852 23.885 24.1165 23.979 24.1327 24.0761C24.1422 24.1933 24.3628 24.1324 24.3628 24.1324L24.4098 23.6207L24.6882 22.4617L24.9416 21.7437L26.1616 19.8435L28.3659 18.1458L30.2899 18.587L31.9133 16.3814L29.1166 14.7014L26.47 14.9783L24.068 18.3051L22.1443 21.3227L21.7969 21.8201V21.8204Z" fill="#D8B65B"/>
<path fill-rule="evenodd" clip-rule="evenodd" d="M35.6583 17.006C35.6583 17.006 35.494 17.0388 35.0201 17.2844C34.5462 17.53 34.2177 17.6079 34.0346 17.9692C33.8514 18.3305 33.8375 18.617 33.8375 18.617C33.8375 18.617 34.1614 18.4762 34.3492 18.4292C34.5462 18.3825 34.7668 18.3964 34.7432 18.4762C34.7207 18.531 34.6893 18.5816 34.6504 18.6263C34.6504 18.6263 35.0216 18.617 35.0117 18.8001C35.0018 18.9832 34.9415 19.1849 34.8713 19.274C34.8008 19.3668 34.51 19.5042 34.4772 19.6121C34.3974 19.8327 34.51 19.8419 34.4676 20.0201C34.4348 20.194 34.2802 20.5318 33.7732 21.1229C33.2523 21.7143 33.0308 22.1319 33.0308 22.1319C33.0308 22.1319 32.7774 21.658 32.646 21.2497C32.5532 21.2964 32.0548 21.5733 32.0548 21.5733L30.9004 17.5519L30.9236 17.2844C30.9236 17.2844 31.0269 17.1579 31.0504 16.9231C30.8769 16.8668 30.8534 16.8198 30.6232 16.5995C30.3931 16.3793 30.2056 16.1114 29.8211 15.9283C29.7648 15.8249 29.6943 15.6845 29.4128 15.6279C29.1313 15.5713 28.9624 15.5249 28.9624 15.5249C28.9624 15.5249 29.1125 15.4683 29.183 15.351C29.0091 15.3746 28.8687 15.4308 28.4885 15.4216C28.1037 15.412 28.0613 15.3981 27.8504 15.4308C27.6394 15.4636 27.3864 15.5577 27.292 15.2338C27.1887 15.154 26.9682 15.2245 26.7804 15.5011C26.5926 15.7776 26.527 15.9985 26.1657 16.1064C26.1403 16.2657 26.0846 16.4186 26.0015 16.5568C25.8982 16.7307 25.7339 16.9042 25.5134 17.1622C25.166 17.5705 25.2223 18.2415 24.6686 18.7531C24.1102 19.2644 24.7614 17.3357 24.7614 17.3357L25.6529 15.2013L28.1916 12.7189L32.1334 12.4517L32.5182 14.4933L34.4423 15.1549L35.6576 17.0085L35.6583 17.006Z" fill="#D3AE4D"/>
<path fill-rule="evenodd" clip-rule="evenodd" d="M36.2831 17.4563L34.6266 15.0679L33.4675 14.1761C33.4675 14.1761 32.6416 12.656 32.5853 12.609C32.5383 12.5762 31.7594 12.4918 31.262 12.459L31.3548 12.6888C31.4633 12.7241 31.5598 12.7891 31.6332 12.8766C31.8537 13.1299 31.9945 13.6085 31.4924 14.1201C31.6895 14.1903 31.7708 14.2129 31.9428 14.1903C31.7693 14.397 31.3752 14.8381 31.3517 15.2229C31.3282 15.5372 31.5252 15.6309 31.5252 15.6309C31.5252 15.6309 31.2249 15.9783 31.2109 16.5589C31.3528 16.3989 31.508 16.2514 31.6749 16.1178C32.0223 15.8394 32.5009 15.5263 32.8247 15.3293C32.8203 15.412 32.8314 15.4948 32.8575 15.5734C32.8575 15.5734 33.4626 15.0759 33.9711 15.2965C34.201 15.3998 34.0976 15.7237 34.0976 15.7237C34.0976 15.7237 34.4122 15.6065 34.6328 15.827C34.8533 16.0476 35.1676 16.6152 35.3272 16.8361C35.3975 16.9394 35.5806 17.1364 35.768 17.4411C36.0242 17.8682 36.238 18.3193 36.4065 18.7879C36.4158 18.6002 36.4535 18.3376 36.7777 18.3376L36.2849 17.4553L36.2831 17.4563Z" fill="#CAA13E"/>
<path fill-rule="evenodd" clip-rule="evenodd" d="M11.4496 24.2419C11.4496 24.2419 11.3323 23.9508 11.4496 23.3832C11.5668 22.8156 11.7499 22.548 11.8109 21.7128C11.8718 20.8776 12.4162 19.8357 12.4162 19.8357L13.9224 19.1509L14.9877 19.4417L15.302 20.8683L13.9552 21.6107C13.9552 21.6107 13.8849 21.925 13.5048 22.1783C13.1246 22.4317 12.599 22.6287 12.4725 22.887C12.3969 23.0452 12.3417 23.2123 12.3083 23.3844C12.3083 23.3844 11.9235 23.3046 11.6936 23.558C11.4496 23.8162 11.4588 24.0461 11.4496 24.2431V24.2419Z" fill="#F4EFC8"/>
<path fill-rule="evenodd" clip-rule="evenodd" d="M14.4908 23.8617C14.4908 23.8617 14.364 23.9415 14.2702 24.1401C14.1774 23.99 13.9556 23.0982 13.9464 22.2958C13.9371 21.4934 13.8891 21.2945 14.0747 21.018C14.2603 20.7414 14.9882 20.45 14.8849 19.952C14.7816 19.4781 14.3497 19.2811 13.8195 19.4172C13.4483 19.51 13.1721 20.2994 12.7873 20.6935C12.4962 20.9938 12.1491 20.9468 12.0554 21.1111C11.9286 21.3316 12.0458 21.5522 12.0084 21.6929C11.9988 21.74 11.8816 21.9933 11.6703 22.2983C11.2434 22.9129 10.5208 23.7812 10.4268 24.5601C10.4595 24.119 10.4363 24.1098 10.5536 23.6216L10.4831 23.5044L10.9471 21.984L11.2474 20.7312L11.9187 18.6333L13.1009 16.489L14.2507 15.2031L15.4472 15.2829L15.588 17.0802L16.2732 20.4544L17.7137 22.2281L15.4049 23.7819L14.4899 23.8617H14.4908Z" fill="#EBCC73"/>
<path fill-rule="evenodd" clip-rule="evenodd" d="M15.209 24.4993C15.209 24.4993 15.012 24.5463 14.9415 24.5089C14.8709 24.4714 14.801 24.429 14.8242 24.382C14.8474 24.335 14.9742 24.2555 14.9742 24.2178C14.9768 24.1837 14.9661 24.1499 14.9442 24.1236C14.9223 24.0973 14.891 24.0806 14.857 24.077C14.749 24.0631 14.7163 24.1333 14.7163 24.1333C14.7163 24.1333 14.6129 24.0538 14.5288 24.0405C14.5786 24.0344 14.6287 24.0312 14.6788 24.0309C14.5492 23.9722 14.4116 23.9327 14.2705 23.9137C14.3877 23.8435 14.6179 23.6368 14.7679 23.6368C14.9179 23.6368 15.012 23.6136 14.9885 23.5338C14.965 23.454 14.8477 23.3368 14.7212 23.2898C14.7679 23.2335 14.801 23.149 14.6884 22.9186C14.5709 22.6887 14.6179 22.5338 14.6556 22.4778C14.6884 22.4072 14.8057 22.2807 14.862 22.2009C14.9183 22.1211 14.9653 22.0132 15.059 21.9569C15.106 21.9241 15.256 21.8641 15.4064 21.8068C15.5706 21.7505 15.7067 21.68 15.8005 21.7505C15.9038 21.8207 15.8568 21.9148 15.8568 21.9148C15.8568 21.9148 16.1806 21.7972 16.4714 21.9476C16.7625 22.088 17.4712 22.1774 17.4712 22.1774L17.7251 22.689L16.0452 24.1296L15.3507 24.477L15.21 24.5002L15.209 24.4993Z" fill="#E5C66B"/>
<path fill-rule="evenodd" clip-rule="evenodd" d="M17.5408 22.1443C17.5408 22.1443 17.0199 22.4917 16.9026 22.6182C16.9729 22.6278 17.0901 22.6748 17.0431 22.745C16.9868 22.8152 16.649 23.0593 16.4612 23.2895C16.2642 23.5193 16.0764 23.8104 16.0108 23.9511C15.9406 24.0776 15.4055 24.4485 15.2227 24.4952C15.6075 24.4952 16.3817 24.0213 16.6725 24.0213C16.6632 24.1621 16.7523 24.3217 16.9166 24.3356C17.0808 24.3495 17.5547 24.4389 18.1929 24.0448C18.831 23.66 18.6201 23.3736 18.8873 23.1861C19.399 22.848 19.6053 22.5477 19.8868 22.3602C20.1683 22.1728 20.314 22.1301 20.314 22.1301C20.314 22.1301 20.3233 21.9893 20.4068 22.0036C20.4296 22.0062 20.4513 22.015 20.4696 22.0291C20.4878 22.0431 20.5018 22.0619 20.5101 22.0834C20.5101 22.0834 20.9982 21.736 21.6237 21.6423C21.6091 21.6357 21.5974 21.6241 21.5909 21.6095C21.5909 21.6095 21.6376 21.586 21.6472 21.5624C21.6472 21.5624 21.68 21.5154 21.7035 21.5389C21.727 21.5624 21.7598 21.736 21.8068 21.8065C21.9101 21.7595 22.1072 21.3184 22.1072 21.3184L22.5814 19.9623V18.7234L22.2102 18.7939L19.4262 19.9762L17.7366 21.7267L17.5396 22.1443H17.5408Z" fill="#E6BD62"/>
<path fill-rule="evenodd" clip-rule="evenodd" d="M25.5551 16.0675C25.7057 16.0309 25.8501 15.9724 25.9836 15.8936C25.9273 16.044 25.9273 16.2082 25.6832 16.5649C25.4391 16.9215 25.4299 16.9732 25.2328 17.3438C25.0358 17.7286 25.0123 18.2823 24.8245 18.5261C24.9087 18.4852 24.9989 18.4583 25.0918 18.4466C25.0918 18.4466 24.9043 18.6108 24.8245 18.7844C24.7447 18.9579 24.6039 19.3192 24.2569 19.5401C23.9098 19.7609 23.4684 19.9014 22.9945 20.4223C22.5203 20.9336 22.0325 21.5813 21.7881 21.8143C21.9149 21.5937 22.0884 21.1526 22.1355 20.8618C22.1825 20.5711 22.1259 20.2234 22.2057 19.8389C22.2855 19.4544 22.2855 19.1772 22.6697 18.506C23.0539 17.8347 23.7115 15.5026 23.7115 15.5026L25.1286 15.0522L25.5558 16.0659L25.5551 16.0675Z" fill="#B6933F"/>
<path fill-rule="evenodd" clip-rule="evenodd" d="M24.5324 15.2086C24.5324 15.2086 24.1055 15.8232 23.9883 16.3677C23.871 16.9121 23.9787 16.8651 23.9085 17.1326C23.8665 17.2958 23.8665 17.4669 23.9085 17.63C24.0563 17.3919 24.2587 17.1923 24.499 17.0479C24.9026 16.8041 25.2312 16.6303 25.427 16.4239C25.624 16.2034 25.7883 15.8421 26.2152 15.5652C26.0416 15.5417 25.7976 15.4619 25.7512 15.4724C25.925 15.2754 26.4456 14.975 26.9712 14.6137C27.4921 14.2425 27.4593 14.0928 28.3041 13.7222C28.0272 13.7693 27.8958 13.6987 27.6656 13.7222C27.7584 13.5252 28.0832 13.4311 28.408 13.1076C28.7328 12.784 28.2017 12.3052 28.2017 12.3052L25.727 13.802L24.5305 15.2098L24.5324 15.2086Z" fill="#C49937"/>
<path fill-rule="evenodd" clip-rule="evenodd" d="M17.8174 14.0916L17.8737 13.6413L18.5824 12.5057L19.3238 10.5114V7.78496L19.2675 6.20829L19.3848 5.17573L19.4739 4.84753L19.5679 4.7207L20.173 5.03499L21.0085 6.17055L21.0883 8.36217L20.2763 11.8205L17.9581 14.3499L17.8174 14.0916Z" fill="#DFC068"/>
<path fill-rule="evenodd" clip-rule="evenodd" d="M19.662 4.59391C19.662 4.59391 19.2908 4.6035 19.2116 6.14738C19.1324 7.69126 19.094 8.50295 19.0377 9.26793C18.9814 10.0329 18.8503 10.4972 18.7844 10.9479C18.7185 11.3986 18.6811 12.013 18.4701 12.3885C18.3773 12.562 18.179 13.1064 17.7144 13.5148C17.1935 13.9652 16.4152 14.2798 16.2974 14.3033C16.0907 14.35 15.0443 14.4533 14.6174 14.6881C14.4673 14.7679 14.2091 14.8616 13.9229 15.1292C13.355 15.6405 12.5996 16.5555 12.0552 17.6583C11.22 19.3055 10.3848 23.9557 10.3848 23.9557L10.5725 23.6414C10.5725 23.6414 10.596 23.2238 11.0136 22.4916C11.422 21.7597 11.3047 20.9385 11.8723 19.5353C12.0929 19.0005 12.3698 18.306 12.7075 17.7146C13.2427 16.7526 13.8901 15.9266 14.5425 15.4763C15.6075 14.7444 16.7809 14.5848 16.7809 14.5848L18.0432 13.7496C18.0432 13.7496 18.2638 13.3227 18.5549 12.8345C18.9629 12.1497 19.4829 11.3847 19.5964 10.2726C19.7702 8.62545 19.3523 7.54618 19.3758 6.57024C19.3994 5.59429 19.4086 4.87633 19.606 4.70248C19.8033 4.52864 19.6623 4.59452 19.6623 4.59452L19.662 4.59391Z" fill="#A88F33"/>
<path fill-rule="evenodd" clip-rule="evenodd" d="M19.6622 11.9613C19.6622 11.9613 20.219 10.591 20.4739 9.37563C20.5209 9.13156 20.6147 8.88781 20.6382 8.69076C20.7554 7.54097 20.7882 7.06707 20.6382 6.4382C20.5209 5.9742 20.0706 5.55598 19.8358 5.2318C19.6059 4.8937 19.498 4.7678 19.545 4.69665C19.592 4.62551 19.7748 4.5092 19.953 4.52312C20.1424 4.52863 20.3287 4.57261 20.5006 4.65237C20.6724 4.73214 20.8263 4.84603 20.9528 4.98712C21.3141 5.40472 21.6002 6.82208 21.6002 6.82208L21.9012 8.69231L22.6662 11.0479L19.6629 11.9632L19.6622 11.9613Z" fill="#C99E3D"/>
<path fill-rule="evenodd" clip-rule="evenodd" d="M24.8941 10.5349C24.8941 10.5349 24.7908 10.5816 24.6033 10.5349C24.6113 10.6115 24.598 10.6889 24.5649 10.7584C24.5317 10.8279 24.4801 10.887 24.4155 10.929C24.2185 10.8492 22.3739 11.0088 22.3739 11.0088C22.3739 11.0088 21.5152 10.8585 21.2477 9.72293C21.0602 8.96723 21.3884 7.9257 21.2804 7.24053C21.1162 6.23148 20.8863 6.03413 20.8628 5.72016C20.8393 5.40618 20.8158 5.32606 20.8158 5.12902C20.7125 5.10551 20.6516 5.07272 20.5486 5.07272C20.525 4.97992 20.5718 4.89888 20.4688 4.73462C20.525 4.75813 20.9099 4.80515 21.3602 5.23203C21.7314 5.57941 21.7314 5.70593 21.7874 5.77645C21.8577 5.84667 22.4256 6.33325 22.6697 6.81829C22.9137 7.30332 23.3876 8.84999 23.4956 9.10333C23.5284 9.20665 23.5989 9.30997 23.774 9.54444C24.0462 9.88254 24.4449 10.4415 24.8953 10.5343L24.8941 10.5349Z" fill="#B58634"/>
<path fill-rule="evenodd" clip-rule="evenodd" d="M21.8535 5.80005C22.1378 6.25926 22.3932 6.73573 22.6182 7.22669C22.895 7.85062 23.0593 8.36226 23.4067 8.77986C23.2189 8.23574 22.8858 7.16576 22.6887 6.78558C22.4682 6.38345 22.0178 5.95038 21.8535 5.80036V5.80005Z" fill="#A88F33"/>
<path fill-rule="evenodd" clip-rule="evenodd" d="M18.6627 13.5147C18.6627 13.5147 18.1888 13.632 17.3066 14.0966C17.0155 14.2466 16.739 14.3731 16.4714 14.4907C15.7763 14.8049 15.0308 15.0954 14.4394 15.2556C14.4864 15.3119 14.5096 15.3351 14.5096 15.3351C14.5096 15.3351 14.5096 15.5653 14.6364 15.6964C14.5662 15.767 13.6274 16.4051 13.9045 18.5401C14.092 18.4699 14.3126 18.3759 14.3453 18.3759C14.402 18.3855 14.4159 18.5401 14.4861 18.5401C14.5563 18.5401 14.7865 18.4473 15.0305 18.1318C15.0212 18.2586 14.8805 19.535 15.6359 20.3937C15.7766 20.2294 16.1333 19.685 16.1333 19.685L16.1426 19.5114C16.1426 19.5114 16.1754 18.9061 16.3727 18.3524C16.5701 17.7987 16.9546 17.3904 16.9546 17.3904L18.9625 14.5231L18.6621 13.5144L18.6627 13.5147Z" fill="#E6C367"/>
<path fill-rule="evenodd" clip-rule="evenodd" d="M16.7855 17.7248C16.6936 17.7898 16.5923 17.8403 16.4851 17.8748C16.4523 17.7576 16.4053 17.3539 16.6822 16.9598C17.0061 16.4856 17.7144 15.871 17.9115 15.3822C18.0383 15.0676 17.982 14.2794 19.1083 13.2704C20.2346 12.2613 20.6754 11.9143 20.6754 11.9143L22.4961 10.9993L24.7344 11.8815L23.6224 16.24L22.759 18.2816L19.3254 17.6342L16.7852 17.7248H16.7855Z" fill="#DCBA5A"/>
<path fill-rule="evenodd" clip-rule="evenodd" d="M18.0957 16.5412L18.5229 16.0064V15.6262C18.5229 15.6262 18.9968 15.4994 19.5081 14.9785C20.0194 14.4575 20.7281 13.4581 21.3524 13.519C21.9766 13.5895 22.0375 14.8751 22.061 15.2367C22.0846 15.5984 22.1644 16.419 22.2909 16.8604C22.4316 17.3015 20.7705 18.9719 20.7705 18.9719L19.6424 19.8307L18.0957 16.5412Z" fill="#E9CE77"/>
<path fill-rule="evenodd" clip-rule="evenodd" d="M19.418 20.9944C19.418 20.9944 19.7654 20.45 19.5108 20.3328C19.6608 19.995 19.9377 19.6383 19.9377 19.6383C19.9377 19.6383 20.1347 19.1505 20.7729 18.5498C21.411 17.9491 21.8054 17.55 21.9087 17.1466C21.9724 16.8838 22.0071 16.6147 22.012 16.3442C22.081 16.4006 22.1548 16.4508 22.2326 16.4943C22.3359 16.5413 22.8237 16.9447 22.7535 17.7567C22.6833 18.5687 22.3823 18.9064 22.3823 18.9064C22.3823 18.9064 22.0915 19.1972 21.8852 19.3476C21.6643 19.4976 21.5848 19.6711 21.214 19.6853C21.2521 19.655 21.2949 19.6312 21.3408 19.6148C21.3408 19.6148 20.956 19.5681 20.7493 19.7556C20.5427 19.943 20.1035 20.5205 19.8829 20.6944C19.6623 20.8351 19.4189 20.9948 19.4189 20.9948L19.418 20.9944Z" fill="#CDAE50"/>
<path fill-rule="evenodd" clip-rule="evenodd" d="M35.0206 11.8672C34.4662 11.6651 33.8836 11.5512 33.2939 11.5294C32.3084 11.4966 30.8678 11.5529 29.4554 11.5622C27.935 11.5715 26.5554 11.0413 24.6409 10.9475C24.3266 10.7598 23.5273 9.9385 21.0322 11.6794C21.1823 11.6701 22.8437 11.2946 23.4206 12.0175C24.0024 12.7355 23.8382 13.9555 23.7587 14.2463C23.6084 14.894 23.1202 15.8372 22.9235 16.4988C22.7268 17.1605 22.7732 17.5082 22.6324 17.9722C22.4917 18.4362 22.182 18.6667 22.3648 19.2015C22.6089 19.0515 22.736 19.0515 23.1437 18.1365C23.5514 17.2214 23.4676 16.5691 24.1435 15.7948C24.8052 15.0159 25.9067 13.9506 26.3255 13.683C26.7444 13.4154 30.07 11.6887 33.5522 13.3359C34.392 13.2468 35.0209 11.8669 35.0209 11.8669L35.0206 11.8672Z" fill="#D2A83E"/>
<path fill-rule="evenodd" clip-rule="evenodd" d="M22.4353 11.2289C22.4318 11.1936 22.4241 11.1589 22.4121 11.1255C22.3795 11.0569 22.3368 10.9936 22.2853 10.9378C22.2853 10.9378 21.4593 10.7877 21.0417 10.8345C20.3096 10.9143 19.6479 11.82 19.3382 12.2846C19.0286 12.7492 18.6438 13.4669 18.2262 13.8378C18.2308 13.8016 18.2224 13.7651 18.2027 13.7345C18.2027 13.7345 18.2262 13.7672 18.1795 13.8143C18.1328 13.8613 18.1325 13.8845 18.156 13.9071L18.2265 13.9773C18.2497 13.9773 18.8974 13.6862 19.7797 12.8637C20.7182 12.005 21.4361 11.5645 21.8117 11.4135C22.0119 11.3284 22.2213 11.2665 22.4356 11.2289H22.4353Z" fill="#C29637"/>
<path fill-rule="evenodd" clip-rule="evenodd" d="M38.4556 7.70044C38.4556 7.70044 38.3052 7.8879 38.1175 8.09453C37.6999 8.53564 37.1554 9.03274 36.6908 9.54438C36.25 10.0325 35.7526 10.4127 35.194 11.0508C34.6353 11.689 33.9876 12.3974 33.8236 12.604C33.6736 12.8106 33.5564 13.1484 33.5564 13.322C33.4765 13.2657 33.3828 13.2047 33.3828 13.2047C33.4223 13.2784 33.4695 13.3477 33.5236 13.4114C33.6408 13.5756 33.8236 13.7826 33.9177 13.9088C34.033 14.0694 34.1158 14.2511 34.1614 14.4436C34.2177 14.4529 34.579 14.5234 35.0297 13.7819C35.4804 13.0405 36.0712 12.2288 36.0712 12.2288L37.0097 10.8349L37.6012 9.65264L38.3436 8.32931L38.4565 7.70044H38.4556Z" fill="#AC8132"/>
<path fill-rule="evenodd" clip-rule="evenodd" d="M39.4176 6.75269C39.4176 6.75269 38.8497 7.21669 38.6291 7.49509C38.4086 7.77349 37.8867 8.50413 37.8867 8.50413L38.0745 8.48062L39.0272 7.63614L39.3984 6.97448L39.4173 6.75392L39.4176 6.75269Z" fill="#A88F33"/>
<path fill-rule="evenodd" clip-rule="evenodd" d="M39.2437 44.0445C39.2437 44.0445 39.2344 43.6596 39.4503 43.4298C39.6709 43.1997 40.2292 42.8619 40.7736 41.5948C41.3181 40.3278 41.3787 40.0417 41.3787 40.0417C41.3787 40.0417 40.4028 40.8769 39.8011 41.0739C39.9419 40.7828 40.0217 40.5765 40.0922 40.4262C40.0124 40.356 39.6746 40.2762 39.6418 40.2387C39.8293 40.051 39.9326 39.591 40.3127 39.286C40.8009 38.9148 41.6924 38.2769 42.3853 37.7084C43.0782 37.1398 44.4405 35.8174 44.6143 35.4326C44.7177 35.5826 44.7408 35.6764 44.7408 35.6764C44.7408 35.6764 44.056 36.5682 43.6993 37.1358C43.3847 37.6239 43.4082 37.9008 43.4082 37.9008L44.056 37.6224C44.056 37.6224 44.2434 38.3168 43.3943 39.3729C43.7655 39.2322 43.9152 39.3166 44.1262 39.1991C43.7788 39.4199 43.3003 39.7203 42.8499 40.5459C42.4088 41.3718 41.8081 42.3338 40.7947 42.9343C39.8091 43.5678 39.2412 44.0417 39.2412 44.0417L39.2437 44.0445Z" fill="#A67A2E"/>
<path fill-rule="evenodd" clip-rule="evenodd" d="M36.7005 12.3557C36.7005 12.3557 36.3157 13.1578 36.2594 13.7821C36.2501 13.9324 36.2124 14.0496 36.2124 14.2232C36.2031 14.7815 36.2452 15.4057 36.1196 15.6965C36.0726 15.5793 36.0491 15.4995 36.002 15.4528C35.9318 15.6498 35.805 16.2644 35.7017 16.4943C35.655 16.3443 35.5517 15.8233 35.5612 15.2087C35.5708 14.5941 35.5844 14.4765 35.5844 14.35C35.5612 14.5374 35.4344 14.7911 35.3874 14.9411C35.3172 14.8146 35.2374 14.6503 35.1433 14.5142C35.087 14.607 35.0168 14.7441 34.9559 14.8146C34.9463 14.7583 34.9231 14.608 34.9089 14.397C34.8996 14.1529 34.8854 13.8387 34.8996 13.7728C34.9228 13.6463 35.1201 13.1488 35.5377 12.6935C36.0351 12.1491 36.5468 11.1029 36.6968 10.779C36.8468 10.4552 37.485 9.10864 37.485 9.10864H37.9731L37.2644 10.7227C37.2644 10.7227 36.8376 11.605 36.617 11.9291C36.3964 12.2533 35.9318 13.1823 35.7252 13.5436C35.8752 13.3465 36.002 13.2432 36.1524 13.0554C36.2978 12.924 36.7011 12.3563 36.7011 12.3563L36.7005 12.3557Z" fill="#8C6228"/>
<path fill-rule="evenodd" clip-rule="evenodd" d="M39.4271 6.69141C39.3474 6.93681 39.2214 7.16467 39.0559 7.36266C38.7648 7.71004 38.1406 8.17435 37.8359 8.54493C37.5575 8.90623 37.0007 9.89177 37.2537 11.0601C37.3465 10.8068 37.5213 10.3047 37.9859 9.73679C38.4505 9.16886 38.948 8.51678 39.1923 8.01009C39.4361 7.49846 39.4689 7.09509 39.4689 7.09509L39.5617 6.97785L39.5054 6.71028L39.4256 6.69141H39.4271Z" fill="#CBA94C"/>
<path fill-rule="evenodd" clip-rule="evenodd" d="M48.929 37.8173C48.929 37.8173 48.7412 37.3059 48.6849 36.8413C48.6286 36.3767 48.7777 36.2845 48.6051 35.7528C48.5018 35.4289 48.3144 35.4744 48.2673 35.4289C48.2203 35.3834 48.1875 34.8941 48.1968 34.6265C48.2061 34.3589 48.1875 34.0118 48.1405 33.8615C48.0703 33.8052 48.0233 33.7582 47.92 33.4111C47.8027 33.0637 47.7464 32.8902 47.6901 32.7872C47.6338 32.6842 47.4693 32.5901 47.4693 32.4868C47.4693 32.2802 47.657 32.1725 47.657 32.1156C47.6477 31.9984 47.507 32.0924 47.4693 32.0593C47.4225 32.003 47.5868 31.6652 47.5259 31.6182C47.5024 31.595 47.3381 31.7921 47.2957 31.7358C47.2487 31.6791 47.1924 31.1208 47.108 30.7502C47.0285 30.3889 46.9437 30.1263 46.9344 30.0183C46.9251 29.915 46.2867 28.0943 46.132 27.6532C46.0074 27.2804 45.9025 26.9014 45.8177 26.5176C45.7707 26.2971 45.7379 25.8464 45.7144 25.8934C45.6909 25.9404 45.7051 26.1702 45.6674 26.161C45.6346 26.1514 45.5174 25.3493 45.4799 25.2224C45.4471 25.0956 45.2498 24.6656 45.2015 24.3544C45.1545 24.0399 45.0515 23.2186 44.981 22.6602C44.9105 22.1019 44.8777 21.872 44.8777 21.7322C44.8892 21.3902 44.8704 21.0479 44.8214 20.7093C44.7286 20.1178 44.543 19.3999 44.3803 18.9826C44.066 18.1941 43.2305 16.1763 43.0811 15.6742C43.0811 15.5474 43.2453 15.6179 43.2453 15.6179C43.2453 15.6179 43.6533 16.6409 43.9537 17.4291C44.2448 18.2176 44.5216 18.912 44.5921 18.9826C44.6484 19.0528 45.0896 19.827 45.2866 21.0941C45.4836 22.3611 45.5539 23.5295 45.6714 24.3084C45.7277 24.6796 45.7747 25.0733 45.892 25.4674C46.0185 25.8946 46.2155 26.3357 46.4738 27.0113C46.6944 27.5792 46.8586 28.0531 46.9477 28.4615C47.051 28.9824 47.051 29.3765 47.112 29.6348C47.1686 29.8553 47.2527 30.2961 47.4501 30.934C47.6474 31.5718 47.9379 32.3934 48.1349 32.9047C48.5201 33.9277 48.6917 34.7818 48.7499 35.2371C48.8012 35.7064 48.9751 37.3301 48.9281 37.8179L48.929 37.8173Z" fill="#A88F33"/>
<path fill-rule="evenodd" clip-rule="evenodd" d="M39.4509 6.63527L39.4273 6.69157C39.4273 6.69157 39.4976 6.71508 39.4836 6.80911C39.4846 6.93777 39.4768 7.06634 39.4601 7.19392C39.4369 7.35818 39.3899 7.4847 39.3806 7.58801C39.3806 7.80857 39.4134 8.06191 39.1022 8.69079C39.0094 8.86432 38.9522 9.01435 38.9052 9.11767C38.788 9.37101 38.7645 9.40875 38.6611 9.52599C38.8254 9.43319 39.4168 9.06199 39.7169 9.11767C39.5106 9.2349 39.196 9.46505 38.9989 9.76541C39.0459 9.77469 39.243 9.81243 39.5557 9.76541C40.0766 9.6856 40.6585 9.49784 41.1698 9.53527C41.7285 9.56806 41.5079 8.86432 41.5079 8.86432L40.8633 7.44727L39.6433 6.58887L39.4509 6.63558V6.63527Z" fill="#BE9C44"/>
<path fill-rule="evenodd" clip-rule="evenodd" d="M42.6319 17.2499C42.6319 17.2499 42.0875 16.7055 41.8669 14.8371C41.6464 12.9601 41.6934 10.1971 41.6934 10.1971L41.2523 9.11785C41.2523 9.11785 41.1595 8.39988 40.9284 8.13262C40.6974 7.86536 40.2436 7.41466 40.0369 7.1941C39.8303 6.97355 39.5958 6.67319 39.4551 6.62617C39.5253 6.50893 39.8399 5.84727 41.0457 5.83799C42.2515 5.82871 42.6233 6.49965 42.7492 6.74371C42.8751 6.98778 43.4436 8.04291 43.6546 10.0536C43.8516 12.0618 43.8612 12.2121 43.8284 12.9066C43.8049 13.2914 43.6781 14.1829 43.4572 15.1353C43.2555 15.9427 43.035 16.8438 42.6313 17.2518L42.6319 17.2499Z" fill="#A17C34"/>
<path fill-rule="evenodd" clip-rule="evenodd" d="M40.9248 18.8501C41.1063 18.8632 41.2875 18.8223 41.4458 18.7326C41.6193 18.7233 42.2482 18.8031 42.7314 18.1885C42.7641 18.3289 42.8489 18.7094 42.628 19.0472C42.7456 18.9296 42.9191 18.8829 42.9426 18.8501C42.9519 19.0237 43.1162 19.5585 42.4217 20.8583C42.6092 20.652 42.8297 20.6613 43.0268 20.6378C43.0364 20.8818 43.1675 21.7028 42.8204 22.1442C42.5906 22.4446 42.2151 22.3506 42.2151 22.3506C42.2206 22.285 42.2206 22.2191 42.2151 22.1535C42.2058 22.0267 42.1588 21.9002 42.1919 21.8157C42.0104 21.7328 41.8451 21.6184 41.7037 21.4776C41.2954 21.0928 40.7652 20.4361 40.7278 19.948C40.6808 19.4035 41.1689 19.2863 41.1689 19.2863C41.128 19.2497 41.0932 19.2069 41.0656 19.1595C41.0421 19.08 41.0186 18.9531 40.9248 18.8501Z" fill="#8C6228"/>
<path fill-rule="evenodd" clip-rule="evenodd" d="M37.3053 12.9469C37.3053 12.9469 37.2818 12.9141 37.1553 13.0641C37.1788 12.9141 37.2023 12.773 37.2116 12.6369C37.2715 12.5109 37.3489 12.394 37.4417 12.2898C37.3712 12.4303 37.3242 12.5571 37.3242 12.5571C37.3242 12.5571 37.498 12.2332 37.7514 12.0362C37.9249 11.8954 38.1454 11.8299 38.2392 11.6984C38.3425 11.5576 38.319 11.5341 38.3425 11.5106C38.3425 11.5106 38.5726 11.3606 38.9247 10.9192C38.9714 10.8629 39.0419 10.8019 39.0889 10.7456C39.1684 10.7129 39.3562 10.6284 39.5767 10.5155C39.8069 10.389 40.0649 10.2155 40.2245 10.1443C40.5388 10.0036 40.8722 10.0178 41.0269 9.79692C41.1441 9.76413 41.2706 9.41211 41.2474 9.11206C41.421 9.18228 42.3125 9.73599 42.6178 10.9467C42.8383 11.8054 42.4439 13.1288 42.2797 13.7672C42.1154 14.4057 42.0922 14.8793 41.8621 15.17C41.571 15.5552 40.6328 16.098 40.4027 16.3669C40.2056 16.5874 39.6145 17.1458 39.6377 17.5491C39.6612 17.8495 40.0318 18.0131 40.1119 18.07C40.192 18.127 40.1914 18.1969 40.3417 18.1628C40.4921 18.1288 40.548 18.0595 40.6093 18.0595C40.6795 18.0688 40.6795 18.083 40.7123 18.083C40.7361 18.0823 40.7597 18.0791 40.7828 18.0734C40.7828 18.0734 40.7593 18.5006 39.7599 18.6302C39.6893 18.6398 39.6191 18.663 39.5297 18.6773C39.6473 18.621 39.7175 18.621 39.8443 18.4474C39.7036 18.4239 39.2999 18.4004 39.1966 18.3676C39.2294 18.3113 39.3373 18.161 39.4264 18.0908C39.5062 18.0206 39.4171 17.998 39.3469 18.0345C39.226 18.1167 39.11 18.206 38.9995 18.3017C38.8823 18.4051 38.779 18.5458 38.5912 18.6729C38.5349 18.4852 38.5442 18.1285 38.765 17.8705C38.7084 17.8798 38.6005 18.0441 38.4975 18.0113C38.4788 17.8401 38.4899 17.667 38.5303 17.4996C38.5866 17.2884 38.8916 16.9178 38.8916 16.9178L40.3649 14.285L40.6792 12.2908L37.3053 12.9462V12.9469Z" fill="#92723A"/>
<path fill-rule="evenodd" clip-rule="evenodd" d="M37.2264 13.0593C37.2264 13.0593 37.1465 13.1156 37.3062 13.2236C37.2827 13.2564 37.2264 13.3736 37.1558 13.4534C37.0763 13.5462 36.9916 13.6038 36.9588 13.6836C36.8886 13.8478 36.8323 13.9604 36.8323 14.0309C36.8323 14.1015 36.8088 14.5519 36.6117 14.8426C36.5412 14.9459 36.4614 15.1195 36.4051 15.2367C36.2878 15.443 36.1845 15.6079 36.161 15.7007C36.1143 15.865 36.0815 16.3154 36.0815 16.3154C36.0815 16.3154 36.1848 16.1885 36.2223 16.1418C36.1656 16.2591 36.1047 16.3856 36.0156 16.4796C36.0719 16.4326 36.2362 16.3154 36.513 16.0713C36.8978 15.7477 37.4986 15.2033 38.2308 14.7721C38.0099 14.8519 37.8224 14.8519 37.6724 14.8754C37.7896 14.7582 38.8454 13.5193 39.3991 13.4021C39.4327 13.3594 39.4495 13.3059 39.4461 13.2517L38.9719 13.205L38.0099 13.4113L37.8695 12.6689L37.2264 13.0584V13.0593Z" fill="#B18E3E"/>
<path fill-rule="evenodd" clip-rule="evenodd" d="M38.7562 17.2829C38.7562 17.2829 38.6294 17.4094 38.5121 17.724C38.4219 17.6297 38.3445 17.5239 38.282 17.4094C38.1084 17.1186 37.8412 16.7477 37.2169 16.959C37.2077 16.7619 37.1934 16.6586 37.2169 16.5179C37.3203 16.4947 37.6345 16.2413 37.9488 15.8704C38.1697 15.6171 38.376 15.326 38.5168 14.9554C38.6096 14.8849 38.7701 14.7677 38.9808 14.6316C39.2811 14.4252 39.6424 14.1434 39.6987 13.8292C39.558 13.8855 39.2576 14.0262 38.8069 14.003C38.9808 13.9232 39.248 13.8387 39.2152 13.4914C39.2858 13.4443 39.3421 13.4116 39.3421 13.4116C39.2892 13.3939 39.2335 13.3859 39.1778 13.388C39.1682 13.3553 39.1543 13.3085 39.0745 13.3317C38.9947 13.3549 38.9817 13.3553 38.9712 13.388C38.9384 13.3976 38.8304 13.388 38.7506 13.4447C38.6708 13.5013 38.4503 13.6884 38.3658 13.7212C38.3986 13.6649 38.4453 13.5808 38.4453 13.5808C38.4453 13.5808 38.2155 13.604 38.0512 13.6736C37.7508 13.7769 37.4038 13.9646 37.0518 14.1475C37.0845 14.0912 37.0988 14.0547 37.122 14.0441C37.1452 14.0336 37.2018 14.0209 37.2018 14.0114C37.2018 14.0018 37.1786 13.9186 37.1925 13.8848C37.2977 13.6619 37.4219 13.4484 37.5637 13.2467C37.728 13.0258 37.7607 12.7115 37.7607 12.7115L38.4787 12.3502L40.4965 11.8862L41.8059 11.966L41.6416 12.8718L40.8683 14.4531L40.2066 15.8936L39.4509 16.7762L38.7565 17.2829H38.7562Z" fill="#543E26"/>
<path fill-rule="evenodd" clip-rule="evenodd" d="M42.027 13.3633C42.027 13.3633 41.2385 14.3392 41.0179 14.4895C41.1587 14.1892 42.027 12.4012 42.3412 11.9038C42.271 11.8475 42.177 11.8475 42.3975 10.9758C42.2101 11.4166 42.1442 11.6468 41.9895 11.764C41.8349 11.8812 41.8157 11.8438 41.7111 11.8438C41.7309 11.8081 41.739 11.7671 41.7343 11.7266C41.7343 11.7266 41.0727 11.6468 40.6207 11.6468C40.1688 11.6468 39.2742 11.8908 38.7765 12.0879C38.3824 12.2521 38.1618 12.2521 38.0211 12.3551C37.8803 12.4724 37.8005 12.5992 37.73 12.632C37.6737 12.6648 37.4064 12.7492 37.3452 12.8383C37.2889 12.9311 37.1952 13.0354 37.1952 13.0589C37.1952 13.0824 37.1717 13.1155 37.2422 13.0917C37.2654 13.0824 37.4392 12.9884 37.6363 12.8711C37.9035 12.7211 38.2274 12.5476 38.4622 12.4442C39.1331 12.1767 39.3444 12.2237 39.6445 12.1674C39.9588 12.1111 40.4095 11.9796 40.7095 11.9796C41.0099 11.9703 41.5778 11.9796 41.7093 12.0031C41.653 12.0501 41.606 12.1064 41.6295 12.3035C41.6295 12.3598 41.5824 12.4207 41.5367 12.5568C41.3962 12.9416 41.1287 13.5798 40.9799 13.9037C40.7735 14.3445 40.5391 14.7154 40.4231 14.9452C40.3071 15.175 40.0519 15.7804 39.7991 16.1043C39.5464 16.4281 39.4143 16.6252 39.3351 16.6957C39.2559 16.7662 38.6874 17.1835 38.7298 17.3339C38.8331 17.3011 39.4855 17.0555 39.9591 16.5222C40.4327 15.9889 40.527 15.6635 40.8976 15.3724C41.2682 15.0813 41.5592 14.5935 41.7328 14.1901C41.8782 13.8146 41.8454 13.6973 42.0282 13.3642L42.027 13.3633Z" fill="#806031"/>
<path fill-rule="evenodd" clip-rule="evenodd" d="M25.0345 20.6475C25.0345 20.6475 24.9312 21.0744 24.6964 21.2857C24.4666 21.4923 24.0583 21.6705 24.0116 22.0178C23.9553 22.3649 24.4199 22.5388 24.4199 22.5388C24.4199 22.5388 24.1662 22.9564 24.1662 23.2706C24.1662 23.5945 24.157 23.6555 24.1897 23.9651C24.1525 23.989 24.1209 24.0207 24.0969 24.0579C24.0969 24.0579 24.1201 24.3583 24.3503 24.5457C24.5804 24.7332 24.7772 24.8461 24.8944 24.7991C24.9123 24.8373 24.928 24.8766 24.9414 24.9166C24.9414 24.9166 25.1153 24.4755 25.2325 24.0907C25.3497 23.6966 25.4531 23.7526 25.4998 23.2224C25.5465 22.6922 26.0566 21.7818 26.0566 21.7818L26.4046 21.0039L25.8369 20.5627L25.0345 20.6472V20.6475Z" fill="#B6903C"/>
<path fill-rule="evenodd" clip-rule="evenodd" d="M26.091 21.4121C25.974 21.5323 25.8659 21.6609 25.7678 21.7969C25.6178 22.0036 25.5005 22.191 25.28 22.2711C25.0594 22.3512 24.9187 22.3506 24.9326 22.5715C24.9465 22.7924 25.1531 22.8858 25.2704 22.9984C25.3972 23.1156 25.5005 23.3127 25.4442 23.5335C25.5144 23.5007 25.6413 23.463 25.7585 23.2096C25.8757 22.9563 26.6958 21.4124 26.6958 21.4124H26.091V21.4121Z" fill="#685026"/>
<path fill-rule="evenodd" clip-rule="evenodd" d="M29.3253 17.8504C29.3253 17.8504 29.3955 17.6629 29.3253 17.5268C29.2547 17.3861 28.8279 17.3391 28.6166 17.1795C28.396 17.0152 28.1284 16.9011 27.9079 16.9731C27.9407 16.8933 28.0721 16.7195 27.9642 16.6821C27.8609 16.6493 27.4764 16.8228 27.3731 16.9026C27.2697 16.9824 27.035 17.0761 26.9882 17.1328C26.9415 17.1894 26.8614 17.297 26.8144 17.25C26.7674 17.2172 26.7442 17.1328 26.6644 17.1795C26.5846 17.2262 26.2004 17.5408 26.1295 17.7239C26.0587 17.907 25.8994 18.3153 25.4209 18.7796C24.9423 19.244 24.7357 19.5446 24.8764 19.7182C25.0172 19.8917 25.0831 19.7652 25.1066 19.9152C25.1247 20.0625 25.1167 20.2118 25.0831 20.3563C25.0268 20.6004 24.933 20.8302 25.0596 20.8772C25.3834 20.9805 25.698 20.7844 25.7682 20.8444C25.909 20.971 25.6884 21.4263 26.0216 21.5154C26.3597 21.6082 26.6928 21.4356 26.6928 21.4356L27.9221 20.7739L29.1047 20.15L29.7098 18.9532L29.3853 17.9537L29.3234 17.8504H29.3253Z" fill="#D4B968"/>
<path fill-rule="evenodd" clip-rule="evenodd" d="M28.1653 20.7084C28.1653 20.7084 27.9586 20.3941 28.2123 20.1169C28.466 19.8398 28.8269 19.7228 28.9677 19.5493C28.9409 19.5163 28.905 19.4918 28.8644 19.4791C28.9578 19.3119 29.1003 19.1775 29.2727 19.094C29.2025 19.0238 29.1084 18.9675 29.0054 18.9675C28.7753 18.9675 28.6342 19.1082 28.4233 19.1082C28.2169 19.1082 28.1934 19.0049 28.1934 19.0049C28.1934 19.0049 28.5408 18.9721 28.5077 18.8171C28.4749 18.6529 28.4149 18.6529 28.4149 18.6529C28.4149 18.6529 29.0859 18.3745 29.2031 18.226C29.3203 18.0775 29.3064 17.9021 29.3299 17.8319C29.4094 17.8319 29.874 17.5878 30.0618 17.6911C30.2496 17.7945 30.1181 18.076 30.1181 18.076C30.1181 18.076 30.6863 17.6488 30.9759 17.2299C31.2292 17.2534 31.3471 17.0564 31.5327 17.0564C31.7628 17.0564 32.1241 17.3707 32.1943 18.0416C32.2414 18.4264 32.3116 18.647 32.2414 19.3275C32.2086 19.7123 32.2179 20.5339 32.3342 20.9416C32.4137 21.2655 32.6014 21.2327 32.6014 21.2327C32.5726 21.3314 32.5155 21.4195 32.4372 21.4861C32.3103 21.6033 32.2964 21.9132 32.3103 22.0305C32.329 22.1162 32.3526 22.2008 32.3809 22.2838C32.3809 22.2838 32.2308 22.4574 32.1931 22.5749C32.1603 22.6921 32.0057 22.7719 31.8927 22.7719C31.7798 22.7719 31.8364 22.7624 31.6864 22.7719C31.5364 22.7815 31.4894 22.8047 31.3953 22.7719C31.3013 22.7392 31.2311 22.7014 31.2688 22.4007C31.3016 22.1004 30.1098 21.4013 30.1098 21.4013L28.161 20.7068L28.1653 20.7084Z" fill="#CCA849"/>
<path fill-rule="evenodd" clip-rule="evenodd" d="M25.9264 23.674C25.9264 23.674 26.3532 24.2419 28.1084 24.2419C28.9436 24.2419 29.2347 24.1621 29.4076 24.1151C29.5954 24.0681 30.2991 23.7916 31.0078 22.9561C31.6459 22.2007 31.5052 21.891 31.5052 21.891L31.134 21.8347L29.9276 21.999L26.3579 23.5193L25.9248 23.674H25.9264Z" fill="#585136"/>
<path fill-rule="evenodd" clip-rule="evenodd" d="M27.2352 23.8146C27.2352 23.8146 25.7148 24.1527 25.7148 23.1907C25.7148 22.2522 26.6534 21.2667 26.8881 21.0931C27.1322 20.9193 27.7141 20.7219 27.7141 20.7219H29.1172L29.3845 21.4306L29.2672 22.9603L27.2352 23.8143V23.8146Z" fill="#252211"/>
<path fill-rule="evenodd" clip-rule="evenodd" d="M28.6386 21.0086C28.6386 21.0086 28.3478 20.7411 27.6861 21.1014C27.0245 21.4618 26.4893 22.215 26.4565 22.899C26.4237 23.504 26.9539 23.9547 27.7798 23.9782C28.3945 24.0014 28.7654 23.9312 28.9531 23.8854C28.9061 23.8291 28.6621 23.5241 28.6621 23.5241L28.6389 21.0089L28.6386 21.0086Z" fill="#C3B378"/>
<path fill-rule="evenodd" clip-rule="evenodd" d="M28.3523 21.1584C28.3523 21.1584 28.2821 21.1021 28.0739 21.2147C27.9003 21.3075 27.647 21.5528 27.4499 21.7263C27.3231 21.8296 27.2433 21.8763 27.1715 21.9561C26.8805 22.3035 26.6364 22.8714 26.7775 23.1529C26.9185 23.4344 27.3828 23.7583 28.5654 23.5378L28.3489 21.1587L28.3523 21.1584Z" fill="#E6D89C"/>
<path fill-rule="evenodd" clip-rule="evenodd" d="M27.9675 21.7406C27.9675 21.7406 27.7798 22.0317 27.7798 22.4963C27.7798 22.9702 28.0473 23.7256 29.0329 23.7819C29.7883 23.829 30.2949 22.6934 30.844 22.2523C31.2616 21.9145 31.515 21.9049 31.515 21.9049C31.515 21.9049 31.0881 21.4409 29.9479 20.8399C28.8216 20.2345 27.5592 20.1547 26.874 21.0839C27.1979 21.0604 28.2444 20.7928 28.2444 20.7928L28.756 20.9571L27.9675 21.741V21.7406Z" fill="#252211"/>
<path fill-rule="evenodd" clip-rule="evenodd" d="M29.4411 22.3551C29.4083 22.2849 29.3848 22.1909 29.5209 22.1677C29.657 22.1445 29.7179 22.1581 29.7649 22.2605C29.812 22.3628 29.8577 22.4482 29.7881 22.4906C29.7179 22.528 29.5348 22.4906 29.4408 22.3545L29.4411 22.3551ZM29.2205 21.6934C29.2205 21.6934 29.1735 21.7262 29.197 21.6607C29.2063 21.5812 29.2675 21.4401 29.4176 21.4732C29.5676 21.5063 29.5351 21.6703 29.5104 21.7173C29.4856 21.7643 29.3603 21.8438 29.2663 21.8101C29.2544 21.807 29.2433 21.8012 29.2341 21.7931C29.2248 21.785 29.2176 21.7748 29.2131 21.7634C29.2085 21.752 29.2066 21.7396 29.2077 21.7274C29.2088 21.7151 29.2128 21.7033 29.2193 21.6928L29.2205 21.6934Z" fill="#6F674D"/>
<path fill-rule="evenodd" clip-rule="evenodd" d="M16.5186 21.9935C16.5186 21.9935 16.8898 22.2719 17.321 22.2611C17.7478 22.2515 18.2969 21.8107 18.5503 21.5289C18.7003 21.3646 18.8287 21.1911 18.9679 21.055C19.0854 20.9378 19.1649 20.8815 19.2212 20.8017C19.301 20.7089 19.3855 20.5344 19.4278 20.4778C19.3245 20.5576 19.1745 20.6986 19.0195 20.7924C18.8695 20.8852 18.5456 21.0596 18.4142 21.1067C18.2876 21.1537 16.9736 21.8491 16.9736 21.8491L16.5186 21.9935Z" fill="#AC924C"/>
<path fill-rule="evenodd" clip-rule="evenodd" d="M17.0859 18.5262C17.0859 18.5262 17.2923 18.3855 17.6913 18.2961C18.0761 18.2033 18.8504 18.1318 18.8504 18.1318L19.4885 18.4102L19.7419 19.3723L19.2779 20.372L18.6867 20.7432L18.0155 19.664L17.0875 18.5281L17.0859 18.5262Z" fill="#9F8E57"/>
<path fill-rule="evenodd" clip-rule="evenodd" d="M16.2502 19.3851L16.0293 19.5499C16.0293 19.5499 16.0859 19.4466 16.1326 19.1323C16.1793 18.8181 16.4237 18.0531 16.7804 17.612C17.137 17.1709 17.1277 17.1944 17.1277 17.1944C17.0949 17.1884 17.0612 17.1894 17.0288 17.1975C16.9964 17.2055 16.9662 17.2204 16.94 17.2411C16.987 17.1371 17.2874 16.7659 17.5877 16.5803C17.8881 16.3947 18.0053 16.3363 18.3196 16.4875C18.6339 16.6388 18.7137 16.7174 18.9438 16.7081C19.174 16.6988 19.3707 16.4548 19.3707 16.4548C19.3707 16.4548 19.4177 16.6048 19.2442 16.9522C19.0707 17.2995 18.3855 18.0079 18.3855 18.0079L16.9588 18.9839L16.2502 19.386V19.3851Z" fill="#EAC970"/>
<path fill-rule="evenodd" clip-rule="evenodd" d="M17.3059 18.4092C17.3059 18.4092 18.3385 18.5499 18.6528 18.2591C18.662 18.2919 18.6998 18.2919 18.6998 18.3154C18.6973 18.3331 18.689 18.3495 18.6763 18.3621C18.7105 18.3567 18.745 18.3536 18.7796 18.3529C18.8209 18.3652 18.8634 18.373 18.9064 18.3764C18.941 18.3756 18.9756 18.3724 19.0097 18.3668C19.0065 18.3901 18.9985 18.4125 18.9864 18.4327C18.9743 18.4529 18.9583 18.4705 18.9392 18.4843C18.9862 18.4843 19.032 18.4936 19.032 18.531C19.032 18.5685 19.0413 18.6814 18.985 18.7049C18.9383 18.7178 18.8887 18.7144 18.8442 18.6953C18.848 18.7841 18.8721 18.8709 18.9148 18.9489C19.0076 19.1225 19.2055 19.3201 19.4716 19.2632C19.4716 19.2632 19.612 19.601 19.0209 20.3518C18.9414 20.4551 18.8566 20.5958 18.7536 20.7131C18.7129 20.8018 18.6818 20.8946 18.6608 20.9899C18.6608 20.9899 19.6606 20.6051 19.9467 19.7275C20.2378 18.8453 20.2941 17.9773 20.2378 17.1656C20.2282 16.9355 20.1908 16.7715 20.1345 16.654C19.9937 16.3629 19.5993 16.4099 19.44 16.5742C19.2099 16.8043 18.8251 17.3766 18.2902 17.7707C17.7458 18.1648 17.7226 18.2347 17.3047 18.4092H17.3059Z" fill="#D7BC6B"/>
<path fill-rule="evenodd" clip-rule="evenodd" d="M16.0678 19.676C16.0678 19.676 15.8707 19.7932 15.7674 20.2328C15.6641 20.6832 15.8602 21.2323 15.9737 21.4058C16.0873 21.5793 16.3449 22.0535 16.8795 22.077C17.0118 22.0763 17.1426 22.0492 17.2643 21.9972C17.4509 21.9117 17.6259 21.8028 17.7852 21.6734C18.0153 21.4998 18.2028 21.3498 18.1793 21.3356C18.123 21.3121 16.7622 20.1858 16.7622 20.1858L16.2506 19.6147L16.0675 19.6766L16.0678 19.676Z" fill="#585136"/>
<path fill-rule="evenodd" clip-rule="evenodd" d="M17.3539 21.5436C17.3539 21.5436 17.6308 21.5203 17.795 21.417C17.9593 21.3137 16.833 20.197 16.833 20.197L16.9128 21.4034L17.3539 21.5436Z" fill="#453A25"/>
<path fill-rule="evenodd" clip-rule="evenodd" d="M16.1561 19.5913C16.1561 19.5913 16.0154 19.8589 16.0154 19.9294C15.9919 20.1593 16.0624 20.8819 16.1187 21.1117C16.175 21.3558 16.48 21.7264 16.8744 21.7264C17.1182 21.7264 17.4563 21.5763 17.4563 21.5389C17.4563 21.4919 17.1089 21.4461 17.0152 21.2713C16.9589 21.1785 16.9353 20.9478 16.9224 20.7145C16.9131 20.5645 16.9131 20.4002 16.9694 20.3433C17.0962 20.2026 17.1194 19.7989 17.1194 19.7989L17.5698 18.9622H16.9774L16.2687 19.4033L16.1561 19.5913Z" fill="#84754B"/>
<path fill-rule="evenodd" clip-rule="evenodd" d="M15.9834 19.8496C15.9834 19.8496 16.4474 19.235 16.8656 19.0939C17.2838 18.9529 17.471 19.0376 17.471 19.0376L17.2269 19.6619L16.8795 20.0467L16.903 20.2437C16.903 20.2437 16.8464 20.7646 17.1938 21.1259C17.5412 21.4872 17.7992 21.4733 17.9495 21.4733C18.0999 21.4733 18.5314 21.3465 18.7519 20.8256C18.949 20.3378 19.1132 19.712 18.7191 19.0846C18.334 18.4604 17.6538 18.4363 17.5223 18.4363C17.3909 18.4363 16.3586 18.4879 15.9834 19.8487V19.8496Z" fill="#252211"/>
<path fill-rule="evenodd" clip-rule="evenodd" d="M27.8971 21.9376C27.7236 21.8578 27.8878 21.37 28.0613 21.2196C28.2349 21.0693 28.4554 20.8961 28.8406 20.8722C28.981 20.863 29.1171 20.9521 29.0939 21.0461C29.0611 21.2196 28.817 21.4637 28.5965 21.6372C28.2915 21.8767 28.0941 22.0267 27.8971 21.9376Z" fill="#F7F7E7"/>
<path fill-rule="evenodd" clip-rule="evenodd" d="M18.5123 19.277C18.6391 19.2677 18.8034 19.3698 18.8361 19.5071C18.8689 19.6571 18.7563 19.9575 18.5123 19.9575C18.3152 19.9575 18.2119 19.7134 18.2119 19.6432C18.2141 19.5855 18.2303 19.5291 18.2589 19.4789C18.2682 19.4647 18.2917 19.3005 18.5123 19.277Z" fill="#F8F6DE"/>
<path fill-rule="evenodd" clip-rule="evenodd" d="M16.6823 19.385C16.6823 19.385 16.3584 19.535 16.2084 19.849C16.1012 20.0809 16.0688 20.3403 16.1156 20.5914C16.1391 20.7086 16.2563 20.9994 16.3362 21.1027C16.416 21.2061 16.5239 21.2766 16.6037 21.267C16.6835 21.2574 16.8475 21.0464 16.8475 20.9199C16.8475 20.7934 16.8571 20.2583 17.0117 19.9672C17.1478 19.6764 16.6832 19.3853 16.6832 19.3853L16.6823 19.385Z" fill="#D4C38B"/>
<path fill-rule="evenodd" clip-rule="evenodd" d="M16.7291 19.3614C16.6728 19.3942 16.5791 19.4412 16.6023 19.5022C16.6258 19.5585 16.8228 19.595 16.8933 19.7323C16.9731 19.8731 16.9731 20.0231 16.9496 20.0936C17.0109 20.0645 17.0665 20.0247 17.1139 19.9761C17.2172 19.8588 17.3437 19.6995 17.4517 19.6995C17.5222 19.6995 17.5924 19.7323 17.6583 19.7323C17.7616 19.7323 17.8646 19.6995 17.8789 19.5916C17.9021 19.4508 17.6818 19.324 17.555 19.3475C17.5785 19.2547 17.6113 19.1177 17.508 19.0236C17.4047 18.9296 17.0811 19.0942 17.0106 19.1412C16.94 19.1882 16.7291 19.3617 16.7291 19.3617V19.3614Z" fill="#E2D59D"/>
<path fill-rule="evenodd" clip-rule="evenodd" d="M24.1851 29.2205L24.8796 29.0154L25.0766 29.1561C25.0766 29.1561 25.217 29.4565 25.4379 29.4939C25.3674 29.6439 25.1843 29.7723 25.1938 29.8787C25.2034 29.9851 25.2972 30.0665 25.2972 30.0665C25.2972 30.0665 24.6729 31.0987 25.9025 32.139C25.6114 32.2563 25.2409 32.4174 25.0438 32.5102C25.1843 32.543 25.4846 32.603 25.6114 32.7169C25.7383 32.8307 25.7383 32.8669 25.8555 32.9374C25.9727 33.0079 26.043 33.1017 26.0198 33.1437C25.94 33.0967 25.6724 32.9563 25.6257 33.0874C25.579 33.2186 24.4666 33.1673 24.4666 33.1673L22.5896 33.5286C22.5896 33.5286 22.6598 33.3408 22.4627 33.1673C22.2329 32.9609 21.9514 33.1765 21.651 32.9467C21.257 32.6463 21.2427 32.299 21.1162 32.1678C21.2427 32.088 21.501 31.9708 22.1157 31.8894C22.0922 31.8424 22.0123 31.7016 22.0594 31.5751C22.1157 31.4109 22.3501 31.3075 22.2799 31.1111C22.3832 31.0876 22.4299 31.0876 22.6882 30.7637C22.9323 30.4399 23.0823 30.3696 23.2701 30.3461C23.4579 30.3226 23.5705 30.3461 23.9178 30.0223C24.1616 29.7924 24.0821 29.5954 24.0821 29.5954C24.0821 29.5954 24.2414 29.5437 24.1854 29.2198L24.1851 29.2205Z" fill="#CBAC5A"/>
<path fill-rule="evenodd" clip-rule="evenodd" d="M22.1354 29.3247C22.1446 29.2777 22.1824 29.2542 22.4357 29.2777C22.6891 29.3012 24.2939 29.1277 24.7304 29.1041C25.1715 29.0714 26.7246 29.0946 27.4803 29.2542C28.236 29.4138 29.0007 29.6016 29.3713 29.6953C29.7425 29.7986 29.8594 29.8357 29.8452 29.8827C29.8359 29.9298 29.7524 29.9755 29.7044 29.9625C29.6577 29.9533 28.4281 29.5777 28.0483 29.4985C27.6684 29.4194 26.3541 29.2075 25.6355 29.2201C24.9645 29.2297 24.697 29.2109 24.1293 29.2764C23.5614 29.347 22.6229 29.4407 22.3414 29.4033C22.063 29.3705 22.1205 29.3705 22.1347 29.3235L22.1354 29.3247Z" fill="#D6BC6F"/>
<path fill-rule="evenodd" clip-rule="evenodd" d="M25.9124 33.0028C25.9124 33.0028 26.8744 33.5238 27.2218 34.1619C27.4751 34.6358 27.0718 34.8706 27.0718 34.8706C27.0718 34.8706 27.6162 34.8706 27.5457 35.171C27.5129 35.3584 26.6071 35.8651 26.0018 36.1327C25.3871 36.4002 25.4106 36.3863 25.1103 36.433C24.8192 36.4801 24.0214 36.3402 23.8572 36.5738C23.6929 36.8073 23.7644 37.048 23.8102 37.0854C23.8572 37.1182 24.2373 37.1652 24.2373 37.1652C24.2373 37.1652 24.1575 37.3858 23.3694 37.4093C22.5812 37.4328 22.3838 37.4888 22.3368 37.5736C22.2898 37.653 22.4868 37.6063 22.8484 37.6664C23.2097 37.7226 23.7164 37.7592 23.7164 37.7592C23.7164 37.7592 23.5522 37.8999 23.1253 38.0125C22.6372 38.139 21.8722 38.2566 21.6423 38.3973C21.7596 38.4771 21.9334 38.5943 22.0135 38.6036C21.8165 38.6506 21.5393 38.754 21.4926 38.7914C21.5628 38.8384 21.6569 38.8947 21.6569 38.8947C21.6569 38.8947 21.2625 39.3686 21.0327 39.4862C20.8028 39.6037 19.4795 40.218 19.0241 40.1008C17.8886 39.8004 17.7478 38.5569 17.471 38.4632C17.0534 38.3224 16.8563 38.6036 16.4855 38.4066C16.6497 38.2893 16.7391 38.2191 16.9126 38.1393C16.7249 38.0465 15.7536 37.4306 15.7536 37.4306C15.652 37.2093 15.5393 36.9932 15.4158 36.7832C15.228 36.4593 14.9518 36.0275 14.7445 35.6473C14.2941 34.8121 14.2706 34.4273 13.8623 33.9534C13.9328 33.8606 14.1766 33.8736 14.1766 33.8736L17.5978 34.9999L23.6641 35.1756L25.2417 32.9233L25.9127 33.0032L25.9124 33.0028Z" fill="#DFC677"/>
<path fill-rule="evenodd" clip-rule="evenodd" d="M16.9258 36.4375C16.9624 36.4783 17.0051 36.5131 17.0523 36.5409C17.1698 36.6207 17.3434 36.7147 17.4606 36.8551C17.5076 36.7849 17.6249 36.6581 17.8318 36.8551C18.0388 37.0522 18.2958 36.9117 18.4557 36.9585C18.62 37.0151 18.6293 37.0383 18.6293 37.0383C18.6293 37.0383 18.7221 36.9585 18.9296 36.874C19.0565 36.827 19.2065 36.7942 19.3708 36.7475C19.5208 36.7147 19.685 36.6677 19.7979 36.6677C19.9013 36.7379 20.2718 37.1317 21.7594 36.5504C23.1626 36.006 23.4861 35.9451 23.7209 36.0292C23.7444 35.9729 23.7679 35.865 24.1292 35.8792C24.1292 35.7292 23.8289 35.2175 23.8289 35.2175L22.1724 34.6499H21.2663L18.5495 35.1473L17.0439 36.0063L16.9267 36.4394L16.9258 36.4375Z" fill="#C4A859"/>
<path fill-rule="evenodd" clip-rule="evenodd" d="M16.0205 35.4852C16.0205 35.4852 16.0533 35.7385 16.4288 36.0061C16.8 36.2734 16.9166 36.433 16.9166 36.433C16.9166 36.433 16.9872 36.3402 17.0435 36.2455C17.0998 36.1422 17.1468 36.025 17.2405 35.9922C17.4283 35.9124 17.8552 36.0624 17.9492 36.0389C18.029 36.0157 18.0055 35.8514 18.0899 35.8514C18.287 35.8419 18.4135 35.978 18.484 35.978C18.5546 35.978 18.7278 35.9687 18.7513 35.9313C18.7748 35.8938 18.7841 35.5041 19.0517 35.3163C19.3427 35.11 19.6994 35.1991 19.7941 35.2461C19.7941 35.3163 19.8033 35.4901 19.9911 35.4994C20.1789 35.5087 20.1974 35.4759 20.3623 35.5322C20.5272 35.5885 20.7236 35.5229 20.8127 35.7995C20.8925 35.7763 21.0803 35.7528 21.0333 35.4852C21.1261 35.415 21.2071 35.368 21.4045 35.0911C21.4515 35.0209 21.531 34.9411 21.5922 34.8378C21.7565 34.8378 21.9535 34.805 22.2161 35.0348C22.1363 35.0911 22.0893 35.1276 22.0661 35.1848C22.1348 35.2528 22.1975 35.3266 22.2536 35.4054C22.3241 35.4982 22.3711 35.612 22.4602 35.6355C22.6573 35.6918 22.9811 35.612 23.3424 35.6355C23.6898 35.659 23.9806 35.7856 24.1074 35.8654C24.1544 35.8422 24.1544 35.8326 24.2717 35.8561C24.3889 35.8796 24.478 35.8889 24.3515 35.7389C24.4217 35.7716 24.5015 35.8422 24.572 35.7716C24.6426 35.7011 24.6985 35.5981 24.8956 35.5746C25.0926 35.5511 25.1632 35.5839 25.243 35.3776C25.3463 35.1242 24.9896 35.1242 24.9896 35.1242C24.9896 35.1242 25.1539 34.9739 25.337 34.7768C25.5576 34.5705 25.8109 34.3029 25.8718 33.9744C25.9752 33.369 25.384 33.2896 25.384 33.2896L22.5168 34.1718L19.0115 33.9979L16.0224 35.4855L16.0205 35.4852Z" fill="#927D49"/>
<path fill-rule="evenodd" clip-rule="evenodd" d="M13.4441 27.2029C13.4441 27.2029 13.3513 27.3201 13.294 27.597C13.2368 27.8738 13.2612 27.841 13.2142 28.0381C13.1672 28.2351 12.5897 30.1966 12.8062 30.8583C13.0227 31.5199 13.3977 31.764 13.6321 32.2988C13.6791 32.4161 13.7249 32.4866 13.7494 32.5899C13.8292 32.937 13.759 33.2046 13.8527 33.5519C13.8855 33.6692 13.9702 33.8053 14.0967 33.946C14.3751 34.2368 14.8289 34.5137 15.0247 34.7107C15.3013 35.0018 15.6957 35.5932 16.1977 35.6492C16.4653 35.682 16.8455 35.5694 17.1598 35.382C17.4382 35.2081 17.6102 34.9644 17.9022 34.8252C18.1085 34.7218 18.329 34.6844 18.5261 34.6374C18.9344 34.5576 19.3053 34.5446 19.5259 34.5904C19.8636 34.6609 20.6614 34.905 21.1035 34.905C21.4489 34.8994 21.7923 34.8521 22.1264 34.7642C22.7974 34.5672 23.6091 34.2291 24.1442 34.079C24.4585 33.9862 24.7118 33.9618 24.9701 33.9055C25.4112 33.8022 25.7818 33.6615 25.9931 33.3939C25.8523 33.2296 25.6788 32.9763 24.74 32.9856C23.6749 33.0091 22.4453 33.6002 21.84 33.6942C21.2346 33.7883 20.972 33.8678 20.2961 33.6237C19.6335 33.3772 19.6115 33.2142 19.6115 33.2142C19.6115 33.2142 18.9158 32.7276 18.6248 31.4871C18.3337 30.2467 18.6248 29.3428 19.3805 28.4838C19.5775 28.2633 19.5305 28.0662 19.5305 28.0662C19.5305 28.0662 20.0279 27.3953 19.8918 26.767C19.7418 26.1428 18.7797 26.2696 18.7797 26.2696L13.4444 27.2029H13.4441Z" fill="#6E6342"/>
<path fill-rule="evenodd" clip-rule="evenodd" d="M14.2464 29.291C14.205 29.3688 14.1856 29.4564 14.1901 29.5444C14.1994 29.6709 14.2371 29.8351 14.617 30.206C14.9408 30.5296 14.8703 30.8909 14.8703 30.8909C14.8703 30.8909 15.0333 30.9237 15.4757 30.7167C15.8231 30.5525 15.9397 30.8436 15.9397 30.8436C16.0408 30.7905 16.1504 30.7556 16.2636 30.7402C16.3661 30.7308 16.4653 30.6991 16.5543 30.6474C16.5543 30.6474 16.9627 31.065 17.3193 31.2621C17.6432 31.4359 17.8309 31.5532 17.9906 31.4359C18.1406 31.3326 18.1406 31.1213 18.131 31.0276C18.0938 30.9411 18.0467 30.8592 17.9906 30.7835C17.8872 30.6335 17.723 30.4597 17.7122 30.3195C17.6887 29.996 17.9562 29.6109 17.8996 29.5171C17.843 29.4234 17.6324 29.3999 17.1114 29.5877C16.572 29.7658 14.2442 29.2919 14.2442 29.2919L14.2464 29.291Z" fill="#39331F"/>
<path fill-rule="evenodd" clip-rule="evenodd" d="M15.4757 31.3886C15.4757 31.3886 15.2084 31.1353 15.3022 29.9057C15.4156 29.904 15.5289 29.915 15.6399 29.9385C15.6399 29.9385 15.7856 30.8912 15.4757 31.3886Z" fill="#292311"/>
<path fill-rule="evenodd" clip-rule="evenodd" d="M13.5714 26.2642C13.6087 26.2366 13.6433 26.2056 13.6748 26.1714C13.582 26.345 13.1535 27.0394 13.5009 28.1329C13.8483 29.2215 14.7209 30.0332 15.7956 30.0709C16.8702 30.1086 17.435 29.5828 18.0809 28.7946C18.3342 28.4803 18.6253 28.0859 18.8833 27.8186C19.2681 27.4007 19.5685 27.2835 19.5685 26.8801C19.5685 26.0542 18.7237 25.6833 17.4802 25.3127C16.2367 24.9421 15.115 24.9879 14.5332 25.2416C13.9655 25.5181 13.7215 25.8092 13.5711 26.2645L13.5714 26.2642Z" fill="#252211"/>
<path fill-rule="evenodd" clip-rule="evenodd" d="M17.5644 31.7593L17.6572 31.7123C17.6572 31.7123 17.6804 31.3411 17.8307 31.351C17.9808 31.3745 18.0513 31.5719 18.0371 31.6421C18.0278 31.7123 17.9904 31.8299 17.84 31.8156C17.643 31.8203 17.5635 31.7593 17.5635 31.7593H17.5644Z" fill="#3F3824"/>
<path fill-rule="evenodd" clip-rule="evenodd" d="M17.1465 30.1827C17.1465 30.1827 17.2393 30.1499 17.3528 30.2625C17.4456 30.2625 17.8502 30.2155 17.977 30.2953C18.1039 30.3751 18.1413 30.4453 18.1413 30.4453C18.1413 30.4453 17.6674 30.5486 17.4091 30.4453C17.1465 30.3562 17.1465 30.1827 17.1465 30.1827Z" fill="#2D2815"/>
<path fill-rule="evenodd" clip-rule="evenodd" d="M19.2345 30.2528C19.2345 30.2293 18.9812 30.0558 18.7136 29.9992C18.6666 29.9899 18.657 30.0227 18.6208 30.0227C18.5973 30.0134 18.588 29.9429 18.588 29.9429L18.4358 30.023C18.4358 30.023 18.4123 30.0558 18.4921 30.1158C18.5624 30.1721 18.6799 30.2191 18.7127 30.3128C18.7455 30.4066 18.7455 30.4394 18.7597 30.4536C18.769 30.4629 18.9333 30.4536 19.0131 30.4066C19.0929 30.3595 19.2432 30.2828 19.2336 30.2519L19.2345 30.2528Z" fill="#82764F"/>
<path fill-rule="evenodd" clip-rule="evenodd" d="M16.8652 31.2055C16.8652 31.2055 16.9119 30.8819 17.2265 30.8677C17.5501 30.8442 17.6113 31.1585 17.6113 31.1585L17.4236 31.3462C17.4236 31.3416 17.2828 31.1446 16.8668 31.2055H16.8652Z" fill="#2D2816"/>
<path fill-rule="evenodd" clip-rule="evenodd" d="M18.9064 29.8118C18.9064 29.8118 18.7326 29.9995 18.3481 30.0558C18.3153 30.0088 18.2447 29.9151 18.3481 29.7651C18.4514 29.615 18.5686 29.568 18.6858 29.6147C18.7376 29.6231 18.7858 29.6461 18.8249 29.681C18.864 29.7159 18.8923 29.7613 18.9064 29.8118Z" fill="#574F35"/>
<path fill-rule="evenodd" clip-rule="evenodd" d="M19.6147 30.0418C19.6242 29.9948 19.5915 29.9855 19.6147 29.962C19.6379 29.9385 19.765 29.8918 19.7885 29.915C19.7978 29.9246 19.7885 29.962 19.7885 30.0078C19.7885 30.0536 19.7885 30.1006 19.765 30.1343C19.7322 30.1813 19.6385 30.2048 19.5915 30.1909C19.5444 30.177 19.5352 30.1111 19.5352 30.0981C19.5584 30.0888 19.6147 30.0653 19.6147 30.0418ZM20.4158 29.5351C20.4158 29.5116 20.4956 29.4646 20.5427 29.4646C20.6129 29.4646 20.6129 29.5209 20.6225 29.5351C20.6457 29.5444 20.6457 29.5255 20.6692 29.5679C20.6927 29.6103 20.7258 29.6852 20.702 29.7322C20.6781 29.7792 20.5847 29.8117 20.5615 29.8024C20.5287 29.7789 20.4254 29.5679 20.4158 29.5351Z" fill="#82764F"/>
<path fill-rule="evenodd" clip-rule="evenodd" d="M18.8027 30.1497C18.8027 30.1497 18.9061 30.1729 19.0468 30.2905C18.9998 30.3233 18.9293 30.3607 18.9293 30.3607C18.9293 30.3607 18.92 30.2527 18.8027 30.1494V30.1497Z" fill="#6E6342"/>
<path fill-rule="evenodd" clip-rule="evenodd" d="M18.573 29.1171C18.5495 29.0939 18.6433 29.0376 18.6996 29.0469C18.7559 29.0562 18.7794 29.0939 18.8403 29.1032C18.9012 29.1125 18.9108 29.0797 18.9331 29.0562C18.9554 29.0327 19.0364 29.0469 19.0503 29.0562C19.059 29.0665 19.0669 29.0775 19.0739 29.089C19.0748 29.0711 19.0795 29.0537 19.0875 29.0377C19.0956 29.0218 19.1068 29.0076 19.1206 28.9962C19.1386 28.983 19.1593 28.974 19.1813 28.9699C19.2032 28.9658 19.2258 28.9668 19.2474 28.9727C19.2567 29.0055 19.3037 29.1227 19.2944 29.1462C19.2851 29.1697 19.1444 29.2028 19.1206 29.179C19.1441 29.2356 19.2474 29.3529 19.2613 29.3761C19.2752 29.3993 19.158 29.4559 19.1113 29.4466C19.0457 29.4419 18.642 29.2072 18.5718 29.1181L18.573 29.1171ZM19.1877 28.3382C19.179 28.3146 19.1624 28.2947 19.1407 28.2819C19.1079 28.2727 18.9999 28.2819 18.9999 28.3382C18.9999 28.3945 19.0927 28.7094 19.197 28.8734C19.3145 29.0376 19.394 29.1734 19.4738 29.2112C19.4989 29.2226 19.5273 29.2241 19.5534 29.2154C19.5796 29.2066 19.6014 29.1883 19.6146 29.1642C19.6239 29.1407 19.6474 28.9671 19.6381 28.5588C19.6288 28.1505 19.6146 27.7564 19.5911 27.7329C19.5676 27.7094 19.4738 27.7097 19.441 27.7564C19.4082 27.8031 19.197 28.268 19.1874 28.3382H19.1877Z" fill="#585136"/>
<path fill-rule="evenodd" clip-rule="evenodd" d="M18.7704 30.741C18.7704 30.741 18.6061 30.6377 18.4465 30.7082C18.2965 30.7788 18.3058 31.0556 18.3058 31.0556C18.3395 31.0688 18.376 31.0736 18.412 31.0695C18.448 31.0654 18.4825 31.0526 18.5124 31.0321C18.6157 30.9619 18.7469 30.8446 18.7704 30.7413V30.741Z" fill="#574F35"/>
<path fill-rule="evenodd" clip-rule="evenodd" d="M19.0801 31.1117C19.0708 31.0189 18.9873 31.0189 18.9873 30.971C18.9931 30.948 19.0063 30.9277 19.025 30.9132C19.0437 30.8988 19.0667 30.891 19.0903 30.8911C19.1373 30.8911 19.1831 30.9474 19.2406 30.9839C19.2969 31.0167 19.3814 31.0767 19.3907 31.1482C19.4 31.2197 19.2979 31.4155 19.1843 31.4155C19.0708 31.4155 19.1045 31.2042 19.081 31.1105L19.0801 31.1117ZM19.9858 30.9849C19.9858 30.9849 19.7981 31.0412 19.812 30.9849C19.8259 30.9286 19.8686 30.9147 19.9295 30.9147C19.9605 30.8823 20.0021 30.8621 20.0468 30.8581C20.0723 30.8568 20.0974 30.8652 20.117 30.8816C20.117 30.8816 20.2438 30.8253 20.2812 30.8581C20.3187 30.8908 20.2908 30.8908 20.314 30.9286C20.3436 30.9705 20.363 31.0187 20.3706 31.0693C20.3706 31.1068 20.2299 31.1866 20.117 31.1726C19.9858 31.1445 20.009 31.0084 19.9858 30.9849ZM21.079 30.7736C21.079 30.7736 21.1353 30.8064 21.0886 30.8441C21.0558 30.8769 20.8916 30.9369 20.7505 30.9474C20.6098 30.9474 20.4832 30.9706 20.4832 30.9239C20.4832 30.8772 20.6005 30.7832 20.6707 30.7597C20.6848 30.742 20.7027 30.7278 20.723 30.7181C20.7434 30.7083 20.7657 30.7033 20.7882 30.7034C20.8445 30.7034 21.0648 30.6799 21.126 30.6706C21.1823 30.661 21.2294 30.6938 21.1963 30.7408C21.1823 30.7736 21.079 30.7736 21.079 30.7736ZM21.4029 29.3247C21.4029 29.3247 21.3324 29.4747 21.2529 29.4747C21.1731 29.4654 21.1731 29.4419 21.1731 29.4184C21.1731 29.3856 21.2529 29.3012 21.2433 29.2777C21.2201 29.2777 21.1635 29.2777 21.1731 29.2214C21.1731 29.1743 21.2529 29.118 21.3231 29.1286C21.3761 29.085 21.4422 29.0603 21.5108 29.0583C21.5907 29.0583 21.6609 29.0815 21.6609 29.1286C21.6609 29.1756 21.5681 29.2786 21.534 29.3024C21.4966 29.3398 21.4496 29.3643 21.4029 29.3256V29.3247ZM20.3329 32.0979C20.3329 32.0979 20.2401 32.1074 20.2401 32.1542C20.2401 32.1777 20.2633 32.1777 20.2964 32.1637C20.3155 32.1627 20.3344 32.1595 20.3527 32.1542C20.362 32.1637 20.362 32.2105 20.4325 32.2105C20.4904 32.2026 20.5462 32.1835 20.5968 32.1542C20.6531 32.131 20.7001 32.1071 20.7001 32.0614C20.6766 31.9815 20.6296 31.9438 20.5593 31.9438C20.5234 31.9415 20.4875 31.9497 20.456 31.9673C20.456 31.9673 20.4325 31.9203 20.3527 31.9673C20.2729 32.0143 20.2822 32.0143 20.3057 32.0378C20.3478 32.0753 20.3338 32.0997 20.3338 32.0997L20.3329 32.0979ZM19.8027 32.586C19.8027 32.5625 19.9199 32.5155 19.9527 32.5297C19.9855 32.539 20.0793 32.7171 20.0793 32.736C20.0793 32.7595 19.962 32.8158 19.915 32.8158C19.868 32.8158 19.7885 32.736 19.7885 32.723C19.7885 32.7137 19.8448 32.6998 19.8448 32.6902C19.8587 32.667 19.8027 32.6104 19.8027 32.5869V32.586ZM19.4315 31.9008C19.455 31.8915 19.455 31.868 19.4878 31.8445C19.4981 31.8377 19.5098 31.8333 19.522 31.8317C19.5342 31.8301 19.5467 31.8313 19.5583 31.8352C19.5666 31.8205 19.5781 31.8077 19.5919 31.7979C19.6057 31.7882 19.6215 31.7816 19.6381 31.7786C19.6944 31.7693 19.7415 31.7786 19.7309 31.8021C19.7309 31.8727 19.778 31.9194 19.778 31.9757C19.778 32.032 19.7452 32.1025 19.6279 32.1495C19.5107 32.1823 19.3511 32.1823 19.3276 32.173C19.3041 32.1637 19.2806 32.0697 19.3041 32.0227C19.3276 31.9757 19.3932 31.9243 19.4309 31.9008H19.4315Z" fill="#82764F"/>
<path fill-rule="evenodd" clip-rule="evenodd" d="M19.5805 31.9329C19.5805 31.9329 19.5007 31.9799 19.5007 32.0034C19.4936 32.0261 19.4904 32.0498 19.4914 32.0736C19.4914 32.0875 19.5947 32.0643 19.6086 32.0501C19.6132 32.0408 19.5805 31.9573 19.5805 31.9329Z" fill="#6E6342"/>
<path fill-rule="evenodd" clip-rule="evenodd" d="M18.8829 31.7123C18.9296 31.7219 19.0094 31.7123 19.0704 31.7358C19.1174 31.7593 19.1502 31.8063 19.1032 31.8626C19.0561 31.9189 19.0104 32.0034 18.9061 31.9891C18.7889 31.9799 18.6763 31.9189 18.6763 31.8719C18.6743 31.8421 18.6783 31.8123 18.6879 31.7841C18.6976 31.7559 18.7128 31.7299 18.7326 31.7076C18.7796 31.6702 18.8028 31.6937 18.8826 31.7123H18.8829Z" fill="#585136"/>
<path fill-rule="evenodd" clip-rule="evenodd" d="M18.8271 31.7593C18.8271 31.7593 18.677 31.8765 18.6393 31.9331C18.5923 31.9894 18.3624 32.2802 18.2922 32.3411C18.3155 32.3 18.3421 32.2608 18.3717 32.2239C18.2789 32.2832 18.2094 32.3727 18.1747 32.4772C18.1184 32.6511 18.4893 32.7448 18.733 32.8153C18.9768 32.8859 19.0711 32.9081 19.0711 32.9081C18.9814 32.7733 18.9043 32.6304 18.841 32.4813C18.7482 32.2607 18.7002 32.2372 18.7612 32.1339C18.8082 32.0306 18.8787 31.9603 18.8787 31.8805C18.8506 31.8063 18.8271 31.7593 18.8271 31.7593Z" fill="#574F35"/>
<path fill-rule="evenodd" clip-rule="evenodd" d="M13.4772 32.1302C13.5113 32.1365 13.5463 32.1365 13.5805 32.1302C13.6507 32.1206 14.3829 31.8518 15.1479 31.9001C15.7206 31.9347 16.2882 32.028 16.8418 32.1785C17.8038 32.4318 19.0003 32.9339 19.7746 33.2203C19.9809 33.2998 20.1829 33.4409 20.3314 33.4969C20.9228 33.727 20.946 33.727 21.2934 33.7879C21.7017 33.8442 22.1193 33.7081 22.5558 33.6144C23.0906 33.4969 24.0056 33.4406 24.8081 33.3233C25.0675 33.2874 25.3235 33.2293 25.573 33.1498C25.573 33.1498 24.9349 33.7879 23.4049 34.0178C22.7865 34.1117 22.1581 34.1196 21.5375 34.0413C21.0494 33.9943 20.7258 33.9237 20.4817 33.8535C20.2049 33.7737 19.6369 33.5624 18.9378 33.3895C18.4497 33.2627 17.9053 33.169 17.2814 33.0517C15.7421 32.7699 14.0717 32.4464 13.4766 32.1321L13.4772 32.1302Z" fill="#252211"/>
<path fill-rule="evenodd" clip-rule="evenodd" d="M11.7498 29.2302C11.3786 29.5445 10.9848 29.8449 10.6003 30.1356L9.44123 31.0262C9.04713 31.317 8.66232 31.6174 8.26792 31.9084C7.87352 32.1995 7.47974 32.4761 7.06152 32.7436C7.43272 32.4294 7.82651 32.1383 8.2206 31.8521C8.61469 31.566 9.02332 31.2854 9.40349 30.9953L10.5626 30.1035C10.9613 29.8127 11.3461 29.5123 11.7498 29.2308V29.2302ZM9.69921 32.515C9.69921 32.515 10.1168 32.1677 10.6377 31.6798C11.2852 31.0748 12.0783 30.3002 12.3316 30.1598L9.6989 32.5153L9.69921 32.515Z" fill="#CFB66C"/>
<path fill-rule="evenodd" clip-rule="evenodd" d="M9.69922 32.5146C9.90585 32.3083 10.1264 32.1066 10.347 31.9092L10.6848 31.6184C10.7881 31.5256 10.9056 31.4214 11.0086 31.3181C11.215 31.1118 11.4169 30.8909 11.6233 30.6799C11.7255 30.5738 11.8337 30.4736 11.9471 30.3796C12.0039 30.3293 12.0669 30.2867 12.1346 30.2527C12.1912 30.2199 12.2521 30.1599 12.3316 30.1494C12.2849 30.2199 12.2286 30.2527 12.1816 30.3137C12.1253 30.3607 12.0783 30.417 12.0316 30.4637C11.9283 30.567 11.811 30.6607 11.7077 30.7548C11.4872 30.9425 11.2573 31.126 11.0368 31.3224C10.8162 31.5188 10.6099 31.7307 10.389 31.9278C10.1499 32.1298 9.92936 32.3268 9.69922 32.5155V32.5146ZM12.5055 30.6375C12.5055 30.6375 10.9758 32.1347 10.6612 32.3785L12.5055 30.6375Z" fill="#CFB66C"/>
<path fill-rule="evenodd" clip-rule="evenodd" d="M12.5054 30.6377C12.3678 30.797 12.2202 30.9474 12.0637 31.0881L11.5997 31.5292C11.4496 31.6792 11.3086 31.8296 11.1493 31.9796C10.985 32.1203 10.835 32.258 10.6611 32.3879L11.1115 31.9468C11.2619 31.7968 11.4261 31.6703 11.5857 31.5199L12.0361 31.0788C12.1908 30.9241 12.3411 30.7738 12.5054 30.6377ZM12.5756 31.4494C12.4346 31.8429 12.2685 32.227 12.0782 32.5992C11.6841 33.3877 11.093 34.3729 10.8347 34.8753L12.5756 31.4494Z" fill="#CFB66C"/>
<path fill-rule="evenodd" clip-rule="evenodd" d="M12.5761 31.4497C12.5761 31.6232 12.5291 31.7736 12.4728 31.9236C12.4179 32.0738 12.3554 32.221 12.2854 32.3647C12.2148 32.5055 12.135 32.6558 12.0552 32.7919C11.9754 32.928 11.8817 33.0684 11.8112 33.2095L11.3373 34.0447C11.173 34.3231 11.0134 34.6031 10.8398 34.8706C10.9571 34.5703 11.1167 34.2888 11.267 34.0119C11.4313 33.7335 11.5813 33.4551 11.731 33.1671C11.8041 33.0236 11.8699 32.8765 11.9281 32.7263C11.9983 32.576 12.0685 32.4352 12.1251 32.2991C12.1953 32.1491 12.2516 32.0081 12.3222 31.8723C12.4017 31.7266 12.4676 31.5858 12.5755 31.4497H12.5761Z" fill="#CFB66C"/>
<path fill-rule="evenodd" clip-rule="evenodd" d="M14.247 35.2974C14.247 35.2974 13.783 35.912 13.8294 36.6909C13.956 36.2829 14.1156 35.6587 14.247 35.2974ZM14.6881 35.9136C14.6881 35.9136 14.5239 37.584 14.3878 38.4052C14.5802 37.4559 14.6176 37.5357 14.6881 35.9136ZM17.7617 38.5039C17.7617 38.5039 17.0672 40.5455 17.053 41.1128C17.2033 40.5294 17.4941 39.3376 17.7617 38.5024V38.5039Z" fill="#DEC270"/>
<path fill-rule="evenodd" clip-rule="evenodd" d="M19.3848 35.1711C19.3848 35.1711 20.511 37.0293 21.3558 38.6153C21.1272 37.8172 20.6014 36.3534 19.3848 35.1711Z" fill="#CBAF59"/>
<path fill-rule="evenodd" clip-rule="evenodd" d="M22.4121 37.9067C23.0305 38.9998 23.5881 40.1262 24.0825 41.2806C23.9888 40.4829 23.7351 39.1175 22.4121 37.9067Z" fill="#E3C677"/>
<path fill-rule="evenodd" clip-rule="evenodd" d="M31.3091 40.6465C31.4966 40.5293 31.8675 39.8908 32.1913 39.7315C32.5149 39.5672 32.759 39.5344 33.05 39.2106C33.3408 38.8725 33.4212 38.6661 34.0588 38.3989C34.9506 38.0138 34.3372 37.5163 34.3372 37.5163C34.4354 37.4199 34.5404 37.3305 34.6515 37.2491C34.8816 37.0755 35.1489 36.8643 35.1257 36.4934C35.0929 35.8695 34.9756 34.9637 34.464 34.4382C34.9614 34.3349 35.9139 34.2646 36.5056 34.1146C37.1905 33.9408 37.5051 33.6967 37.5051 33.6967C37.5051 33.6967 37.111 33.0258 37.7491 32.3502C38.3873 31.6746 38.9082 31.2709 39.293 30.5152C38.8519 30.4589 38.1794 30.2244 36.4632 30.8765C36.5559 30.9201 36.6453 30.9702 36.7308 31.0265C36.7308 31.0265 35.675 31.3176 35.2902 31.6415C34.619 32.2091 34.5345 32.6737 33.8073 33.0211C33.0801 33.3685 32.3479 33.2745 31.7428 33.556C31.1377 33.8374 31.0483 34.0769 30.8275 34.1802C30.8745 34.2365 30.8182 34.3302 30.9073 34.41C30.851 34.4898 30.5225 35.0247 30.1893 35.0247C30.2221 35.1515 30.5036 35.2452 30.5036 35.2452C30.5036 35.2452 30.2973 35.3956 29.7717 35.433C30.039 35.7114 30.2926 36.0148 30.9917 36.456C30.9354 36.5732 30.7007 36.747 30.7947 36.9676C30.898 37.1881 31.1659 37.4885 32.2353 37.7326C31.6908 37.7558 31.053 37.8826 30.1937 37.7654C29.335 37.662 29.1942 37.6011 28.664 37.7326C28.7203 37.7889 28.8703 37.7889 29.0018 37.9389C28.8611 37.9482 27.9788 37.8356 27.6785 38.23C27.3642 38.638 27.2281 39.3092 27.2516 39.7596C27.0873 39.8394 26.9277 39.9802 27.0075 40.2713C27.0873 40.5624 27.5049 40.6561 27.7725 40.8389C28.0398 41.0359 28.0633 41.1062 28.3169 41.0594C28.5842 41.0031 28.9783 40.7359 29.2084 40.7359C29.4386 40.7359 29.6025 40.9094 29.6025 40.9094C29.6025 40.9094 30.2268 40.6091 30.2877 40.6654C30.344 40.7217 30.297 41.083 30.3579 41.1393C30.4198 41.1816 31.1229 40.764 31.3107 40.6465H31.3091Z" fill="#ECD592"/>
<path fill-rule="evenodd" clip-rule="evenodd" d="M44.9501 21.8675C42.0173 14.2938 34.7672 12.8906 34.7672 12.8906H14.0823L14.1621 20.6051H18.2815V37.8316H14.082V45.5321H34.1946C39.0418 45.5321 42.9274 40.661 42.9274 40.661C49.1496 31.8299 44.9498 21.8675 44.9498 21.8675H44.9501ZM34.3025 35.471C34.3025 35.471 32.7249 37.7471 31.0084 37.7471H27.5748L27.4935 20.624H31.8999C31.8999 20.624 33.9415 21.0508 35.3679 25.091C35.3679 25.091 37.2588 30.8756 34.3025 35.471Z" fill="white" fill-opacity="0.8"/>
</g>
<defs>
<clipPath id="clip0_23_2212">
<rect width="58" height="58" fill="white"/>
</clipPath>
</defs>
</svg>
