<svg width="35" height="35" viewBox="0 0 35 35" fill="none" xmlns="http://www.w3.org/2000/svg">
<mask id="mask0_156_217" style="mask-type:luminance" maskUnits="userSpaceOnUse" x="5" y="5" width="24" height="24">
<path d="M29 5H5V29H29V5Z" fill="white"/>
</mask>
<g mask="url(#mask0_156_217)">
<path d="M17 29C23.6274 29 29 23.6274 29 17C29 10.3726 23.6274 5 17 5C10.3726 5 5 10.3726 5 17C5 23.6274 10.3726 29 17 29Z" fill="#988430"/>
<path d="M16.9999 28.6156C23.415 28.6156 28.6155 23.4152 28.6155 17C28.6155 10.5849 23.415 5.3844 16.9999 5.3844C10.5848 5.3844 5.38428 10.5849 5.38428 17C5.38428 23.4152 10.5848 28.6156 16.9999 28.6156Z" fill="#7A6A2A"/>
<path d="M17.0003 28.3708C23.2802 28.3708 28.3712 23.2799 28.3712 17C28.3712 10.72 23.2802 5.62909 17.0003 5.62909C10.7203 5.62909 5.62939 10.72 5.62939 17C5.62939 23.2799 10.7203 28.3708 17.0003 28.3708Z" fill="#BA9F33"/>
<path fill-rule="evenodd" clip-rule="evenodd" d="M10.2463 15.7185C10.1784 15.6564 10.1066 15.5942 10.0405 15.5321C9.97447 15.47 9.90665 15.4078 9.83866 15.3457L9.63669 15.1537C9.60367 15.1207 9.5687 15.0916 9.53568 15.0585C9.50266 15.0294 9.46389 14.9964 9.43087 14.9672C9.16281 14.7129 8.89325 14.4585 8.62893 14.2041C8.90272 14.4546 9.17076 14.7033 9.44457 14.9575L9.53966 15.0527C9.57268 15.0856 9.60764 15.1148 9.64066 15.1478L9.84251 15.3342C9.91046 15.3963 9.9765 15.4585 10.0445 15.5262C10.1125 15.5939 10.1784 15.6565 10.2463 15.7185ZM6.68909 15.6801C6.68909 15.6801 7.66381 15.7809 8.13959 15.8489C8.58029 15.9111 9.95899 16.1227 9.95899 16.1227L6.68909 15.6801ZM6.68909 15.6801C6.96288 15.7034 7.23668 15.7324 7.51047 15.7616C7.65024 15.7751 7.78426 15.7907 7.91828 15.8042L8.12397 15.8276C8.19194 15.8372 8.25799 15.847 8.32596 15.8567L9.14159 15.9867L9.54926 16.0547C9.68328 16.078 9.81727 16.1034 9.95705 16.1267C9.82306 16.1131 9.68328 16.0936 9.54926 16.0742L9.14159 16.0159L8.32596 15.8956C8.25799 15.8859 8.19194 15.8722 8.12397 15.8626L7.91815 15.8389C7.78413 15.8253 7.64436 15.8059 7.51034 15.7903C7.23655 15.7574 6.96289 15.7227 6.68909 15.6801ZM9.86196 16.3766C9.86196 16.3766 8.82119 16.6408 8.4697 16.7418C8.1241 16.8369 7.07745 17.1554 7.07745 17.1554L9.86196 16.3766Z" fill="#CFB66C"/>
<path fill-rule="evenodd" clip-rule="evenodd" d="M9.86203 16.3767C9.63101 16.4447 9.40123 16.5107 9.16685 16.5729L8.47169 16.7593C8.24065 16.8272 8.01089 16.8933 7.78049 16.9613L7.43489 17.0564C7.32033 17.0894 7.20385 17.1184 7.08545 17.1516C7.19988 17.1132 7.31649 17.0739 7.43105 17.0409L7.77665 16.9303C8.00769 16.8584 8.23745 16.7904 8.46785 16.7186C8.70273 16.6603 8.9339 16.5981 9.16876 16.5418C9.392 16.4855 9.62703 16.4292 9.86203 16.3767ZM7.2233 17.7962C7.33774 17.7534 8.65819 17.138 8.965 16.9943C9.1186 16.9223 9.56505 16.7639 9.56505 16.7639L7.2233 17.7962Z" fill="#CFB66C"/>
<path fill-rule="evenodd" clip-rule="evenodd" d="M7.22327 17.7962C7.32413 17.7578 7.41937 17.7108 7.51639 17.6661L7.80375 17.5321L8.38052 17.2545C8.57252 17.1632 8.75914 17.0625 8.95716 16.9767C9.05815 16.9341 9.15914 16.8991 9.26002 16.8661L9.41362 16.8176C9.46597 16.804 9.51459 16.7884 9.56722 16.7748C9.37522 16.8661 9.17308 16.9438 8.98084 17.033C8.78884 17.1283 8.59249 17.2059 8.39434 17.2913L7.80797 17.5495C7.61111 17.6292 7.41924 17.7146 7.22327 17.7962ZM7.35127 18.3338C7.35127 18.3338 8.5473 17.6328 8.95895 17.4075C9.17449 17.2872 9.87161 16.9415 9.87161 16.9415L7.35127 18.3338Z" fill="#CFB66C"/>
<path fill-rule="evenodd" clip-rule="evenodd" d="M7.35156 18.334C7.55342 18.2097 7.75924 18.0835 7.96506 17.9553L8.27226 17.7688C8.3771 17.7067 8.47809 17.6485 8.58497 17.5864C8.6898 17.5242 8.79079 17.4621 8.89754 17.4039C8.94837 17.3725 9.00161 17.3452 9.05678 17.3224L9.21983 17.2408C9.43542 17.136 9.65096 17.0291 9.87813 16.9379C9.67231 17.068 9.46062 17.1787 9.24904 17.2932C9.14419 17.3514 9.03732 17.4039 8.93249 17.4621C8.82766 17.5204 8.72667 17.5826 8.61978 17.6389C8.51495 17.701 8.41396 17.7592 8.30721 17.8156L7.99067 17.9884L7.35156 18.334ZM9.86216 17.095C9.86216 17.095 9.11847 17.6659 8.87771 17.8484C8.63694 18.031 7.9282 18.5436 7.9282 18.5436L9.86216 17.095Z" fill="#CFB66C"/>
<path fill-rule="evenodd" clip-rule="evenodd" d="M14.1301 21.699L13.7495 20.9786L13.9708 20.0776L15.5495 19.468L14.8776 18.0894L15.2096 16.6972L15.833 15.4504L17.7592 15.1476L19.1747 13.7981L22.2311 14.0291L22.831 17.2971L21.6757 21.4116L21.0175 23.5418L18.3494 23.6428L17.1107 22.7846L15.6602 22.1786L14.1301 21.699Z" fill="#E2CC85"/>
<path fill-rule="evenodd" clip-rule="evenodd" d="M18.8095 21.6757C18.8095 21.6757 18.4405 21.8446 17.8111 21.8057C17.629 21.5611 16.3533 21.4465 16.3533 21.4465C16.3533 21.4465 16.1941 21.398 15.9125 21.5145C15.6291 21.6297 15.3611 21.6155 15.1106 21.6776C14.8601 21.7396 14.6114 21.4135 14.4194 21.3456C14.2274 21.2737 13.9728 21.1009 13.9728 21.1009L13.4352 21.0484L12.3556 20.5921L10.6406 18.8835L10.1745 19.6131L10.0308 20.516L10.5493 21.5859L11.9454 22.8577L14.6677 23.5489L16.2813 23.0736L18.3027 22.2192L18.8095 21.6757Z" fill="#F1D789"/>
<path fill-rule="evenodd" clip-rule="evenodd" d="M9.13768 15.6369L9.48326 14.5904L9.89507 13.9146L11.2211 13.8038L10.823 14.9651L9.71445 16.9379L10.1746 18.699L9.35912 19.1067L9.10849 18.7223L8.90663 17.8408L8.89307 16.8505L9.13768 15.6369Z" fill="#F4ECB4"/>
<path fill-rule="evenodd" clip-rule="evenodd" d="M10.6256 21.604L10.3713 21.2486C10.3713 21.2486 10.3033 21.0797 10.3422 20.9321C10.3806 20.7826 10.3751 20.7728 10.3558 20.7165C10.3365 20.6602 10.1733 20.466 10.183 20.299C10.1926 20.13 10.1694 20.0737 10.2936 19.9398C10.4236 19.8098 10.3849 19.5845 10.3849 19.5845L10.5538 19.6893L10.5922 19.6311C10.5922 19.6311 10.6543 19.6796 10.6543 19.7554C10.6679 19.6505 10.6115 19.165 10.7397 19.0544C10.8678 18.9439 11.095 19.5728 11.095 19.5728L10.9552 18.6602L10.5959 17.7244L9.95709 16.87L9.91869 15.9282V15.8466C9.91869 15.8466 9.62543 16.2972 9.54387 16.653C9.48565 16.8977 9.62543 17.1947 9.59638 17.5462C9.57296 17.8958 9.54387 17.8685 9.62928 18.007C9.71464 18.1455 9.92249 18.4303 9.84098 18.6361C9.76918 18.8129 9.52442 18.6886 9.52442 18.6886C9.52442 18.6886 9.47593 18.8322 9.40989 18.8847C9.38659 18.7993 9.36135 18.7449 9.31476 18.6927C9.31078 18.7257 9.30118 18.7704 9.30118 18.7704C9.30118 18.7704 9.25844 18.6364 9.21569 18.4674C9.1576 18.2423 9.09537 17.9452 9.03905 17.786C9.01576 17.8772 8.95752 18.1549 8.95752 18.1549L8.99054 18.5821L9.14978 19.1685L9.30338 19.5525L9.45288 20.0224L9.58281 20.338L9.68762 20.5788L9.77891 21.1206L10.2196 21.5865L10.4546 21.6915L10.6256 21.604Z" fill="#F3E19D"/>
<path fill-rule="evenodd" clip-rule="evenodd" d="M9.36875 14.7825C9.36875 14.7825 9.05222 15.3201 8.96108 15.8621C8.86995 16.404 8.78828 16.9767 8.84588 17.7145C8.90412 18.4583 9.01484 18.9145 9.10419 19.2407C9.25777 19.7826 9.65559 20.536 9.65559 20.536L9.66917 20.5068C9.6023 20.38 9.54896 20.2466 9.50994 20.1087C9.45747 19.9029 9.43802 19.6583 9.38948 19.5476C9.34674 19.437 9.27494 19.3418 9.23998 19.2058C9.20696 19.0758 9.20158 18.8699 9.10022 18.7166C9.05747 18.6544 9.00499 18.4913 8.9895 18.3283C8.97005 18.0835 8.99923 17.8097 8.97593 17.5846C8.93318 17.2098 8.90412 16.9555 8.94291 16.7592C8.98169 16.563 9.18379 16.006 9.30809 15.5632C9.38965 15.2797 9.34099 15.0408 9.49049 14.7942C9.63999 14.5496 9.7314 14.334 9.7643 14.1845C9.8027 14.0486 9.36826 14.7825 9.36826 14.7825H9.36875Z" fill="#F2E8B0"/>
<path fill-rule="evenodd" clip-rule="evenodd" d="M10.87 14.567C10.87 14.567 10.7069 14.6156 10.6292 14.701C10.5515 14.7825 10.5185 14.8505 10.4136 14.9883C10.3088 15.1262 10.3029 15.2388 10.2174 15.4116C10.1321 15.5806 9.94362 15.8349 9.92032 15.9262C9.89702 16.0175 9.85825 16.4446 9.80975 16.6466C9.76697 16.8486 9.85825 17.0971 9.85825 17.0971L9.96886 17.0737C9.96886 17.0737 9.96886 17.2175 10.0795 17.3146C10.1902 17.4097 10.2096 16.9922 10.2096 16.9922L10.6232 15.5961L11.2464 15.1728L11.3144 14.831L10.87 14.567Z" fill="#F5EEC0"/>
<path fill-rule="evenodd" clip-rule="evenodd" d="M11.1727 15.2C11.1727 15.2 10.8794 15.2194 10.7358 15.3243C10.6776 15.3669 10.6543 15.4019 10.5922 15.4544C10.4776 15.5495 10.361 15.6369 10.3048 15.7616C10.2426 15.8857 10.1747 16.0741 10.1281 16.4295C10.1086 16.579 10.1086 16.7168 10.0951 16.8373C10.0756 17.0003 10.0465 17.1304 10.062 17.2213C10.0815 17.4076 10.2737 17.5048 10.2924 17.7164L10.6905 17.5145L11.0653 16.0368L11.8615 15.5376L11.4109 15.0327L11.1722 15.1991L11.1727 15.2Z" fill="#E6DB9D"/>
<path fill-rule="evenodd" clip-rule="evenodd" d="M9.07239 25.1509C9.07406 25.1363 9.07572 25.1217 9.07738 25.1067C9.1355 24.6075 9.14534 24.2292 9.18796 23.9922C9.25007 23.6564 9.29282 23.5314 9.28309 23.4057C9.26952 23.2039 9.25405 23.0563 9.27349 22.9009C9.30254 22.6951 9.50451 22.4505 9.49876 22.2815C9.49479 22.1475 9.4268 22.0602 9.36858 21.9787C9.31036 21.8971 9.26377 21.8292 9.26377 21.8292C9.26377 21.8292 9.66184 21.5554 9.65799 20.4524C9.66614 20.4547 9.67396 20.4579 9.68129 20.4621L9.87738 21.0193L10.0114 21.1824L10.526 22.1416L11.1881 22.7844L12.1667 23.4426L12.7803 24.1104L12.8424 25.891L12.0404 26.9317L11.9091 27.1696C10.8658 26.6458 9.90912 25.965 9.07239 25.1509Z" fill="#E5CB7A"/>
<path fill-rule="evenodd" clip-rule="evenodd" d="M11.5225 26.8543C11.5225 26.8543 11.536 26.633 11.7186 26.4892C11.7477 26.5378 11.7671 26.5845 11.7613 26.6193C11.7943 26.5612 12.0254 26.1883 12.5478 26.0912C13.0701 25.9961 13.1963 25.6155 13.1963 25.6155L14.3049 24.6078L15.5729 23.4408L17.1147 22.899L17.8352 22.7222C17.8352 22.7222 17.8487 22.7747 17.8216 22.8912C17.9555 22.8816 18.2526 22.8136 18.5613 22.7048C18.6856 22.6563 18.8022 22.6368 18.8643 22.701C18.9556 22.7863 18.9691 22.9883 18.9749 23.1086C19.1244 23.0756 19.2972 22.932 19.4357 22.9456C19.6571 22.9688 19.8532 23.2291 20.0785 23.2291C20.3756 23.2291 20.5095 23.0465 20.7174 22.9028C20.8416 22.8174 21.0202 22.7108 21.1212 22.6388C21.362 22.462 23.9095 21.6833 23.9095 21.6833L24.8027 21.7416L24.9464 22.7008L24.8696 25.2083C24.8602 25.2174 24.8507 25.2269 24.8411 25.236L20.7799 27.3571L15.1505 28.22C13.8895 28.014 12.6726 27.5955 11.5516 26.9822L11.5225 26.8543Z" fill="#D8C173"/>
<path fill-rule="evenodd" clip-rule="evenodd" d="M9.41406 25.4698C9.49405 25.3025 9.56601 25.1626 9.57867 25.1126C9.58864 25.2135 9.60697 25.4348 9.6438 25.67C9.56642 25.6042 9.48983 25.5376 9.41406 25.4698Z" fill="#F1D789"/>
<path fill-rule="evenodd" clip-rule="evenodd" d="M13.5263 27.8298L14.2544 27.6272L14.3164 27.6467C14.3164 27.6467 14.3495 27.6661 14.3495 27.7321C14.4407 27.6797 14.5184 27.6893 14.5747 27.6545C14.6038 27.7166 14.6329 27.9224 14.7611 27.9476C14.895 27.9768 15.0388 27.8894 15.1844 27.7788C15.328 27.6642 15.4916 27.5205 15.6154 27.4623C15.6608 27.5458 15.701 27.632 15.7358 27.7204C15.8989 27.5904 16.1824 27.0622 16.5863 27.0718C16.703 26.796 16.898 26.5604 17.1472 26.3942C17.5219 26.1399 17.7568 26.1204 18.0501 26.1437C18.1665 25.9924 18.3101 25.864 18.4734 25.7651C18.5219 25.7845 18.6559 25.8661 18.8229 25.7884C18.9919 25.7108 19.1821 25.4098 19.4326 25.371C19.5676 25.3524 19.7049 25.3812 19.821 25.4525C19.821 25.4525 20.5506 24.7282 21.054 24.4874C21.0345 24.4292 20.9957 24.2098 21.586 23.7243C21.619 23.7534 21.5957 23.835 21.619 23.8395C21.6286 23.8395 21.7726 23.7774 21.9549 23.6375C22.1801 23.4687 22.45 23.2919 22.613 23.2434C22.9202 23.1521 23.2461 23.3385 23.2461 23.3385C23.2738 23.319 23.3047 23.3046 23.3374 23.2957C23.4149 23.2822 23.4712 23.2724 23.514 23.2573C23.5102 23.3583 23.5665 23.5311 23.514 23.6806C23.5748 23.7148 23.6392 23.7421 23.706 23.7622C23.6731 23.834 23.6012 24.0165 23.4808 24.1039C23.5817 24.1524 23.5953 24.2087 23.739 24.2575C23.6808 24.339 23.5854 24.4789 23.5429 24.5647C23.5002 24.656 23.3467 25.0346 23.2787 25.1782C23.2069 25.322 23.1099 25.586 23.0632 25.639C23.0165 25.692 22.8477 25.9167 22.7176 26.0272C22.8328 25.9845 23.3041 25.8409 23.504 25.7865C23.4445 25.8738 23.1428 26.3214 22.8527 26.7519C21.464 27.5842 19.9138 28.111 18.3055 28.2973C16.6972 28.4835 15.0676 28.3247 13.5254 27.8317L13.5263 27.8298Z" fill="#E0CD81"/>
<path fill-rule="evenodd" clip-rule="evenodd" d="M11.2206 15.1476C11.2206 15.1476 11.0518 15.1476 11.0188 15.1709C10.9857 15.1942 11.1877 15.2428 11.2498 15.2661C11.3118 15.2894 11.4459 15.3962 11.4808 15.4817C11.5139 15.5632 12.6944 16.0388 12.6944 16.0388L13.5293 15.9961L13.8172 15.5984L13.2696 15.1188L13.6536 13.9868L13.145 14.0683L11.9217 14.7979L11.308 15.0329L11.2206 15.1476Z" fill="#DFC57C"/>
<path fill-rule="evenodd" clip-rule="evenodd" d="M13.0543 15.5224C13.0664 15.5419 13.0834 15.5579 13.1036 15.5688C13.1238 15.5797 13.1466 15.5851 13.1695 15.5844C13.3423 15.5844 13.5014 15.6272 13.5675 15.7145C13.6782 15.8544 13.985 16.301 13.985 16.301L14.719 16.565L14.7663 15.7008L13.9644 15.1436L13.0518 15.4795V15.5222H13.0538L13.0543 15.5224Z" fill="#E5CC7C"/>
<path fill-rule="evenodd" clip-rule="evenodd" d="M12.9101 15.8428C12.9101 15.8428 13.044 15.8525 13.213 15.7903C13.3819 15.7281 13.6596 15.5942 13.78 15.6467C13.9489 15.7185 13.9139 15.9438 14.0966 16.1459C14.2071 16.2702 14.4092 16.2664 14.5237 16.4004C14.6383 16.5344 15.0324 16.4722 15.0324 16.4722L15.1819 17.2786L14.5819 18.0476L14.3857 19.0028H13.5745L12.8333 18.7088L12.4683 17.8256L12.6508 16.9325L12.9101 15.8428Z" fill="#D2C281"/>
<path fill-rule="evenodd" clip-rule="evenodd" d="M14.4793 15.8816C14.4994 15.8878 14.5203 15.8911 14.5413 15.8914C14.518 15.9108 14.4694 15.9534 14.4889 16.0642C14.5083 16.1748 14.5704 16.3146 14.518 16.4C14.5598 16.4457 14.591 16.5001 14.6093 16.5593C14.6424 16.6545 14.6521 16.7418 14.8675 16.7555C14.8364 16.7746 14.8077 16.7974 14.7821 16.8234C14.7821 16.8234 14.9316 16.9535 15.0074 17.0738C15.0849 17.0705 15.2908 17.0065 15.2908 17.0065L15.3336 17.0357L15.4248 16.9973C15.4248 16.9973 15.3394 16.9642 15.4015 16.7565C15.4598 16.5739 15.5122 16.5837 15.5167 16.5701C15.5212 16.5566 15.5594 16.3643 15.5594 16.2866C15.5885 16.1857 15.6118 15.8789 15.6118 15.8789L15.5497 15.2013L15.2003 14.9896L14.9161 14.7153L14.6481 15.2201L14.4716 15.3961L14.458 15.833L14.4793 15.8816Z" fill="#E2C270"/>
<path fill-rule="evenodd" clip-rule="evenodd" d="M15.3208 15.3146C15.3208 15.3146 15.3829 15.4912 15.4063 15.6271C15.4146 15.6007 15.4191 15.5733 15.4199 15.5456C15.4199 15.5456 15.4684 15.8136 15.478 15.9244C15.4974 15.9204 15.5164 15.9147 15.5207 15.934C15.5251 15.9533 15.5694 16.169 15.5591 16.2893C15.64 16.1559 15.7519 16.044 15.8853 15.9631C15.963 15.9145 16.0542 15.8622 16.1495 15.8582C16.299 15.8544 16.4077 15.9534 16.5863 15.9534C17.0173 15.9534 17.4077 15.6369 17.6951 15.5399C17.9067 15.4679 18.0892 15.4156 18.2173 15.299C18.2795 15.2466 18.3902 15.1301 18.4911 14.9572C18.6251 14.7268 18.7649 14.5263 18.9048 14.501C18.8415 14.5126 18.7771 14.5172 18.7128 14.5146C18.7128 14.5146 18.7556 14.4718 18.828 14.4136C18.9004 14.3554 18.9873 14.2836 19.1114 14.2836C19.3329 14.2836 19.4434 14.3165 19.5677 14.3165C19.692 14.3126 19.7638 14.2836 19.7638 14.2836C19.7638 14.2836 19.894 14.3748 20.1871 14.3748C20.4803 14.3787 20.6764 14.4039 20.8299 14.4175C20.9834 14.4312 21.4978 14.3748 21.6454 14.3791C21.7416 14.3829 21.8361 14.406 21.9232 14.4471L21.4474 13.0647L19.7383 11.571L18.7209 12.2914L17.1557 13.8564L15.6412 14.4175L15.3246 14.7729V15.3146H15.3208Z" fill="#CCB360"/>
<path fill-rule="evenodd" clip-rule="evenodd" d="M18.7185 14.5223C18.7185 14.5223 18.7612 14.4797 18.833 14.4214C18.9046 14.3632 18.9923 14.2913 19.1164 14.2913C19.3378 14.2913 19.4485 14.3243 19.5728 14.3243C19.6971 14.3205 19.7689 14.2913 19.7689 14.2913C19.7689 14.2913 19.8992 14.3824 20.1922 14.3824C20.4854 14.3863 20.6815 14.4115 20.835 14.425C20.9884 14.4386 21.5029 14.3824 21.6505 14.3866C21.7467 14.3902 21.8411 14.4134 21.9281 14.4546L21.7125 13.8312L21.4622 13.3556L20.7476 12.573C20.7476 12.573 19.8899 12.0682 19.8834 12.0643C19.8796 12.0605 19.5863 11.9828 19.5863 11.9828L18.8097 12.4527L18.1049 14.276L18.0913 14.66L18.5475 14.8756C18.6621 14.6836 18.7884 14.53 18.9068 14.5105C18.7999 14.5222 18.7185 14.5223 18.7185 14.5223Z" fill="#D5B457"/>
<path fill-rule="evenodd" clip-rule="evenodd" d="M18.709 14.6525C18.641 14.6563 18.5848 14.6428 18.5692 14.5943C18.5109 14.4312 18.4643 14.4079 18.4156 14.4079C18.3668 14.4079 18.301 14.5127 18.262 14.5223C18.2229 14.5319 18.1766 14.402 18.1766 14.402L18.1338 14.3826C18.1338 14.3826 17.8834 14.5456 17.7067 14.7379C17.5301 14.9301 17.2407 15.2564 17.1106 15.3145C16.9806 15.3727 16.5339 15.3922 16.381 15.4252C16.2282 15.4583 16.0587 15.569 16.0354 15.5942C16.0121 15.6194 16.1035 15.6465 16.1171 15.6718C16.1307 15.6951 15.9675 15.6854 15.9539 15.7102C15.9443 15.7296 15.9923 15.8402 16.0161 15.8966C16.0578 15.8758 16.1035 15.8645 16.15 15.8635C16.2995 15.8597 16.4083 15.9587 16.5868 15.9587C17.018 15.9587 17.4082 15.6422 17.6956 15.545C17.9073 15.4732 18.0898 15.4208 18.218 15.3043C18.28 15.2519 18.3908 15.1353 18.4917 14.9625C18.5655 14.8441 18.6374 14.7334 18.7093 14.6519L18.709 14.6525Z" fill="#D2B257"/>
<path fill-rule="evenodd" clip-rule="evenodd" d="M12.5265 24.2622C12.5265 24.2622 12.4881 24.1185 12.1323 23.7477C12.0313 23.6428 11.9692 23.5557 11.9012 23.4933C11.7323 23.334 11.6332 23.2914 11.5129 23.2001C11.2489 23.004 10.9615 23.004 10.7402 22.7632C10.5188 22.5225 10.2609 22.0624 10.0818 21.5923C9.90511 21.1224 9.85645 20.9729 9.85645 20.9594C9.85645 20.9458 9.90511 20.8545 9.96718 20.8681C10.0292 20.8816 10.0292 21.002 10.0449 21.0311C10.0758 21.0788 10.1109 21.1236 10.1497 21.165C10.241 21.27 10.371 21.3955 10.4371 21.5826C10.4235 21.4233 10.3691 21.2467 10.3691 21.2467C10.3691 21.2467 10.7108 21.4622 11.0021 21.6874C11.2953 21.9127 11.4156 21.9904 11.5013 22.134C11.5869 22.2776 11.7886 22.6564 11.8853 22.7671C11.9819 22.8778 13.3061 23.2952 13.3061 23.2952L13.9359 23.7648L14.2487 24.4503L14.0039 24.8343L13.534 24.9353L12.7709 24.5935L12.5265 24.2622Z" fill="#D2B159"/>
<path fill-rule="evenodd" clip-rule="evenodd" d="M10.8311 21.901C10.8311 21.901 10.9903 22.1553 11.3786 22.3961C11.7282 22.6078 12.2816 22.8 12.7748 22.9146C13.0583 22.9826 13.3418 23.0349 13.5961 23.0389C14.2816 23.0485 14.7534 22.8525 15.3379 22.7884C15.6545 22.7554 16.0428 22.7302 16.4467 22.6348C16.9651 22.5105 17.2719 22.3706 17.6894 22.174C17.9923 22.0342 18.27 21.9294 18.4952 21.7954C18.8117 21.609 19.0428 21.4013 19.3108 21.3392C19.2778 21.4305 19.2428 21.5935 18.9788 21.7625C19.1185 21.7585 19.3108 21.7489 19.3108 21.7489C19.3108 21.7489 19.1244 21.8595 18.7962 22.1081C18.5943 22.2617 18.3263 22.5216 18.0526 22.6944C17.8758 22.8052 17.6836 22.8865 17.5573 22.9528C17.2501 23.1217 17.1262 23.2071 16.9244 23.4136C16.9962 23.4097 17.0021 23.4136 17.0021 23.4136C17.0021 23.4136 16.7476 23.4466 16.5652 23.5436C16.5268 23.5436 16.4603 23.53 16.3438 23.5631C16.2525 23.5921 16.132 23.6583 16.0079 23.6931C15.8311 23.7456 15.773 23.7223 15.773 23.7223L15.8021 23.7805C15.8021 23.7805 15.5717 23.7766 15.4949 23.7844C15.5084 23.7882 15.5046 23.7941 15.5046 23.7941C15.4911 23.7964 15.4781 23.801 15.4662 23.8077C15.4292 23.8316 15.3886 23.8493 15.3459 23.86C15.3226 23.8638 15.3031 23.8638 15.274 23.8697C15.2837 23.893 15.3594 24.0233 15.3944 24.1001C15.3653 24.1196 14.9284 24.4497 14.9284 24.4497C14.9419 24.471 14.953 24.4938 14.9614 24.5177C14.9749 24.5603 14.9808 24.6225 14.9944 24.6516C15.0273 24.7098 15.0467 24.7195 15.0467 24.7195C15.0467 24.7195 14.9944 24.7293 14.903 24.7526C14.8254 24.772 14.7302 24.8049 14.5958 24.8244C14.5546 24.8297 14.5131 24.833 14.4715 24.8341C14.491 24.8769 14.5763 25.0399 14.419 25.2282C14.2617 25.4165 14.2132 25.4439 14.1647 25.5642C14.1403 25.5458 14.1143 25.5294 14.087 25.5156C14.0346 25.4923 13.9627 25.4574 13.9375 25.4107C13.9228 25.473 13.9033 25.534 13.8793 25.5933C13.8307 25.7233 13.7589 25.8516 13.7454 25.9486C13.6929 25.8904 13.5959 25.7758 13.4618 25.7991C13.3278 25.8224 13.2211 26.0049 13.1978 26.0574C13.1978 26.0244 13.1745 25.9991 13.1687 26.0379C13.1648 26.0807 13.091 26.5271 12.6794 26.8884C12.6755 26.7971 12.6755 26.5951 12.6658 26.5292C12.6274 26.5676 12.5804 26.6243 12.3008 26.7448C12.027 26.8651 12.0704 26.9855 12.0704 26.9855C12.0704 26.9855 12.0471 26.7935 12.1946 26.5913C12.3441 26.3894 12.4354 26.2942 12.4354 26.2787C12.433 26.2629 12.4263 26.2481 12.416 26.236C12.3965 26.2165 12.3577 26.1932 12.3577 26.1777C12.381 26.1681 12.6121 26.0574 12.5985 25.8281C12.5849 25.6224 12.4976 25.5156 12.4354 25.4399C12.4258 25.4302 12.5268 25.3584 12.5131 25.3351C12.5034 25.3215 12.3792 25.2301 12.3636 25.1815C12.3673 25.1524 12.3738 25.1238 12.3831 25.0961C12.3966 25.0534 12.4064 25.0242 12.4025 24.9951C12.3928 24.9466 12.3403 24.8126 12.3248 24.799C12.3384 24.8029 12.4354 24.799 12.4354 24.799C12.4354 24.799 12.3578 24.6747 12.3441 24.6165C12.3304 24.5583 12.3014 24.4048 12.2859 24.3757C12.3189 24.3796 12.4004 24.3853 12.4004 24.3757C12.4044 24.3465 12.3287 24.298 12.362 24.2605C12.3853 24.2644 12.43 24.2838 12.4727 24.3382C12.4494 24.276 12.4106 24.1557 12.3289 24.1072C12.3673 24.0936 12.4979 24.0585 12.6124 24.1265C12.727 24.1945 12.766 24.2896 12.766 24.2896C12.766 24.2896 12.834 24.3421 12.939 24.4198C13.0593 24.5149 13.2126 24.6502 13.4574 24.7459C13.5098 24.7751 13.6437 24.7751 13.7409 24.7556C13.7832 24.7456 13.8237 24.7292 13.8612 24.7071C13.8747 24.6991 13.8891 24.6926 13.904 24.6877C13.8831 24.6458 13.8591 24.6055 13.8321 24.5672C13.8652 24.5672 13.904 24.5712 13.904 24.5712C13.904 24.5712 13.9273 24.5187 13.8224 24.4176C13.8457 24.3943 13.8749 24.3792 13.8749 24.3399C13.8419 24.3361 13.7836 24.2875 13.7701 24.2681C13.7894 24.2545 13.8186 24.2098 13.8516 24.1963C13.8224 24.173 13.7506 24.0758 13.7176 24.0662C13.7491 24.0545 13.7797 24.0402 13.8088 24.0235C13.8088 24.0235 13.6458 23.9807 13.5933 23.9458C13.5408 23.9074 13.4632 23.8409 13.4166 23.8215C13.368 23.802 13.2827 23.7924 13.2477 23.7535C13.2806 23.7633 13.3331 23.7535 13.372 23.7535C13.401 23.7535 13.4147 23.7574 13.4243 23.7574C13.4205 23.7438 13.4205 23.7146 13.4963 23.705C13.5327 23.6995 13.5681 23.6884 13.6011 23.672C13.6011 23.672 13.5292 23.6681 13.4475 23.5905C13.3658 23.5127 13.298 23.4507 13.2514 23.441C13.2029 23.4312 13.1116 23.474 13.0553 23.47C12.9776 23.4604 12.9446 23.4215 12.9446 23.4215C12.9446 23.4215 12.6864 23.4448 12.1136 23.0954C11.6184 22.7924 11.4028 22.5245 11.4028 22.5245C11.3565 22.5076 11.3117 22.4868 11.2689 22.4622C11.0826 22.3652 10.8243 22.1632 10.8321 21.8991L10.8311 21.901Z" fill="#C2A44D"/>
<path fill-rule="evenodd" clip-rule="evenodd" d="M17.9747 10.2465C18.0197 10.2611 18.0596 10.288 18.0899 10.3242C18.1812 10.4291 18.2394 10.6271 18.0317 10.8388C18.1132 10.8679 18.1469 10.8772 18.218 10.8679C18.1462 10.9533 17.9832 11.1359 17.9734 11.2951C17.9637 11.4252 18.0452 11.464 18.0452 11.464C18.0452 11.464 17.921 11.6077 17.9152 11.848C17.9739 11.7819 18.0381 11.7208 18.1072 11.6655C18.2509 11.551 18.449 11.4209 18.583 11.3394C18.5812 11.3736 18.5858 11.4078 18.5965 11.4403C18.5965 11.4403 18.8469 11.2344 19.0573 11.3258C19.1525 11.3686 19.1097 11.5024 19.1097 11.5024C19.1097 11.5024 19.2399 11.454 19.3311 11.5452C19.4224 11.6365 19.5514 11.8719 19.6176 11.9631C19.6467 12.0059 19.7224 12.0874 19.8 12.2136C19.906 12.3903 19.9945 12.5769 20.0642 12.7708C20.068 12.6698 20.0933 12.5126 20.3807 12.6116C20.6681 12.7126 20.9943 12.9243 21.268 13.3412C21.5418 13.7581 21.6097 14.2287 21.7475 14.4079C21.8873 14.5807 22.0311 14.8681 22.0408 14.9885C22.0505 15.109 21.998 15.4972 22.2854 16.5477C22.3669 16.2216 22.4912 15.4972 22.4912 15.4972L22.5592 14.8584L22.6369 12.8817L20.5727 11.1669L18.9592 9.99591L17.9087 10.0969L17.9747 10.2465Z" fill="#CAA13E"/>
<path fill-rule="evenodd" clip-rule="evenodd" d="M21.8095 13.1882C21.8095 13.1882 21.7804 12.9962 21.295 12.6698C20.8095 12.3475 20.4309 12.3475 20.0814 12.0737C19.8134 11.8582 19.5338 11.363 19.3518 11.1999C19.175 11.0387 19.146 10.5727 19.146 10.5727L19.7421 10.0735L20.6286 8.79207L21.3781 7.96686L21.7373 8.46606L22.2365 9.05243L22.5141 10.2291L22.6151 11.9515L21.8087 13.1884L21.8095 13.1882Z" fill="#B59544"/>
<path fill-rule="evenodd" clip-rule="evenodd" d="M22.4095 15.2528C22.4243 14.9916 22.392 14.7299 22.3143 14.4801C22.1863 14.0819 21.9066 13.3751 21.7767 13.1104C21.7242 12.8172 21.7631 12.7939 21.8195 12.7609C21.8758 12.7278 22.0875 12.6073 22.2035 12.1842C22.3194 11.7612 22.6792 11.7474 22.6792 11.7474L22.9006 11.5843L23.2366 12.425L23.5297 13.1843L23.6209 13.7649L23.6889 14.26L23.5297 15.3066L22.7434 16.0173L22.4095 15.2528Z" fill="#C89D3A"/>
<path fill-rule="evenodd" clip-rule="evenodd" d="M11.437 26.9186V26.8971C11.4534 26.8869 11.4678 26.8739 11.4796 26.8587C11.4932 26.8392 11.5031 26.8159 11.5127 26.8101C11.5321 26.8004 11.6234 26.7717 11.6719 26.781C11.7204 26.7902 11.8487 26.843 11.9166 26.8392C12.0564 26.8354 12.2195 26.7285 12.4778 26.7771C12.8661 26.849 12.9574 27.113 13.1827 27.2625C13.3363 27.3675 13.4952 27.3208 13.5185 27.3208H13.5709C13.5806 27.3208 13.6524 27.2392 13.6913 27.2432C13.769 27.247 13.7767 27.3112 13.8252 27.315C13.9398 27.3285 14.1612 27.2567 14.2719 27.2859C14.3048 27.2962 14.3346 27.3143 14.359 27.3386C14.3833 27.3629 14.4014 27.3928 14.4117 27.4256C14.435 27.4974 14.4156 27.5887 14.3592 27.6411C14.2389 27.7517 14.1243 27.8567 14.1011 27.9483C14.1307 27.9709 14.1591 27.995 14.1863 28.0205C13.2255 27.7757 12.3012 27.4056 11.437 26.9197V26.9186Z" fill="#CEB052"/>
<path fill-rule="evenodd" clip-rule="evenodd" d="M21.7769 23.0389C21.7769 23.0389 22.0797 22.6351 22.1847 22.435C22.2895 22.2288 21.8527 19.6176 21.8527 19.6176L22.7304 16.742L22.7069 15.806C22.7069 15.806 22.7497 14.9419 22.8506 14.5671C22.9711 14.7827 23.3459 15.0429 23.4274 15.1807C23.4658 14.9166 23.5963 14.3594 23.5769 13.7652C23.6487 13.8758 23.8215 14.9885 23.8215 14.9885L23.9943 15.738L24.2196 16.5341L24.4701 17.3749L24.6196 17.9556L24.705 18.0953L24.7769 18.3399L24.8449 18.6041L25.041 19.2235L25.1562 19.7322L25.2475 20.6546C25.2673 20.7252 25.2816 20.7972 25.2902 20.8701C25.2941 20.9711 25.2766 21.0293 25.2766 21.0469C25.2766 21.0644 25.3097 21.2682 25.2961 21.4217C25.2766 21.5753 25.2766 21.6955 25.1562 21.8057C25.0358 21.9158 24.9601 22.5746 24.9601 22.5746L24.7445 22.4309C24.7445 22.4309 24.7873 22.2347 24.6863 22.0562C24.5853 21.8776 24.3892 21.8406 24.2785 21.8698C24.1679 21.8931 23.9466 21.9279 23.8747 21.9901C23.8067 22.0522 23.6398 22.2444 23.4863 22.3319C23.2943 22.4471 22.9815 22.4561 22.8146 22.4949C22.6456 22.5333 22.4592 22.6485 22.263 22.7823C22.1092 22.8819 21.9467 22.9676 21.7776 23.0383L21.7769 23.0389Z" fill="#CCA847"/>
<path fill-rule="evenodd" clip-rule="evenodd" d="M21.7769 27.2816C21.7769 27.2816 21.7897 27.2899 21.8144 27.3035C23.1939 26.6571 24.43 25.7409 25.4496 24.609C25.4384 24.2161 25.424 23.8133 25.4081 23.664C25.3752 23.3475 25.3985 23.0252 25.3888 22.8388C25.379 22.6524 25.2742 21.8932 25.2257 21.6971C25.1732 21.501 25.0721 21.4038 25.0567 21.4038C25.0432 21.4078 24.9615 21.7728 24.9615 21.8646C24.9615 21.9564 24.942 22.1773 24.942 22.2336C24.9285 22.2297 24.9227 22.1952 24.9227 22.1812C24.9033 22.2297 24.88 22.3151 24.8702 22.3249C24.8605 22.3346 24.8838 22.2434 24.8702 22.2239C24.8567 22.2045 24.8318 22.2142 24.8372 22.1656C24.8395 22.1369 24.8441 22.1083 24.8508 22.0803C24.8508 22.0803 24.7925 22.1656 24.7499 22.3831C24.7072 22.5987 24.7072 22.6046 24.6917 22.6239C24.6781 22.6473 24.6004 22.7249 24.5964 22.7541C24.5926 22.8064 24.6684 22.8589 24.6742 22.888C24.678 22.9366 24.6062 23.1618 24.5829 23.272C24.5596 23.3822 24.5693 23.5981 24.5445 23.7088C24.525 23.8098 24.5061 23.8681 24.4397 23.9107C24.4882 23.9204 24.5347 23.934 24.5347 23.934C24.5347 23.934 24.6027 24.2213 24.4299 24.4661C24.3679 24.5514 24.3523 24.5903 24.2863 24.6681C24.1561 24.8117 24.0552 24.9753 24.0454 25.0816C24.0387 25.0502 24.0342 25.0184 24.0319 24.9864C24.0319 24.9864 23.83 25.2214 23.7445 25.3554C23.6339 25.5282 23.4804 25.5185 23.4373 25.5612C23.3942 25.604 23.3848 25.6816 23.3989 25.7438C23.3605 25.7534 23.2883 25.767 23.2397 25.9166C23.2164 25.9941 23.1581 26.0702 23.0669 26.1224C22.9756 26.1746 22.8649 26.1904 22.8086 26.2039C22.8571 26.2175 22.8765 26.2175 22.8998 26.233C22.8708 26.2815 22.7367 26.3573 22.5872 26.4544C22.4377 26.5457 22.3658 26.6796 22.3289 26.767C22.2905 26.8485 22.2338 26.901 22.1426 26.9107C22.181 26.934 22.2378 26.9883 22.2669 27.0059C22.2241 27.0156 22.1517 27.0156 22.0222 27.1263C21.8863 27.239 21.8397 27.272 21.7775 27.2817L21.7769 27.2816Z" fill="#C39D3C"/>
<path fill-rule="evenodd" clip-rule="evenodd" d="M19.0748 28.1814C19.1492 28.1293 19.2297 28.0866 19.3146 28.0543C19.6174 27.934 19.9378 27.9107 20.0641 27.8719C20.1845 27.8335 20.2796 27.7805 20.4291 27.7515C20.4251 27.7855 20.4218 27.8175 20.4182 27.8477C19.9774 27.9863 19.5286 28.0977 19.0742 28.1814H19.0748Z" fill="#D2BA6B"/>
<path fill-rule="evenodd" clip-rule="evenodd" d="M24.6607 20.2156C24.6607 20.2156 24.5985 20.5514 24.4879 20.7632C24.3771 20.9749 24.2575 21.268 24.2575 21.268C24.2582 21.2019 24.266 21.1362 24.2808 21.0718C24.141 21.1533 23.8011 21.3495 23.7048 21.4368C23.6135 21.5183 23.46 21.6621 23.4212 21.7301C23.5125 21.4622 23.6076 21.2214 23.6232 21.1107C23.4834 21.2117 22.8309 21.7495 22.4912 22.1048L21.4329 22.9612C21.3108 23.0271 21.185 23.0859 21.0561 23.1375C20.8737 23.2151 20.6582 23.2812 20.499 23.3434C20.5417 23.2288 20.6096 23.1277 20.7048 23.0307C20.8058 22.9356 21.1087 22.6074 21.1552 22.4547C21.198 22.2954 21.2077 22.2003 21.1514 22.0663C21.0989 22.0799 20.9786 22.0858 20.897 22.1091C20.8155 22.1324 20.7281 22.2197 20.7281 22.2197C20.7281 22.2197 20.7902 21.8643 20.9242 21.5285C20.8232 21.5323 20.6504 21.5614 20.6504 21.5614C20.6504 21.5614 20.8912 21.1575 21.3032 20.876C21.177 20.9029 21.0535 20.9412 20.9343 20.9905C20.6935 21.0915 20.4295 21.241 20.2334 21.3225C20.344 21.1689 21.1207 20.0604 21.5829 19.0273C22.0437 17.9963 22.2158 17.7322 22.3168 17.1789C22.3692 16.9051 22.3552 16.5005 22.3692 16.1381C22.3828 15.7788 22.4274 15.4565 22.3984 15.241C22.5187 15.3905 22.9692 15.8118 22.9848 16.7537C22.9983 17.6954 22.5537 18.9673 22.0818 19.6526C22.197 19.6856 22.4955 19.7246 22.8022 19.1918C23.1089 18.6591 23.1052 18.5103 23.2159 18.2889C23.2295 18.3996 23.2255 18.4384 23.2255 18.4384C23.2255 18.4384 23.6722 17.8967 23.8838 17.2151C23.9265 17.5084 24.0528 17.7667 23.8546 18.3045C23.678 18.7899 23.447 18.9084 23.447 18.9084C23.447 18.9084 23.5615 18.889 23.7303 18.788C23.7595 18.8598 23.7537 18.9416 23.8023 18.9705C23.8508 18.9994 23.9168 19.0482 23.9265 19.0948C23.9789 19.0171 24.0604 18.918 24.0858 18.8443C24.0663 18.9979 24.0528 19.6695 24.1242 20.0113C24.2738 19.9977 24.4272 19.988 24.532 19.718C24.4602 19.9822 24.4602 20.1413 24.5087 20.3666C24.5883 20.3123 24.6601 20.2152 24.6601 20.2152L24.6607 20.2156Z" fill="#C0993A"/>
<path fill-rule="evenodd" clip-rule="evenodd" d="M19.6156 9.51268C19.6156 9.51268 19.4661 9.57475 19.2118 9.57475C18.9905 9.57475 19.0526 9.48938 18.707 9.48938C18.175 9.48938 16.3167 9.79658 15.9904 9.79219C15.7787 9.78839 16.7049 9.88348 16.7049 9.88348L19.072 9.9165L19.5477 9.8781L19.7245 9.51843L19.6156 9.51268Z" fill="#A88F33"/>
<path fill-rule="evenodd" clip-rule="evenodd" d="M13.478 14.1398C13.478 14.1398 13.175 14.3708 13.0468 14.5476C12.9187 14.7244 12.8507 14.8407 12.7051 14.9844C12.7393 14.9858 12.7734 14.9812 12.8061 14.9709C12.8061 14.9709 12.8061 15.0093 12.7828 15.0194C12.8029 15.0172 12.8233 15.0195 12.8424 15.0261C12.8616 15.0327 12.879 15.0436 12.8934 15.0578C12.8506 15.0811 12.7341 15.1977 12.8254 15.3356C12.8934 15.4404 13.0371 15.45 13.0371 15.45C13.0371 15.45 13.0041 15.5452 13.142 15.5355C13.439 15.5219 13.7711 15.3917 13.9244 15.4248C14.078 15.4632 14.1653 15.4773 14.274 15.6657C14.3892 15.852 14.4895 15.8812 14.4895 15.8812C14.4895 15.8812 14.5575 15.7083 14.542 15.4501C14.5977 15.311 14.6286 15.1631 14.6333 15.0132L14.5323 14.2696L14.0916 13.7123L13.5207 14.0288L13.478 14.1398Z" fill="#E3C571"/>
<path fill-rule="evenodd" clip-rule="evenodd" d="M14.0195 14.0291C14.0195 14.0291 14.0623 14.1301 14.241 14.1397C14.2215 14.1825 14.2215 14.1883 14.2274 14.2212C14.2312 14.2543 14.237 14.3028 14.237 14.3028C14.2567 14.2933 14.2744 14.2802 14.2895 14.2644C14.2992 14.3071 14.2797 14.375 14.2895 14.4236C14.2955 14.4532 14.3053 14.4819 14.3185 14.509C14.3214 14.5024 14.3246 14.4959 14.3283 14.4897C14.3321 14.4799 14.3667 14.5945 14.4623 14.6817C14.4622 14.6683 14.4655 14.6551 14.4719 14.6433C14.4733 14.6676 14.4814 14.6911 14.4952 14.7112C14.488 14.7078 14.4815 14.7032 14.4758 14.6977C14.4758 14.6977 14.4854 15.0049 14.5379 15.1637C14.5467 15.1534 14.5545 15.1424 14.5612 15.1307C14.5612 15.1211 14.5574 15.2162 14.5477 15.2843C14.5341 15.3523 14.5438 15.4473 14.5438 15.4473C14.5788 15.4198 14.6173 15.3969 14.6582 15.3794C14.7165 15.356 14.8118 15.2841 14.87 15.1249C14.9037 15.0347 14.9297 14.9419 14.9477 14.8473C14.9664 14.8834 14.9794 14.9223 14.9861 14.9625C14.99 15.011 15.0813 14.9858 15.0813 14.9858L15.1007 14.7741L15.2159 14.2945L15.3208 13.9974L15.8256 13.2111L16.7377 12.5086L17.5339 12.6911L18.2056 11.7785L17.0484 11.0833L15.9532 11.1979L14.9593 12.5745L14.1633 13.8232L14.0195 14.0291Z" fill="#D8B65B"/>
<path fill-rule="evenodd" clip-rule="evenodd" d="M19.7553 12.0369C19.7553 12.0369 19.6873 12.0505 19.4912 12.1521C19.2951 12.2538 19.1592 12.286 19.0834 12.4355C19.0076 12.585 19.0019 12.7036 19.0019 12.7036C19.0019 12.7036 19.1359 12.6453 19.2136 12.6259C19.2951 12.6065 19.3864 12.6123 19.3767 12.6453C19.3674 12.668 19.3544 12.6889 19.3383 12.7074C19.3383 12.7074 19.4919 12.7036 19.4878 12.7793C19.4837 12.8551 19.4587 12.9386 19.4297 12.9754C19.4005 13.0138 19.2802 13.0707 19.2666 13.1153C19.2336 13.2066 19.2802 13.2104 19.2626 13.2842C19.249 13.3561 19.1851 13.4959 18.9753 13.7405C18.7597 13.9852 18.6681 14.158 18.6681 14.158C18.6681 14.158 18.5632 13.9619 18.5089 13.793C18.4705 13.8123 18.2642 13.9269 18.2642 13.9269L17.7865 12.2628L17.7961 12.1521C17.7961 12.1521 17.8389 12.0998 17.8486 12.0026C17.7768 11.9793 17.7671 11.9599 17.6718 11.8687C17.5766 11.7776 17.499 11.6668 17.3399 11.591C17.3166 11.5482 17.2875 11.4901 17.171 11.4667C17.0545 11.4433 16.9846 11.4241 16.9846 11.4241C16.9846 11.4241 17.0467 11.4007 17.0759 11.3521C17.0039 11.3619 16.9458 11.3851 16.7885 11.3813C16.6293 11.3774 16.6117 11.3716 16.5245 11.3851C16.4372 11.3987 16.3325 11.4376 16.2934 11.3036C16.2507 11.2706 16.1594 11.2998 16.0817 11.4142C16.004 11.5286 15.9769 11.62 15.8274 11.6647C15.8168 11.7306 15.7938 11.7939 15.7594 11.8511C15.7167 11.923 15.6487 11.9948 15.5574 12.1016C15.4137 12.2705 15.437 12.5482 15.2079 12.7599C14.9768 12.9715 15.2463 12.1734 15.2463 12.1734L15.6152 11.2902L16.6657 10.263L18.2967 10.1524L18.456 10.9972L19.2522 11.271L19.755 12.038L19.7553 12.0369Z" fill="#D3AE4D"/>
<path fill-rule="evenodd" clip-rule="evenodd" d="M20.0139 12.2233L19.3284 11.235L18.8488 10.866C18.8488 10.866 18.5071 10.237 18.4838 10.2175C18.4643 10.204 18.142 10.169 17.9362 10.1555L17.9746 10.2505C18.0195 10.2652 18.0594 10.292 18.0898 10.3283C18.181 10.4331 18.2393 10.6311 18.0315 10.8428C18.1131 10.8719 18.1467 10.8812 18.2179 10.8719C18.1461 10.9574 17.983 11.1399 17.9733 11.2991C17.9636 11.4292 18.0451 11.468 18.0451 11.468C18.0451 11.468 17.9208 11.6117 17.915 11.852C17.9738 11.7858 18.038 11.7247 18.107 11.6694C18.2508 11.5542 18.4488 11.4247 18.5828 11.3432C18.581 11.3774 18.5856 11.4116 18.5964 11.4442C18.5964 11.4442 18.8468 11.2383 19.0572 11.3296C19.1523 11.3723 19.1095 11.5064 19.1095 11.5064C19.1095 11.5064 19.2397 11.4579 19.331 11.5491C19.4222 11.6404 19.5523 11.8753 19.6183 11.9667C19.6474 12.0094 19.7232 12.0909 19.8007 12.217C19.9068 12.3937 19.9952 12.5804 20.0649 12.7743C20.0688 12.6966 20.0844 12.588 20.2185 12.588L20.0146 12.2229L20.0139 12.2233Z" fill="#CAA13E"/>
<path fill-rule="evenodd" clip-rule="evenodd" d="M9.73788 15.0311C9.73788 15.0311 9.68934 14.9107 9.73788 14.6758C9.78638 14.4409 9.86214 14.3302 9.88738 13.9846C9.91258 13.639 10.1379 13.2079 10.1379 13.2079L10.7611 12.9245L11.2019 13.0448L11.332 13.6351L10.7747 13.9423C10.7747 13.9423 10.7456 14.0724 10.5883 14.1772C10.431 14.2821 10.2135 14.3636 10.1611 14.4705C10.1299 14.5359 10.107 14.6051 10.0932 14.6763C10.0932 14.6763 9.93398 14.6433 9.83885 14.7481C9.73788 14.855 9.74169 14.9501 9.73788 15.0316V15.0311Z" fill="#F4EFC8"/>
<path fill-rule="evenodd" clip-rule="evenodd" d="M10.9961 14.8738C10.9961 14.8738 10.9436 14.9068 10.9048 14.989C10.8664 14.9269 10.7746 14.5579 10.7708 14.2259C10.767 13.8938 10.7471 13.8115 10.8239 13.6971C10.9007 13.5827 11.2019 13.4621 11.1592 13.256C11.1164 13.0599 10.9377 12.9784 10.7183 13.0347C10.5647 13.0731 10.4504 13.3998 10.2912 13.5628C10.1708 13.6871 10.0271 13.6677 9.98836 13.7356C9.93589 13.8269 9.98438 13.9182 9.96891 13.9764C9.96494 13.9959 9.91644 14.1007 9.829 14.2269C9.65236 14.4812 9.35335 14.8405 9.31445 15.1628C9.32798 14.9803 9.31838 14.9765 9.36692 14.7745L9.33775 14.726L9.52975 14.0968L9.65401 13.5784L9.93179 12.7103L10.421 11.8231L10.8968 11.291L11.3919 11.324L11.4501 12.0677L11.7337 13.4639L12.3297 14.1979L11.3744 14.8408L10.9961 14.8738Z" fill="#EBCC73"/>
<path fill-rule="evenodd" clip-rule="evenodd" d="M11.2936 15.1376C11.2936 15.1376 11.2121 15.1571 11.1829 15.1416C11.1537 15.1261 11.1248 15.1086 11.1344 15.0891C11.144 15.0697 11.1965 15.0368 11.1965 15.0212C11.1975 15.0071 11.1931 14.9931 11.184 14.9822C11.175 14.9713 11.162 14.9644 11.148 14.9629C11.1033 14.9572 11.0897 14.9862 11.0897 14.9862C11.0897 14.9862 11.047 14.9533 11.0122 14.9478C11.0328 14.9453 11.0535 14.9439 11.0742 14.9438C11.0206 14.9195 10.9637 14.9032 10.9053 14.8953C10.9538 14.8663 11.049 14.7808 11.1111 14.7808C11.1732 14.7808 11.2121 14.7712 11.2024 14.7381C11.1927 14.7051 11.1441 14.6566 11.0918 14.6372C11.1111 14.6139 11.1248 14.5789 11.0782 14.4836C11.0296 14.3884 11.049 14.3243 11.0646 14.3012C11.0782 14.272 11.1267 14.2196 11.15 14.1866C11.1733 14.1536 11.1928 14.1089 11.2315 14.0856C11.251 14.072 11.3131 14.0472 11.3753 14.0235C11.4432 14.0002 11.4996 13.971 11.5384 14.0002C11.5811 14.0293 11.5617 14.0682 11.5617 14.0682C11.5617 14.0682 11.6957 14.0195 11.816 14.0818C11.9364 14.1399 12.2297 14.1769 12.2297 14.1769L12.3348 14.3886L11.6396 14.9847L11.3523 15.1284L11.294 15.138L11.2936 15.1376Z" fill="#E5C66B"/>
<path fill-rule="evenodd" clip-rule="evenodd" d="M12.258 14.1632C12.258 14.1632 12.0425 14.3069 11.994 14.3593C12.023 14.3632 12.0715 14.3827 12.0521 14.4117C12.0288 14.4408 11.889 14.5418 11.8113 14.637C11.7298 14.7321 11.6521 14.8526 11.6249 14.9108C11.5959 14.9632 11.3745 15.1166 11.2988 15.136C11.4581 15.136 11.7784 14.9399 11.8987 14.9399C11.8949 14.9981 11.9318 15.0642 11.9998 15.0699C12.0677 15.0757 12.2638 15.1127 12.5279 14.9496C12.7919 14.7904 12.7046 14.6718 12.8152 14.5943C13.027 14.4544 13.1123 14.3301 13.2288 14.2525C13.3453 14.175 13.4056 14.1573 13.4056 14.1573C13.4056 14.1573 13.4094 14.099 13.444 14.1049C13.4534 14.106 13.4624 14.1097 13.47 14.1155C13.4775 14.1213 13.4833 14.1291 13.4867 14.138C13.4867 14.138 13.6887 13.9942 13.9475 13.9554C13.9415 13.9527 13.9366 13.9479 13.9339 13.9419C13.9339 13.9419 13.9533 13.9321 13.9572 13.9224C13.9572 13.9224 13.9708 13.9029 13.9805 13.9127C13.9903 13.9224 14.0038 13.9942 14.0233 14.0234C14.066 14.0039 14.1476 13.8214 14.1476 13.8214L14.3438 13.2603V12.7476L14.1902 12.7768L13.0382 13.266L12.3391 13.9904L12.2575 14.1632H12.258Z" fill="#E6BD62"/>
<path fill-rule="evenodd" clip-rule="evenodd" d="M15.5744 11.6486C15.6367 11.6335 15.6965 11.6093 15.7517 11.5767C15.7284 11.6389 15.7284 11.7069 15.6274 11.8545C15.5264 12.002 15.5226 12.0234 15.441 12.1768C15.3595 12.336 15.3498 12.5651 15.2721 12.666C15.3069 12.6491 15.3442 12.6379 15.3827 12.6331C15.3827 12.6331 15.3051 12.701 15.2721 12.7729C15.239 12.8447 15.1808 12.9942 15.0372 13.0856C14.8936 13.1769 14.7109 13.2351 14.5148 13.4506C14.3186 13.6622 14.1168 13.9302 14.0156 14.0266C14.0681 13.9353 14.1399 13.7528 14.1594 13.6325C14.1788 13.5122 14.1554 13.3683 14.1884 13.2092C14.2214 13.0501 14.2214 12.9354 14.3804 12.6577C14.5394 12.3799 14.8115 11.4149 14.8115 11.4149L15.3979 11.2285L15.5747 11.648L15.5744 11.6486Z" fill="#B6933F"/>
<path fill-rule="evenodd" clip-rule="evenodd" d="M15.1516 11.2932C15.1516 11.2932 14.9749 11.5475 14.9264 11.7728C14.8779 11.9981 14.9225 11.9787 14.8934 12.0893C14.876 12.1569 14.876 12.2277 14.8934 12.2952C14.9546 12.1966 15.0383 12.114 15.1378 12.0543C15.3048 11.9534 15.4407 11.8815 15.5218 11.7961C15.6033 11.7048 15.6713 11.5553 15.8479 11.4408C15.7761 11.431 15.6751 11.398 15.6559 11.4024C15.7278 11.3208 15.9432 11.1965 16.1607 11.047C16.3763 10.8934 16.3627 10.8315 16.7123 10.6781C16.5977 10.6976 16.5433 10.6684 16.4481 10.6781C16.4865 10.5966 16.6209 10.5577 16.7553 10.4238C16.8897 10.2899 16.6699 10.0918 16.6699 10.0918L15.6459 10.7112L15.1508 11.2937L15.1516 11.2932Z" fill="#C49937"/>
<path fill-rule="evenodd" clip-rule="evenodd" d="M12.3726 10.831L12.3959 10.6447L12.6891 10.1747L12.9959 9.34952V8.22134L12.9726 7.56892L13.0211 7.14166L13.058 7.00585L13.0969 6.95337L13.3473 7.08342L13.693 7.55331L13.726 8.46018L13.39 9.89122L12.4308 10.9379L12.3726 10.831Z" fill="#DFC068"/>
<path fill-rule="evenodd" clip-rule="evenodd" d="M13.1362 6.90093C13.1362 6.90093 12.9826 6.9049 12.9498 7.54375C12.9171 8.1826 12.9012 8.51847 12.8779 8.83501C12.8546 9.15155 12.8003 9.34367 12.7731 9.53017C12.7458 9.71667 12.7303 9.9709 12.643 10.1263C12.6046 10.1981 12.5225 10.4233 12.3303 10.5923C12.1148 10.7787 11.7927 10.9089 11.744 10.9186C11.6584 10.9379 11.2254 10.9807 11.0488 11.0778C10.9867 11.1109 10.8798 11.1496 10.7614 11.2604C10.5264 11.4719 10.2138 11.8506 9.98856 12.3069C9.64296 12.9885 9.29736 14.9127 9.29736 14.9127L9.37503 14.7827C9.37503 14.7827 9.38476 14.6099 9.55756 14.3069C9.72655 14.004 9.67801 13.6642 9.91288 13.0836C10.0042 12.8623 10.1187 12.5749 10.2585 12.3302C10.4799 11.9321 10.7478 11.5903 11.0178 11.404C11.4585 11.1011 11.944 11.0351 11.944 11.0351L12.4664 10.6895C12.4664 10.6895 12.5576 10.5128 12.6781 10.3108C12.8469 10.0275 13.0621 9.71092 13.1091 9.25074C13.181 8.56916 13.0081 8.12256 13.0178 7.71872C13.0275 7.31488 13.0313 7.0178 13.113 6.94586C13.1947 6.87392 13.1362 6.90093 13.1362 6.90093Z" fill="#A88F33"/>
<path fill-rule="evenodd" clip-rule="evenodd" d="M13.136 9.9495C13.136 9.9495 13.3664 9.38248 13.4719 8.87956C13.4913 8.77857 13.5301 8.67771 13.5398 8.59617C13.5883 8.12039 13.6019 7.9243 13.5398 7.66408C13.4913 7.47208 13.305 7.29902 13.2078 7.16488C13.1127 7.02497 13.068 6.97288 13.0875 6.94343C13.1069 6.914 13.1826 6.86587 13.2563 6.87163C13.3347 6.87391 13.4118 6.89211 13.4829 6.92511C13.554 6.95812 13.6177 7.00525 13.67 7.06363C13.8195 7.23643 13.9379 7.82292 13.9379 7.82292L14.0625 8.59681L14.379 9.57154L13.1363 9.95028L13.136 9.9495Z" fill="#C99E3D"/>
<path fill-rule="evenodd" clip-rule="evenodd" d="M15.3009 9.35928C15.3009 9.35928 15.2581 9.37861 15.1806 9.35928C15.1839 9.39098 15.1784 9.42301 15.1647 9.45177C15.1509 9.48052 15.1296 9.50498 15.1028 9.52236C15.0213 9.48934 14.258 9.55538 14.258 9.55538C14.258 9.55538 13.9027 9.49319 13.792 9.0233C13.7144 8.71059 13.8503 8.27961 13.8056 7.9961C13.7376 7.57856 13.6425 7.4969 13.6328 7.36698C13.623 7.23705 13.6133 7.2039 13.6133 7.12237C13.5706 7.11264 13.5454 7.09907 13.5027 7.09907C13.493 7.06067 13.5123 7.02714 13.4697 6.95917C13.493 6.9689 13.6523 6.98835 13.8386 7.16499C13.9922 7.30874 13.9922 7.36109 14.0154 7.39027C14.0444 7.41933 14.2794 7.62067 14.3804 7.82138C14.4814 8.02208 14.6775 8.66208 14.7222 8.76691C14.7358 8.80966 14.7649 8.85242 14.8374 8.94944C14.95 9.08934 15.115 9.32063 15.3014 9.35903L15.3009 9.35928Z" fill="#B58634"/>
<path fill-rule="evenodd" clip-rule="evenodd" d="M14.043 7.40002C14.1606 7.59004 14.2663 7.7872 14.3594 7.99036C14.4739 8.24854 14.5419 8.46025 14.6857 8.63305C14.608 8.4079 14.4701 7.96515 14.3886 7.80783C14.2973 7.64143 14.111 7.4621 14.043 7.40002Z" fill="#A88F33"/>
<path fill-rule="evenodd" clip-rule="evenodd" d="M12.7224 10.5923C12.7224 10.5923 12.5263 10.6408 12.1613 10.8331C12.0408 10.8951 11.9264 10.9475 11.8157 10.9961C11.5281 11.1262 11.2196 11.2464 10.9749 11.3127C10.9943 11.336 11.0039 11.3456 11.0039 11.3456C11.0039 11.3456 11.0039 11.4408 11.0564 11.4951C11.0273 11.5243 10.6389 11.7883 10.7535 12.6718C10.8311 12.6427 10.9224 12.6038 10.9359 12.6038C10.9594 12.6078 10.9651 12.6718 10.9942 12.6718C11.0232 12.6718 11.1185 12.6334 11.2195 12.5028C11.2156 12.5553 11.1574 13.0834 11.47 13.4388C11.5282 13.3708 11.6758 13.1455 11.6758 13.1455L11.6796 13.0737C11.6796 13.0737 11.6932 12.8232 11.7749 12.5941C11.8565 12.365 12.0156 12.196 12.0156 12.196L12.8465 11.0096L12.7224 10.5923Z" fill="#E6C367"/>
<path fill-rule="evenodd" clip-rule="evenodd" d="M11.9458 12.3344C11.9077 12.3613 11.8658 12.3822 11.8215 12.3965C11.8079 12.348 11.7884 12.1809 11.903 12.0179C12.037 11.8216 12.3301 11.5673 12.4117 11.3651C12.4642 11.2349 12.4409 10.9087 12.9069 10.4912C13.373 10.0737 13.5554 9.93007 13.5554 9.93007L14.3088 9.55145L15.235 9.9165L14.7748 11.72L14.4175 12.5648L12.9967 12.2969L11.9458 12.3344Z" fill="#DCBA5A"/>
<path fill-rule="evenodd" clip-rule="evenodd" d="M12.4878 11.8446L12.6646 11.6233V11.466C12.6646 11.466 12.8607 11.4135 13.0722 11.198C13.2838 10.9824 13.5771 10.5689 13.8354 10.5941C14.0937 10.6232 14.1189 11.1552 14.1286 11.3048C14.1384 11.4545 14.1714 11.7941 14.2237 11.9767C14.282 12.1592 13.5946 12.8504 13.5946 12.8504L13.1278 13.2058L12.4878 11.8446Z" fill="#E9CE77"/>
<path fill-rule="evenodd" clip-rule="evenodd" d="M13.0352 13.6873C13.0352 13.6873 13.1789 13.4621 13.0736 13.4136C13.1356 13.2738 13.2502 13.1262 13.2502 13.1262C13.2502 13.1262 13.3317 12.9244 13.5958 12.6758C13.8598 12.4272 14.023 12.2621 14.0658 12.0952C14.0922 11.9864 14.1065 11.8751 14.1085 11.7631C14.1371 11.7865 14.1676 11.8072 14.1998 11.8252C14.2426 11.8447 14.4444 12.0116 14.4154 12.3476C14.3863 12.6836 14.2618 12.8233 14.2618 12.8233C14.2618 12.8233 14.1414 12.9437 14.0561 13.0059C13.9647 13.068 13.9318 13.1398 13.7783 13.1456C13.7941 13.1331 13.8118 13.1233 13.8308 13.1165C13.8308 13.1165 13.6716 13.0972 13.586 13.1747C13.5005 13.2523 13.3188 13.4912 13.2275 13.5632C13.1362 13.6214 13.0352 13.6873 13.0352 13.6873Z" fill="#CDAE50"/>
<path fill-rule="evenodd" clip-rule="evenodd" d="M19.4914 9.91058C19.262 9.82695 19.0209 9.77982 18.7769 9.7708C18.3691 9.75723 17.773 9.78053 17.1886 9.78437C16.5595 9.78822 15.9886 9.56883 15.1964 9.53002C15.0663 9.45235 14.7356 9.1125 13.7031 9.83287C13.7652 9.82902 14.4527 9.67364 14.6914 9.97277C14.9322 10.2699 14.8642 10.7747 14.8313 10.895C14.7691 11.1631 14.5671 11.5533 14.4857 11.8271C14.4043 12.1009 14.4235 12.2448 14.3653 12.4368C14.3071 12.6288 14.1789 12.7242 14.2545 12.9455C14.3556 12.8834 14.4081 12.8834 14.5768 12.5048C14.7456 12.1261 14.7109 11.8562 14.9906 11.5358C15.2644 11.2135 15.7202 10.7727 15.8935 10.6619C16.0668 10.5512 17.4429 9.83672 18.8838 10.5183C19.2313 10.4815 19.4914 9.91058 19.4914 9.91058Z" fill="#D2A83E"/>
<path fill-rule="evenodd" clip-rule="evenodd" d="M14.2834 9.64643C14.282 9.63183 14.2788 9.61747 14.2738 9.60365C14.2604 9.57526 14.2427 9.54907 14.2214 9.52598C14.2214 9.52598 13.8796 9.46387 13.7068 9.48323C13.4038 9.51625 13.13 9.89103 13.0019 10.0833C12.8738 10.2755 12.7145 10.5725 12.5417 10.726C12.5436 10.711 12.5402 10.6959 12.532 10.6832C12.532 10.6832 12.5417 10.6968 12.5224 10.7163C12.5031 10.7357 12.503 10.7453 12.5127 10.7547L12.5419 10.7837C12.5515 10.7837 12.8195 10.6632 13.1846 10.3229C13.5729 9.96758 13.87 9.7853 14.0254 9.72282C14.1082 9.68761 14.1948 9.66199 14.2834 9.64643Z" fill="#C29637"/>
<path fill-rule="evenodd" clip-rule="evenodd" d="M20.9126 8.1864C20.9126 8.1864 20.8503 8.26397 20.7727 8.34947C20.5999 8.532 20.3746 8.7377 20.1823 8.94941C19.9999 9.15139 19.7941 9.30872 19.5629 9.57276C19.3318 9.83684 19.0637 10.13 18.9959 10.2155C18.9338 10.301 18.8853 10.4407 18.8853 10.5126C18.8522 10.4893 18.8135 10.464 18.8135 10.464C18.8298 10.4945 18.8494 10.5232 18.8717 10.5496C18.9202 10.6175 18.9959 10.7032 19.0348 10.7554C19.0825 10.8218 19.1168 10.897 19.1357 10.9767C19.159 10.9805 19.3085 11.0097 19.495 10.7029C19.6814 10.3961 19.9259 10.0602 19.9259 10.0602L20.3143 9.48342L20.559 8.99421L20.8662 8.44662L20.9126 8.1864Z" fill="#AC8132"/>
<path fill-rule="evenodd" clip-rule="evenodd" d="M21.3107 7.79419C21.3107 7.79419 21.0757 7.98619 20.9844 8.10139C20.8932 8.21659 20.6772 8.51892 20.6772 8.51892L20.755 8.5092L21.1492 8.15976L21.3028 7.88596L21.3106 7.7947L21.3107 7.79419Z" fill="#A88F33"/>
<path fill-rule="evenodd" clip-rule="evenodd" d="M21.2388 23.2253C21.2388 23.2253 21.235 23.066 21.3243 22.9709C21.4156 22.8757 21.6466 22.7359 21.8719 22.2116C22.0972 21.6873 22.1223 21.569 22.1223 21.569C22.1223 21.569 21.7185 21.9146 21.4695 21.9961C21.5277 21.8756 21.5608 21.7903 21.5899 21.7281C21.5569 21.699 21.4171 21.666 21.4036 21.6505C21.4811 21.5728 21.5239 21.3825 21.6812 21.2563C21.8832 21.1027 22.2521 20.8387 22.5388 20.6035C22.8255 20.3682 23.3892 19.821 23.4611 19.6617C23.5039 19.7238 23.5135 19.7626 23.5135 19.7626C23.5135 19.7626 23.2301 20.1316 23.0825 20.3665C22.9523 20.5685 22.9621 20.6831 22.9621 20.6831L23.2301 20.5679C23.2301 20.5679 23.3077 20.8552 22.9563 21.2922C23.1099 21.234 23.1719 21.2689 23.2592 21.2203C23.1154 21.3117 22.9174 21.436 22.731 21.7776C22.5485 22.1193 22.3 22.5174 21.8806 22.7659C21.4728 23.028 21.2378 23.2241 21.2378 23.2241L21.2388 23.2253Z" fill="#A67A2E"/>
<path fill-rule="evenodd" clip-rule="evenodd" d="M20.1867 10.1127C20.1867 10.1127 20.0274 10.4446 20.0041 10.7029C20.0003 10.7651 19.9847 10.8136 19.9847 10.8855C19.9808 11.1165 19.9983 11.3748 19.9463 11.4951C19.9268 11.4466 19.9171 11.4136 19.8976 11.3943C19.8686 11.4758 19.8161 11.7301 19.7734 11.8252C19.754 11.7632 19.7113 11.5476 19.7152 11.2933C19.7192 11.0389 19.7248 10.9903 19.7248 10.9379C19.7152 11.0155 19.6627 11.1205 19.6433 11.1825C19.6143 11.1302 19.5812 11.0622 19.5423 11.0059C19.519 11.0443 19.4899 11.101 19.4647 11.1302C19.4608 11.1069 19.4512 11.0447 19.4453 10.9574C19.4415 10.8564 19.4356 10.7264 19.4415 10.6991C19.4511 10.6468 19.5327 10.4409 19.7055 10.2525C19.9113 10.0272 20.1231 9.59432 20.1851 9.46029C20.2472 9.3263 20.5113 8.7691 20.5113 8.7691H20.7132L20.42 9.43699C20.42 9.43699 20.2434 9.80208 20.1521 9.93619C20.0608 10.0703 19.8686 10.4548 19.7831 10.6043C19.8451 10.5227 19.8976 10.48 19.9599 10.4022C20.02 10.3479 20.1867 10.1127 20.1867 10.1127Z" fill="#8C6228"/>
<path fill-rule="evenodd" clip-rule="evenodd" d="M21.3146 7.76886C21.2816 7.8704 21.2295 7.96469 21.161 8.04662C21.0405 8.19036 20.7823 8.38249 20.6562 8.53583C20.541 8.68534 20.3106 9.09315 20.4153 9.57659C20.4537 9.47178 20.526 9.26401 20.7182 9.02902C20.9105 8.79401 21.1164 8.52419 21.2174 8.31452C21.3183 8.10281 21.3319 7.9359 21.3319 7.9359L21.3703 7.88739L21.347 7.77667L21.314 7.76886H21.3146Z" fill="#CBA94C"/>
<path fill-rule="evenodd" clip-rule="evenodd" d="M25.2465 20.6485C25.2465 20.6485 25.1688 20.4369 25.1455 20.2447C25.1222 20.0524 25.1839 20.0143 25.1125 19.7942C25.0697 19.6602 24.9922 19.679 24.9727 19.6602C24.9532 19.6414 24.9397 19.4389 24.9435 19.3282C24.9473 19.2175 24.9397 19.0738 24.9202 19.0116C24.8912 18.9883 24.8717 18.9689 24.829 18.8253C24.7804 18.6815 24.7571 18.6097 24.7338 18.5671C24.7105 18.5245 24.6425 18.4855 24.6425 18.4428C24.6425 18.3573 24.7201 18.3127 24.7201 18.2892C24.7163 18.2407 24.6581 18.2796 24.6425 18.2659C24.6231 18.2426 24.6911 18.1028 24.6659 18.0834C24.6562 18.0738 24.5882 18.1553 24.5706 18.132C24.5512 18.1086 24.5279 17.8775 24.493 17.7242C24.4601 17.5747 24.425 17.466 24.4211 17.4213C24.4173 17.3786 24.1531 16.6252 24.0891 16.4427C24.0375 16.2884 23.9941 16.1316 23.959 15.9728C23.9396 15.8815 23.926 15.695 23.9163 15.7145C23.9066 15.7339 23.9125 15.829 23.8969 15.8252C23.8833 15.8212 23.8348 15.4893 23.8193 15.4368C23.8057 15.3844 23.7241 15.2064 23.7041 15.0777C23.6846 14.9475 23.642 14.6077 23.6128 14.3766C23.5837 14.1456 23.5701 14.0505 23.5701 13.9926C23.5748 13.8511 23.5671 13.7095 23.5468 13.5693C23.5084 13.3246 23.4316 13.0275 23.3643 12.8548C23.2342 12.5286 22.8885 11.6936 22.8267 11.4859C22.8267 11.4334 22.8946 11.4626 22.8946 11.4626C22.8946 11.4626 23.0634 11.8859 23.1877 12.212C23.3082 12.5383 23.4227 12.8256 23.4519 12.8548C23.4752 12.8839 23.6578 13.2043 23.7393 13.7286C23.8208 14.2528 23.8499 14.7363 23.8985 15.0586C23.9218 15.2122 23.9413 15.3751 23.9898 15.5382C24.0421 15.715 24.1237 15.8975 24.2305 16.1771C24.3218 16.4121 24.3898 16.6082 24.4266 16.7771C24.4694 16.9927 24.4694 17.1558 24.4946 17.2627C24.518 17.3539 24.5528 17.5363 24.6345 17.8003C24.7162 18.0642 24.8364 18.4041 24.9179 18.6157C25.0773 19.039 25.1483 19.3924 25.1724 19.5808C25.1936 19.775 25.2656 20.4469 25.2461 20.6488L25.2465 20.6485Z" fill="#A88F33"/>
<path fill-rule="evenodd" clip-rule="evenodd" d="M21.3244 7.74564L21.3146 7.76894C21.3146 7.76894 21.3437 7.77867 21.3379 7.81757C21.3383 7.87081 21.3351 7.92401 21.3282 7.97681C21.3186 8.04478 21.2991 8.09713 21.2953 8.13988C21.2953 8.23114 21.3089 8.33597 21.1801 8.5962C21.1417 8.66801 21.118 8.73009 21.0986 8.77284C21.0501 8.87767 21.0403 8.89329 20.9976 8.9418C21.0655 8.9034 21.3103 8.7498 21.4344 8.77284C21.3491 8.82135 21.2189 8.91658 21.1373 9.04087C21.1568 9.04471 21.2383 9.06033 21.3677 9.04087C21.5833 9.00785 21.8241 8.93015 22.0356 8.94564C22.2668 8.95921 22.1755 8.66801 22.1755 8.66801L21.9088 8.08164L21.404 7.72644L21.3244 7.74564Z" fill="#BE9C44"/>
<path fill-rule="evenodd" clip-rule="evenodd" d="M22.6407 12.1379C22.6407 12.1379 22.4154 11.9127 22.3242 11.1395C22.2329 10.3628 22.2524 9.21952 22.2524 9.21952L22.0698 8.77293C22.0698 8.77293 22.0314 8.47584 21.9358 8.36525C21.8402 8.25466 21.6524 8.06817 21.5669 7.9769C21.4814 7.88564 21.3844 7.76135 21.3262 7.74189C21.3552 7.69338 21.4854 7.41959 21.9844 7.41575C22.4833 7.41191 22.6372 7.68954 22.6892 7.79053C22.7413 7.89153 22.9766 8.32813 23.0639 9.16014C23.1454 9.99112 23.1494 10.0533 23.1358 10.3407C23.1261 10.4999 23.0736 10.8688 22.9822 11.2629C22.8988 11.597 22.8075 11.9699 22.6405 12.1387L22.6407 12.1379Z" fill="#A17C34"/>
<path fill-rule="evenodd" clip-rule="evenodd" d="M21.9344 12.8C22.0095 12.8054 22.0845 12.7885 22.15 12.7514C22.2218 12.7475 22.482 12.7806 22.682 12.5262C22.6955 12.5843 22.7306 12.7418 22.6392 12.8816C22.6878 12.8329 22.7596 12.8136 22.7694 12.8C22.7732 12.8718 22.8412 13.0931 22.5538 13.631C22.6314 13.5456 22.7226 13.5495 22.8042 13.5397C22.8082 13.6407 22.8624 13.9804 22.7188 14.1631C22.6237 14.2874 22.4683 14.2485 22.4683 14.2485C22.4706 14.2213 22.4706 14.1941 22.4683 14.1669C22.4645 14.1145 22.445 14.0621 22.4587 14.0272C22.3836 13.9929 22.3152 13.9455 22.2567 13.8873C22.0878 13.728 21.8684 13.4563 21.8529 13.2543C21.8334 13.029 22.0354 12.9805 22.0354 12.9805C22.0185 12.9654 22.0041 12.9477 21.9927 12.928C21.9829 12.8951 21.9732 12.8426 21.9344 12.8Z" fill="#8C6228"/>
<path fill-rule="evenodd" clip-rule="evenodd" d="M20.4366 10.3573C20.4366 10.3573 20.4269 10.3438 20.3745 10.4058C20.3842 10.3438 20.394 10.2854 20.3978 10.2291C20.4226 10.1769 20.4546 10.1286 20.493 10.0854C20.4638 10.1436 20.4444 10.196 20.4444 10.196C20.4444 10.196 20.5163 10.062 20.6212 9.9805C20.693 9.92223 20.7842 9.89513 20.823 9.84072C20.8658 9.78246 20.856 9.77273 20.8658 9.76301C20.8658 9.76301 20.961 9.70094 21.1067 9.51829C21.126 9.49499 21.1552 9.46975 21.1746 9.44646C21.2075 9.43292 21.2852 9.39796 21.3765 9.35124C21.4717 9.2989 21.5785 9.2271 21.6445 9.19764C21.7746 9.13942 21.9125 9.1453 21.9766 9.0539C22.0251 9.04033 22.0774 8.89467 22.0678 8.77051C22.1396 8.79956 22.5085 9.02869 22.6349 9.52967C22.7261 9.88499 22.5629 10.4326 22.495 10.6968C22.427 10.961 22.4174 11.157 22.3222 11.2772C22.2017 11.4366 21.8135 11.6612 21.7183 11.7725C21.6367 11.8638 21.3921 12.0948 21.4017 12.2617C21.4114 12.386 21.5648 12.4537 21.5979 12.4772C21.6311 12.5008 21.6308 12.5298 21.693 12.5156C21.7553 12.5016 21.7784 12.4729 21.8038 12.4729C21.8328 12.4767 21.8328 12.4826 21.8464 12.4826C21.8562 12.4823 21.866 12.481 21.8755 12.4786C21.8755 12.4786 21.8658 12.6554 21.4523 12.709C21.4231 12.713 21.394 12.7226 21.357 12.7285C21.4057 12.7052 21.4347 12.7052 21.4872 12.6334C21.429 12.6237 21.2619 12.614 21.2192 12.6004C21.2328 12.5771 21.2774 12.5149 21.3143 12.4858C21.3473 12.4568 21.3104 12.4474 21.2814 12.4626C21.2314 12.4966 21.1834 12.5335 21.1376 12.5731C21.0891 12.6159 21.0464 12.6741 20.9687 12.7267C20.9454 12.649 20.9492 12.5014 21.0406 12.3947C21.0172 12.3985 20.9725 12.4665 20.9299 12.453C20.9222 12.3821 20.9268 12.3105 20.9435 12.2412C20.9668 12.1538 21.093 12.0005 21.093 12.0005L21.7026 10.911L21.8327 10.0858L20.4366 10.3573Z" fill="#92723A"/>
<path fill-rule="evenodd" clip-rule="evenodd" d="M20.4039 10.4039C20.4039 10.4039 20.3708 10.4272 20.4369 10.4718C20.4271 10.4854 20.4039 10.5339 20.3746 10.5669C20.3417 10.6053 20.3067 10.6292 20.2931 10.6622C20.2641 10.7301 20.2408 10.7767 20.2408 10.8059C20.2408 10.8351 20.2311 11.0215 20.1495 11.1418C20.1203 11.1845 20.0873 11.2564 20.064 11.3048C20.0155 11.3902 19.9727 11.4584 19.963 11.4968C19.9437 11.5648 19.9301 11.7512 19.9301 11.7512C19.9301 11.7512 19.9728 11.6987 19.9884 11.6794C19.9649 11.7279 19.9397 11.7803 19.9028 11.8192C19.9261 11.7997 19.9941 11.7512 20.1087 11.6502C20.2679 11.5163 20.5165 11.291 20.8195 11.1126C20.7281 11.1456 20.6505 11.1456 20.5884 11.1553C20.6369 11.1068 21.0738 10.5942 21.3029 10.5457C21.3168 10.528 21.3238 10.5059 21.3223 10.4835L21.1261 10.4641L20.7281 10.5495L20.67 10.2423L20.4039 10.4039Z" fill="#B18E3E"/>
<path fill-rule="evenodd" clip-rule="evenodd" d="M21.0368 12.1516C21.0368 12.1516 20.9843 12.2039 20.9358 12.3341C20.8985 12.2951 20.8665 12.2513 20.8406 12.2039C20.7688 12.0836 20.6582 11.9301 20.3999 12.0175C20.3961 11.936 20.3901 11.8932 20.3999 11.835C20.4426 11.8254 20.5727 11.7206 20.7027 11.5671C20.7941 11.4623 20.8795 11.3418 20.9377 11.1885C20.9761 11.1593 21.0426 11.1108 21.1298 11.0545C21.254 10.9691 21.4035 10.8525 21.4268 10.7225C21.3686 10.7458 21.2443 10.804 21.0578 10.7944C21.1297 10.7614 21.2403 10.7264 21.2267 10.5827C21.256 10.5632 21.2793 10.5497 21.2793 10.5497C21.2574 10.5423 21.2343 10.539 21.2113 10.5399C21.2073 10.5264 21.2015 10.507 21.1685 10.5166C21.1355 10.5262 21.1301 10.5264 21.1258 10.5399C21.1122 10.5439 21.0675 10.5399 21.0345 10.5634C21.0015 10.5868 20.9102 10.6642 20.8753 10.6778C20.8888 10.6545 20.9082 10.6197 20.9082 10.6197C20.9082 10.6197 20.8131 10.6293 20.7451 10.6581C20.6208 10.7008 20.4772 10.7785 20.3315 10.8542C20.3451 10.8309 20.351 10.8158 20.3606 10.8114C20.3702 10.807 20.3936 10.8018 20.3936 10.7979C20.3936 10.7939 20.384 10.7595 20.3898 10.7455C20.4333 10.6532 20.4847 10.5649 20.5434 10.4814C20.6114 10.39 20.6249 10.26 20.6249 10.26L20.922 10.1105L21.7569 9.91846L22.2988 9.95148L22.2308 10.3263L21.9108 10.9806L21.637 11.5767L21.3243 11.9419L21.0368 12.1516Z" fill="#543E26"/>
<path fill-rule="evenodd" clip-rule="evenodd" d="M22.3906 10.5296C22.3906 10.5296 22.0643 10.9334 21.973 10.9956C22.0313 10.8714 22.3906 10.1315 22.5206 9.92569C22.4915 9.90239 22.4526 9.90239 22.5439 9.54169C22.4663 9.72409 22.4391 9.81934 22.3751 9.86784C22.3111 9.91634 22.3031 9.90086 22.2599 9.90086C22.268 9.88609 22.2714 9.86912 22.2695 9.85236C22.2695 9.85236 21.9957 9.81934 21.8087 9.81934C21.6217 9.81934 21.2515 9.92031 21.0455 10.0019C20.8825 10.0698 20.7912 10.0698 20.733 10.1124C20.6747 10.161 20.6417 10.2134 20.6125 10.227C20.5892 10.2406 20.4786 10.2755 20.4533 10.3124C20.43 10.3508 20.3912 10.3939 20.3912 10.4037C20.3912 10.4134 20.3815 10.4271 20.4107 10.4172C20.4203 10.4134 20.4922 10.3745 20.5737 10.3259C20.6843 10.2639 20.8183 10.1921 20.9155 10.1493C21.1931 10.0386 21.2805 10.0581 21.4047 10.0348C21.5348 10.0115 21.7213 9.95705 21.8454 9.95705C21.9697 9.9532 22.2047 9.95705 22.2591 9.96678C22.2358 9.98623 22.2164 10.0095 22.2261 10.0911C22.2261 10.1144 22.2066 10.1396 22.1877 10.1959C22.1295 10.3551 22.0189 10.6192 21.9573 10.7532C21.8719 10.9356 21.7749 11.0891 21.7269 11.1842C21.6789 11.2793 21.5733 11.5298 21.4687 11.6638C21.3641 11.7978 21.3095 11.8794 21.2767 11.9085C21.2439 11.9377 21.0087 12.1104 21.0262 12.1726C21.069 12.1591 21.3389 12.0574 21.5349 11.8367C21.7309 11.6161 21.7699 11.4814 21.9232 11.361C22.0766 11.2405 22.197 11.0387 22.2688 10.8717C22.329 10.7164 22.3154 10.6678 22.3911 10.53L22.3906 10.5296Z" fill="#806031"/>
<path fill-rule="evenodd" clip-rule="evenodd" d="M15.3593 13.5438C15.3593 13.5438 15.3166 13.7205 15.2194 13.8079C15.1243 13.8934 14.9554 13.9671 14.936 14.1108C14.9127 14.2545 15.105 14.3264 15.105 14.3264C15.105 14.3264 15 14.4992 15 14.6292C15 14.7633 14.9962 14.7885 15.0097 14.9166C14.9943 14.9265 14.9813 14.9396 14.9713 14.955C14.9713 14.955 14.9809 15.0793 15.0762 15.1569C15.1714 15.2345 15.2528 15.2812 15.3013 15.2617C15.3087 15.2775 15.3152 15.2938 15.3208 15.3103C15.3208 15.3103 15.3927 15.1278 15.4412 14.9686C15.4897 14.8055 15.5325 14.8287 15.5518 14.6093C15.5712 14.3899 15.7822 14.0132 15.7822 14.0132L15.9262 13.6913L15.6913 13.5087L15.3593 13.5438Z" fill="#B6903C"/>
<path fill-rule="evenodd" clip-rule="evenodd" d="M15.7961 13.8602C15.7477 13.9099 15.703 13.9631 15.6624 14.0194C15.6003 14.1049 15.5518 14.1825 15.4605 14.2156C15.3693 14.2488 15.311 14.2485 15.3168 14.3399C15.3225 14.4313 15.408 14.47 15.4566 14.5166C15.509 14.5651 15.5518 14.6466 15.5285 14.738C15.5575 14.7244 15.6101 14.7088 15.6585 14.604C15.707 14.4991 16.0464 13.8603 16.0464 13.8603L15.7961 13.8602Z" fill="#685026"/>
<path fill-rule="evenodd" clip-rule="evenodd" d="M17.1348 12.3864C17.1348 12.3864 17.1638 12.3088 17.1348 12.2525C17.1055 12.1942 16.9289 12.1748 16.8415 12.1088C16.7502 12.0408 16.6395 11.9936 16.5483 12.0233C16.5618 11.9903 16.6162 11.9184 16.5715 11.9029C16.5288 11.8894 16.3697 11.9612 16.327 11.9942C16.2842 12.0272 16.1871 12.066 16.1677 12.0894C16.1484 12.1128 16.1152 12.1574 16.0958 12.1379C16.0763 12.1244 16.0667 12.0894 16.0337 12.1088C16.0007 12.1281 15.8417 12.2583 15.8124 12.334C15.7831 12.4098 15.7171 12.5787 15.5191 12.7709C15.3211 12.963 15.2356 13.0874 15.2938 13.1592C15.3521 13.231 15.3794 13.1787 15.3891 13.2408C15.3966 13.3017 15.3933 13.3635 15.3794 13.4233C15.3561 13.5243 15.3173 13.6194 15.3696 13.6388C15.5036 13.6816 15.6338 13.6004 15.6629 13.6253C15.7211 13.6776 15.6298 13.866 15.7677 13.9029C15.9076 13.9413 16.0455 13.8699 16.0455 13.8699L16.5541 13.5961L17.0435 13.3379L17.2939 12.8427L17.1596 12.4291L17.134 12.3864H17.1348Z" fill="#D4B968"/>
<path fill-rule="evenodd" clip-rule="evenodd" d="M16.6544 13.569C16.6544 13.569 16.5689 13.4389 16.6739 13.3242C16.7789 13.2096 16.9282 13.1611 16.9865 13.0893C16.9754 13.0757 16.9605 13.0656 16.9437 13.0603C16.9824 12.9911 17.0413 12.9355 17.1127 12.9009C17.0836 12.8719 17.0447 12.8486 17.0021 12.8486C16.9068 12.8486 16.8485 12.9068 16.7612 12.9068C16.6758 12.9068 16.6661 12.8641 16.6661 12.8641C16.6661 12.8641 16.8098 12.8505 16.7961 12.7864C16.7825 12.7184 16.7577 12.7184 16.7577 12.7184C16.7577 12.7184 17.0354 12.6032 17.0839 12.5418C17.1324 12.4803 17.1266 12.4077 17.1363 12.3787C17.1692 12.3787 17.3615 12.2777 17.4392 12.3204C17.5169 12.3632 17.4625 12.4797 17.4625 12.4797C17.4625 12.4797 17.6976 12.3029 17.8174 12.1296C17.9222 12.1393 17.971 12.0578 18.0478 12.0578C18.143 12.0578 18.2926 12.1879 18.3216 12.4655C18.3411 12.6247 18.3701 12.716 18.3411 12.9976C18.3275 13.1568 18.3314 13.4968 18.3795 13.6655C18.4124 13.7995 18.4901 13.7859 18.4901 13.7859C18.4781 13.8268 18.4545 13.8632 18.4221 13.8908C18.3696 13.9393 18.3638 14.0675 18.3696 14.116C18.3773 14.1515 18.3871 14.1865 18.3988 14.2209C18.3988 14.2209 18.3367 14.2927 18.3211 14.3413C18.3075 14.3898 18.2436 14.4228 18.1968 14.4228C18.1501 14.4228 18.1735 14.4189 18.1114 14.4228C18.0494 14.4268 18.0299 14.4364 17.991 14.4228C17.9521 14.4093 17.923 14.3937 17.9386 14.2692C17.9522 14.145 17.459 13.8557 17.459 13.8557L16.6526 13.5683L16.6544 13.569Z" fill="#CCA849"/>
<path fill-rule="evenodd" clip-rule="evenodd" d="M15.7282 14.7961C15.7282 14.7961 15.9048 15.0311 16.6311 15.0311C16.9767 15.0311 17.0972 14.9981 17.1687 14.9786C17.2464 14.9592 17.5376 14.8448 17.8308 14.4991C18.0949 14.1865 18.0367 14.0583 18.0367 14.0583L17.8831 14.035L17.3839 14.103L15.9068 14.7321L15.7275 14.7961H15.7282Z" fill="#585136"/>
<path fill-rule="evenodd" clip-rule="evenodd" d="M16.2698 14.8543C16.2698 14.8543 15.6406 14.9942 15.6406 14.5962C15.6406 14.2078 16.029 13.8 16.1261 13.7282C16.2271 13.6563 16.4679 13.5746 16.4679 13.5746H17.0485L17.1591 13.8678L17.1106 14.5008L16.2698 14.8543Z" fill="#252211"/>
<path fill-rule="evenodd" clip-rule="evenodd" d="M16.8503 13.6932C16.8503 13.6932 16.73 13.5825 16.4562 13.7316C16.1824 13.8807 15.9609 14.1924 15.9474 14.4754C15.9338 14.7258 16.1532 14.9123 16.4949 14.922C16.7493 14.9316 16.9028 14.9026 16.9804 14.8836C16.961 14.8603 16.86 14.7341 16.86 14.7341L16.8503 13.6932Z" fill="#C3B378"/>
<path fill-rule="evenodd" clip-rule="evenodd" d="M16.7321 13.7552C16.7321 13.7552 16.7031 13.7319 16.6169 13.7785C16.5451 13.8169 16.4403 13.9184 16.3587 13.9902C16.3063 14.033 16.2732 14.0523 16.2435 14.0853C16.1231 14.229 16.0221 14.464 16.0805 14.5805C16.1388 14.697 16.331 14.831 16.8203 14.7398L16.7307 13.7553L16.7321 13.7552Z" fill="#E6D89C"/>
<path fill-rule="evenodd" clip-rule="evenodd" d="M16.5726 13.9961C16.5726 13.9961 16.4949 14.1165 16.4949 14.3088C16.4949 14.5049 16.6056 14.8175 17.0135 14.8408C17.326 14.8603 17.5357 14.3904 17.7629 14.2078C17.9357 14.0681 18.0405 14.0641 18.0405 14.0641C18.0405 14.0641 17.8639 13.8721 17.3921 13.6234C16.926 13.3729 16.4036 13.3399 16.1201 13.7244C16.2541 13.7146 16.6872 13.6039 16.6872 13.6039L16.8989 13.6719L16.5726 13.9961Z" fill="#252211"/>
<path fill-rule="evenodd" clip-rule="evenodd" d="M17.1823 14.2504C17.1688 14.2213 17.159 14.1824 17.2154 14.1728C17.2717 14.1632 17.2969 14.1689 17.3163 14.2112C17.3358 14.2536 17.3547 14.2889 17.3259 14.3065C17.2969 14.3219 17.2212 14.3067 17.1823 14.2504ZM17.0911 13.9766C17.0911 13.9766 17.0716 13.9902 17.0813 13.9631C17.0852 13.9302 17.1105 13.8718 17.1726 13.8855C17.2347 13.8992 17.2212 13.967 17.211 13.9865C17.2008 14.0059 17.1489 14.0388 17.11 14.0249C17.1051 14.0236 17.1005 14.0212 17.0967 14.0178C17.0928 14.0145 17.0899 14.0103 17.088 14.0056C17.0861 14.0008 17.0853 13.9957 17.0858 13.9907C17.0862 13.9856 17.0879 13.9807 17.0906 13.9763L17.0911 13.9766Z" fill="#6F674D"/>
<path fill-rule="evenodd" clip-rule="evenodd" d="M11.8354 14.1008C11.8354 14.1008 11.989 14.216 12.1675 14.2115C12.3441 14.2075 12.5713 14.0251 12.6762 13.9085C12.7382 13.8405 12.7914 13.7687 12.849 13.7124C12.8976 13.6639 12.9305 13.6406 12.9538 13.6076C12.9868 13.5692 13.0218 13.497 13.0393 13.4736C12.9965 13.5066 12.9344 13.5649 12.8703 13.6038C12.8082 13.6422 12.6742 13.7143 12.6198 13.7338C12.5674 13.7533 12.0237 14.041 12.0237 14.041L11.8354 14.1008Z" fill="#AC924C"/>
<path fill-rule="evenodd" clip-rule="evenodd" d="M12.0698 12.666C12.0698 12.666 12.1552 12.6078 12.3203 12.5708C12.4796 12.5324 12.8 12.5028 12.8 12.5028L13.064 12.618L13.1689 13.0161L12.9769 13.4298L12.7322 13.5834L12.4545 13.1368L12.0705 12.6668L12.0698 12.666Z" fill="#9F8E57"/>
<path fill-rule="evenodd" clip-rule="evenodd" d="M11.7242 13.0214L11.6328 13.0896C11.6328 13.0896 11.6562 13.0468 11.6756 12.9168C11.6949 12.7868 11.796 12.4702 11.9436 12.2877C12.0912 12.1052 12.0873 12.1149 12.0873 12.1149C12.0738 12.1124 12.0598 12.1128 12.0464 12.1162C12.033 12.1195 12.0205 12.1257 12.0097 12.1342C12.0291 12.0912 12.1534 11.9376 12.2777 11.8608C12.402 11.784 12.4505 11.7598 12.5805 11.8224C12.7106 11.885 12.7436 11.9175 12.8388 11.9137C12.9341 11.9098 13.0155 11.8089 13.0155 11.8089C13.0155 11.8089 13.0349 11.8709 12.9631 12.0147C12.8913 12.1584 12.6078 12.4515 12.6078 12.4515L12.0174 12.8554L11.7242 13.0214Z" fill="#EAC970"/>
<path fill-rule="evenodd" clip-rule="evenodd" d="M12.1611 12.6176C12.1611 12.6176 12.5884 12.6758 12.7185 12.5555C12.7223 12.569 12.7379 12.569 12.7379 12.5788C12.7369 12.5861 12.7335 12.5929 12.7282 12.5981C12.7424 12.5959 12.7566 12.5946 12.7709 12.5943C12.788 12.5994 12.8056 12.6026 12.8234 12.604C12.8377 12.6037 12.8521 12.6023 12.8662 12.6C12.8648 12.6097 12.8615 12.6189 12.8565 12.6273C12.8515 12.6357 12.8449 12.6429 12.837 12.6487C12.8564 12.6487 12.8754 12.6525 12.8754 12.668C12.8754 12.6835 12.8792 12.7302 12.8559 12.7399C12.8366 12.7453 12.8161 12.7439 12.7977 12.736C12.7993 12.7727 12.8092 12.8086 12.8269 12.8409C12.8653 12.9127 12.9472 12.9945 13.0573 12.971C13.0573 12.971 13.1154 13.1107 12.8708 13.4214C12.8379 13.4642 12.8028 13.5224 12.7602 13.5709C12.7433 13.6076 12.7305 13.646 12.7218 13.6854C12.7218 13.6854 13.1355 13.5262 13.2539 13.1631C13.3743 12.798 13.3976 12.4389 13.3743 12.103C13.3704 12.0078 13.3549 11.9399 13.3316 11.8913C13.2733 11.7708 13.1101 11.7903 13.0442 11.8583C12.949 11.9535 12.7898 12.1903 12.5684 12.3534C12.3432 12.5164 12.3336 12.5454 12.1606 12.6176H12.1611Z" fill="#D7BC6B"/>
<path fill-rule="evenodd" clip-rule="evenodd" d="M11.6486 13.1418C11.6486 13.1418 11.567 13.1903 11.5243 13.3722C11.4815 13.5586 11.5627 13.7858 11.6096 13.8576C11.6566 13.9294 11.7632 14.1256 11.9844 14.1353C12.0392 14.135 12.0933 14.1238 12.1437 14.1023C12.2209 14.0669 12.2933 14.0219 12.3592 13.9683C12.4544 13.8965 12.532 13.8344 12.5223 13.8286C12.499 13.8188 11.9359 13.3528 11.9359 13.3528L11.7242 13.1165L11.6486 13.1418Z" fill="#585136"/>
<path fill-rule="evenodd" clip-rule="evenodd" d="M12.1809 13.9146C12.1809 13.9146 12.2955 13.9049 12.3634 13.8622C12.4314 13.8194 11.9653 13.3574 11.9653 13.3574L11.9984 13.8566L12.1809 13.9146Z" fill="#453A25"/>
<path fill-rule="evenodd" clip-rule="evenodd" d="M11.6851 13.1068C11.6851 13.1068 11.6269 13.2175 11.6269 13.2467C11.6172 13.3418 11.6464 13.6408 11.6697 13.7359C11.693 13.8369 11.8192 13.9902 11.9824 13.9902C12.0833 13.9902 12.2232 13.9281 12.2232 13.9127C12.2232 13.8932 12.0794 13.8743 12.0406 13.8019C12.0173 13.7635 12.0076 13.6681 12.0022 13.5715C11.9984 13.5095 11.9984 13.4415 12.0217 13.4179C12.0741 13.3597 12.0837 13.1927 12.0837 13.1927L12.2701 12.8464H12.025L11.7317 13.029L11.6851 13.1068Z" fill="#84754B"/>
<path fill-rule="evenodd" clip-rule="evenodd" d="M11.6138 13.2136C11.6138 13.2136 11.8058 12.9593 11.9788 12.9009C12.1519 12.8425 12.2293 12.8776 12.2293 12.8776L12.1283 13.1359L11.9846 13.2952L11.9943 13.3767C11.9943 13.3767 11.9709 13.5922 12.1146 13.7417C12.2584 13.8912 12.3651 13.8855 12.4273 13.8855C12.4896 13.8855 12.6681 13.833 12.7594 13.6175C12.8409 13.4156 12.9089 13.1567 12.7458 12.897C12.5864 12.6388 12.305 12.6288 12.2506 12.6288C12.1962 12.6288 11.769 12.6505 11.6138 13.2136Z" fill="#252211"/>
<path fill-rule="evenodd" clip-rule="evenodd" d="M16.5437 14.0776C16.4719 14.0446 16.5399 13.8427 16.6117 13.7805C16.6835 13.7183 16.7748 13.6466 16.9342 13.6367C16.9922 13.6329 17.0486 13.6698 17.039 13.7087C17.0254 13.7805 16.9244 13.8815 16.8331 13.9533C16.7069 14.0524 16.6253 14.1145 16.5437 14.0776Z" fill="#F7F7E7"/>
<path fill-rule="evenodd" clip-rule="evenodd" d="M12.6604 12.9767C12.7129 12.9728 12.7809 13.0151 12.7944 13.0719C12.808 13.134 12.7614 13.2583 12.6604 13.2583C12.5789 13.2583 12.5361 13.1573 12.5361 13.1282C12.537 13.1043 12.5437 13.081 12.5556 13.0602C12.5594 13.0544 12.5692 12.9864 12.6604 12.9767Z" fill="#F8F6DE"/>
<path fill-rule="evenodd" clip-rule="evenodd" d="M11.9028 13.0214C11.9028 13.0214 11.7688 13.0834 11.7067 13.2134C11.6623 13.3093 11.6489 13.4167 11.6683 13.5206C11.678 13.5691 11.7265 13.6894 11.7596 13.7321C11.7926 13.7749 11.8372 13.8041 11.8703 13.8001C11.9033 13.7961 11.9712 13.7088 11.9712 13.6565C11.9712 13.6041 11.9751 13.3827 12.0391 13.2623C12.0954 13.1419 11.9028 13.0214 11.9028 13.0214Z" fill="#D4C38B"/>
<path fill-rule="evenodd" clip-rule="evenodd" d="M11.9226 13.0116C11.8993 13.0252 11.8606 13.0446 11.8702 13.0699C11.8799 13.0932 11.9614 13.1083 11.9906 13.1651C12.0236 13.2234 12.0236 13.2854 12.0139 13.3146C12.0392 13.3026 12.0622 13.2861 12.0818 13.266C12.1246 13.2174 12.1769 13.1515 12.2216 13.1515C12.2508 13.1515 12.2798 13.1651 12.3071 13.1651C12.3499 13.1651 12.3925 13.1515 12.3984 13.1069C12.408 13.0486 12.3168 12.9961 12.2644 13.0059C12.2741 12.9675 12.2877 12.9108 12.2449 12.8718C12.2022 12.8329 12.0683 12.9011 12.0391 12.9205C12.0099 12.94 11.9226 13.0116 11.9226 13.0116Z" fill="#E2D59D"/>
<path fill-rule="evenodd" clip-rule="evenodd" d="M15.0077 17.0912L15.2951 17.0063L15.3766 17.0646C15.3766 17.0646 15.4347 17.1889 15.5261 17.2043C15.4969 17.2664 15.4211 17.3195 15.4251 17.3636C15.429 17.4076 15.4679 17.4413 15.4679 17.4413C15.4679 17.4413 15.2095 17.8684 15.7183 18.2989C15.5979 18.3474 15.4446 18.4141 15.363 18.4525C15.4211 18.466 15.5454 18.4909 15.5979 18.538C15.6504 18.5851 15.6504 18.6001 15.6989 18.6292C15.7474 18.6584 15.7765 18.6972 15.7669 18.7146C15.7338 18.6952 15.6231 18.6371 15.6038 18.6913C15.5845 18.7456 15.1242 18.7244 15.1242 18.7244L14.3475 18.8739C14.3475 18.8739 14.3765 18.7962 14.295 18.7244C14.1999 18.639 14.0834 18.7282 13.9591 18.6331C13.7961 18.5088 13.7901 18.3651 13.7378 18.3108C13.7901 18.2778 13.897 18.2293 14.1514 18.1956C14.1417 18.1761 14.1086 18.1179 14.1281 18.0655C14.1514 17.9976 14.2484 17.9548 14.2193 17.8735C14.2621 17.8638 14.2814 17.8638 14.3883 17.7298C14.4893 17.5958 14.5514 17.5667 14.6291 17.557C14.7068 17.5473 14.7534 17.557 14.8971 17.423C14.998 17.3279 14.9651 17.2463 14.9651 17.2463C14.9651 17.2463 15.0309 17.2252 15.0077 17.0912Z" fill="#CBAC5A"/>
<path fill-rule="evenodd" clip-rule="evenodd" d="M14.1597 17.1344C14.1635 17.1149 14.1791 17.1052 14.2839 17.1149C14.3888 17.1246 15.0528 17.0528 15.2334 17.0431C15.416 17.0295 16.0586 17.0391 16.3713 17.1052C16.684 17.1712 17.0005 17.2489 17.1538 17.2877C17.3074 17.3305 17.3558 17.3458 17.3499 17.3653C17.3461 17.3847 17.3115 17.4037 17.2916 17.3983C17.2723 17.3945 16.7635 17.239 16.6064 17.2063C16.4492 17.1735 15.9053 17.0859 15.608 17.0911C15.3303 17.095 15.2196 17.0873 14.9847 17.1144C14.7497 17.1436 14.3614 17.1824 14.2449 17.1669C14.1297 17.1533 14.1535 17.1533 14.1594 17.1339L14.1597 17.1344Z" fill="#D6BC6F"/>
<path fill-rule="evenodd" clip-rule="evenodd" d="M15.7226 18.6563C15.7226 18.6563 16.1206 18.8719 16.2644 19.1359C16.3692 19.332 16.2023 19.4292 16.2023 19.4292C16.2023 19.4292 16.4276 19.4292 16.3984 19.5535C16.3849 19.631 16.01 19.8407 15.7596 19.9514C15.5052 20.0621 15.5149 20.0564 15.3907 20.0757C15.2702 20.0952 14.9401 20.0373 14.8721 20.134C14.8042 20.2306 14.8337 20.3302 14.8527 20.3457C14.8721 20.3592 15.0294 20.3787 15.0294 20.3787C15.0294 20.3787 14.9964 20.47 14.6703 20.4797C14.3441 20.4894 14.2625 20.5126 14.243 20.5477C14.2236 20.5805 14.3051 20.5612 14.4547 20.5861C14.6042 20.6093 14.8139 20.6245 14.8139 20.6245C14.8139 20.6245 14.7459 20.6827 14.5693 20.7293C14.3673 20.7816 14.0508 20.8303 13.9556 20.8885C14.0042 20.9215 14.0761 20.97 14.1092 20.9739C14.0277 20.9933 13.913 21.0361 13.8937 21.0516C13.9227 21.071 13.9617 21.0943 13.9617 21.0943C13.9617 21.0943 13.7985 21.2904 13.7034 21.3391C13.6083 21.3877 13.0607 21.6419 12.8722 21.5934C12.4024 21.4691 12.3441 20.9546 12.2296 20.9158C12.0568 20.8575 11.9752 20.9739 11.8218 20.8924C11.8897 20.8438 11.9267 20.8148 11.9985 20.7818C11.9209 20.7434 11.5189 20.4885 11.5189 20.4885C11.4769 20.3969 11.4303 20.3075 11.3792 20.2206C11.3014 20.0866 11.1872 19.9079 11.1014 19.7506C10.915 19.405 10.9053 19.2458 10.7363 19.0497C10.7655 19.0113 10.8664 19.0166 10.8664 19.0166L12.2821 19.4827L14.7922 19.5554L15.445 18.6234L15.7226 18.6563Z" fill="#DFC677"/>
<path fill-rule="evenodd" clip-rule="evenodd" d="M12.0039 20.0776C12.0191 20.0945 12.0367 20.1089 12.0563 20.1204C12.1049 20.1534 12.1767 20.1923 12.2252 20.2504C12.2447 20.2213 12.2932 20.1689 12.3788 20.2504C12.4645 20.3319 12.5708 20.2738 12.637 20.2932C12.705 20.3166 12.7088 20.3262 12.7088 20.3262C12.7088 20.3262 12.7472 20.2932 12.8331 20.2582C12.8856 20.2388 12.9476 20.2252 13.0156 20.2059C13.0777 20.1923 13.1456 20.1728 13.1924 20.1728C13.2351 20.2019 13.3885 20.3648 14.004 20.1243C14.5847 19.899 14.7185 19.8738 14.8157 19.9086C14.8254 19.8853 14.8351 19.8407 14.9846 19.8466C14.9846 19.7845 14.8604 19.5728 14.8604 19.5728L14.1749 19.3379H13.8L12.6758 19.5437L12.0528 19.8992L12.0043 20.0784L12.0039 20.0776Z" fill="#C4A859"/>
<path fill-rule="evenodd" clip-rule="evenodd" d="M11.6294 19.6835C11.6294 19.6835 11.643 19.7884 11.7983 19.8991C11.9519 20.0097 12.0002 20.0757 12.0002 20.0757C12.0002 20.0757 12.0294 20.0373 12.0527 19.9982C12.076 19.9554 12.0954 19.9069 12.1342 19.8933C12.2119 19.8603 12.3886 19.9224 12.4275 19.9127C12.4605 19.9031 12.4508 19.8351 12.4857 19.8351C12.5673 19.8311 12.6196 19.8875 12.6488 19.8875C12.678 19.8875 12.7497 19.8836 12.7594 19.8681C12.7691 19.8526 12.773 19.6914 12.8837 19.6137C13.0041 19.5283 13.1517 19.5652 13.1909 19.5846C13.1909 19.6137 13.1947 19.6856 13.2724 19.6894C13.3501 19.6933 13.3578 19.6797 13.426 19.703C13.4942 19.7263 13.5755 19.6991 13.6124 19.8136C13.6454 19.804 13.7231 19.7943 13.7037 19.6835C13.7421 19.6545 13.7756 19.6351 13.8573 19.5205C13.8767 19.4914 13.9096 19.4584 13.9349 19.4157C14.0029 19.4157 14.0844 19.4021 14.1931 19.4972C14.1601 19.5205 14.1406 19.5356 14.131 19.5592C14.1594 19.5874 14.1854 19.6179 14.2086 19.6505C14.2378 19.6889 14.2572 19.736 14.2941 19.7457C14.3757 19.769 14.5096 19.736 14.6591 19.7457C14.8029 19.7555 14.9232 19.8079 14.9757 19.8409C14.9951 19.8313 14.9951 19.8273 15.0437 19.837C15.0922 19.8467 15.129 19.8506 15.0767 19.7885C15.1058 19.8021 15.1388 19.8313 15.1679 19.8021C15.1972 19.7729 15.2203 19.7303 15.3018 19.7205C15.3834 19.7108 15.4126 19.7244 15.4456 19.639C15.4883 19.5342 15.3407 19.5342 15.3407 19.5342C15.3407 19.5342 15.4087 19.472 15.4845 19.3904C15.5758 19.3051 15.6806 19.1943 15.7058 19.0584C15.7486 18.8079 15.5039 18.775 15.5039 18.775L14.3175 19.1401L12.867 19.0681L11.6302 19.6837L11.6294 19.6835Z" fill="#927D49"/>
<path fill-rule="evenodd" clip-rule="evenodd" d="M10.5633 16.2564C10.5633 16.2564 10.5249 16.3049 10.5012 16.4194C10.4775 16.534 10.4876 16.5204 10.4681 16.602C10.4487 16.6835 10.2097 17.4951 10.2993 17.7689C10.3889 18.0427 10.5441 18.1437 10.6411 18.365C10.6605 18.4135 10.6795 18.4427 10.6896 18.4855C10.7226 18.6291 10.6936 18.7398 10.7324 18.8835C10.7459 18.9321 10.781 18.9884 10.8333 19.0466C10.9485 19.1669 11.1363 19.2815 11.2173 19.363C11.3318 19.4835 11.495 19.7282 11.7027 19.7514C11.8134 19.7649 11.9708 19.7184 12.1008 19.6408C12.216 19.5689 12.2872 19.468 12.408 19.4104C12.4934 19.3676 12.5846 19.3521 12.6662 19.3327C12.8351 19.2997 12.9886 19.2943 13.0799 19.3133C13.2196 19.3424 13.5497 19.4434 13.7327 19.4434C13.8756 19.4411 14.0177 19.4215 14.156 19.3852C14.4336 19.3037 14.7695 19.1637 14.9909 19.1016C15.121 19.0632 15.2258 19.0531 15.3327 19.0298C15.5152 18.9871 15.6685 18.9289 15.756 18.8181C15.6977 18.7502 15.6259 18.6453 15.2374 18.6492C14.7967 18.6589 14.2879 18.9035 14.0374 18.9424C13.7869 18.9813 13.6783 19.0142 13.3986 18.9132C13.1244 18.8112 13.1153 18.7438 13.1153 18.7438C13.1153 18.7438 12.8274 18.5424 12.707 18.0291C12.5866 17.5159 12.707 17.1418 13.0197 16.7864C13.1012 16.6951 13.0818 16.6136 13.0818 16.6136C13.0818 16.6136 13.2876 16.336 13.2313 16.076C13.1692 15.8177 12.7711 15.8702 12.7711 15.8702L10.5633 16.2564Z" fill="#6E6342"/>
<path fill-rule="evenodd" clip-rule="evenodd" d="M10.8951 17.1204C10.878 17.1526 10.87 17.1889 10.8718 17.2253C10.8757 17.2776 10.8913 17.3456 11.0485 17.499C11.1825 17.6329 11.1533 17.7824 11.1533 17.7824C11.1533 17.7824 11.2208 17.796 11.4038 17.7104C11.5476 17.6424 11.5958 17.7629 11.5958 17.7629C11.6377 17.7409 11.683 17.7265 11.7298 17.7201C11.7723 17.7162 11.8133 17.7031 11.8501 17.6817C11.8501 17.6817 12.0191 17.8545 12.1667 17.936C12.3007 18.008 12.3784 18.0565 12.4445 18.008C12.5065 17.9652 12.5065 17.8778 12.5026 17.839C12.4872 17.8032 12.4677 17.7693 12.4445 17.738C12.4017 17.6759 12.3337 17.604 12.3293 17.546C12.3195 17.4121 12.4302 17.2528 12.4068 17.214C12.3834 17.1752 12.2962 17.1655 12.0807 17.2432C11.8575 17.3169 10.8942 17.1208 10.8942 17.1208L10.8951 17.1204Z" fill="#39331F"/>
<path fill-rule="evenodd" clip-rule="evenodd" d="M11.4038 17.9884C11.4038 17.9884 11.2932 17.8836 11.332 17.3748C11.3789 17.3741 11.4258 17.3786 11.4717 17.3883C11.4717 17.3883 11.532 17.7826 11.4038 17.9884Z" fill="#292311"/>
<path fill-rule="evenodd" clip-rule="evenodd" d="M10.6158 15.868C10.6312 15.8565 10.6455 15.8437 10.6585 15.8296C10.6201 15.9014 10.4428 16.1887 10.5866 16.6412C10.7303 17.0917 11.0914 17.4275 11.5361 17.4431C11.9808 17.4587 12.2145 17.2412 12.4818 16.915C12.5866 16.785 12.707 16.6218 12.8138 16.5112C12.973 16.3382 13.0973 16.2897 13.0973 16.1228C13.0973 15.7811 12.7477 15.6276 12.2332 15.4742C11.7186 15.3209 11.2545 15.3398 11.0137 15.4448C10.7788 15.5592 10.678 15.6796 10.6158 15.868Z" fill="#252211"/>
<path fill-rule="evenodd" clip-rule="evenodd" d="M12.268 18.1417L12.3064 18.1223C12.3064 18.1223 12.316 17.9687 12.3781 17.9728C12.4403 17.9825 12.4694 18.0642 12.4636 18.0933C12.4597 18.1223 12.4442 18.171 12.382 18.165C12.3005 18.167 12.268 18.1417 12.268 18.1417Z" fill="#3F3824"/>
<path fill-rule="evenodd" clip-rule="evenodd" d="M12.0952 17.4894C12.0952 17.4894 12.1336 17.4758 12.1806 17.5224C12.219 17.5224 12.3864 17.503 12.4389 17.536C12.4914 17.569 12.5069 17.598 12.5069 17.598C12.5069 17.598 12.3108 17.6408 12.2039 17.598C12.0952 17.5612 12.0952 17.4894 12.0952 17.4894Z" fill="#2D2815"/>
<path fill-rule="evenodd" clip-rule="evenodd" d="M12.9593 17.5184C12.9593 17.5086 12.8545 17.4369 12.7437 17.4134C12.7243 17.4096 12.7203 17.4232 12.7053 17.4232C12.6956 17.4193 12.6918 17.3901 12.6918 17.3901L12.6288 17.4233C12.6288 17.4233 12.6191 17.4369 12.6521 17.4617C12.6812 17.485 12.7298 17.5044 12.7434 17.5432C12.7569 17.582 12.7569 17.5956 12.7628 17.6015C12.7667 17.6053 12.8346 17.6015 12.8677 17.582C12.9007 17.5625 12.9629 17.5308 12.9589 17.518L12.9593 17.5184Z" fill="#82764F"/>
<path fill-rule="evenodd" clip-rule="evenodd" d="M11.9785 17.9126C11.9785 17.9126 11.9978 17.7787 12.128 17.7729C12.2619 17.7631 12.2872 17.8932 12.2872 17.8932L12.2096 17.9709C12.2096 17.969 12.1513 17.8874 11.9792 17.9126H11.9785Z" fill="#2D2816"/>
<path fill-rule="evenodd" clip-rule="evenodd" d="M12.8233 17.3359C12.8233 17.3359 12.7513 17.4136 12.5922 17.4369C12.5787 17.4174 12.5494 17.3787 12.5922 17.3166C12.635 17.2545 12.6835 17.235 12.732 17.2544C12.7534 17.2578 12.7733 17.2673 12.7895 17.2818C12.8057 17.2962 12.8174 17.315 12.8233 17.3359Z" fill="#574F35"/>
<path fill-rule="evenodd" clip-rule="evenodd" d="M13.1164 17.4311C13.1203 17.4117 13.1068 17.4078 13.1164 17.3981C13.126 17.3884 13.1786 17.369 13.1883 17.3786C13.1922 17.3826 13.1883 17.3981 13.1883 17.417C13.1883 17.436 13.1883 17.4554 13.1786 17.4694C13.165 17.4888 13.1262 17.4986 13.1068 17.4928C13.0873 17.487 13.0835 17.4598 13.0835 17.4544C13.0931 17.4506 13.1164 17.4408 13.1164 17.4311ZM13.4479 17.2214C13.4479 17.2117 13.4809 17.1923 13.5004 17.1923C13.5294 17.1923 13.5294 17.2156 13.5334 17.2214C13.543 17.2253 13.543 17.2175 13.5527 17.235C13.5625 17.2526 13.5762 17.2835 13.5663 17.303C13.5564 17.3224 13.5178 17.3359 13.5082 17.332C13.4946 17.3223 13.4519 17.235 13.4479 17.2214Z" fill="#82764F"/>
<path fill-rule="evenodd" clip-rule="evenodd" d="M12.7803 17.4757C12.7803 17.4757 12.8231 17.4853 12.8813 17.534C12.8618 17.5475 12.8327 17.563 12.8327 17.563C12.8327 17.563 12.8288 17.5185 12.7803 17.4757Z" fill="#6E6342"/>
<path fill-rule="evenodd" clip-rule="evenodd" d="M12.6856 17.0485C12.6759 17.0389 12.7147 17.0156 12.738 17.0194C12.7613 17.0233 12.771 17.0389 12.7962 17.0427C12.8214 17.0466 12.8254 17.033 12.8346 17.0233C12.8438 17.0136 12.8774 17.0194 12.8831 17.0233C12.8867 17.0275 12.89 17.0321 12.8929 17.0369C12.8933 17.0294 12.8952 17.0222 12.8985 17.0156C12.9019 17.009 12.9065 17.0032 12.9122 16.9985C12.9197 16.993 12.9282 16.9893 12.9373 16.9876C12.9464 16.9859 12.9557 16.9863 12.9647 16.9887C12.9685 17.0023 12.988 17.0508 12.9841 17.0605C12.9803 17.0702 12.9221 17.0839 12.9122 17.0741C12.9219 17.0975 12.9647 17.1461 12.9704 17.1557C12.9762 17.1653 12.9277 17.1887 12.9084 17.1848C12.8812 17.1829 12.7142 17.0858 12.6851 17.0489L12.6856 17.0485ZM12.94 16.7262C12.9364 16.7164 12.9295 16.7082 12.9205 16.7029C12.907 16.6991 12.8623 16.7029 12.8623 16.7262C12.8623 16.7495 12.9007 16.8798 12.9438 16.9476C12.9924 17.0156 13.0253 17.0718 13.0584 17.0874C13.0687 17.0921 13.0805 17.0928 13.0913 17.0892C13.1021 17.0855 13.1112 17.0779 13.1166 17.068C13.1205 17.0582 13.1302 16.9864 13.1263 16.8175C13.1225 16.6485 13.1166 16.4854 13.1069 16.4757C13.0972 16.466 13.0584 16.4661 13.0448 16.4854C13.0312 16.5048 12.9439 16.6971 12.94 16.7262Z" fill="#585136"/>
<path fill-rule="evenodd" clip-rule="evenodd" d="M12.767 17.7204C12.767 17.7204 12.699 17.6777 12.633 17.7068C12.5709 17.7361 12.5748 17.8506 12.5748 17.8506C12.5887 17.8561 12.6038 17.858 12.6187 17.8563C12.6336 17.8547 12.6479 17.8494 12.6602 17.8409C12.703 17.8118 12.7573 17.7632 12.767 17.7204Z" fill="#574F35"/>
<path fill-rule="evenodd" clip-rule="evenodd" d="M12.8953 17.8738C12.8915 17.8354 12.8569 17.8354 12.8569 17.8156C12.8593 17.8061 12.8648 17.7977 12.8725 17.7917C12.8803 17.7857 12.8898 17.7825 12.8996 17.7825C12.919 17.7825 12.938 17.8058 12.9617 17.8209C12.985 17.8345 13.02 17.8593 13.0239 17.8889C13.0277 17.9185 12.9855 17.9995 12.9385 17.9995C12.8915 17.9995 12.9054 17.9121 12.8957 17.8733L12.8953 17.8738ZM13.2701 17.8213C13.2701 17.8213 13.1924 17.8446 13.1982 17.8213C13.2039 17.798 13.2216 17.7923 13.2468 17.7923C13.2596 17.7789 13.2769 17.7705 13.2953 17.7689C13.3059 17.7683 13.3163 17.7718 13.3244 17.7786C13.3244 17.7786 13.3769 17.7553 13.3923 17.7689C13.4079 17.7824 13.3963 17.7824 13.4059 17.798C13.4182 17.8154 13.4262 17.8353 13.4293 17.8562C13.4293 17.8718 13.3711 17.9048 13.3244 17.899C13.2701 17.8874 13.2797 17.831 13.2701 17.8213ZM13.7225 17.7339C13.7225 17.7339 13.7458 17.7475 13.7264 17.7631C13.7129 17.7766 13.6449 17.8015 13.5865 17.8058C13.5283 17.8058 13.4759 17.8154 13.4759 17.7961C13.4759 17.7768 13.5245 17.7379 13.5535 17.7281C13.5593 17.7208 13.5668 17.7149 13.5752 17.7109C13.5836 17.7069 13.5928 17.7048 13.6021 17.7048C13.6254 17.7048 13.7166 17.6951 13.7419 17.6913C13.7652 17.6873 13.7847 17.7009 13.771 17.7203C13.7652 17.7339 13.7225 17.7339 13.7225 17.7339ZM13.8565 17.1343C13.8565 17.1343 13.8273 17.1964 13.7944 17.1964C13.7614 17.1926 13.7614 17.1828 13.7614 17.1731C13.7614 17.1595 13.7944 17.1246 13.7905 17.1149C13.7809 17.1149 13.7574 17.1149 13.7614 17.0916C13.7614 17.0721 13.7944 17.0488 13.8235 17.0532C13.8454 17.0352 13.8728 17.0249 13.9011 17.0241C13.9342 17.0241 13.9633 17.0337 13.9633 17.0532C13.9633 17.0726 13.9249 17.1153 13.9107 17.1251C13.8953 17.1406 13.8758 17.1504 13.8565 17.1343ZM13.4137 18.2819C13.4137 18.2819 13.3753 18.2858 13.3753 18.3052C13.3753 18.3149 13.3849 18.3149 13.3986 18.3091C13.4065 18.3087 13.4144 18.3074 13.4219 18.3052C13.4258 18.3091 13.4258 18.3285 13.4549 18.3285C13.4789 18.3252 13.502 18.3173 13.5229 18.3052C13.5462 18.2956 13.5657 18.2857 13.5657 18.2668C13.556 18.2337 13.5365 18.2181 13.5074 18.2181C13.4926 18.2172 13.4777 18.2206 13.4647 18.2278C13.4647 18.2278 13.4549 18.2084 13.4219 18.2278C13.3889 18.2473 13.3928 18.2473 13.4025 18.257C13.4199 18.2725 13.4141 18.2826 13.4141 18.2826L13.4137 18.2819ZM13.1943 18.4838C13.1943 18.4741 13.2428 18.4547 13.2564 18.4606C13.27 18.4644 13.3088 18.5381 13.3088 18.5459C13.3088 18.5556 13.2603 18.5789 13.2408 18.5789C13.2214 18.5789 13.1885 18.5459 13.1885 18.5405C13.1885 18.5367 13.2118 18.5309 13.2118 18.527C13.2175 18.5174 13.1943 18.4936 13.1943 18.4838ZM13.0407 18.2003C13.0505 18.1965 13.0505 18.1867 13.064 18.177C13.0683 18.1742 13.0731 18.1724 13.0782 18.1717C13.0832 18.1711 13.0884 18.1716 13.0932 18.1732C13.0966 18.1671 13.1014 18.1618 13.1071 18.1577C13.1128 18.1537 13.1194 18.151 13.1262 18.1498C13.1495 18.1459 13.169 18.1497 13.1646 18.1595C13.1646 18.1887 13.1841 18.208 13.1841 18.2313C13.1841 18.2546 13.1705 18.2838 13.122 18.3032C13.0735 18.3168 13.0075 18.3168 12.9977 18.313C12.988 18.3091 12.9783 18.2702 12.988 18.2508C12.9977 18.2313 13.0251 18.21 13.0407 18.2003Z" fill="#82764F"/>
<path fill-rule="evenodd" clip-rule="evenodd" d="M13.1024 18.2136C13.1024 18.2136 13.0694 18.2331 13.0694 18.2428C13.0664 18.2522 13.0651 18.262 13.0655 18.2718C13.0655 18.2776 13.1082 18.268 13.114 18.2621C13.1159 18.2583 13.1024 18.2237 13.1024 18.2136Z" fill="#6E6342"/>
<path fill-rule="evenodd" clip-rule="evenodd" d="M12.8137 18.1224C12.833 18.1263 12.8661 18.1224 12.8913 18.1321C12.9108 18.1418 12.9243 18.1612 12.9049 18.1845C12.8854 18.2078 12.8665 18.2428 12.8233 18.2369C12.7748 18.2331 12.7282 18.2078 12.7282 18.1884C12.7274 18.1761 12.7291 18.1637 12.733 18.1521C12.737 18.1404 12.7433 18.1296 12.7515 18.1204C12.771 18.1049 12.7807 18.1147 12.8137 18.1224Z" fill="#585136"/>
<path fill-rule="evenodd" clip-rule="evenodd" d="M12.7904 18.1418C12.7904 18.1418 12.7283 18.1903 12.7127 18.2137C12.6932 18.237 12.5981 18.3573 12.5691 18.3825C12.5787 18.3655 12.5897 18.3493 12.602 18.334C12.5636 18.3586 12.5348 18.3956 12.5204 18.4388C12.4971 18.5108 12.6506 18.5496 12.7515 18.5788C12.8523 18.608 12.8914 18.6172 12.8914 18.6172C12.8542 18.5614 12.8223 18.5022 12.7961 18.4405C12.7577 18.3493 12.7379 18.3395 12.7631 18.2968C12.7826 18.254 12.8117 18.225 12.8117 18.1919C12.8001 18.1612 12.7904 18.1418 12.7904 18.1418Z" fill="#574F35"/>
<path fill-rule="evenodd" clip-rule="evenodd" d="M10.5769 18.2952C10.591 18.2979 10.6055 18.2979 10.6197 18.2952C10.6487 18.2913 10.9517 18.18 11.2682 18.2C11.5052 18.2144 11.7401 18.253 11.9692 18.3152C12.3672 18.42 12.8623 18.6278 13.1827 18.7463C13.2681 18.7792 13.3517 18.8376 13.4131 18.8608C13.6578 18.956 13.6674 18.956 13.8112 18.9812C13.9801 19.0045 14.1529 18.9482 14.3336 18.9094C14.5549 18.8608 14.9335 18.8375 15.2656 18.7889C15.3729 18.7741 15.4788 18.75 15.5821 18.7171C15.5821 18.7171 15.318 18.9812 14.6849 19.0763C14.429 19.1152 14.169 19.1184 13.9122 19.086C13.7102 19.0666 13.5763 19.0374 13.4753 19.0083C13.3608 18.9753 13.1257 18.8879 12.8365 18.8163C12.6345 18.7639 12.4092 18.7251 12.1511 18.6766C11.5141 18.56 10.8229 18.4261 10.5767 18.296L10.5769 18.2952Z" fill="#252211"/>
<path fill-rule="evenodd" clip-rule="evenodd" d="M9.86185 17.0953C9.70825 17.2253 9.5453 17.3496 9.3862 17.4699L8.90658 17.8384C8.74351 17.9588 8.58427 18.0831 8.42107 18.2035C8.25787 18.324 8.09493 18.4384 7.92188 18.5491C8.07548 18.4191 8.23842 18.2986 8.40149 18.1802C8.56457 18.0618 8.73365 17.9457 8.89097 17.8257L9.3706 17.4566C9.53558 17.3363 9.6948 17.2118 9.86185 17.0953ZM9.01333 18.4545C9.01333 18.4545 9.18613 18.3108 9.40167 18.1089C9.6696 17.8586 9.99778 17.538 10.1026 17.4799L9.01333 18.4545Z" fill="#CFB66C"/>
<path fill-rule="evenodd" clip-rule="evenodd" d="M9.01367 18.4543C9.09917 18.3689 9.19044 18.2855 9.28172 18.2038L9.4215 18.0834C9.46424 18.045 9.51286 18.0019 9.55548 17.9592C9.64089 17.8738 9.72444 17.7824 9.80984 17.6951C9.85213 17.6512 9.8969 17.6097 9.94383 17.5708C9.96733 17.55 9.9934 17.5324 10.0214 17.5183C10.0448 17.5048 10.07 17.4799 10.1029 17.4756C10.0836 17.5048 10.0603 17.5183 10.0409 17.5436C10.0176 17.563 9.99812 17.5863 9.97879 17.6056C9.93605 17.6484 9.88751 17.6872 9.84477 17.7261C9.75353 17.8038 9.65839 17.8797 9.56715 17.961C9.47587 18.0422 9.39051 18.1299 9.2991 18.2115C9.20016 18.2951 9.1089 18.3762 9.01367 18.4543ZM10.1749 17.6776C10.1749 17.6776 9.54191 18.2971 9.41173 18.398L10.1749 17.6776Z" fill="#CFB66C"/>
<path fill-rule="evenodd" clip-rule="evenodd" d="M10.1748 17.6777C10.1178 17.7436 10.0568 17.8058 9.99201 17.864L9.80001 18.0466C9.7379 18.1086 9.67955 18.1709 9.61363 18.2329C9.54565 18.2912 9.48358 18.3481 9.41162 18.4019L9.59799 18.2194C9.66023 18.1573 9.72817 18.105 9.79421 18.0427L9.98059 17.8602C10.0446 17.7962 10.1068 17.734 10.1748 17.6777ZM10.2038 18.0135C10.1455 18.1764 10.0768 18.3353 9.99801 18.4893C9.83493 18.8156 9.59034 19.2233 9.48346 19.4312L10.2038 18.0135Z" fill="#CFB66C"/>
<path fill-rule="evenodd" clip-rule="evenodd" d="M10.2038 18.0137C10.2038 18.0855 10.1844 18.1477 10.1611 18.2098C10.1384 18.2719 10.1125 18.3328 10.0835 18.3923C10.0543 18.4506 10.0213 18.5127 9.98828 18.5691C9.95525 18.6254 9.91648 18.6835 9.88731 18.7419L9.69121 19.0875C9.62323 19.2027 9.55719 19.3185 9.48535 19.4292C9.53389 19.305 9.59993 19.1885 9.66212 19.0739C9.73011 18.9587 9.79218 18.8435 9.85412 18.7243C9.88437 18.6649 9.9116 18.6041 9.93568 18.5419C9.96473 18.4797 9.99378 18.4215 10.0172 18.3651C10.0462 18.3031 10.0695 18.2447 10.0988 18.1885C10.1317 18.1283 10.1592 18.07 10.2038 18.0137Z" fill="#CFB66C"/>
<path fill-rule="evenodd" clip-rule="evenodd" d="M10.8953 19.6058C10.8953 19.6058 10.7033 19.8602 10.7225 20.1825C10.7749 20.0136 10.841 19.7553 10.8953 19.6058ZM11.0779 19.8608C11.0779 19.8608 11.0099 20.552 10.9536 20.8918C11.0332 20.499 11.0487 20.532 11.0779 19.8608ZM12.3497 20.9327C12.3497 20.9327 12.0623 21.7775 12.0564 22.0122C12.1186 21.7708 12.239 21.2776 12.3497 20.932V20.9327Z" fill="#DEC270"/>
<path fill-rule="evenodd" clip-rule="evenodd" d="M13.0215 19.5536C13.0215 19.5536 13.4875 20.3225 13.8371 20.9788C13.7425 20.6485 13.5249 20.0428 13.0215 19.5536Z" fill="#CBAF59"/>
<path fill-rule="evenodd" clip-rule="evenodd" d="M14.2739 20.6855C14.5298 21.1379 14.7605 21.604 14.9651 22.0816C14.9264 21.7516 14.8214 21.1866 14.2739 20.6855Z" fill="#E3C677"/>
<path fill-rule="evenodd" clip-rule="evenodd" d="M17.9552 21.8192C18.0328 21.7707 18.1863 21.5065 18.3203 21.4406C18.4542 21.3726 18.5552 21.3591 18.6756 21.2251C18.796 21.0852 18.8292 20.9998 19.0931 20.8892C19.4621 20.7298 19.2083 20.524 19.2083 20.524C19.2489 20.4841 19.2923 20.4471 19.3383 20.4134C19.4335 20.3416 19.5441 20.2542 19.5345 20.1007C19.521 19.8426 19.4724 19.4677 19.2607 19.2503C19.4665 19.2075 19.8607 19.1785 20.1055 19.1164C20.3889 19.0445 20.5191 18.9435 20.5191 18.9435C20.5191 18.9435 20.356 18.6658 20.6201 18.3863C20.8842 18.1067 21.0997 17.9397 21.2589 17.627C21.0764 17.6037 20.7981 17.5066 20.088 17.7765C20.1263 17.7945 20.1633 17.8153 20.1987 17.8386C20.1987 17.8386 19.7618 17.959 19.6026 18.093C19.3249 18.3279 19.2899 18.5202 18.989 18.6639C18.6881 18.8077 18.3851 18.7688 18.1347 18.8852C17.8843 19.0017 17.8473 19.1008 17.756 19.1435C17.7754 19.1668 17.7521 19.2056 17.789 19.2386C17.7657 19.2716 17.6298 19.493 17.4919 19.493C17.5055 19.5454 17.6219 19.5842 17.6219 19.5842C17.6219 19.5842 17.5366 19.6465 17.3191 19.6619C17.4297 19.7771 17.5346 19.9027 17.8239 20.0852C17.8006 20.1337 17.7035 20.2057 17.7424 20.2969C17.7851 20.3882 17.896 20.5125 18.3385 20.6135C18.1132 20.6231 17.8493 20.6756 17.4937 20.6271C17.1384 20.5843 17.0801 20.5591 16.8607 20.6135C16.884 20.6368 16.9461 20.6368 17.0005 20.6989C16.9423 20.7027 16.5772 20.6561 16.4529 20.8193C16.3229 20.9881 16.2666 21.2659 16.2763 21.4522C16.2083 21.4853 16.1423 21.5435 16.1753 21.664C16.2083 21.7844 16.3811 21.8232 16.4918 21.8989C16.6024 21.9804 16.6122 22.0095 16.7171 21.9901C16.8277 21.9668 16.9908 21.8562 17.086 21.8562C17.1812 21.8562 17.2491 21.928 17.2491 21.928C17.2491 21.928 17.5074 21.8038 17.5326 21.8271C17.5559 21.8504 17.5364 21.9999 17.5616 22.0232C17.5873 22.0407 17.8782 21.8679 17.9559 21.8192H17.9552Z" fill="#ECD592"/>
<path fill-rule="evenodd" clip-rule="evenodd" d="M23.6002 14.0486C22.3866 10.9147 19.3865 10.334 19.3865 10.334H10.8273L10.8603 13.5263H12.5649V20.6545H10.8271V23.8409H19.1496C21.1553 23.8409 22.7632 21.8252 22.7632 21.8252C25.3379 18.171 23.6002 14.0486 23.6002 14.0486ZM19.1943 19.6777C19.1943 19.6777 18.5415 20.6195 17.8312 20.6195H16.4104L16.3767 13.5341H18.2001C18.2001 13.5341 19.0449 13.7107 19.6351 15.3825C19.6351 15.3825 20.4175 17.7761 19.1943 19.6777Z" fill="white" fill-opacity="0.8"/>
</g>
</svg>
