<svg width="35" height="35" viewBox="0 0 35 35" fill="none" xmlns="http://www.w3.org/2000/svg">
<path d="M17.5 35C27.165 35 35 27.165 35 17.5C35 7.83502 27.165 0 17.5 0C7.83502 0 0 7.83502 0 17.5C0 27.165 7.83502 35 17.5 35Z" fill="black"/>
<path d="M8.75024 7.00008C10.0627 7.00008 11.0836 7.58342 12.1044 8.45842C12.3961 8.75008 12.6877 9.04175 12.9794 9.33341C13.4169 9.77091 13.8544 9.77091 14.4377 9.77091C15.4586 9.62508 16.3336 9.33341 17.3544 9.33341C17.6461 9.33341 17.9377 9.33341 18.2294 9.47925C18.9586 9.77091 19.5419 9.62508 20.2711 9.33341C21.2919 8.75008 22.4586 8.16675 23.4794 7.72925C24.5002 7.29175 25.5211 6.85425 26.6877 6.85425C27.8544 6.85425 28.5836 7.43758 29.1669 8.31258C29.4586 8.75008 29.3127 9.18758 29.1669 9.62508C28.8752 10.9376 28.1461 11.8126 26.9794 12.3959C26.3961 12.6876 25.9586 12.9792 25.3752 13.2709C24.5002 13.5626 24.0627 14.2917 23.9169 15.1667C23.4794 17.7917 23.0419 20.2709 22.3127 22.7501C21.7294 24.6459 21.0002 26.3959 19.8336 27.8542C18.6669 29.1667 17.3544 30.0417 15.6044 30.0417C14.7294 30.0417 14.1461 29.4584 13.5627 29.0209C12.3961 28.0001 11.9586 26.6876 11.6669 25.3751C11.5211 24.6459 11.3752 23.9167 11.3752 23.1876C11.6669 20.4167 11.2294 18.0834 10.6461 15.7501C10.5002 15.1667 10.2086 14.4376 10.0627 13.8542C10.0627 13.1251 9.47941 12.5417 9.04191 12.1042C8.45858 11.6667 7.87524 11.2292 7.43774 10.6459C6.70858 9.77092 6.56274 8.75008 7.14608 7.72925C7.43774 7.14592 7.87524 7.00008 8.75024 7.00008Z" fill="#FEFEFE"/>
<path d="M13.8545 26.9792C13.8545 25.5208 14.4378 24.5 15.6045 24.0625C16.7712 23.625 18.0837 24.2083 18.667 25.2292C19.2503 26.25 18.8128 27.4167 17.792 28.2917C17.2087 28.7292 16.6253 29.0208 15.8962 29.0208C14.8753 29.1667 13.8545 28.5833 13.8545 26.9792Z" fill="black"/>
<path d="M18.2295 17.0626C18.3753 16.1876 18.667 15.3126 19.542 14.7292C20.1253 14.2917 20.7087 14.4376 21.1462 15.0209C21.8753 16.0417 22.167 17.2084 21.5837 18.3751C21.292 18.9584 20.8545 19.2501 20.2712 19.1042C19.9795 19.1042 19.6878 18.9584 19.2503 18.9584C18.667 18.6667 18.2295 18.0834 18.2295 17.0626Z" fill="black"/>
<path d="M13.5625 18.2293C12.5417 18.2293 12.1042 17.3543 12.25 16.4793C12.25 16.1876 12.3958 16.0418 12.3958 15.7501C12.6875 14.8751 13.7083 14.7293 14.4375 15.3126C15.1667 15.896 15.1667 17.2085 14.4375 17.7918C14.1458 18.2293 13.8542 18.3751 13.5625 18.2293Z" fill="black"/>
<path d="M22.0212 11.8127C21.8753 11.8127 21.8753 11.8127 21.8753 11.6669C21.8753 11.3752 21.5837 11.3752 21.4378 11.3752C21.292 11.3752 21.292 11.2294 21.292 11.0835C21.292 10.9377 21.4378 10.9377 21.5837 10.9377C21.7295 10.9377 22.0212 10.9377 22.0212 10.646C22.0212 10.3544 21.8753 10.2085 21.7295 10.2085C21.5837 10.2085 21.4378 10.0627 21.5837 9.91685C21.5837 9.77102 21.7295 9.77102 21.8753 9.77102C22.167 9.77102 22.4587 9.77102 22.7503 9.47935C22.8962 9.33352 23.042 9.47935 23.1878 9.62518C23.3337 9.77102 23.1878 9.77102 23.1878 9.91685C23.1878 10.2085 22.7503 10.2085 22.6045 10.5002C22.4587 10.7919 22.4587 11.0835 22.4587 11.521C22.3128 11.6669 22.3128 11.8127 22.0212 11.8127Z" fill="#040404"/>
</svg>
