<svg width="35" height="35" viewBox="0 0 35 35" fill="none" xmlns="http://www.w3.org/2000/svg">
<path d="M17 29C23.6274 29 29 23.6274 29 17C29 10.3726 23.6274 5 17 5C10.3726 5 5 10.3726 5 17C5 23.6274 10.3726 29 17 29Z" fill="black"/>
<path d="M11.0001 9.79971C11.9001 9.79971 12.6001 10.1997 13.3001 10.7997C13.5001 10.9997 13.7001 11.1997 13.9001 11.3997C14.2001 11.6997 14.5001 11.6997 14.9001 11.6997C15.6001 11.5997 16.2001 11.3997 16.9001 11.3997C17.1001 11.3997 17.3001 11.3997 17.5001 11.4997C18.0001 11.6997 18.4001 11.5997 18.9001 11.3997C19.6001 10.9997 20.4001 10.5997 21.1001 10.2997C21.8001 9.99971 22.5001 9.69971 23.3001 9.69971C24.1001 9.69971 24.6001 10.0997 25.0001 10.6997C25.2001 10.9997 25.1001 11.2997 25.0001 11.5997C24.8001 12.4997 24.3001 13.0997 23.5001 13.4997C23.1001 13.6997 22.8001 13.8997 22.4001 14.0997C21.8001 14.2997 21.5001 14.7997 21.4001 15.3997C21.1001 17.1997 20.8001 18.8997 20.3001 20.5997C19.9001 21.8997 19.4001 23.0997 18.6001 24.0997C17.8001 24.9997 16.9001 25.5997 15.7001 25.5997C15.1001 25.5997 14.7001 25.1997 14.3001 24.8997C13.5001 24.1997 13.2001 23.2997 13.0001 22.3997C12.9001 21.8997 12.8001 21.3997 12.8001 20.8997C13.0001 18.9997 12.7001 17.3997 12.3001 15.7997C12.2001 15.3997 12.0001 14.8997 11.9001 14.4997C11.9001 13.9997 11.5001 13.5997 11.2001 13.2997C10.8001 12.9997 10.4001 12.6997 10.1001 12.2997C9.60014 11.6997 9.50014 10.9997 9.90014 10.2997C10.1001 9.89971 10.4001 9.79971 11.0001 9.79971Z" fill="#FEFEFE"/>
<path d="M14.5 23.4997C14.5 22.4997 14.9 21.7997 15.7 21.4997C16.5 21.1997 17.4 21.5997 17.8 22.2997C18.2 22.9997 17.9 23.7997 17.2 24.3997C16.8 24.6997 16.4 24.8997 15.9 24.8997C15.2 24.9997 14.5 24.5997 14.5 23.4997Z" fill="black"/>
<path d="M17.5 16.6997C17.6 16.0997 17.8 15.4997 18.4 15.0997C18.8 14.7997 19.2 14.8997 19.5 15.2997C20 15.9997 20.2 16.7997 19.8 17.5997C19.6 17.9997 19.3 18.1997 18.9 18.0997C18.7 18.0997 18.5 17.9997 18.2 17.9997C17.8 17.7997 17.5 17.3997 17.5 16.6997Z" fill="black"/>
<path d="M14.2996 17.4998C13.5996 17.4998 13.2996 16.8998 13.3996 16.2998C13.3996 16.0998 13.4996 15.9998 13.4996 15.7998C13.6996 15.1998 14.3996 15.0998 14.8996 15.4998C15.3996 15.8998 15.3996 16.7998 14.8996 17.1998C14.6996 17.4998 14.4996 17.5998 14.2996 17.4998Z" fill="black"/>
<path d="M20.1006 13.0999C20.0006 13.0999 20.0006 13.0999 20.0006 12.9999C20.0006 12.7999 19.8006 12.7999 19.7006 12.7999C19.6006 12.7999 19.6006 12.6999 19.6006 12.5999C19.6006 12.4999 19.7006 12.4999 19.8006 12.4999C19.9006 12.4999 20.1006 12.4999 20.1006 12.2999C20.1006 12.0999 20.0006 11.9999 19.9006 11.9999C19.8006 11.9999 19.7006 11.8999 19.8006 11.7999C19.8006 11.6999 19.9006 11.6999 20.0006 11.6999C20.2006 11.6999 20.4006 11.6999 20.6006 11.4999C20.7006 11.3999 20.8006 11.4999 20.9006 11.5999C21.0006 11.6999 20.9006 11.6999 20.9006 11.7999C20.9006 11.9999 20.6006 11.9999 20.5006 12.1999C20.4006 12.3999 20.4006 12.5999 20.4006 12.8999C20.3006 12.9999 20.3006 13.0999 20.1006 13.0999Z" fill="#040404"/>
</svg>
