<svg width="35" height="35" viewBox="0 0 35 35" fill="none" xmlns="http://www.w3.org/2000/svg">
<path d="M17 29C23.6274 29 29 23.6274 29 17C29 10.3726 23.6274 5 17 5C10.3726 5 5 10.3726 5 17C5 23.6274 10.3726 29 17 29Z" fill="#D2D2D2"/>
<mask id="mask0_156_221" style="mask-type:luminance" maskUnits="userSpaceOnUse" x="10" y="7" width="14" height="21">
<path d="M23.2068 7.06897H10.793V27.2855H23.2068V7.06897Z" fill="white"/>
</mask>
<g mask="url(#mask0_156_221)">
<path d="M16.9979 7.06897L16.8623 7.52968V20.8972L16.9979 21.0325L23.2029 17.3647L16.9979 7.06897Z" fill="#343434"/>
<path d="M16.998 7.06897L10.793 17.3647L16.998 21.0325V14.5443V7.06897Z" fill="#8C8C8C"/>
<path d="M16.9979 22.2073L16.9214 22.3005V27.0622L16.9979 27.2854L23.2066 18.5414L16.9979 22.2073Z" fill="#3C3C3B"/>
<path d="M16.998 27.2854V22.2073L10.793 18.5414L16.998 27.2854Z" fill="#8C8C8C"/>
<path d="M16.998 21.0325L23.203 17.3648L16.998 14.5443V21.0325Z" fill="#141414"/>
<path d="M10.793 17.3648L16.998 21.0325V14.5443L10.793 17.3648Z" fill="#393939"/>
</g>
</svg>
