<svg width="334" height="52" viewBox="0 0 334 52" fill="none" xmlns="http://www.w3.org/2000/svg">
<g clip-path="url(#clip0_224_13)">
<path d="M332.62 48.3852C333.028 48.4305 333.232 48.6801 333.232 49.1338V50.4268C333.232 50.8351 333.005 51.0392 332.552 51.0392H306.712C306.304 51.0392 306.1 50.8124 306.1 50.3587V49.0657C306.1 48.6574 306.327 48.4305 306.78 48.3852L313.036 47.5005C313.807 47.3191 314.26 47.1375 314.396 46.9561C314.532 46.7747 314.6 46.3436 314.6 45.6631V6.19272L318.952 8.71065L305.148 10.6842C304.695 10.8203 304.445 10.6388 304.4 10.1398L304.128 8.5065C304.083 8.09818 304.264 7.78061 304.672 7.55376L321.944 0.476312C322.624 0.204103 323.1 0.13605 323.372 0.272152C323.644 0.362891 323.78 0.725838 323.78 1.36099V45.5951C323.78 46.3209 323.848 46.7747 323.984 46.9561C324.165 47.1375 324.596 47.2964 325.276 47.4325L332.62 48.3852Z" fill="white"/>
</g>
<path d="M27.3248 3.88509C27.2026 10.7063 27.2026 17.558 27.2026 24.5627V27.4074C27.2026 34.1368 27.2026 41.0192 27.3248 47.7486L33.9574 48.4216V50.6545H9.50562V48.4216L16.077 47.7486C16.1993 41.1416 16.1993 34.3204 16.1993 27.4686V24.5627C16.1993 17.6192 16.1993 10.6757 16.077 3.88509H7.09101L3.85116 15.4474H0L0.275094 1.31567H43.2185L43.4936 15.4474H39.7341L36.4025 3.88509H27.3248Z" fill="white"/>
<path d="M86.65 29.4568C86.65 38.511 86.65 42.671 86.7722 47.7792L93.4048 48.4521V50.6851H68.9531V48.4521L75.5244 47.7792C75.6467 43.0992 75.6467 39.1839 75.6467 31.3227L62.4428 3.88509L58.8667 3.54861V1.31567H81.454V3.54861L75.0048 4.22155L85.2135 26.7651L95.2387 4.43568L88.8507 3.5792V1.34626H104.072V3.5792L98.723 4.3745L86.65 29.4568Z" fill="white"/>
<path d="M157.378 48.1153C153.404 50.5012 148.667 52 142.615 52C128.249 52 116.727 43.4047 116.727 25.9694C116.727 8.31999 129.014 0 143.134 0C148.728 0 152.701 1.37647 156.919 3.76235L156.644 15.7835H152.793L149.217 3.15058C147.719 2.69176 146.16 2.47764 144.479 2.47764C135.371 2.47764 128.219 9.75765 128.219 26C128.219 42.3341 135.31 49.4 144.754 49.4C146.588 49.4 148.208 49.1247 149.828 48.5435L153.282 36.1859H157.133L157.378 48.1153Z" fill="white"/>
<path d="M221.227 4.09865C221.105 10.8281 221.105 17.7104 221.105 24.5928V27.4986C221.105 34.2281 221.105 41.0492 221.227 47.8398L226.943 48.421V50.6539H204.416V48.421L209.887 47.8398C210.071 41.2939 210.071 34.4116 210.071 26.8257H192.557C192.557 34.2892 192.557 41.1716 192.741 47.901L198.151 48.421V50.6539H175.625V48.421L181.401 47.8398C181.462 41.1716 181.462 34.3504 181.462 27.4986V24.5928C181.462 17.7104 181.462 10.9198 181.401 4.15983L175.625 3.57864V1.3457H198.151V3.57864L192.741 4.09865C192.557 10.7057 192.557 17.5269 192.557 24.3175H210.071C210.071 17.5881 210.071 10.7669 209.887 4.09865L204.416 3.57864V1.3457H226.943V3.57864L221.227 4.09865Z" fill="white"/>
<path d="M283.886 50.6852H245.313V48.4522L251.181 47.8711C251.365 41.2028 251.365 34.3817 251.365 27.5299V24.624C251.365 17.7417 251.365 10.9511 251.181 4.12989L245.313 3.60989V1.37695H282.541L282.48 14.5299H278.72L275.725 3.94637H262.521C262.399 10.5534 262.399 17.3746 262.399 24.3793H271.262L272.24 17.0381H275.48V33.7699H272.24L271.324 26.7652H262.399V26.9487C262.399 34.2899 262.399 41.2946 262.521 48.177H277.161L280.157 37.0734H283.794L283.886 50.6852Z" fill="white"/>
<defs>
<clipPath id="clip0_224_13">
<rect width="30" height="51.0393" fill="white" transform="translate(304)"/>
</clipPath>
</defs>
</svg>
