<svg width="284" height="52" viewBox="0 0 284 52" fill="none" xmlns="http://www.w3.org/2000/svg">
<path d="M27.3248 3.88238C27.2026 10.6983 27.2026 17.5448 27.2026 24.5441V27.3866C27.2026 34.1108 27.2026 40.9879 27.3248 47.7121L33.9574 48.3845V50.6158H9.50562V48.3845L16.077 47.7121C16.1993 41.1102 16.1993 34.2942 16.1993 27.4477V24.5441C16.1993 17.6059 16.1993 10.6677 16.077 3.88238H7.09101L3.85116 15.4358H0L0.275094 1.31494H43.2185L43.4936 15.4358H39.7341L36.4025 3.88238H27.3248Z" fill="white"/>
<path d="M86.65 29.4344C86.65 38.4816 86.65 42.6384 86.7722 47.7427L93.4048 48.4151V50.6463H68.9531V48.4151L75.5244 47.7427C75.6467 43.0663 75.6467 39.154 75.6467 31.2989L62.4428 3.88238L58.8667 3.54616V1.31494H81.454V3.54616L75.0048 4.21858L85.2135 26.7448L95.2387 4.43254L88.8507 3.57672V1.3455H104.072V3.57672L98.723 4.37141L86.65 29.4344Z" fill="white"/>
<path d="M157.378 48.0782C153.404 50.4623 148.667 51.96 142.615 51.96C128.249 51.96 116.727 43.3713 116.727 25.9494C116.727 8.31359 129.014 0 143.134 0C148.728 0 152.701 1.37541 156.919 3.75945L156.644 15.7714H152.793L149.217 3.14816C147.719 2.68969 146.16 2.47573 144.479 2.47573C135.371 2.47573 128.219 9.75013 128.219 25.98C128.219 42.3015 135.31 49.362 144.754 49.362C146.588 49.362 148.208 49.0869 149.828 48.5061L153.282 36.158H157.133L157.378 48.0782Z" fill="white"/>
<path d="M221.227 4.09555C221.105 10.8198 221.105 17.6968 221.105 24.5739V27.4775C221.105 34.2018 221.105 41.0177 221.227 47.803L226.943 48.3838V50.615H204.416V48.3838L209.887 47.803C210.071 41.2622 210.071 34.3852 210.071 26.8051H192.557C192.557 34.2629 192.557 41.1399 192.741 47.8642L198.151 48.3838V50.615H175.625V48.3838L181.401 47.803C181.462 41.1399 181.462 34.324 181.462 27.4775V24.5739C181.462 17.6968 181.462 10.9115 181.401 4.15668L175.625 3.57595V1.34473H198.151V3.57595L192.741 4.09555C192.557 10.6975 192.557 17.5135 192.557 24.2988H210.071C210.071 17.5746 210.071 10.7587 209.887 4.09555L204.416 3.57595V1.34473H226.943V3.57595L221.227 4.09555Z" fill="white"/>
<path d="M283.886 50.6462H245.313V48.415L251.181 47.8343C251.365 41.1712 251.365 34.3553 251.365 27.5088V24.6051C251.365 17.7281 251.365 10.9427 251.181 4.12679L245.313 3.6072V1.37598H282.541L282.48 14.5188H278.72L275.725 3.94341H262.521C262.399 10.5454 262.399 17.3613 262.399 24.3606H271.262L272.24 17.0251H275.48V33.744H272.24L271.324 26.7447H262.399V26.928C262.399 34.2636 262.399 41.2629 262.521 48.1399H277.161L280.157 37.045H283.794L283.886 50.6462Z" fill="white"/>
</svg>
