<svg width="400" height="113" viewBox="0 0 400 113" fill="none" xmlns="http://www.w3.org/2000/svg">
<path d="M101.603 67.2124C107.497 42.2516 92.04 17.239 67.0793 11.3451C42.1185 5.45113 17.1059 20.9078 11.212 45.8686C5.31802 70.8293 20.7747 95.8419 45.7355 101.736C70.6962 107.63 95.7088 92.1731 101.603 67.2124Z" fill="#926034"/>
<path d="M56.4101 100.08C80.4566 100.08 99.9501 80.5865 99.9501 56.54C99.9501 32.4935 80.4566 13 56.4101 13C32.3636 13 12.8701 32.4935 12.8701 56.54C12.8701 80.5865 32.3636 100.08 56.4101 100.08Z" fill="white"/>
<path d="M56.8198 96.1698C79.2094 96.1698 97.3598 78.0195 97.3598 55.6298C97.3598 33.2402 79.2094 15.0898 56.8198 15.0898C34.4302 15.0898 16.2798 33.2402 16.2798 55.6298C16.2798 78.0195 34.4302 96.1698 56.8198 96.1698Z" fill="#926034"/>
<mask id="mask0_170_166" style="mask-type:luminance" maskUnits="userSpaceOnUse" x="16" y="15" width="82" height="82">
<path d="M56.8198 96.1698C79.2094 96.1698 97.3598 78.0195 97.3598 55.6298C97.3598 33.2402 79.2094 15.0898 56.8198 15.0898C34.4302 15.0898 16.2798 33.2402 16.2798 55.6298C16.2798 78.0195 34.4302 96.1698 56.8198 96.1698Z" fill="white"/>
</mask>
<g mask="url(#mask0_170_166)">
<path d="M55.5497 97.7298C41.0897 97.7298 26.6397 97.7298 12.1797 97.7398C11.9797 97.7398 11.9297 97.6898 11.9297 97.4898C11.9397 70.1098 11.9397 42.7298 11.9297 15.3398C11.9297 15.1398 11.9797 15.0898 12.1797 15.0898C41.0897 15.0998 69.9997 15.0998 98.9197 15.0898C99.1197 15.0898 99.1697 15.1398 99.1697 15.3398C99.1597 42.7198 99.1597 70.0998 99.1697 97.4898C99.1697 97.6898 99.1197 97.7398 98.9197 97.7398C84.4697 97.7198 70.0097 97.7298 55.5497 97.7298Z" fill="#926034"/>
<path d="M81.8999 73.6198C81.7899 73.8398 81.6599 74.0498 81.5699 74.2798C81.4399 74.6298 81.1699 74.7598 80.8399 74.8398C79.6899 75.0998 78.6299 75.5598 77.6799 76.2498C76.3599 77.2098 75.4399 78.4898 74.8299 79.9898C74.6399 80.4598 74.4799 80.9498 74.3999 81.4498C74.3799 81.5698 74.3099 81.6198 74.2199 81.6698C72.9899 82.3298 71.7199 82.8798 70.3499 83.1698C69.4799 83.3598 68.5999 83.4698 67.7099 83.5198C66.7599 83.5698 65.8199 83.5898 64.8699 83.4998C63.7199 83.3898 62.5799 83.2098 61.4799 82.8698C59.2199 82.1798 57.1699 81.0798 55.4099 79.4998C53.4799 77.7598 52.0499 75.6498 51.0099 73.2798C50.3899 71.8698 49.9199 70.4098 49.5699 68.9198C49.3499 67.9898 49.2099 67.0498 49.0899 66.0998C48.8999 64.5498 48.8699 62.9998 48.9199 61.4398C48.9599 60.3398 49.0999 59.2498 49.2899 58.1698C49.4499 57.2198 49.6099 56.2698 49.8699 55.3498C50.4899 53.1198 51.3099 50.9798 52.5899 49.0298C53.9899 46.8898 55.6799 45.0398 57.8699 43.6898C59.4899 42.6898 61.2199 41.9798 63.0599 41.5298C64.5699 41.1598 66.1199 41.1398 67.6699 41.1698C68.6199 41.1898 69.5599 41.2498 70.4899 41.4198C71.5799 41.6198 72.6599 41.8998 73.6999 42.2798C75.7899 43.0398 77.7199 44.0998 79.4399 45.5198C80.5599 46.4498 81.5899 47.4898 82.5199 48.6098C82.7499 48.8898 82.7299 48.8998 82.4499 49.1398C81.4399 50.0298 80.3399 50.8098 79.3599 51.7298C79.1999 51.8798 79.0999 51.8698 78.9799 51.6898C77.9899 50.3398 76.7899 49.2098 75.4199 48.2398C73.8299 47.1298 72.0799 46.4098 70.2099 45.9698C69.4799 45.7998 68.7299 45.7098 67.9699 45.6598C67.4699 45.6298 66.9699 45.6198 66.4699 45.6198C65.1599 45.6198 63.8999 45.9098 62.6599 46.3198C60.6099 46.9898 58.8899 48.1498 57.5199 49.7998C56.2499 51.3398 55.3599 53.0898 54.8099 55.0098C54.4599 56.2098 54.2099 57.4198 54.0399 58.6598C53.7699 60.5898 53.7499 62.5198 53.8299 64.4598C53.8599 65.3498 53.9599 66.2398 54.0999 67.1198C54.3099 68.4298 54.6799 69.7098 55.1199 70.9598C55.6199 72.3598 56.2899 73.6798 57.2099 74.8598C58.7499 76.8198 60.7599 78.0198 63.1499 78.6498C64.9299 79.1198 66.7399 79.1498 68.5399 78.8398C71.3099 78.3798 73.5699 76.9598 75.4599 74.9198C76.5699 73.7198 77.3899 72.3398 78.1199 70.8898C78.1599 70.8098 78.1999 70.7298 78.2399 70.6498C78.5699 70.1398 78.4899 70.1098 79.0299 70.5198C80.0099 71.2698 81.0599 71.9398 82.1399 72.5398C82.2999 72.6298 82.3299 72.7598 82.2199 72.9798C82.1099 73.2098 81.9999 73.4098 81.8999 73.6198Z" fill="#FCFDFD"/>
<path d="M92.1796 39.8697C92.1796 44.8797 92.1796 49.8897 92.1796 54.8997C92.1796 55.2197 92.1496 55.5097 91.8896 55.7397C91.7696 55.8497 91.6496 55.9197 91.4796 55.9197C90.9196 55.9097 90.3496 55.9097 89.7896 55.9097C89.6896 55.9097 89.5996 55.8797 89.5296 55.7897C89.2996 55.5397 89.0696 55.2997 88.8296 55.0597C88.6096 54.8397 88.5296 54.5697 88.5396 54.2697C88.5496 51.2497 88.5596 48.2197 88.5496 45.1997C88.5496 39.3397 88.5296 33.4897 88.5296 27.6297C88.5296 27.3797 88.3996 27.3997 88.2396 27.3997C85.4396 27.3997 82.6496 27.4097 79.8496 27.4097C73.5996 27.4097 67.3496 27.4097 61.1096 27.4097C60.4796 27.4097 60.2696 27.2097 60.2596 26.5797C60.2496 25.8797 60.2596 25.1797 60.2896 24.4797C60.3196 23.9197 60.5696 23.7197 61.1396 23.7197C64.2496 23.7197 67.3696 23.7297 70.4796 23.7297C77.2696 23.7297 84.0496 23.7297 90.8396 23.7297C90.9996 23.7297 91.1696 23.7297 91.3296 23.7297C91.8496 23.7497 92.1596 24.0497 92.1696 24.5697C92.1796 25.5297 92.1796 26.4797 92.1796 27.4397C92.1796 31.5897 92.1796 35.7297 92.1796 39.8697Z" fill="#FCFDFD"/>
<path d="M19.8698 39.7897C19.8698 34.7797 19.8698 29.7697 19.8698 24.7597C19.8698 24.6097 19.8598 24.4697 19.8898 24.3197C19.9398 23.9697 20.2598 23.7197 20.6598 23.7197C21.4998 23.7197 22.3398 23.7197 23.1698 23.7197C32.2098 23.7197 41.2598 23.7297 50.2998 23.7297C50.5098 23.7297 50.7198 23.7297 50.9298 23.7397C51.3698 23.7797 51.6398 24.0297 51.6498 24.4797C51.6598 25.2597 51.6598 26.0497 51.6498 26.8297C51.6498 27.0997 51.3798 27.3597 51.1198 27.3997C51.0098 27.4097 50.8998 27.4097 50.7898 27.4097C47.5598 27.3697 44.3198 27.3997 41.0898 27.4097C40.9198 27.4097 40.7798 27.3497 40.6298 27.2697C39.5998 26.6797 38.5198 26.2197 37.3398 25.9997C36.1498 25.7697 34.9498 25.7397 33.7498 25.8397C32.1498 25.9697 30.6398 26.4597 29.1998 27.1597C28.7998 27.3497 28.4198 27.4397 27.9698 27.4297C26.5398 27.3997 25.1098 27.4197 23.6798 27.3997C23.4398 27.3997 23.4498 27.5297 23.4498 27.6897C23.4598 30.8997 23.4698 34.0997 23.4698 37.3097C23.4698 43.0897 23.4698 48.8797 23.4598 54.6597C23.4598 54.7897 23.4598 54.9197 23.4498 55.0397C23.4098 55.5397 23.0698 55.9097 22.5898 55.9297C21.9598 55.9497 21.3298 55.9497 20.7098 55.9197C20.1498 55.8897 19.8698 55.5697 19.8698 54.9997C19.8698 51.4897 19.8698 47.9897 19.8698 44.4797C19.8698 42.9197 19.8698 41.3597 19.8698 39.7897Z" fill="#FDFEFE"/>
<path d="M56.7596 41.81C55.7596 42.45 54.8296 43.18 53.9696 44C53.8896 44.02 53.8796 44.16 53.7796 44.11C53.6596 44.06 53.6996 43.94 53.6996 43.84C53.7096 42.61 53.6896 41.38 53.6996 40.16C53.6996 39.4 53.6996 38.65 53.6996 37.89C53.6996 37.49 53.6896 37.49 53.3096 37.49C50.9296 37.47 48.5596 37.51 46.1796 37.49C45.3796 37.48 44.5796 37.47 43.7796 37.47C43.6396 37.47 43.5296 37.45 43.4896 37.29C43.0996 35.96 42.5496 34.69 42.0996 33.38C41.9796 33.04 41.9896 33.04 42.3596 33.04C54.1396 33.04 65.9096 33.04 77.6896 33.04C78.0796 33.04 78.0796 33.04 78.0796 33.44C78.0796 34.33 78.0796 35.23 78.0796 36.12C78.0796 36.48 78.1096 36.85 78.1096 37.21C78.1096 37.38 78.0896 37.46 77.8796 37.47C77.4196 37.5 76.9696 37.47 76.5196 37.46C75.6596 37.45 74.7896 37.45 73.9296 37.48C72.8196 37.51 71.7096 37.45 70.5996 37.46C69.1796 37.47 67.7596 37.51 66.3396 37.48C65.2696 37.46 64.2096 37.44 63.1496 37.46C62.2196 37.48 61.2896 37.49 60.3696 37.48C59.6696 37.47 58.9696 37.46 58.2696 37.46C57.9296 37.46 57.8796 37.52 57.9196 37.84C57.9296 37.94 57.9296 38.04 57.9296 38.14C57.9296 38.9 57.8996 39.65 57.9396 40.41C57.9696 40.93 57.8696 41.31 57.3296 41.48C57.1196 41.59 56.9396 41.7 56.7596 41.81Z" fill="#FCFDFD"/>
<path d="M51.3999 91.82C51.5599 91.97 51.6499 92.15 51.6499 92.37C51.6499 93.17 51.6499 93.96 51.6499 94.76C51.6499 95.04 51.5399 95.24 51.2899 95.37C51.1399 95.43 50.9899 95.43 50.8299 95.42C49.9599 95.41 49.0799 95.41 48.2099 95.41C39.0599 95.42 29.8999 95.41 20.7499 95.43C20.2699 95.43 19.8799 95.05 19.8799 94.55C19.8899 85.12 19.8899 75.7 19.8899 66.27C19.8899 65.77 20.2099 65.44 20.7199 65.44C21.3099 65.44 21.9099 65.48 22.4999 65.43C23.0299 65.39 23.4599 65.88 23.4599 66.39C23.4399 67.42 23.4499 68.45 23.4499 69.48C23.4499 70.75 23.4299 72.01 23.4599 73.28C23.4699 73.88 23.4599 74.48 23.4799 75.08C23.4899 75.3 23.4099 75.49 23.3099 75.68C22.7599 76.73 22.3199 77.83 22.0499 78.98C21.8999 79.62 21.7799 80.28 21.7899 80.95C21.7999 81.32 21.7999 81.7 21.7899 82.07C21.7499 83.43 22.1299 84.69 22.6099 85.94C22.8099 86.46 23.0599 86.95 23.3199 87.44C23.4599 87.71 23.4599 87.99 23.4499 88.29C23.4199 89.24 23.4799 90.18 23.4799 91.13C23.4799 91.15 23.4799 91.17 23.4899 91.18C23.5499 91.33 23.4299 91.52 23.5999 91.64C24.0599 91.69 24.5199 91.66 24.9799 91.66C25.4999 91.66 26.0299 91.67 26.5499 91.65C26.6999 91.6 26.8499 91.68 26.9999 91.66C27.2199 91.75 27.3699 91.97 27.6099 92.04C28.3199 92.47 29.0099 92.96 29.7699 93.31C30.7599 93.76 31.7699 94.14 32.8399 94.32C33.9399 94.51 35.0399 94.54 36.1499 94.48C37.9899 94.37 39.6599 93.74 41.2699 92.9C41.8499 92.6 42.4199 92.28 42.9099 91.83C43.0399 91.71 43.1999 91.66 43.3899 91.66C45.8799 91.66 48.3799 91.66 50.8699 91.66C51.0699 91.66 51.2499 91.68 51.3999 91.82Z" fill="#FDFEFD"/>
<path d="M35.1595 71.5499C38.8995 71.7399 41.6895 73.4399 43.4895 76.7499C44.2795 78.1999 44.6795 79.7499 44.6495 81.4099C44.6295 82.5999 44.3295 83.7199 43.8395 84.8099C43.2295 86.1599 42.3395 87.2999 41.2595 88.2899C40.3595 89.1199 39.3095 89.6999 38.1495 90.0899C37.1795 90.4099 36.1895 90.5899 35.1795 90.5899C32.8195 90.5999 30.6695 89.9499 28.8395 88.3899C27.2995 87.0799 26.2295 85.4599 25.6195 83.5399C25.4895 83.1199 25.3695 82.6899 25.3595 82.2399C25.3595 82.0599 25.2695 81.8999 25.2595 81.7099C25.1995 79.6399 25.7995 77.7599 26.9095 76.0299C28.3395 73.7799 30.3595 72.3799 32.9395 71.7799C33.6795 71.5999 34.4095 71.5399 35.1595 71.5499Z" fill="#FEFEFE"/>
<path d="M31.8295 52.5797C32.6195 51.9997 33.3695 51.3797 34.0795 50.6997C34.2395 50.5497 34.2595 50.4597 34.0695 50.3297C33.8795 50.1997 33.7295 49.8997 33.5295 49.9097C33.3495 49.9197 33.1795 50.1797 33.0095 50.3397C32.4895 50.8197 31.9495 51.2797 31.3495 51.6597C31.1095 51.7997 30.8795 51.9697 30.6295 52.0897C30.4795 52.1597 30.4295 52.1197 30.4395 51.9597C30.4495 51.8197 30.4795 51.6997 30.5895 51.5897C31.2695 50.8797 31.9095 50.1397 32.5395 49.3797C32.7495 49.1297 32.8795 48.8397 33.0295 48.5597C33.1795 48.2697 33.2595 48.2597 33.4695 48.5097C33.6895 48.7597 33.8895 49.0297 34.1395 49.2497C34.4995 49.5897 34.8695 49.9097 35.2895 50.1797C35.8095 50.5197 36.3795 50.7797 36.9595 51.0097C37.1895 51.0997 37.2795 51.2497 37.2895 51.5097C37.3195 52.1097 37.2895 52.7097 37.3095 53.3097C37.3195 53.5797 37.2995 53.8297 37.4295 54.0997C37.5595 54.3697 37.4695 54.7097 37.5095 55.0197C37.5595 55.3497 37.6195 55.6597 37.8795 55.8997C37.9795 55.9897 37.9895 56.1497 38.0795 56.2497C38.1295 56.8797 38.1095 57.5097 38.1195 58.1297C38.1595 59.7797 38.0795 61.4297 38.1495 63.0797C38.1595 63.2597 38.0995 63.3197 37.9195 63.3197C36.9395 63.3097 35.9495 63.3097 34.9695 63.3197C34.7795 63.3197 34.7095 63.2597 34.7195 63.0697C34.7695 62.1397 34.7195 61.2097 34.7195 60.2797C34.7195 60.0597 34.7795 59.9797 35.0095 59.9697C35.8795 59.9497 35.8795 59.9397 35.8795 60.8097C35.8795 61.1697 35.8895 61.5197 35.8795 61.8797C35.8695 62.0697 35.9195 62.1497 36.1195 62.1397C36.3195 62.1297 36.5195 62.1397 36.7195 62.1497C36.8595 62.1597 36.9095 62.1097 36.9095 61.9597C36.8995 60.9797 36.8895 59.9897 36.8795 59.0097C36.8795 58.8297 36.7995 58.7797 36.6295 58.7797C35.6595 58.7797 34.6795 58.7797 33.7095 58.7697C33.5195 58.7697 33.5095 58.8697 33.5095 59.0097C33.5195 60.6997 33.5195 62.3997 33.5295 64.0897C33.5295 64.6197 33.5395 64.6197 34.0595 64.6297C35.2795 64.6497 36.4995 64.5997 37.7195 64.6697C38.0995 64.6897 38.0995 64.6897 38.1095 65.0797C38.1195 66.6797 38.1195 68.2897 38.1395 69.8897C38.1395 70.0597 38.0895 70.1097 37.9195 70.1097C36.9495 70.0997 35.9895 70.0897 35.0195 70.0897C34.8295 70.0897 34.7595 70.0197 34.7595 69.8297C34.7595 69.0197 34.7495 68.2097 34.7395 67.3997C34.7395 67.2397 34.7995 67.1597 34.9595 67.1597C35.2295 67.1597 35.5095 67.1497 35.7795 67.1397C35.9195 67.1397 35.9395 67.2097 35.9395 67.3297C35.9295 67.7497 35.9395 68.1697 35.9295 68.5897C35.9295 68.7697 35.9795 68.8497 36.1695 68.8097C36.2095 68.7997 36.2595 68.7997 36.3095 68.7997C36.9195 68.7797 36.9195 68.7797 36.9195 68.1497C36.9195 67.4597 36.8595 66.7697 36.9095 66.0697C36.9195 65.9097 36.8595 65.8597 36.7095 65.8597C35.7095 65.8597 34.7095 65.8597 33.6995 65.8497C33.4995 65.8497 33.5095 65.9697 33.5095 66.0997C33.5195 67.3097 33.5195 68.5197 33.5495 69.7297C33.5595 69.9997 33.4995 70.1197 33.2095 70.0897C32.9995 70.0697 32.7895 70.0797 32.5795 70.0897C32.3395 70.1097 32.2595 70.0197 32.2595 69.7797C32.2695 68.8997 32.2595 68.0097 32.2595 67.1297C32.2595 63.9797 32.2695 60.8297 32.2495 57.6797C32.2495 57.3797 32.4295 57.3297 32.6095 57.2197C33.4795 56.6897 34.3095 56.0997 35.0695 55.4197C35.4395 55.0997 35.7895 54.7497 36.1495 54.4197C36.3195 54.2697 36.3395 54.1397 36.1095 54.0297C35.9595 53.9597 35.8595 53.8197 35.7595 53.6897C35.6695 53.5697 35.5895 53.5397 35.4795 53.6597C34.7995 54.4197 33.9195 54.9297 33.1095 55.5197C31.8695 56.4197 30.5395 57.1597 29.1295 57.7497C28.2995 58.0997 27.4595 58.4097 26.5895 58.6297C26.4195 58.6697 26.2295 58.6797 26.0495 58.7097C25.9495 58.7197 25.8995 58.6797 25.8695 58.5897C25.6795 57.9297 25.7895 57.7097 26.4595 57.5197C28.0695 57.0797 29.5795 56.3897 31.0295 55.5597C32.7295 54.5897 34.2595 53.3997 35.6395 52.0197C35.7495 51.9097 35.9795 51.8897 35.9495 51.7197C35.9295 51.5997 35.7395 51.5097 35.6295 51.4097C35.2695 51.0597 35.2795 51.0797 34.9795 51.3397C33.7195 52.4497 32.4395 53.5397 30.9995 54.4297C30.8195 54.5397 30.6295 54.6297 30.4495 54.7197C29.6895 55.1197 28.9095 55.4997 28.1095 55.8197C27.6995 55.9797 27.2895 56.0897 26.8695 56.2197C26.7995 56.2397 26.6695 56.2997 26.6295 56.1897C26.5795 56.0697 26.7095 56.0197 26.7895 55.9797C26.9395 55.8997 27.0795 55.8297 27.2295 55.7697C28.2895 55.3097 29.2095 54.6597 30.0495 53.8697C30.5095 53.4397 31.0595 53.1097 31.5895 52.7497C31.6895 52.6897 31.7595 52.6297 31.8295 52.5797Z" fill="#FEFEFE"/>
<path d="M76.8699 81.22C77.1599 80.39 77.5399 79.62 78.1199 78.94C79.0099 77.9 80.1299 77.19 81.4499 76.88C83.2599 76.46 84.9299 76.88 86.4199 78C87.6899 78.95 88.4699 80.2 88.7199 81.76C89.1299 84.28 88.3999 86.4 86.3899 88.01C85.7499 88.53 84.9999 88.85 84.1899 89.04C82.2999 89.48 80.5899 89.08 79.0399 87.94C78.3899 87.46 77.8499 86.85 77.4599 86.13C77.1299 85.55 76.8799 84.94 76.7399 84.29C76.5899 83.55 76.5199 82.79 76.6899 82.02C76.7699 81.77 76.8299 81.5 76.8699 81.22Z" fill="#FEFEFE"/>
<path d="M36.1997 40.2798C36.5297 39.7698 36.8497 39.2598 37.1997 38.7598C37.8497 37.8298 38.6897 37.1298 39.7397 36.6798C39.9497 36.5898 40.0197 36.6598 40.0697 36.8398C40.3697 37.8998 40.5397 38.9798 40.7397 40.0598C40.9997 41.4898 41.0997 42.9398 41.3197 44.3698C41.3797 44.7298 41.3597 44.7698 40.9897 44.7798C40.4697 44.7898 39.9497 44.7898 39.4297 44.7798C39.2197 44.7698 39.1497 44.8498 39.1497 45.0498C39.1497 45.5998 39.0597 45.5798 39.6197 45.5298C40.1697 45.4798 40.1697 45.4998 40.1897 46.0498C40.1997 46.4698 40.1997 46.4798 39.7697 46.4798C39.4197 46.4798 39.0797 46.4798 38.7297 46.4698C38.4097 46.4598 38.4197 46.6798 38.3997 46.8898C38.3797 47.1098 38.4597 47.1998 38.6897 47.2198C39.0897 47.2498 39.4897 47.2498 39.8897 47.2498C39.9997 47.2498 40.1097 47.2398 40.1197 47.4098C40.1397 47.8598 40.1597 48.3198 40.0897 48.7698C40.0697 48.8698 40.0297 48.9598 39.9697 49.0398C39.7097 49.3798 39.3397 49.5098 38.9497 49.5498C38.0497 49.6298 37.1797 49.4998 36.3697 49.0598C36.0797 48.8998 35.8297 48.7098 35.6397 48.4598C34.7897 47.3898 34.2797 46.1998 34.2897 44.7998C34.2897 44.1798 34.3897 43.5898 34.5397 42.9998C34.7097 42.3498 35.1797 41.9598 35.7297 41.6798C36.1097 41.4898 36.5397 41.5298 36.9197 41.7998C37.3797 42.1298 37.8897 42.3198 38.4397 42.4198C38.6797 42.4598 38.7497 42.4098 38.7397 42.1798C38.7297 41.9598 38.8397 41.8198 38.9897 41.6898C39.2197 41.4998 39.4797 41.3498 39.7397 41.1998C39.9397 41.0798 39.9697 40.9398 39.8197 40.7698C39.6897 40.6098 39.4997 40.5298 39.3197 40.4598C38.6797 40.2098 38.0297 40.2198 37.3697 40.3698C37.0797 40.4298 36.7897 40.5098 36.5097 40.6298C36.4497 40.6598 36.3897 40.6498 36.3197 40.6498C36.0897 40.6498 36.0697 40.6198 36.1597 40.3998C36.1797 40.3498 36.1797 40.3098 36.1997 40.2798Z" fill="#FCFDFD"/>
<path d="M91.9595 65.64C92.1895 65.79 92.1895 66.04 92.1995 66.27C92.2095 67.41 92.2195 68.55 92.2195 69.69C92.2295 73.11 92.2395 76.52 92.2295 79.94C92.2195 81.62 92.1995 83.29 92.1995 84.97C92.2095 88.18 92.2195 91.38 92.2195 94.59C92.2195 94.73 92.2395 94.88 92.1695 95.02C92.0095 95.33 91.7795 95.5 91.4095 95.5C83.8795 95.49 76.3495 95.49 68.8195 95.49C66.2195 95.49 63.6295 95.5 61.0295 95.51C60.5995 95.51 60.2695 95.28 60.2495 94.8C60.2095 93.94 60.1695 93.07 60.2895 92.21C60.3495 91.81 60.5795 91.64 60.9795 91.62C61.1195 91.61 61.2495 91.62 61.3895 91.62C66.2895 91.62 71.1895 91.61 76.0895 91.62C76.8195 91.62 77.5495 91.62 78.2695 91.63C78.7795 91.63 79.2695 91.83 79.7495 91.96C80.8995 92.28 82.0695 92.33 83.2395 92.22C84.7295 92.08 86.1395 91.61 87.3595 90.7C88.5795 89.79 89.5495 88.67 90.1695 87.26C90.8695 85.66 91.1895 83.99 90.9995 82.26C90.8495 80.96 90.4295 79.73 89.7095 78.62C89.4195 78.18 89.1195 77.74 88.7395 77.38C88.5895 77.24 88.5195 77.08 88.5195 76.87C88.5195 74.46 88.4895 72.05 88.5395 69.64C88.5595 68.64 88.5395 67.64 88.5795 66.64C88.5995 66.13 88.9595 65.82 89.2795 65.49C89.3395 65.42 89.4495 65.45 89.5395 65.44C90.0295 65.4 90.5195 65.48 91.0095 65.37C91.2295 65.32 91.4595 65.38 91.6795 65.45C91.7995 65.46 91.9195 65.5 91.9595 65.64C91.8695 65.71 91.7895 65.67 91.6995 65.64C91.6095 65.61 91.5295 65.58 91.4395 65.56C90.9495 65.45 90.8595 65.5 90.6995 65.96C90.5995 66.24 90.4795 66.5 90.3195 66.75C89.8795 67.46 89.4295 68.17 88.8995 68.82C88.7895 68.95 88.7295 69.09 88.7395 69.27C88.7395 71.23 88.7395 73.19 88.7395 75.14C88.7395 75.32 88.7995 75.44 88.9395 75.56C90.0695 76.55 90.9795 77.71 91.6295 79.06C91.7595 79.33 91.9195 79.59 92.0195 79.87C92.0695 80.01 92.1195 80.14 92.1095 80.26C92.0595 79.94 92.0795 79.58 92.0795 79.21C92.0795 77.19 92.0795 75.17 92.0795 73.14C92.0795 72.53 92.0895 71.92 92.0395 71.31C91.9995 70.69 92.0695 70.07 92.0595 69.46C92.0495 68.41 92.0195 67.37 92.0195 66.32C92.0095 66.1 91.8595 65.88 91.9595 65.64Z" fill="#8FACBF"/>
<path d="M86.5496 59.87C85.9096 59.87 85.2796 59.87 84.6396 59.87C84.3796 59.87 84.3696 59.84 84.4996 59.61C84.7296 59.2 84.9796 58.82 85.3496 58.52C85.4896 58.41 85.4096 58.32 85.3096 58.24C84.7596 57.78 84.1096 57.53 83.4196 57.4C83.2396 57.37 83.1996 57.29 83.1996 57.13C83.2096 56.74 83.1896 56.35 83.2096 55.96C83.2196 55.75 83.1396 55.69 82.9396 55.7C82.6696 55.72 82.3896 55.73 82.1196 55.72C81.9296 55.72 81.8596 55.79 81.8596 55.98C81.8596 56.39 81.8496 56.8 81.8496 57.21C81.8496 57.36 81.8096 57.44 81.6496 57.51C80.6696 57.91 79.9896 58.6 79.6896 59.63C79.6396 59.79 79.5496 59.84 79.3896 59.85C78.4996 59.86 77.6096 59.88 76.7096 59.9C76.5796 59.9 76.5196 59.85 76.5496 59.72C77.0596 57.41 78.2396 55.64 80.5396 54.79C83.9896 53.51 87.5096 55.46 88.5696 58.66C88.6596 58.94 88.7296 59.24 88.7896 59.53C88.8596 59.86 88.8196 59.9 88.4896 59.91C87.8396 59.92 87.1996 59.91 86.5496 59.91C86.5496 59.89 86.5496 59.88 86.5496 59.87Z" fill="#FDFEFE"/>
<path d="M85.2695 61.3098C86.3595 61.3098 87.4595 61.3198 88.5495 61.2998C88.8095 61.2998 88.8295 61.4098 88.7895 61.6098C88.3995 63.3398 87.4495 64.6998 85.9695 65.6698C85.1395 66.2098 84.1895 66.4498 83.1895 66.5198C82.0095 66.6098 80.8995 66.3798 79.8395 65.8798C78.4795 65.2298 77.5595 64.1398 76.9495 62.7798C76.7695 62.3698 76.6695 61.9398 76.5495 61.5098C76.5095 61.3698 76.5395 61.2898 76.7095 61.2898C77.5995 61.2898 78.4895 61.2898 79.3895 61.2798C79.5295 61.2798 79.5695 61.3498 79.5995 61.4698C79.8395 62.2198 80.2495 62.8598 80.8695 63.3698C81.0795 63.5398 81.3095 63.6698 81.5695 63.7298C81.7995 63.7798 81.8795 63.8998 81.8695 64.1298C81.8495 64.4798 81.8695 64.8398 81.8595 65.1898C81.8595 65.3998 81.9095 65.5098 82.1595 65.4898C82.3895 65.4698 82.6295 65.4898 82.8695 65.5198C83.1195 65.5498 83.1895 65.4498 83.1895 65.2098C83.1795 64.8998 83.2195 64.5898 83.1895 64.2798C83.1695 64.0098 83.3095 63.9698 83.5195 63.9298C84.2195 63.7998 84.8595 63.5298 85.4095 63.0698C85.5695 62.9398 85.5895 62.8598 85.3995 62.7198C85.0695 62.4698 84.8095 62.1498 84.5995 61.7998C84.4895 61.6098 84.3895 61.5898 84.2195 61.7198C83.8195 62.0298 83.3895 62.2198 82.8695 62.2198C82.4495 62.2198 81.8995 61.7598 81.7295 61.4198C81.6195 61.2098 81.8195 61.2398 81.9395 61.2398C83.0095 61.2398 84.0895 61.2498 85.1595 61.2498C85.1995 61.2498 85.2295 61.2498 85.2695 61.2498C85.2695 61.2898 85.2695 61.2998 85.2695 61.3098Z" fill="#FDFEFE"/>
<path d="M40.4995 59.7596C40.4995 58.6696 40.4995 57.5696 40.4995 56.4796C40.4995 56.2896 40.5595 56.2296 40.7495 56.2296C42.5295 56.2196 43.9395 56.9096 44.9495 58.3896C45.4995 59.1896 45.7995 60.0796 45.9595 61.0396C46.0695 61.7196 45.9895 62.3996 46.1095 63.0696C46.1395 63.2696 46.0495 63.3196 45.8595 63.3196C44.1695 63.3196 42.4695 63.3096 40.7795 63.3196C40.5495 63.3196 40.4995 63.2296 40.4995 63.0296C40.4995 61.9396 40.4995 60.8496 40.4995 59.7596Z" fill="#FEFEFE"/>
<path d="M82.3396 36.7397C82.3396 38.4997 82.3396 40.2497 82.3396 42.0097C82.3396 42.1797 82.3496 42.3597 82.2296 42.4997C82.0396 42.7397 81.7696 42.8397 81.5096 42.7397C81.2496 42.6497 81.0896 42.3897 81.0796 42.0697C81.0796 39.9797 81.0796 37.8797 81.0796 35.7897C81.0796 34.4097 81.0896 33.0197 81.0896 31.6397C81.0896 31.2597 81.0496 31.2197 80.6696 31.2097C78.7696 31.2097 76.8596 31.2097 74.9596 31.2097C74.7796 31.2097 74.5996 31.2297 74.4396 31.1097C74.1796 30.9197 74.0796 30.6897 74.1496 30.4397C74.2396 30.1397 74.4496 29.9697 74.7596 29.9497C74.8296 29.9497 74.9096 29.9497 74.9796 29.9497C76.9596 29.9497 78.9296 29.9497 80.9096 29.9497C81.4796 29.9497 81.9396 30.1797 82.1896 30.7097C82.3096 30.9697 82.3096 31.2597 82.3096 31.5397C82.3196 32.7597 82.3196 33.9797 82.3296 35.1997C82.3296 35.7097 82.3296 36.2197 82.3296 36.7297C82.3296 36.7397 82.3396 36.7397 82.3396 36.7397Z" fill="#FCFDFD"/>
<path d="M23.5198 91.6601C23.4198 91.5301 23.4598 91.3901 23.4698 91.2501C23.4398 90.7801 23.4098 90.3001 23.4898 89.8301C23.4998 90.3201 23.5298 90.8101 23.5298 91.3001C23.5298 91.5401 23.6198 91.6101 23.8498 91.6001C24.2798 91.5901 24.7098 91.6001 25.1298 91.6001C26.2998 91.6001 27.4798 91.5901 28.6498 91.5801C29.0298 91.5801 29.3198 91.8001 29.6198 91.9601C30.6598 92.5001 31.7298 92.9501 32.8898 93.1301C34.0298 93.3101 35.1898 93.3101 36.3498 93.2401C37.8998 93.1401 39.3398 92.6601 40.6698 91.8801C41.0498 91.6501 41.4198 91.5801 41.8498 91.5801C44.7198 91.5901 47.5998 91.5801 50.4698 91.5801C50.7098 91.5801 50.9398 91.5601 51.1698 91.6401C51.2698 91.6701 51.3598 91.6901 51.3998 91.8101C51.1798 91.6901 50.9298 91.6901 50.6898 91.6901C48.2898 91.6901 45.8798 91.6901 43.4798 91.6901C43.2698 91.6901 43.1298 91.7601 42.9798 91.9001C42.3798 92.4301 41.6698 92.8001 40.9598 93.1701C40.0098 93.6601 39.0198 94.0601 37.9898 94.3001C36.7098 94.6001 35.4098 94.6901 34.0998 94.5701C33.5098 94.5201 32.9298 94.4301 32.3598 94.3201C31.5698 94.1701 30.8298 93.8701 30.0998 93.5601C29.1898 93.1701 28.3498 92.6501 27.5298 92.0901C27.3598 91.9701 27.2098 91.8101 27.0198 91.7201C26.8798 91.7001 26.7498 91.6801 26.6098 91.6601C26.3198 91.7101 26.0298 91.6801 25.7498 91.6801C24.9998 91.6801 24.2598 91.7201 23.5198 91.6601Z" fill="#8FADC1"/>
<path d="M23.4799 89.83C23.4699 90.3 23.4699 90.77 23.4599 91.25C23.4099 91.17 23.4199 91.07 23.4199 90.98C23.4199 90.01 23.4199 89.05 23.4199 88.08C23.4199 87.91 23.3699 87.77 23.2899 87.62C22.7299 86.61 22.2899 85.55 21.9699 84.43C21.5899 83.12 21.6099 81.78 21.6899 80.45C21.7499 79.39 21.9999 78.34 22.4299 77.35C22.7199 76.68 22.9599 75.98 23.3599 75.36C23.4199 75.27 23.4099 75.17 23.4099 75.07C23.4099 72.22 23.3999 69.37 23.4099 66.52C23.4099 65.89 23.0799 65.44 22.3799 65.47C21.8499 65.5 21.3199 65.5 20.7999 65.47C20.2999 65.44 19.8999 65.89 19.8999 66.37C19.9199 75.13 19.9099 83.89 19.9099 92.65C19.9099 93.28 19.9099 93.91 19.9099 94.54C19.9099 95.09 20.1999 95.38 20.7399 95.38C30.3799 95.38 40.0099 95.37 49.6499 95.37C50.1999 95.37 50.7399 95.37 51.2899 95.37C51.1499 95.49 50.9899 95.47 50.8199 95.47C41.1499 95.47 31.4799 95.47 21.7999 95.46C21.4599 95.46 21.1299 95.47 20.7899 95.47C20.1799 95.47 19.8499 95.15 19.8499 94.54C19.8499 92.03 19.8499 89.51 19.8499 87C19.8499 80.17 19.8499 73.34 19.8499 66.51C19.8499 66.31 19.7999 66.1 19.8999 65.92C20.0699 65.61 20.2899 65.38 20.6899 65.39C21.3099 65.41 21.9299 65.39 22.5499 65.4C23.0999 65.41 23.4599 65.76 23.4799 66.32C23.4899 66.79 23.4899 67.27 23.4899 67.74C23.4899 70.1 23.5199 72.46 23.4899 74.82C23.4799 75.9 23.5799 76.99 23.3999 78.06C23.1599 79.48 23.0499 80.91 23.0599 82.35C23.0699 83.26 23.1699 84.15 23.4499 85.02C23.4699 85.1 23.4799 85.18 23.4799 85.26C23.4399 86.73 23.5199 88.19 23.4999 89.66C23.4899 89.72 23.4899 89.78 23.4799 89.83Z" fill="#8EAEC0"/>
<path d="M63.2896 52.5296C63.2896 51.0596 64.4895 49.8696 65.9995 49.8696C67.4695 49.8696 68.7095 51.1096 68.6695 52.6396C68.6395 54.0596 67.5995 55.2396 66.0695 55.2496C64.4595 55.2596 63.3296 54.0296 63.2896 52.5296Z" fill="#FEFEFE"/>
<path d="M43.4695 68.3996C42.5795 68.3996 41.6895 68.3896 40.7895 68.4096C40.5595 68.4096 40.4995 68.3396 40.4995 68.1196C40.4995 67.0396 40.4995 65.9496 40.4795 64.8696C40.4795 64.6396 40.5995 64.6196 40.7695 64.6196C41.5695 64.6196 42.3695 64.6196 43.1695 64.6196C43.9495 64.6196 44.7395 64.6196 45.5195 64.6296C45.6095 64.6296 45.6995 64.6496 45.7895 64.6496C45.9995 64.6596 46.1295 64.7196 46.1195 64.9696C46.1095 65.1696 46.1495 65.3696 46.1895 65.5696C46.2295 65.7896 46.1495 65.8596 45.9295 65.8596C44.7795 65.8496 43.6395 65.8496 42.4895 65.8396C42.2795 65.8396 42.0695 65.8496 41.8595 65.8496C41.7195 65.8496 41.6695 65.9096 41.6795 66.0496C41.6995 66.3596 41.7195 66.6696 41.7195 66.9796C41.7195 67.1896 41.7995 67.2496 41.9995 67.2396C43.0295 67.2296 44.0595 67.2196 45.0795 67.2196C45.3995 67.2196 45.7195 67.2196 46.0395 67.2196C46.1395 67.2196 46.2395 67.2196 46.2695 67.3496C46.3195 67.5996 46.3795 67.8496 46.4395 68.0896C46.4895 68.3096 46.4295 68.4196 46.1695 68.4096C45.2695 68.3896 44.3695 68.3996 43.4695 68.3996Z" fill="#FEFEFE"/>
<path d="M36.1996 40.28C36.1496 40.63 36.1896 40.66 36.5496 40.54C37.1796 40.33 37.8196 40.16 38.4996 40.21C38.9396 40.25 39.3596 40.37 39.7196 40.62C40.0596 40.86 40.0496 41.05 39.6896 41.26C39.4896 41.38 39.2896 41.51 39.0896 41.64C38.8896 41.77 38.7496 41.94 38.7796 42.2C38.7996 42.43 38.6496 42.47 38.4596 42.44C37.9296 42.36 37.4296 42.2 36.9996 41.89C36.4896 41.51 36.0096 41.51 35.4196 41.96C34.8496 42.39 34.6196 42.96 34.4896 43.62C34.4096 44.05 34.3896 44.48 34.3896 44.92C34.3896 45.89 34.6796 46.77 35.1696 47.6C35.4596 48.08 35.7696 48.53 36.2196 48.87C36.7296 49.26 37.3296 49.42 37.9396 49.49C38.3796 49.54 38.8196 49.56 39.2696 49.42C39.5396 49.34 39.7496 49.17 39.9696 49.02C39.7496 49.4 39.3796 49.5 38.9896 49.54C38.0096 49.64 37.0896 49.43 36.1796 49.05C35.3596 48.71 34.5896 48.34 34.0296 47.63C33.9596 47.54 33.8796 47.54 33.8096 47.64C33.7796 47.68 33.7396 47.73 33.7096 47.77C33.2796 48.25 33.2796 48.25 33.7096 48.74C33.8496 48.9 34.0196 49.04 34.1296 49.23C33.8596 49.1 33.7196 48.84 33.5196 48.63C33.4496 48.56 33.3996 48.47 33.3196 48.41C33.2396 48.34 33.1796 48.35 33.1396 48.46C32.9196 49.13 32.4196 49.61 31.9996 50.14C31.5496 50.69 31.0696 51.21 30.5596 51.71C30.4696 51.79 30.4396 51.93 30.4996 52.01C30.5696 52.11 30.6796 52.01 30.7596 51.96C30.9496 51.84 31.1296 51.71 31.3496 51.64C31.1296 51.88 30.8296 52 30.5596 52.15C30.4396 52.22 30.3696 52.13 30.3896 52C30.4496 51.62 30.4596 51.24 30.4696 50.86C30.4796 50.68 30.5996 50.61 30.7096 50.52C31.2896 50.02 31.8596 49.5 32.1196 48.75C32.3296 48.16 32.5296 47.55 32.5596 46.93C32.5896 46.33 32.8196 45.83 33.0296 45.3C33.2596 44.75 33.3596 44.17 33.4396 43.59C33.4796 43.26 33.5496 42.93 33.5396 42.59C33.5396 42.48 33.6096 42.39 33.6996 42.36C34.5496 42.01 35.2496 41.48 35.7896 40.75C35.7996 40.74 35.8196 40.74 35.8496 40.74C35.8496 40.95 35.8496 41.15 35.8496 41.35C35.8496 41.48 35.8396 41.6 36.0296 41.55C36.4096 41.45 36.7296 41.59 37.0296 41.8C37.4596 42.1 37.9396 42.3 38.4696 42.35C38.6596 42.37 38.7496 42.33 38.7296 42.12C38.6996 41.9 38.8296 41.76 38.9796 41.64C39.1996 41.45 39.4596 41.31 39.7096 41.16C39.9496 41.02 39.9696 40.91 39.7496 40.73C39.2896 40.35 38.7396 40.27 38.1596 40.28C37.6396 40.3 37.1396 40.41 36.6496 40.6C36.5696 40.63 36.4896 40.64 36.4096 40.65C36.2996 40.65 36.1496 40.71 36.0896 40.58C36.0196 40.46 36.1196 40.37 36.1996 40.28Z" fill="#8FADC1"/>
<path d="M66.0696 88.5897C64.4296 88.5897 62.7896 88.5897 61.1596 88.5897C60.8396 88.5897 60.6396 88.4697 60.5396 88.1997C60.4396 87.9497 60.5196 87.5997 60.7196 87.4197C60.8496 87.2997 61.0096 87.3197 61.1596 87.3197C63.4296 87.3097 65.7096 87.3097 67.9896 87.3097C68.9796 87.3097 69.9696 87.2997 70.9696 87.2997C71.1696 87.2997 71.3796 87.2797 71.5396 87.4297C71.7296 87.6097 71.8296 87.8297 71.7396 88.0897C71.6296 88.4197 71.4196 88.5797 71.0996 88.5797C69.4196 88.5997 67.7396 88.5897 66.0696 88.5897Z" fill="#FCFDFD"/>
<path d="M66.0195 31.2199C64.3795 31.2199 62.7395 31.2199 61.0995 31.2199C60.8195 31.2199 60.6295 31.0999 60.5295 30.8399C60.4195 30.5499 60.4895 30.2799 60.7195 30.0999C60.8895 29.9699 61.0795 29.9499 61.2895 29.9499C63.2695 29.9499 65.2395 29.9399 67.2195 29.9399C68.4695 29.9399 69.7095 29.9399 70.9595 29.9499C71.3195 29.9499 71.5895 30.1599 71.6495 30.4599C71.7195 30.8499 71.4395 31.1999 71.0195 31.1999C70.2595 31.2099 69.4895 31.1999 68.7295 31.1999C67.8195 31.2199 66.9195 31.2199 66.0195 31.2199Z" fill="#FCFEFE"/>
<path d="M28.7096 39.3597C28.1096 39.3597 28.0996 39.3597 28.3496 38.8597C28.9796 37.5997 29.8996 36.5797 30.9896 35.7097C32.6196 34.3997 34.4496 33.5197 36.5096 33.1097C36.9096 33.0297 37.3096 32.9397 37.7096 32.8397C37.8996 32.7997 38.0596 32.7897 38.1596 33.0197C38.2196 33.1597 38.3296 33.2797 38.4196 33.3997C38.5696 33.6197 38.5596 33.6597 38.3096 33.7297C37.7896 33.8797 37.2596 34.0097 36.7396 34.1697C35.1396 34.6597 33.6096 35.2797 32.1896 36.1697C31.4096 36.6597 30.7596 37.2897 30.1796 37.9897C29.8596 38.3697 29.5496 38.7597 29.2996 39.1997C29.1396 39.4797 28.8696 39.2997 28.7096 39.3597Z" fill="#FDFDFE"/>
<path d="M57.3097 41.4901C57.3597 41.3701 57.4797 41.3101 57.5797 41.2801C57.8297 41.2101 57.8597 41.0501 57.8597 40.8301C57.8497 39.8201 57.8497 38.8101 57.8497 37.8001C57.8497 37.4501 57.8597 37.4401 58.1997 37.4401C64.6097 37.4401 71.0197 37.4401 77.4297 37.4501C78.0597 37.4501 78.0797 37.4501 78.0497 36.8101C77.9997 35.6701 78.0197 34.5301 78.0197 33.4001C78.0197 33.1401 77.9297 33.0801 77.6897 33.0801C75.4797 33.0901 73.2597 33.0801 71.0497 33.0801C61.5597 33.0801 52.0697 33.0701 42.5797 33.0701C42.0897 33.0701 42.0797 33.0701 42.2497 33.5201C42.5997 34.4801 42.9697 35.4401 43.3197 36.4001C43.4297 36.6901 43.5097 36.9801 43.5797 37.2801C43.6097 37.4101 43.6597 37.4501 43.7797 37.4401C43.8897 37.4401 43.9997 37.4401 44.1097 37.4401C47.1797 37.4401 50.2497 37.4401 53.3197 37.4501C53.7197 37.4501 53.7497 37.4801 53.7497 37.8901C53.7497 39.8801 53.7597 41.8801 53.7597 43.8701C53.7597 44.0701 53.8097 44.1001 53.9697 44.0101C53.9497 44.0501 53.9397 44.0901 53.9097 44.1301C53.8597 44.1901 53.8097 44.2901 53.7197 44.2601C53.6197 44.2301 53.6597 44.1201 53.6597 44.0501C53.6597 42.3501 53.6497 40.6401 53.6497 38.9401C53.6497 38.5601 53.6397 38.1701 53.6497 37.7901C53.6597 37.6101 53.5897 37.5501 53.4197 37.5501C52.6797 37.5501 51.9397 37.5201 51.2097 37.5301C48.7697 37.5601 46.3297 37.5501 43.8897 37.5101C43.4297 37.5001 42.9797 37.4901 42.5197 37.5001C42.3697 37.5001 42.2897 37.4501 42.2397 37.3001C41.8397 35.9201 41.2597 34.6001 40.7397 33.2701C40.6797 33.0801 40.6897 33.0001 40.9197 33.0001C46.4797 33.0101 52.0497 33.0001 57.6097 33.0001C64.2697 33.0001 70.9197 33.0001 77.5797 33.0001C78.2097 33.0001 78.1197 32.9501 78.1197 33.5401C78.1297 34.7601 78.1197 35.9801 78.1397 37.2001C78.1397 37.4401 78.0697 37.5101 77.8297 37.5201C77.3497 37.5401 76.8697 37.5101 76.3797 37.5101C73.1097 37.5201 69.8397 37.5301 66.5697 37.5301C63.7797 37.5301 60.9997 37.5201 58.2097 37.5101C57.9997 37.5101 57.9097 37.5601 57.9197 37.7801C57.9597 38.7401 57.9497 39.7101 57.9397 40.6801C57.9397 41.2801 57.9297 41.3001 57.3097 41.4901Z" fill="#93ADBE"/>
<path d="M29.9898 60.9798C29.9898 61.6798 29.9798 62.3798 29.9898 63.0798C29.9898 63.2598 29.9398 63.3198 29.7598 63.3198C28.5498 63.3098 27.3398 63.3098 26.1298 63.3198C25.9498 63.3198 25.8898 63.2598 25.8898 63.0798C25.8998 62.8498 25.8898 62.6198 25.8798 62.3998C25.8698 62.2098 25.9498 62.1398 26.1298 62.1398C26.8898 62.1398 27.6398 62.1298 28.3998 62.1398C28.6598 62.1498 28.7298 62.0698 28.7098 61.8198C28.6898 61.5798 28.6898 61.3298 28.7098 61.0798C28.7198 60.8798 28.6498 60.8098 28.4398 60.8198C27.6898 60.8398 26.9298 60.8398 26.1698 60.8598C25.9398 60.8698 25.8698 60.7798 25.8598 60.5698C25.8398 60.0598 25.8298 60.0198 26.3598 59.8898C27.5298 59.5998 28.6598 59.1998 29.7598 58.7198C29.9598 58.6298 29.9698 58.7198 29.9698 58.8798C29.9598 59.5798 29.9698 60.2798 29.9698 60.9798C29.9698 60.9798 29.9798 60.9798 29.9898 60.9798Z" fill="#FDFDFE"/>
<path d="M85.9597 40.9197C85.9597 42.3597 85.9597 43.7997 85.9597 45.2397C85.9597 45.6497 85.6797 45.8997 85.2797 45.8597C85.0297 45.8397 84.8597 45.7097 84.7797 45.4697C84.7197 45.2997 84.6997 45.1397 84.6997 44.9597C84.6997 42.2697 84.6997 39.5697 84.6997 36.8797C84.6997 36.7697 84.6997 36.6597 84.7197 36.5497C84.7597 36.2897 84.9097 36.0897 85.1697 36.0097C85.4497 35.9297 85.6897 36.0397 85.8797 36.2397C85.9897 36.3497 85.9697 36.4997 85.9697 36.6297C85.9697 38.0597 85.9697 39.4897 85.9597 40.9197Z" fill="#FDFDFE"/>
<path d="M27.9696 68.4C27.3896 68.4 26.8096 68.39 26.2196 68.4C25.9896 68.4 25.8896 68.3 25.8696 68.08C25.8496 67.87 25.8696 67.66 25.9096 67.46C25.9496 67.24 26.1296 67.22 26.3096 67.22C27.0096 67.21 27.7096 67.2 28.4096 67.21C28.6596 67.22 28.7196 67.13 28.7096 66.9C28.6896 66.63 28.6996 66.35 28.7196 66.08C28.7396 65.88 28.6696 65.83 28.4796 65.83C27.7196 65.84 26.9696 65.82 26.2096 65.83C25.9396 65.84 25.8496 65.72 25.8596 65.48C25.8696 65.34 25.8596 65.21 25.8696 65.07C25.8896 64.66 25.9196 64.62 26.3296 64.61C27.0896 64.6 27.8596 64.6 28.6196 64.61C28.9796 64.61 29.3496 64.63 29.7096 64.63C29.8796 64.63 29.9196 64.69 29.9196 64.86C29.9196 65.96 29.9396 67.06 29.9596 68.16C29.9596 68.35 29.9096 68.41 29.7196 68.41C29.1496 68.4 28.5596 68.41 27.9696 68.4Z" fill="#FDFDFE"/>
<path d="M35.1896 38.75C35.3296 38.78 35.5196 38.67 35.5996 38.8C35.6896 38.95 35.4796 39.04 35.4096 39.15C34.9796 39.88 34.4596 40.52 33.7496 41C33.0596 41.47 32.3096 41.79 31.4796 41.93C30.4396 42.11 29.3896 42.03 28.3496 42.1C27.6596 42.15 27.0296 42.36 26.3996 42.63C26.3496 42.65 26.2996 42.67 26.2496 42.7C26.1396 42.75 25.9896 42.85 25.8996 42.75C25.8096 42.65 25.8996 42.5 25.9696 42.39C26.4296 41.56 27.1496 41.11 28.0696 40.96C28.7096 40.86 29.3596 40.86 29.9996 40.87C31.5796 40.91 32.9096 40.36 34.0196 39.24C34.3496 38.92 34.6996 38.69 35.1896 38.75Z" fill="#FDFEFE"/>
<path d="M31.3894 39.2801C31.1994 39.2801 30.8994 39.3801 30.8294 39.2601C30.7494 39.0901 30.9894 38.9101 31.1194 38.7601C32.0094 37.6801 33.0794 36.8401 34.4194 36.3901C35.5894 36.0001 36.6794 35.4301 37.8194 34.9901C38.1794 34.8501 38.5394 34.7301 38.8894 34.5801C39.0094 34.5301 39.0794 34.5501 39.1394 34.6501C39.2794 34.8901 39.4094 35.1201 39.5594 35.3501C39.6394 35.4701 39.6194 35.5301 39.4694 35.5701C38.4094 35.8901 37.4294 36.4001 36.4494 36.8801C35.8894 37.1501 35.3094 37.3401 34.7094 37.4701C34.0494 37.6101 33.4794 37.9601 32.9994 38.4401C32.9494 38.4901 32.8994 38.5401 32.8494 38.6001C32.4794 39.0701 32.0394 39.4001 31.3894 39.2801Z" fill="#FDFDFE"/>
<path d="M46.3998 58.3599C46.0498 57.7899 45.6898 57.2299 45.2098 56.7499C44.4298 55.9699 43.5198 55.4599 42.4398 55.2399C41.8998 55.1299 41.3498 55.0399 40.7998 55.0599C40.5598 55.0699 40.4998 54.9799 40.5098 54.7599C40.5198 54.5299 40.5198 54.3099 40.5198 54.0799C40.5198 53.9299 40.5598 53.8699 40.7198 53.8699C42.1698 53.8599 43.5598 54.0899 44.8198 54.8599C45.5698 55.3199 46.1498 55.9499 46.6698 56.6499C46.7298 56.7299 46.7698 56.8199 46.7498 56.9299C46.6698 57.3499 46.5998 57.7699 46.5098 58.1899C46.4998 58.2399 46.4798 58.3099 46.3998 58.3599Z" fill="#FCFDFD"/>
<path d="M53.7495 90.18C53.5995 90.14 53.6695 90.02 53.6695 89.93C53.6595 87.6 53.6695 85.27 53.6595 82.94C53.6595 82.49 53.6495 82.05 53.6595 81.6C53.6595 81.5 53.5995 81.36 53.7195 81.3C53.8395 81.24 53.9395 81.35 54.0295 81.42C54.4695 81.76 54.9095 82.09 55.3695 82.41C56.1195 82.93 56.8995 83.43 57.7395 83.81C57.8895 83.88 57.9495 83.97 57.9495 84.14C57.9495 86.05 57.9595 87.96 57.9795 89.87C57.9795 90.15 57.8995 90.22 57.6295 90.22C56.4095 90.21 55.1895 90.21 53.9695 90.21C53.8895 90.22 53.8195 90.24 53.7495 90.18C53.8795 90.05 54.0395 90.07 54.1895 90.07C55.2495 90.07 56.2995 90.07 57.3595 90.07C57.7295 90.07 57.7395 90.06 57.7395 89.68C57.7395 88.44 57.7295 87.2 57.7495 85.96C57.7495 85.68 57.6595 85.5 57.3995 85.38C56.3495 84.87 55.3595 84.27 54.3995 83.6C54.2295 83.48 54.0695 83.35 53.9095 83.23C53.8695 83.24 53.8595 83.25 53.8595 83.27C53.8895 84.85 53.7695 86.44 53.8095 88.02C53.8295 88.61 53.8495 89.2 53.8495 89.79C53.8595 89.94 53.8595 90.08 53.7495 90.18Z" fill="#8CAEC2"/>
<path d="M53.9597 28.01C53.9397 27.74 53.9797 27.45 54.1697 27.19C54.3597 26.93 54.5697 26.87 54.9697 26.97C55.2497 27.04 55.2297 27.26 55.2397 27.47C55.2497 27.71 55.2397 27.94 55.2597 28.18C55.2797 28.61 55.6497 28.99 56.0197 28.97C56.4097 28.95 56.7497 28.55 56.7397 28.12C56.7297 27.92 56.7097 27.72 56.6997 27.52C56.6897 27.33 56.6697 27.13 56.9097 27.04C57.1597 26.94 57.3997 26.9 57.6197 27.11C58.0697 27.55 58.1297 28.09 57.9897 28.65C57.7197 29.74 56.6997 30.39 55.5997 30.15C54.6997 29.96 53.9397 29.18 53.9597 28.01Z" fill="#FAFBFB"/>
<path d="M58.0799 61.5398C58.0799 62.4198 58.0799 63.3098 58.0799 64.1898C58.0799 64.6998 57.9099 64.8998 57.4799 64.9098C57.0999 64.9198 56.8399 64.6398 56.8399 64.1898C56.8299 62.6998 56.8399 61.1998 56.8399 59.7098C56.8399 59.3598 56.8299 59.0198 56.8499 58.6698C56.8699 58.1498 57.2899 57.8898 57.7599 58.0998C57.8999 58.1598 57.9899 58.2598 58.0199 58.4198C58.0699 58.6698 58.0599 58.9298 58.0599 59.1798C58.0599 59.9598 58.0599 60.7498 58.0599 61.5298C58.0699 61.5398 58.0799 61.5398 58.0799 61.5398Z" fill="#FDFEFE"/>
<path d="M43.9195 71.03C42.9895 71.03 42.0595 71.03 41.1295 71.03C40.6495 71.03 40.5095 70.89 40.4995 70.42C40.4895 69.93 40.6295 69.78 41.0995 69.78C42.9195 69.77 44.7395 69.78 46.5595 69.77C46.6995 69.77 46.7795 69.81 46.8195 69.95C46.8995 70.21 46.9895 70.47 47.0895 70.72C47.1595 70.91 47.0995 70.97 46.9195 70.98C46.4295 70.99 45.9395 71 45.4495 71C44.9395 71 44.4295 71 43.9195 71C43.9195 71.01 43.9195 71.02 43.9195 71.03Z" fill="#FAFBFC"/>
<path d="M65.7298 66.6696C67.8198 66.6696 69.9198 66.6496 72.0098 66.6796C73.0698 66.6896 74.1398 66.7396 75.1998 66.7296C75.4498 66.7296 75.6898 66.7096 75.9398 66.7096C76.2498 66.6996 76.3998 66.9196 76.4998 67.1496C76.5998 67.3796 76.5098 67.5896 76.3298 67.7696C76.1998 67.8996 76.0298 67.8896 75.8698 67.8896C74.7298 67.8896 73.5898 67.8296 72.4598 67.8796C68.8898 68.0296 65.3198 67.8996 61.7498 67.9396C60.8998 67.9496 60.0398 67.9896 59.1798 67.8996C58.8198 67.8596 58.5898 67.6196 58.6198 67.2696C58.6598 66.8596 58.8498 66.6796 59.2398 66.6796C61.3998 66.6896 63.5598 66.6896 65.7198 66.6896C65.7298 66.6796 65.7298 66.6696 65.7298 66.6696Z" fill="#96B1C7"/>
<path d="M26.8195 46.53C28.0995 46.6 29.2495 46.24 30.2695 45.45C30.7695 45.06 31.3095 44.73 31.8595 44.4C31.9095 44.37 31.9695 44.31 32.0295 44.36C32.0795 44.41 32.0395 44.48 32.0295 44.54C31.6395 45.83 30.7695 46.67 29.5695 47.21C28.5995 47.64 27.5895 47.68 26.5595 47.51C26.3895 47.48 26.2295 47.4 26.0595 47.41C25.9395 47.41 25.8995 47.32 25.8995 47.23C25.8895 47.05 25.8995 46.87 25.8995 46.69C25.9095 46.55 26.0095 46.54 26.1195 46.54C26.3495 46.52 26.5795 46.53 26.8195 46.53Z" fill="#FDFEFE"/>
<path d="M81.8995 73.6198C81.9095 73.3798 82.0795 73.2098 82.1595 73.0098C82.2395 72.8098 82.2795 72.7198 81.9995 72.5998C81.5895 72.4398 81.2395 72.1498 80.8595 71.9098C80.0895 71.4398 79.3495 70.9298 78.6595 70.3598C78.5595 70.2798 78.5095 70.2998 78.4395 70.3898C78.3695 70.4798 78.3595 70.6198 78.2295 70.6598C78.4395 70.2498 78.6495 69.8398 78.8595 69.4298C78.9195 69.3098 78.9995 69.3598 79.0895 69.3898C79.6295 69.6098 80.1395 69.8798 80.6595 70.1498C81.3195 70.4998 82.0095 70.7898 82.7095 71.0398C82.8595 71.0898 82.9495 71.1598 82.8695 71.3398C82.5495 72.0298 82.3695 72.7798 82.0095 73.4598C81.9895 73.5298 81.9395 73.5698 81.8995 73.6198Z" fill="#92B2C6"/>
<path d="M47.4596 88.54C46.5296 88.54 45.5996 88.54 44.6796 88.54C44.6096 88.54 44.5196 88.57 44.4796 88.49C44.4296 88.41 44.5196 88.36 44.5596 88.3C44.6796 88.14 44.8396 88 44.9196 87.82C45.1196 87.39 45.4396 87.31 45.8796 87.32C47.3296 87.34 48.7696 87.39 50.2196 87.31C50.6096 87.29 50.9096 87.59 50.9096 87.96C50.9096 88.31 50.6096 88.59 50.2296 88.59C49.3096 88.59 48.3896 88.59 47.4696 88.59C47.4596 88.57 47.4596 88.56 47.4596 88.54Z" fill="#91AEC3"/>
<path d="M85.9595 70.7697C85.9595 71.4497 85.9595 72.1297 85.9595 72.8197C85.9595 73.1997 85.7395 73.4097 85.3695 73.4197C85.0495 73.4297 84.7795 73.1997 84.7495 72.8597C84.7295 72.6297 84.7395 72.4097 84.7395 72.1797C84.7295 71.2297 84.7195 70.2897 84.7095 69.3397C84.7095 69.0797 84.7195 68.8097 84.7695 68.5497C84.8395 68.2097 85.0495 68.0397 85.3495 68.0597C85.6595 68.0897 85.9395 68.3597 85.9495 68.6597C85.9595 69.3597 85.9495 70.0597 85.9495 70.7597C85.9495 70.7697 85.9495 70.7697 85.9595 70.7697Z" fill="#99B1C2"/>
<path d="M61.1295 64.9898C60.8495 64.9098 60.6495 64.6598 60.6595 64.4098C60.6695 64.1298 60.8995 63.8598 61.1695 63.8198C61.2995 63.7998 61.4395 63.7998 61.5795 63.7998C64.3795 63.7898 67.1695 63.7598 69.9695 63.7898C71.3595 63.8098 72.7495 63.8498 74.1495 63.8498C74.3095 63.8498 74.4295 63.8998 74.5195 64.0398C74.6795 64.2998 74.8295 64.5498 74.9895 64.8098C75.0895 64.9598 75.0495 65.0298 74.8795 65.0298C74.6295 65.0398 74.3695 65.0498 74.1195 65.0498C71.0595 65.0598 67.9995 65.0498 64.9395 65.0798C63.7995 65.0898 62.6595 65.0298 61.5295 65.0998C61.3795 65.0998 61.2395 65.0798 61.1295 64.9898C61.2595 64.8398 61.4295 64.8798 61.5895 64.8798C64.4295 64.8798 67.2695 64.8798 70.1095 64.8798C70.2295 64.8798 70.3495 64.8798 70.4695 64.8798C70.6695 64.8798 70.8295 64.8198 70.8495 64.5798C70.8795 64.2998 70.7695 64.0598 70.5695 63.9998C70.4595 63.9598 70.3395 63.9598 70.2195 63.9598C68.4395 63.9598 66.6695 63.9198 64.8895 63.9698C63.8595 63.9998 62.8395 63.8998 61.8095 63.9498C61.6195 63.9598 61.4295 63.9798 61.2395 64.0098C60.9095 64.0798 60.7995 64.3598 60.9695 64.6598C61.0295 64.7598 61.1695 64.8298 61.1295 64.9898Z" fill="#97B4C8"/>
<path d="M49.1599 31.22C48.5999 31.22 48.0299 31.22 47.4699 31.22C47.0499 31.22 46.8399 31.03 46.8299 30.63C46.8199 30.26 47.0599 30 47.4399 29.97C47.6799 29.95 47.9099 29.96 48.1499 29.96C49.0499 29.96 49.9499 29.96 50.8499 29.96C50.9799 29.96 51.1199 29.95 51.2499 30.01C51.5199 30.14 51.6799 30.43 51.6299 30.7C51.5799 30.99 51.3299 31.21 51.0099 31.22C50.3999 31.22 49.7799 31.21 49.1599 31.22Z" fill="#FCFEFE"/>
<path d="M70.0998 75.1598C69.8598 75.2698 69.6298 75.3798 69.3898 75.4898C68.7198 75.7598 68.0198 75.8998 67.2998 76.0198C66.5198 76.1498 65.7498 76.0698 64.9898 75.9898C64.1098 75.8998 63.2798 75.6098 62.4798 75.2098C62.4298 75.1798 62.3498 75.1698 62.3698 75.0798C62.3898 74.9998 62.4598 74.9898 62.5198 74.9998C62.8098 74.9998 63.0998 74.9698 63.3898 74.9698C65.0998 74.9698 66.8098 74.9598 68.5198 74.9698C68.9498 74.9698 69.3698 74.9898 69.7998 74.9898C69.9298 74.9898 70.0798 74.9698 70.0998 75.1598Z" fill="#FAFCFC"/>
<path d="M85.9697 50.2298C85.9697 50.8198 85.9797 51.4098 85.9697 51.9998C85.9597 52.3698 85.8497 52.4798 85.4597 52.5498C85.1797 52.5998 84.9097 52.4598 84.7997 52.1998C84.7397 52.0698 84.6997 51.9298 84.6997 51.7798C84.7097 50.7398 84.7097 49.7098 84.7197 48.6698C84.7197 48.4498 84.7297 48.2298 84.9297 48.0698C85.1397 47.8998 85.3697 47.8598 85.6197 47.9598C85.8597 48.0598 85.9697 48.2398 85.9697 48.5098C85.9497 49.0798 85.9597 49.6598 85.9697 50.2298Z" fill="#FCFCFD"/>
<path d="M72.3298 57.7099C72.9898 57.7099 73.6598 57.7099 74.3198 57.7099C74.5798 57.7099 74.5998 57.7499 74.4998 57.9899C74.3998 58.2399 74.2898 58.4899 74.1998 58.7499C74.1498 58.8799 74.0698 58.9399 73.9298 58.9299C72.7198 58.9299 71.5098 58.9399 70.2998 58.9199C69.9498 58.9199 69.7298 58.6099 69.7498 58.2399C69.7698 57.9099 70.0098 57.6899 70.3598 57.6899C71.0198 57.6899 71.6698 57.6899 72.3298 57.6899C72.3298 57.6999 72.3298 57.7099 72.3298 57.7099Z" fill="#FDFEFE"/>
<path d="M75.3896 88.5299C74.8396 88.7199 74.5596 88.3299 74.2896 87.8499C73.8996 87.1599 73.5296 86.4599 73.2996 85.7099C73.2196 85.4499 73.1796 85.1799 73.1196 84.9199C73.0896 84.7999 73.1196 84.7299 73.2496 84.6999C73.5096 84.6399 73.7796 84.5699 74.0396 84.4799C74.1996 84.4299 74.2696 84.4599 74.3096 84.6299C74.6396 85.9799 75.1496 87.2399 76.1196 88.2699C76.1696 88.3299 76.2596 88.3899 76.2196 88.4699C76.1796 88.5599 76.0696 88.5199 75.9896 88.5199C75.8196 88.5399 75.6496 88.5299 75.3896 88.5299Z" fill="#93B0C3"/>
<path d="M48.2295 51.9797C48.2095 52.2497 48.0395 52.3497 47.7895 52.3397C47.4195 52.3297 47.0495 52.2897 46.6695 52.2897C45.2195 52.2897 43.7795 52.3997 42.3295 52.3197C41.8895 52.2897 41.6495 51.7297 41.9195 51.3797C42.0495 51.2197 42.2195 51.1497 42.4195 51.1397C44.4095 51.0997 46.4095 51.0797 48.3995 51.1097C48.5795 51.1097 48.6395 51.1997 48.5595 51.3497C48.4895 51.4797 48.4595 51.6397 48.3295 51.7397C48.2695 51.6897 48.2595 51.6097 48.2795 51.5397C48.3495 51.3497 48.2495 51.2997 48.0895 51.2797C47.9495 51.2597 47.8195 51.2597 47.6795 51.2597C46.9195 51.2597 46.1495 51.2597 45.3895 51.2597C45.2295 51.2597 45.0595 51.2697 44.8995 51.2297C45.4495 51.3597 45.9595 51.5797 46.4495 51.8397C46.8395 52.0497 47.2395 52.1697 47.6995 52.1597C47.9195 52.1597 48.0395 51.9697 48.2295 51.9797Z" fill="#99B3C7"/>
<path d="M65.8997 59.2798C66.6397 59.2798 67.2197 59.8398 67.2197 60.5498C67.2097 61.2598 66.7097 61.8098 65.9597 61.8098C65.2697 61.8098 64.6297 61.1798 64.6597 60.5098C64.6997 59.8198 65.1597 59.2398 65.8997 59.2798Z" fill="#FDFEFE"/>
<path d="M72.1596 61.8101C71.5296 61.8101 71.0196 61.8101 70.4996 61.8101C70.0796 61.8001 69.8396 61.5701 69.8296 61.1801C69.8296 60.7901 70.0496 60.5601 70.4896 60.5601C71.4796 60.5601 72.4796 60.5701 73.4696 60.5701C73.7196 60.5701 73.8396 60.6701 73.8796 60.9101C73.9096 61.1101 73.9496 61.3101 74.0296 61.4901C74.1096 61.7101 74.0296 61.7701 73.8296 61.7901C73.2396 61.8301 72.6396 61.7801 72.1596 61.8101Z" fill="#FCFDFD"/>
<path d="M85.9598 31.5799C85.9598 32.0399 85.9598 32.4899 85.9598 32.9499C85.9498 33.4199 85.7698 33.6399 85.3898 33.6599C85.0498 33.6799 84.7098 33.3799 84.6998 32.9899C84.6898 32.0099 84.6898 31.0199 84.7198 30.0399C84.7298 29.6499 84.9898 29.4699 85.4098 29.4799C85.7498 29.4899 85.9698 29.6999 85.9698 30.0699C85.9798 30.5699 85.9698 31.0699 85.9698 31.5699C85.9698 31.5799 85.9698 31.5799 85.9598 31.5799Z" fill="#FBFCFD"/>
<path d="M23.4796 60.5598C23.4796 61.0898 23.4796 61.6098 23.4796 62.1398C23.4796 62.4798 23.2796 62.6698 22.9396 62.6898C22.5696 62.7098 22.3096 62.5398 22.2996 62.1898C22.2496 61.0698 22.2496 59.9598 22.2896 58.8398C22.2996 58.5198 22.5396 58.3498 22.8696 58.3598C23.2196 58.3698 23.4696 58.5898 23.4796 58.9298C23.4796 59.4698 23.4696 60.0198 23.4796 60.5598C23.4696 60.5598 23.4696 60.5598 23.4796 60.5598Z" fill="#97B0C4"/>
<path d="M27.8995 71.0298C27.4095 71.0298 26.9195 71.0398 26.4295 71.0298C26.0995 71.0198 25.8995 70.8298 25.8695 70.4898C25.8295 70.1398 25.9695 69.9098 26.2895 69.8198C26.3795 69.7998 26.4695 69.7898 26.5595 69.7798C27.4695 69.7798 28.3795 69.7698 29.2895 69.7798C29.7795 69.7898 29.9995 70.0198 29.9695 70.4598C29.9495 70.7898 29.7295 71.0098 29.3895 71.0198C28.8795 71.0398 28.3895 71.0298 27.8995 71.0298Z" fill="#FAFBFC"/>
<path d="M73.3898 52.9297C72.8998 52.9297 72.4098 52.9297 71.9198 52.9297C71.5898 52.9297 71.3598 52.6997 71.3498 52.3697C71.3298 52.0397 71.5598 51.7497 71.8698 51.7097C71.9098 51.6997 71.9598 51.6997 72.0098 51.6997C72.9598 51.7097 73.8998 51.7297 74.8498 51.7397C75.1298 51.7397 75.3198 51.8797 75.4398 52.1097C75.5498 52.3297 75.4798 52.5497 75.3398 52.7497C75.2498 52.8697 75.1398 52.9197 74.9898 52.9197C74.4398 52.9297 73.9198 52.9297 73.3898 52.9297Z" fill="#94B2C5"/>
<path d="M26.6595 44.1799C27.5295 44.2299 28.2795 43.9199 28.9795 43.4399C29.1995 43.2899 29.4395 43.2999 29.6895 43.2999C29.8495 43.2999 30.0195 43.2999 30.1795 43.3099C30.2695 43.3099 30.3795 43.2699 30.4295 43.3699C30.4695 43.4599 30.3895 43.5399 30.3395 43.6199C29.5495 44.7999 28.4195 45.2499 27.0295 45.1399C26.7295 45.1199 26.4395 45.0599 26.1495 44.9799C25.8995 44.9099 25.8095 44.7399 25.8495 44.3699C25.8795 44.1299 26.0595 44.1899 26.1995 44.1799C26.3495 44.1699 26.5095 44.1799 26.6595 44.1799Z" fill="#FAFBFC"/>
<path d="M66.2999 69.5198C68.9299 69.5198 71.5599 69.5198 74.1999 69.5198C74.3599 69.5198 74.5299 69.5098 74.6799 69.5998C74.9499 69.7498 75.0999 70.0598 75.0199 70.3298C74.9299 70.6698 74.7299 70.8198 74.3599 70.8198C72.3199 70.8198 70.2799 70.8298 68.2399 70.8298C65.4299 70.8298 62.6299 70.8398 59.8199 70.8198C59.2999 70.8198 58.7799 70.7998 58.2699 70.8198C57.8199 70.8398 57.6099 70.5798 57.5699 70.1298C57.5499 69.7798 57.8199 69.5298 58.2499 69.5298C59.7299 69.5198 61.1999 69.5098 62.6799 69.5098C63.8799 69.5098 65.0799 69.5098 66.2899 69.5098C66.2999 69.5098 66.2999 69.5198 66.2999 69.5198Z" fill="#95ADBD"/>
<path d="M55.9696 92.7396C55.5296 92.7396 55.0995 92.7496 54.6595 92.7396C54.2895 92.7296 54.0396 92.4496 54.0396 92.0596C54.0396 91.8196 54.3195 91.5796 54.6395 91.5796C55.4995 91.5696 56.3495 91.5796 57.2095 91.5796C57.4795 91.5796 57.6595 91.7096 57.7795 91.9296C57.8995 92.1596 57.7996 92.3696 57.6796 92.5696C57.5896 92.7096 57.4696 92.7596 57.3096 92.7596C56.8596 92.7396 56.4196 92.7396 55.9696 92.7396Z" fill="#90B0C4"/>
<path d="M49.0998 80.3398C48.7198 80.3398 48.3398 80.3498 47.9598 80.3398C47.5898 80.3298 47.2998 80.0398 47.3098 79.6798C47.3198 79.3398 47.5898 79.0898 47.9598 79.0898C48.7098 79.0898 49.4498 79.0998 50.1998 79.0898C50.5198 79.0898 50.7098 79.2398 50.8298 79.5098C50.9198 79.7298 50.8298 80.0299 50.6298 80.2299C50.5398 80.3199 50.4198 80.3398 50.3098 80.3398C49.8998 80.3498 49.4998 80.3498 49.0998 80.3398C49.0998 80.3498 49.0998 80.3498 49.0998 80.3398Z" fill="#96B4C4"/>
<path d="M61.5698 58.1499C61.5998 58.1899 61.6398 58.2299 61.6698 58.2599C61.7398 58.4399 61.7498 58.6399 61.7498 58.8199C61.7398 59.4799 61.7998 60.1499 61.7798 60.8099C61.7698 61.3699 61.4498 61.6299 60.9098 61.5299C60.6898 61.4899 60.4798 61.2399 60.4798 60.9299C60.4798 60.1599 60.4198 59.3799 60.5198 58.6099C60.5898 58.0499 61.0998 57.8299 61.5698 58.1499Z" fill="#FEFEFE"/>
<path d="M42.4899 31.2199C42.1499 31.2199 41.8199 31.2299 41.4799 31.2199C41.1099 31.2099 40.9199 30.9799 40.9199 30.5899C40.9199 30.2699 41.1699 29.9699 41.4799 29.9699C42.1599 29.9599 42.8499 29.9599 43.5299 29.9699C43.8999 29.9799 44.1699 30.2599 44.1599 30.5899C44.1499 30.9299 43.8699 31.2099 43.5099 31.2299C43.1699 31.2299 42.8299 31.2199 42.4899 31.2199Z" fill="#FCFEFE"/>
<path d="M72.7695 73.4599C72.5395 73.5599 72.2895 73.5299 72.0495 73.5299C69.3595 73.5299 66.6795 73.5199 63.9895 73.5399C62.6395 73.5499 61.2995 73.5099 59.9495 73.5099C59.7495 73.5099 59.5995 73.4499 59.4895 73.2799C59.3195 73.0299 59.1295 72.7999 58.9495 72.5599C58.8995 72.4999 58.8095 72.4399 58.8695 72.3499C58.9095 72.2799 58.9995 72.3099 59.0695 72.3099C60.5295 72.2999 61.9795 72.2799 63.4395 72.2799C66.6295 72.2799 69.8095 72.2799 72.9995 72.2799C73.1395 72.2799 73.2695 72.2799 73.4095 72.2799C73.4995 72.2899 73.6095 72.2399 73.6595 72.3299C73.7095 72.4199 73.6195 72.4999 73.5695 72.5699C73.3195 72.8999 73.1495 73.2699 72.7695 73.4599C72.7395 73.2199 72.9595 73.1199 73.0595 72.9499C73.1395 72.8099 73.3495 72.6899 73.2795 72.5499C73.2095 72.3999 72.9795 72.4799 72.8195 72.4799C68.9095 72.4799 65.0095 72.4799 61.0995 72.4799C60.6495 72.4799 60.6495 72.4899 60.8495 72.8899C61.0095 73.2199 61.2395 73.3599 61.6295 73.3599C65.1795 73.3499 68.7295 73.3499 72.2895 73.3499C72.4495 73.3499 72.6295 73.2999 72.7695 73.4599Z" fill="#93AFC7"/>
<path d="M31.8299 52.5801C31.6399 52.8201 31.3699 52.9601 31.1199 53.1201C30.5899 53.4601 30.1599 53.9101 29.6899 54.3301C28.8399 55.0901 27.8299 55.6301 26.7899 56.0801C26.7499 56.1001 26.6999 56.1001 26.6799 56.1701C26.9399 56.2201 27.1699 56.0901 27.3999 56.0201C28.3899 55.7101 29.3299 55.2801 30.2399 54.7801C30.3099 54.7401 30.3699 54.6801 30.4699 54.7101C29.8799 55.1201 29.2299 55.3901 28.5799 55.6701C27.9999 55.9201 27.3899 56.1301 26.7699 56.2701C26.5399 56.3201 26.3099 56.3601 26.0699 56.3901C25.9599 56.4101 25.8999 56.3501 25.8899 56.2401C25.8799 55.9801 25.8799 55.7101 25.8799 55.4501C25.8799 55.3401 25.9299 55.2701 26.0599 55.2501C27.3399 55.0801 28.4899 54.5401 29.6299 53.9601C30.3099 53.6101 30.8899 53.1401 31.5199 52.7301C31.6299 52.6801 31.6999 52.5801 31.8299 52.5801Z" fill="#8DABBE"/>
<path d="M37.1699 31.3597C37.1599 31.4597 37.1499 31.5597 37.1599 31.6597C37.1599 31.8797 37.0499 31.9497 36.8399 31.9697C35.6999 32.0697 34.6199 32.3897 33.5499 32.7597C32.3099 33.1997 31.2599 33.9497 30.1799 34.6697C30.1099 34.7197 30.0199 34.8397 29.9499 34.7697C29.8599 34.6897 29.9399 34.5697 29.9899 34.4797C30.5399 33.5897 31.3199 32.9497 32.1799 32.3797C33.1999 31.7097 34.3399 31.3297 35.5299 31.0697C35.9599 30.9797 36.3899 30.9497 36.8199 30.8997C37.1699 30.8597 37.1699 30.8797 37.1599 31.2197C37.1699 31.2697 37.1699 31.3197 37.1699 31.3597Z" fill="#99ADBA"/>
<path d="M48.2097 76.1799C47.8597 76.1799 47.5197 76.1899 47.1697 76.1799C46.8697 76.1699 46.6997 75.9499 46.5897 75.6999C46.4997 75.4899 46.5297 75.2699 46.6797 75.0899C46.7997 74.9499 46.9397 74.8699 47.1297 74.8699C47.5797 74.8699 48.0197 74.8699 48.4697 74.8599C48.5997 74.8599 48.6597 74.9199 48.7297 75.0199C48.9397 75.3499 49.0997 75.7099 49.3597 76.0099C49.4697 76.1399 49.3597 76.1799 49.2497 76.1799C48.8997 76.1799 48.5497 76.1799 48.2097 76.1799Z" fill="#93B0C2"/>
<path d="M28.8297 48.8099C28.9197 48.7199 29.0697 48.7899 29.1497 48.6899C29.7097 48.4999 30.2097 48.1999 30.7197 47.8999C30.7897 47.8599 30.8897 47.7599 30.9597 47.8299C31.0397 47.9099 30.9997 48.0299 30.9497 48.1299C30.8997 48.2399 30.8297 48.3499 30.7697 48.4599C30.5297 48.9799 30.1097 49.3199 29.6497 49.6199C29.2197 49.8499 28.7797 50.0299 28.2897 50.0599C28.0797 50.0999 27.8697 50.1399 27.6497 50.1399C27.5697 50.1399 27.4797 50.1399 27.4397 50.0499C27.4097 49.9699 27.4397 49.8999 27.4897 49.8499C27.7997 49.5799 28.0597 49.2499 28.3797 48.9799C28.5097 48.8799 28.6797 48.8799 28.8297 48.8099Z" fill="#FBFCFC"/>
<path d="M50.5195 41.2698C50.3895 41.3798 50.2395 41.3798 50.0795 41.3798C47.9295 41.3798 45.7795 41.3898 43.6395 41.3798C43.2995 41.3798 43.0595 41.1998 42.9695 40.8898C42.8995 40.6498 43.0095 40.3998 43.2495 40.1998C43.3595 40.1098 43.4795 40.0998 43.6095 40.0998C45.7995 40.0998 47.9995 40.0898 50.1895 40.0898C50.5595 40.0898 50.8195 40.2898 50.8895 40.5898C50.9395 40.8198 50.7695 41.1298 50.5195 41.2698C50.4795 41.1498 50.5395 41.0598 50.5895 40.9598C50.7395 40.6198 50.5995 40.3698 50.2395 40.2998C50.1795 40.2898 50.1095 40.2898 50.0495 40.2898C48.2295 40.2898 46.4095 40.2898 44.5895 40.2898C44.5595 40.2898 44.5195 40.2798 44.4795 40.3298C44.5895 40.5498 44.6895 40.7798 44.8095 40.9998C44.8795 41.1498 44.9995 41.2198 45.1595 41.2098C46.1495 41.1898 47.1395 41.2498 48.1295 41.1698C48.8395 41.1198 49.5495 41.1598 50.2595 41.1598C50.3595 41.1598 50.4595 41.1798 50.5195 41.2698Z" fill="#91A9BF"/>
<path d="M43.8396 48.2498C45.5096 48.1798 47.1896 48.2398 48.8596 48.2098C49.1396 48.1998 49.4196 48.2198 49.6996 48.2298C49.8596 48.2398 49.9096 48.3298 49.8596 48.4698C49.7196 48.8298 49.4796 49.1298 49.2596 49.4398C49.1996 49.5298 49.0796 49.5198 48.9796 49.5098C47.2796 49.3998 45.5797 49.5098 43.8797 49.4498C43.6397 49.4398 43.3896 49.4598 43.1396 49.4498C42.8096 49.4298 42.6396 49.2198 42.6396 48.8598C42.6396 48.5598 42.8797 48.2798 43.1497 48.2498C43.1797 48.2498 43.1996 48.2398 43.2296 48.2398C43.4396 48.2498 43.6396 48.2498 43.8396 48.2498Z" fill="#90ACC0"/>
<path d="M47.3499 42.7798C48.2099 42.7798 49.0599 42.7798 49.9199 42.7798C49.9899 42.7798 50.0699 42.7798 50.1399 42.7898C50.5699 42.8198 50.8099 43.0198 50.7999 43.3598C50.7899 43.7498 50.5099 44.0598 50.1199 44.0598C48.6199 44.0598 47.1199 44.1398 45.6199 44.0298C45.2799 44.0098 44.9299 44.0398 44.5799 44.0398C44.1099 44.0398 43.8799 43.8298 43.8699 43.4098C43.8599 43.0298 44.1099 42.7998 44.5699 42.7898C45.4999 42.7698 46.4299 42.7798 47.3499 42.7798Z" fill="#99B2C8"/>
<path d="M48.6895 84.6397C49.1995 84.6397 49.7095 84.6297 50.2195 84.6397C50.5895 84.6497 50.8695 84.9097 50.8695 85.2297C50.8695 85.5897 50.5895 85.9197 50.2395 85.9197C48.9395 85.9097 47.6395 85.8897 46.3395 85.8697C46.2195 85.8697 46.1395 85.8597 46.2295 85.6997C46.3795 85.4497 46.5095 85.1997 46.6495 84.9397C46.7595 84.7297 46.9295 84.6597 47.1595 84.6597C47.6695 84.6697 48.1795 84.6597 48.6895 84.6597C48.6895 84.6497 48.6895 84.6497 48.6895 84.6397Z" fill="#96AFBF"/>
<path d="M48.2299 51.9799C47.9099 52.4599 47.4399 52.2699 47.0399 52.1899C46.5599 52.0899 46.1599 51.7799 45.7099 51.5999C45.3799 51.4599 45.0099 51.4199 44.6499 51.1699C44.8199 51.1699 44.9399 51.1699 45.0599 51.1699C45.9499 51.1699 46.8399 51.1699 47.7299 51.1799C47.7999 51.1799 47.8799 51.1799 47.9499 51.1799C48.1099 51.1999 48.3199 51.1599 48.4299 51.2499C48.5899 51.3799 48.3399 51.5199 48.3399 51.6799C48.3399 51.7099 48.3399 51.7299 48.3399 51.7599C48.2999 51.8299 48.2699 51.8999 48.2299 51.9799Z" fill="#FBFDFE"/>
<path d="M50.3599 46.6799C50.2399 46.7599 50.0999 46.7499 49.9599 46.7499C48.3299 46.7599 46.6999 46.7699 45.0799 46.7199C44.7899 46.7099 44.4999 46.7599 44.2099 46.6999C43.7899 46.5999 43.6399 46.1999 43.9299 45.8799C44.2199 45.5399 44.6099 45.4699 45.0399 45.4799C46.5299 45.4899 48.0199 45.4899 49.5099 45.4999C49.7999 45.4999 50.0899 45.4899 50.3799 45.4999C50.6299 45.5199 50.8599 45.7899 50.8599 46.0399C50.8699 46.3399 50.6299 46.6399 50.3599 46.6799C50.3299 46.5499 50.4299 46.4799 50.4999 46.3999C50.6299 46.2399 50.6699 46.0599 50.5799 45.8699C50.4899 45.6799 50.3099 45.6299 50.1199 45.6499C49.0299 45.7599 47.9399 45.6699 46.8499 45.6999C46.6199 45.7099 46.3999 45.6899 46.1699 45.6599C45.7899 45.5999 45.6399 45.6999 45.4599 46.0499C45.1699 46.6199 45.1599 46.5699 45.7799 46.5799C47.1599 46.5799 48.5499 46.5799 49.9299 46.5799C50.0799 46.5699 50.2399 46.5399 50.3599 46.6799Z" fill="#95B0C5"/>
<path d="M55.2296 24.2297C55.2296 24.4197 55.2396 24.6097 55.2296 24.7997C55.1996 25.1897 54.9996 25.3897 54.6196 25.3997C54.2896 25.4097 54.0096 25.1697 53.9896 24.8097C53.9696 24.4197 53.9696 24.0297 53.9896 23.6397C53.9996 23.3397 54.3196 23.1197 54.6596 23.1297C55.0096 23.1397 55.2096 23.3197 55.2296 23.6497C55.2296 23.8497 55.2296 24.0397 55.2296 24.2297Z" fill="#F8FAFB"/>
<path d="M57.9097 24.3299C57.9097 24.5199 57.8997 24.7099 57.9097 24.8999C57.9297 25.2199 57.5997 25.4199 57.2697 25.4399C57.0097 25.4599 56.7597 25.2299 56.7097 24.9399C56.6297 24.5199 56.6397 24.0899 56.6797 23.6599C56.7197 23.3299 56.9097 23.1599 57.2197 23.1699C57.5897 23.1699 57.8797 23.3899 57.8997 23.6999C57.9197 23.9099 57.9097 24.1199 57.9097 24.3299Z" fill="#F1F3F4"/>
<path d="M45.8298 73.5098C45.4798 73.4798 44.9598 73.5198 44.4398 73.5298C44.3198 73.5298 44.1998 73.5198 44.0898 73.5098C43.6798 73.4498 43.5498 73.2998 43.5798 72.8598C43.5998 72.4898 43.7898 72.3098 44.1698 72.2998C45.1898 72.2798 46.1998 72.2698 47.2198 72.2398C47.4198 72.2298 47.5398 72.2898 47.6198 72.4798C47.7198 72.7298 47.8498 72.9698 47.9698 73.2198C48.0798 73.4198 48.0098 73.5098 47.7998 73.5098C47.1898 73.5098 46.5898 73.5098 45.8298 73.5098Z" fill="#8CA8C0"/>
<path d="M31.0297 31.4699C30.9197 31.6699 30.7297 31.8199 30.5297 31.9399C30.3697 32.0299 30.3197 31.8499 30.2397 31.7599C29.7897 31.2599 29.3797 30.7299 28.9897 30.1799C28.8797 30.0199 28.8397 29.9099 29.0397 29.7899C29.1897 29.6999 29.3097 29.5499 29.4497 29.4299C29.5297 29.3499 29.6097 29.3499 29.6697 29.4399C30.1097 30.0699 30.5397 30.7099 30.9797 31.3499C31.0097 31.3699 31.0097 31.4099 31.0297 31.4699Z" fill="#F5F6F8"/>
<path d="M55.2397 95.0501C55.2397 95.2001 55.2397 95.3601 55.2397 95.5101C55.2297 95.8401 55.0097 96.1001 54.7397 96.1301C54.3697 96.1701 54.0397 95.9901 53.9997 95.6501C53.9497 95.2201 53.9197 94.7801 54.0497 94.3501C54.1297 94.1201 54.3497 94.0101 54.6697 94.0501C55.0197 94.0901 55.2097 94.2301 55.2297 94.5001C55.2397 94.6901 55.2297 94.8701 55.2397 95.0501Z" fill="#F6F6F9"/>
<path d="M59.7099 54.6899C59.8999 54.6999 60.0899 54.6999 60.2799 54.7199C60.5899 54.7599 60.8299 55.0099 60.8499 55.2899C60.8699 55.5899 60.6899 55.8399 60.3699 55.9299C59.9399 56.0499 59.5199 55.9899 59.0999 55.8799C58.8499 55.8099 58.7199 55.5299 58.7699 55.2299C58.8199 54.8399 58.9299 54.7299 59.2699 54.7099C59.4099 54.6999 59.5599 54.7099 59.7099 54.7099C59.7099 54.6999 59.7099 54.6899 59.7099 54.6899Z" fill="#99B2C2"/>
<path d="M29.6099 32.58C29.5599 32.8 29.3599 32.86 29.2299 32.98C29.1399 33.06 29.0299 33.03 28.9399 32.94C28.4399 32.49 27.9399 32.05 27.4399 31.6C27.3599 31.53 27.3499 31.45 27.4199 31.36C27.5699 31.18 27.7399 31.02 27.8599 30.81C27.8999 30.74 27.9899 30.71 28.0599 30.79C28.5799 31.33 29.1199 31.86 29.5599 32.47C29.5799 32.51 29.5899 32.54 29.6099 32.58Z" fill="#FCFCFD"/>
<path d="M28.4496 33.9699C28.3896 34.0799 28.3196 34.2599 28.2196 34.4099C28.0696 34.6299 27.8896 34.4799 27.7396 34.3899C27.2596 34.1199 26.7796 33.8299 26.3096 33.5499C26.1296 33.4499 26.0896 33.3299 26.2396 33.1599C26.3496 33.0299 26.4396 32.8799 26.5096 32.7199C26.6096 32.4799 26.7496 32.5099 26.9096 32.6399C27.1596 32.8399 27.3996 33.0399 27.6396 33.2499C27.8496 33.4299 28.0896 33.5799 28.3296 33.7299C28.3896 33.7799 28.4696 33.8099 28.4496 33.9699Z" fill="#EEF1F3"/>
<path d="M28.8297 48.8097C28.2697 49.0197 28.0297 49.5997 27.5497 49.9097C27.5097 49.9397 27.4597 49.9897 27.4897 50.0497C27.5197 50.1097 27.5797 50.1097 27.6297 50.1097C27.8497 50.1197 28.0597 50.0097 28.2797 50.0697C27.8697 50.2797 27.4397 50.1497 27.0297 50.0997C26.7397 50.0697 26.4597 49.9997 26.1697 49.9497C25.9497 49.9097 25.8097 49.8197 25.8597 49.5697C25.8797 49.4897 25.8797 49.4097 25.8797 49.3297C25.8697 49.0797 26.0197 49.0297 26.2297 49.0297C26.8597 49.0197 27.4797 49.0397 28.1097 48.9797C28.3697 48.9497 28.5697 48.7797 28.8297 48.8097Z" fill="#94AEBF"/>
<path d="M50.5797 83.08C50.4997 83.17 50.3897 83.14 50.2997 83.14C49.2997 83.14 48.2997 83.13 47.2997 83.12C46.9897 83.12 46.9197 83.05 46.9897 82.74C47.0397 82.51 47.1397 82.29 47.2197 82.08C47.2597 81.97 47.3597 81.94 47.4697 81.95C48.3997 81.97 49.3197 81.83 50.2497 81.87C50.5897 81.89 50.8197 82.06 50.8897 82.36C50.9497 82.58 50.8097 82.91 50.5797 83.08C50.4897 82.94 50.5897 82.82 50.6297 82.69C50.7497 82.33 50.5997 82.1 50.2097 82.09C49.8497 82.08 49.4797 82.09 49.1197 82.09C48.9197 82.08 48.7997 82.17 48.7297 82.35C48.6797 82.48 48.6297 82.62 48.5597 82.75C48.4697 82.92 48.5197 82.97 48.6997 82.97C49.1997 82.97 49.6997 82.97 50.1997 82.97C50.3297 82.97 50.4697 82.96 50.5797 83.08Z" fill="#96B0C1"/>
<path d="M31.4795 28.3896C31.5695 28.3996 31.6095 28.4496 31.6195 28.5096C31.7795 29.0896 32.0895 29.6096 32.3195 30.1596C32.3895 30.3196 32.4995 30.4796 32.3595 30.6696C32.0695 31.0596 31.8695 31.0596 31.6395 30.6396C31.3495 30.1096 31.0195 29.5996 30.7595 29.0496C30.6695 28.8696 30.7095 28.7896 30.8595 28.7096C31.0695 28.5996 31.2795 28.4996 31.4795 28.3896Z" fill="#F2F3F5"/>
<path d="M91.9697 61.2898C92.3597 61.2798 92.6997 61.2698 92.8897 61.6498C93.1097 62.0898 92.8097 62.6498 92.3197 62.6698C92.0497 62.6798 91.7797 62.7298 91.5197 62.5898C91.1997 62.4098 91.0597 62.1498 91.1397 61.7798C91.1997 61.4998 91.4597 61.3098 91.8097 61.2998C91.8697 61.2898 91.9397 61.2898 91.9697 61.2898Z" fill="#F8F8FA"/>
<path d="M57.8995 95.76C57.7695 96.2 57.0995 96.34 56.7495 95.82C56.6695 95.41 56.6295 95 56.6895 94.58C56.7195 94.38 56.7195 94.2 56.9495 94.13C57.2195 94.05 57.4895 94.01 57.7195 94.21C57.8595 94.33 57.9595 94.48 57.9395 94.68C57.9395 95.04 58.0095 95.4 57.8995 95.76Z" fill="#FAFAFB"/>
<path d="M71.0195 55.6397C70.8195 55.4697 70.8795 55.2497 70.9395 55.0597C70.9995 54.8697 71.1495 54.7197 71.3795 54.7097C71.8295 54.6897 72.2895 54.6797 72.7395 54.6797C73.6795 54.6897 74.6095 54.6697 75.5495 54.7097C75.6495 54.7097 75.7495 54.7097 75.8495 54.7297C76.0895 54.7697 76.1395 54.8697 76.0395 55.0897C75.9295 55.3297 75.7995 55.5597 75.6695 55.7897C75.5895 55.9397 75.4395 55.9897 75.2795 55.9797C74.7695 55.9697 74.2595 55.9697 73.7495 55.9597C72.9895 55.9497 72.2195 55.9397 71.4595 55.9197C71.2595 55.9197 71.0595 55.8897 71.0195 55.6397C72.1195 55.8897 73.2495 55.6497 74.3495 55.7897C74.5195 55.8097 74.5895 55.7297 74.5595 55.5597C74.5495 55.4997 74.5395 55.4297 74.5295 55.3697C74.4795 54.8697 74.4795 54.8697 73.9495 54.8697C73.1895 54.8697 72.4195 54.8697 71.6595 54.8697C71.2095 54.8697 71.0995 54.9797 71.0795 55.4297C71.0795 55.5097 71.0795 55.5797 71.0195 55.6397Z" fill="#96B8CD"/>
<path d="M92.0999 59.8799C91.7599 59.8599 91.4199 59.8599 91.2099 59.4899C90.9799 59.0899 91.2599 58.5399 91.6599 58.4999C91.9099 58.4799 92.1499 58.4499 92.3899 58.4899C92.7699 58.5599 92.9899 58.8399 92.9599 59.1999C92.9299 59.5899 92.6999 59.8299 92.3099 59.8699C92.2499 59.8899 92.1799 59.8799 92.0999 59.8799Z" fill="#FDFEFE"/>
<path d="M19.9298 61.2998C20.0298 61.2998 20.1298 61.2898 20.2298 61.2998C20.6598 61.3398 20.8598 61.5398 20.8498 61.9598C20.8398 62.3898 20.6098 62.6598 20.1998 62.6698C19.9598 62.6798 19.7098 62.7098 19.4798 62.6098C19.1398 62.4598 18.9798 62.1398 19.0598 61.8098C19.1398 61.4498 19.3598 61.2898 19.7798 61.2798C19.8198 61.2898 19.8698 61.2898 19.9298 61.2998Z" fill="#F5F7F8"/>
<path d="M19.9797 59.8599C19.8497 59.8499 19.7397 59.8399 19.6197 59.8299C19.1897 59.7799 19.0197 59.5999 19.0297 59.1799C19.0297 58.8199 19.2797 58.5499 19.6397 58.5099C19.8897 58.4799 20.1497 58.4599 20.3997 58.5299C20.7497 58.6299 20.8897 58.8699 20.8597 59.2899C20.8297 59.6499 20.6897 59.7899 20.3097 59.8399C20.1897 59.8499 20.0797 59.8499 19.9797 59.8599Z" fill="#F1F3F4"/>
<path d="M34.0295 30.02C34.0095 30.22 33.7495 30.2 33.5595 30.27C33.3795 30.33 33.3495 30.21 33.2995 30.06C33.1195 29.48 32.9195 28.91 32.7195 28.34C32.6395 28.11 32.6695 27.98 32.9395 27.94C33.1195 27.91 33.2895 27.85 33.4595 27.79C33.5495 27.76 33.6195 27.75 33.6395 27.87C33.7695 28.55 33.9695 29.22 34.0295 30.02Z" fill="#F5F6F7"/>
<path d="M25.2798 35.3398C25.3598 35.0998 25.4597 34.8398 25.5997 34.5998C25.6697 34.4798 25.7497 34.5398 25.8297 34.5898C26.3097 34.8998 26.8297 35.1298 27.3497 35.3598C27.5097 35.4298 27.5397 35.4998 27.4797 35.6498C27.2797 36.1798 27.2797 36.1798 26.7397 36.0098C26.2897 35.8698 25.8497 35.7198 25.3997 35.5798C25.2697 35.5398 25.2698 35.4698 25.2798 35.3398Z" fill="#F0F1F2"/>
<path d="M24.8499 37.4897C24.9199 36.6097 24.8599 36.6397 25.6399 36.8197C25.9999 36.9097 26.3699 36.9697 26.7299 37.0397C26.8199 37.0597 26.8699 37.1097 26.8399 37.1897C26.7599 37.3797 26.7699 37.5797 26.7399 37.7797C26.7199 37.9397 26.6099 37.9897 26.4599 37.9597C26.0399 37.8597 25.6099 37.8597 25.1899 37.8197C24.9199 37.7897 24.7599 37.7397 24.8499 37.4897Z" fill="#FAFBFB"/>
<path d="M35.3396 27.6299C35.8896 27.6299 35.8896 27.6299 35.8096 28.1899C35.7396 28.6199 35.7796 29.0599 35.7596 29.4999C35.7496 29.7999 35.6796 29.8499 35.3196 29.8699C35.0396 29.8899 35.0396 29.7099 35.0196 29.5199C34.9596 29.0099 34.8996 28.5099 34.8396 27.9999C34.7996 27.6299 34.8096 27.6299 35.1796 27.6299C35.2296 27.6299 35.2796 27.6299 35.3396 27.6299Z" fill="#F3F5F6"/>
<path d="M38.0698 56.2397C37.5098 55.8697 37.4298 55.2897 37.3498 54.6897C37.1998 53.6297 37.2398 52.5797 37.2298 51.5197C37.2298 51.2797 37.1498 51.1397 36.9198 51.0497C36.3998 50.8497 35.8798 50.6197 35.4098 50.3097C35.3598 50.2797 35.2998 50.2497 35.2798 50.1797C35.5898 50.2497 35.7998 50.4897 36.0898 50.5997C36.3998 50.7197 36.6998 50.8797 37.0098 50.9997C37.2198 51.0797 37.3098 51.2097 37.3098 51.4297C37.3198 52.1697 37.3398 52.8997 37.3398 53.6397C37.3398 53.8797 37.4198 53.9797 37.6698 53.9897C38.0598 54.0097 38.0498 54.0197 38.0698 54.3997C38.1098 54.9997 38.0898 55.6197 38.0698 56.2397Z" fill="#83A1B9"/>
<path d="M59.7197 53.0297C59.2497 53.0297 58.9497 52.7897 58.9497 52.4097C58.9497 52.0097 59.3197 51.6597 59.7497 51.6597C60.2097 51.6597 60.5397 51.9397 60.5397 52.3397C60.5397 52.7797 60.2397 53.0297 59.7197 53.0297Z" fill="#96B2C4"/>
<path d="M77.0298 40.74C77.0298 40.34 77.3298 40.02 77.6998 40.03C78.1398 40.04 78.4998 40.39 78.4898 40.8C78.4898 41.17 78.1698 41.45 77.7598 41.44C77.3298 41.43 77.0298 41.14 77.0298 40.74Z" fill="#95ADBD"/>
<path d="M37.0599 29.7398C36.6999 29.7298 36.6599 29.6998 36.7099 29.3398C36.7699 28.8798 36.8699 28.4298 36.9599 27.9798C36.9999 27.7998 37.0899 27.7198 37.2899 27.7898C37.4599 27.8498 37.6399 27.8898 37.8199 27.8998C37.9799 27.9198 37.9999 27.9898 37.9499 28.1198C37.7599 28.6198 37.5499 29.1098 37.3699 29.6098C37.3099 29.7898 37.1799 29.7398 37.0599 29.7398Z" fill="#EBEBEE"/>
<path d="M83.0395 59.9101C82.5395 59.9101 82.1995 59.9101 81.8595 59.9101C81.7895 59.9101 81.6995 59.9401 81.6595 59.8701C81.6195 59.8001 81.6895 59.7301 81.7195 59.6701C81.9695 59.2501 82.6795 58.9601 83.1595 59.1001C83.4795 59.2001 83.7895 59.3401 84.0295 59.6001C84.0795 59.6601 84.1795 59.7001 84.1495 59.8001C84.1195 59.9001 84.0095 59.8701 83.9395 59.8701C83.5795 59.8801 83.2295 59.9001 83.0395 59.9101Z" fill="#EEF2F1"/>
<path d="M70.0998 75.16C70.0398 75.04 69.9198 75.06 69.8098 75.06C67.7598 74.97 65.7198 75 63.6698 75C63.2598 75 62.8398 75.04 62.4198 75.09C62.8198 75.32 63.2398 75.5 63.6698 75.64C65.1198 76.09 66.5998 76.13 68.0798 75.85C68.4498 75.78 68.8198 75.66 69.1698 75.52C69.2398 75.49 69.2998 75.45 69.3798 75.48C69.1698 75.67 68.8898 75.72 68.6398 75.79C67.5298 76.08 66.3998 76.18 65.2398 76.04C64.1898 75.92 63.2298 75.6 62.2898 75.16C62.2198 75.13 62.1398 75.09 62.1498 75.01C62.1598 74.91 62.2598 74.94 62.3298 74.94C64.8698 74.91 67.4098 74.92 69.9498 74.95C70.0298 74.95 70.1498 74.91 70.1898 75.03C70.2198 75.11 70.1898 75.17 70.0998 75.16Z" fill="#9EADB9"/>
<path d="M61.5697 58.1497C61.4097 58.0997 61.2597 58.0297 61.0697 58.0497C60.7697 58.0897 60.5897 58.2597 60.5697 58.5597C60.4997 59.3397 60.5297 60.1197 60.5297 60.9097C60.5297 61.1497 60.6197 61.3797 60.8697 61.4797C61.1197 61.5797 61.4497 61.4897 61.5997 61.3197C61.7197 61.1897 61.7297 61.0197 61.7297 60.8597C61.7197 59.9997 61.7497 59.1297 61.6697 58.2697C61.7797 58.3997 61.7997 58.5697 61.7997 58.7297C61.8097 59.4497 61.8197 60.1697 61.8197 60.8897C61.8197 61.3097 61.5697 61.5997 61.2097 61.6197C60.7897 61.6397 60.4497 61.3797 60.4397 60.9497C60.4197 60.1597 60.4497 59.3697 60.4697 58.5797C60.4797 58.2997 60.6297 58.0797 60.9097 58.0297C61.1397 57.9697 61.3997 57.8897 61.5697 58.1497Z" fill="#A9B5BE"/>
<path d="M57.8999 95.7597C57.8999 95.3997 57.8999 95.0397 57.9099 94.6697C57.9099 94.4397 57.8299 94.2397 57.6099 94.1697C57.3499 94.0797 57.0699 94.0797 56.8299 94.2397C56.7399 94.2997 56.7499 94.3997 56.7399 94.4797C56.6899 94.9197 56.7299 95.3697 56.7499 95.8097C56.5399 95.3197 56.5999 94.8197 56.6899 94.3197C56.7399 94.0497 56.9999 94.0397 57.2099 94.0097C57.5099 93.9697 57.8099 94.0397 57.9099 94.3497C58.0699 94.8197 58.0599 95.2897 57.8999 95.7597Z" fill="#798A96"/>
<path d="M76.8697 81.2197C76.8997 81.5197 76.7797 81.8097 76.7297 82.0997C76.5197 83.3297 76.7497 84.4697 77.2297 85.5897C77.3097 85.7697 77.4297 85.9297 77.4597 86.1297C77.1797 85.8197 77.0797 85.4197 76.9297 85.0497C76.5997 84.1997 76.5397 83.3197 76.5997 82.4197C76.6497 82.0197 76.6897 81.6097 76.8697 81.2197Z" fill="#8E9498"/>
<path d="M30.7397 48.4797C30.7997 48.3497 30.8597 48.2197 30.9197 48.0897C30.9497 48.0197 30.9897 47.9397 30.9397 47.8897C30.8797 47.8297 30.8097 47.8997 30.7497 47.9397C30.2997 48.2097 29.8497 48.4697 29.3597 48.6597C29.2897 48.6897 29.2297 48.7297 29.1597 48.6997C29.7397 48.4097 30.3197 48.1197 30.8697 47.7697C30.9297 47.7297 30.9897 47.7197 31.0497 47.7697C31.0997 47.8097 31.0697 47.8697 31.0597 47.9197C31.0097 48.1197 30.9297 48.3097 30.7997 48.4797C30.7797 48.5097 30.7597 48.5097 30.7397 48.4797Z" fill="#94AEBF"/>
<path d="M30.7399 48.48C30.7599 48.48 30.7699 48.48 30.7899 48.48C30.5499 49 30.1699 49.39 29.6499 49.63C29.7299 49.48 29.8899 49.42 30.0199 49.32C30.3199 49.09 30.5299 48.79 30.7399 48.48Z" fill="#82929A"/>
<path d="M56.7598 41.8097C56.9098 41.6397 57.0898 41.5297 57.3098 41.4897C57.1498 41.6497 56.9698 41.7497 56.7598 41.8097Z" fill="#93ADBE"/>
<path d="M23.5195 91.6597C24.5495 91.6597 25.5695 91.6597 26.5995 91.6597C26.5295 91.7097 26.4395 91.6997 26.3595 91.6997C25.4895 91.6997 24.6195 91.6997 23.7495 91.6997C23.6695 91.7097 23.5895 91.7197 23.5195 91.6597Z" fill="#8EAEC0"/>
<path d="M27.0098 91.7197C27.2298 91.7697 27.3898 91.9197 27.5198 92.0897C27.3098 92.0097 27.1498 91.8797 27.0098 91.7197Z" fill="#8EAEC0"/>
<path d="M35.0498 89.23C33.1898 89.23 31.5698 88.63 30.1098 87.57C28.7798 86.61 27.8198 85.35 27.2298 83.81C27.1498 83.6 26.9898 83.33 27.0598 83.17C27.1398 82.98 27.4498 83.12 27.6598 83.11C28.4498 83.04 29.1298 82.45 29.3198 81.59C29.4998 80.76 28.8798 79.5 27.9998 79.25C27.7498 79.18 27.4998 79.18 27.2398 79.19C27.1198 79.2 27.0398 79.2 27.0798 79.03C27.4098 77.83 27.9798 76.76 28.7898 75.82C29.8698 74.57 31.2098 73.73 32.7998 73.27C33.3598 73.11 33.9398 72.97 34.5298 72.95C36.3398 72.89 37.9898 73.41 39.5098 74.4C41.0698 75.42 42.0898 76.85 42.7098 78.58C42.7698 78.75 42.9298 78.96 42.8398 79.12C42.7398 79.3 42.4898 79.17 42.3098 79.19C41.4998 79.28 40.8298 79.93 40.5898 80.73C40.3398 81.57 40.9798 82.68 41.6698 82.94C42.0198 83.07 42.3698 83.11 42.7398 83.09C42.9098 83.08 42.9598 83.09 42.8798 83.3C42.4998 84.3 42.0698 85.26 41.4098 86.1C40.3798 87.41 39.0698 88.31 37.4898 88.83C36.6898 89.1 35.8598 89.22 35.0498 89.23Z" fill="#926034"/>
<path d="M26.6396 81.1599C26.6396 80.7099 26.9396 80.3799 27.3396 80.3799C27.7696 80.3799 28.1396 80.7599 28.1296 81.1899C28.1296 81.6199 27.7996 81.9399 27.3696 81.9499C26.8996 81.9399 26.6396 81.6599 26.6396 81.1599Z" fill="#926034"/>
<path d="M43.3199 81.1499C43.2999 81.6199 42.9899 81.9499 42.5599 81.9399C42.1599 81.9299 41.8099 81.5499 41.8299 81.1399C41.8499 80.7499 42.2599 80.3499 42.6099 80.3699C43.0399 80.3899 43.3399 80.7299 43.3199 81.1499Z" fill="#926034"/>
<path d="M83.7296 82.9997C83.7296 83.6797 83.7296 84.3697 83.7296 85.0497C83.7296 85.3597 83.7596 85.3797 84.0596 85.2797C84.8596 85.0197 85.4596 84.5197 85.8396 83.7797C85.8896 83.6897 85.9396 83.6397 86.0496 83.6397C86.4396 83.6497 86.8296 83.6497 87.2196 83.6497C87.4096 83.6497 87.4196 83.7297 87.3796 83.8897C86.9096 85.6597 85.7296 86.6797 83.9796 87.0697C83.7396 87.1197 83.5896 87.1897 83.6496 87.4697C83.6596 87.5397 83.6496 87.6197 83.6496 87.6897C83.6296 88.3697 83.7396 88.2797 83.0396 88.2497C82.3696 88.2197 82.3696 88.1997 82.3596 87.5297C82.3596 87.4697 82.3496 87.3997 82.3596 87.3397C82.3796 87.1497 82.3196 87.0897 82.1096 87.0797C81.2496 87.0297 80.5296 86.6097 79.9096 86.0497C79.0496 85.2897 78.5496 84.3097 78.4696 83.1697C78.4096 82.3597 78.7096 81.5997 79.1196 80.8997C79.6996 79.8997 80.6196 79.3497 81.6796 78.9997C82.4496 78.7397 82.3396 78.9897 82.3496 78.1697C82.3496 77.8897 82.4396 77.7997 82.7096 77.8297C82.9496 77.8497 83.1996 77.8497 83.4496 77.8297C83.7096 77.8097 83.7796 77.9297 83.7396 78.1497C83.7196 78.2697 83.6996 78.3797 83.6796 78.4997C83.6596 78.6697 83.7096 78.7497 83.9096 78.7897C85.4396 79.0897 86.8796 80.0797 87.3596 81.8097C87.4896 82.2797 87.4796 82.2797 86.9996 82.2697C86.9696 82.2697 86.9496 82.2697 86.9196 82.2697C86.3096 82.3297 85.8196 82.2297 85.4696 81.5997C85.1796 81.0797 84.5996 80.8497 84.0296 80.6897C83.8196 80.6297 83.7196 80.6697 83.7196 80.9297C83.7396 81.6197 83.7296 82.3097 83.7296 83.0097C83.7196 82.9997 83.7196 82.9997 83.7296 82.9997Z" fill="#926034"/>
<path d="M92.0695 86.0801C92.1495 86.3401 92.1595 86.5401 92.1595 86.7501C92.1495 87.9001 92.1395 89.0401 92.1495 90.1901C92.1495 91.6201 92.1495 93.0501 92.1695 94.4801C92.1695 94.6001 92.1795 94.7201 92.1495 94.8301C92.0395 95.1601 91.8795 95.3801 91.4095 95.3801C88.0295 95.3701 84.6495 95.3701 81.2695 95.3701C74.5295 95.3701 67.7895 95.3701 61.0495 95.3801C60.6095 95.3801 60.3595 95.2001 60.3395 94.7701C60.2995 93.9001 60.2795 93.0201 60.3695 92.1501C60.3995 91.8701 60.6295 91.7001 60.9495 91.7001C62.7295 91.7001 64.4995 91.6901 66.2795 91.6901C69.1395 91.6901 71.9995 91.6901 74.8595 91.6901C75.1295 91.6901 75.4095 91.6701 75.6795 91.6601C76.1395 91.6401 76.5495 91.6901 76.9695 91.9701C78.0195 92.6701 79.1895 93.1301 80.4295 93.3501C81.5695 93.5601 82.7295 93.5601 83.8795 93.3901C85.9895 93.0801 87.7695 92.1301 89.2895 90.6501C90.2795 89.6801 91.0995 88.5901 91.6295 87.3001C91.7695 86.9301 91.8995 86.5301 92.0695 86.0801Z" fill="#FCFDFE"/>
<path d="M91.9596 65.6399C92.0896 65.9299 92.1296 66.2499 92.1196 66.5699C92.0996 67.7699 92.1296 68.9699 92.1396 70.1699C92.1596 73.3199 92.1496 76.4699 92.1696 79.6199C92.1696 79.9399 92.1696 80.2599 92.1696 80.6499C91.8196 79.5399 91.3196 78.5899 90.7096 77.6999C90.1496 76.8999 89.5296 76.1499 88.7496 75.5599C88.6496 75.4899 88.6196 75.3899 88.6196 75.2799C88.6196 73.2299 88.6196 71.1799 88.6296 69.1299C88.6296 68.7799 88.9496 68.5999 89.1296 68.3499C89.6696 67.6099 90.1896 66.8499 90.5696 66.0099C90.5696 65.9999 90.5796 65.9899 90.5796 65.9899C90.6696 65.8099 90.6196 65.5099 90.8396 65.4599C91.1596 65.3799 91.5096 65.3899 91.8196 65.5799C91.8596 65.6099 91.8896 65.6499 91.9596 65.6399Z" fill="#FCFDFE"/>
<path d="M43.2496 62.1299C42.8196 62.1299 42.3896 62.1199 41.9696 62.1299C41.7696 62.1399 41.6896 62.0599 41.6996 61.8599C41.7096 61.5999 41.7196 61.3299 41.7096 61.0699C41.6996 60.8999 41.7696 60.8399 41.9296 60.8399C42.2896 60.8399 42.6396 60.8299 42.9996 60.8299C43.2296 60.8299 43.2796 60.7499 43.2096 60.5299C42.9896 59.8099 42.5696 59.2499 41.9496 58.8399C41.7796 58.7299 41.6996 58.6099 41.7196 58.3999C41.7396 58.1999 41.7396 57.9999 41.7196 57.7999C41.6896 57.5499 41.8096 57.5399 41.9896 57.5899C42.3896 57.6899 42.7396 57.9199 43.0596 58.1699C43.9596 58.8799 44.4996 59.7999 44.6796 60.9399C44.7296 61.2699 44.7596 61.5899 44.7796 61.9099C44.7896 62.0699 44.7496 62.1399 44.5696 62.1299C44.1196 62.1199 43.6896 62.1299 43.2496 62.1299Z" fill="#926034"/>
<path d="M67.3797 52.5201C67.3897 53.2301 66.6497 53.9501 65.8997 53.9601C65.2397 53.9701 64.5997 53.2601 64.5997 52.5201C64.5897 51.8101 65.2397 51.1201 65.9397 51.1401C66.7297 51.1701 67.3297 51.7001 67.3797 52.5201Z" fill="#926034"/>
<path d="M53.7498 90.1797C53.7698 89.5197 53.7298 88.8697 53.7198 88.2197C53.7098 86.5097 53.7398 84.7997 53.7598 83.0897C53.7598 83.0597 53.7698 83.0197 53.7798 82.9897C54.8098 83.8397 55.9298 84.5397 57.1198 85.1397C57.2798 85.2197 57.4398 85.3097 57.5998 85.3897C57.7798 85.4797 57.8598 85.6097 57.8598 85.8197C57.8498 87.1697 57.8498 88.5197 57.8598 89.8597C57.8598 90.0997 57.7998 90.1797 57.5398 90.1797C56.2898 90.1697 55.0198 90.1397 53.7498 90.1797Z" fill="#FDFEFE"/>
<path d="M64.0496 67.83C62.4596 67.83 60.8596 67.83 59.2696 67.83C58.9196 67.83 58.7096 67.61 58.7196 67.28C58.7296 66.91 58.8796 66.75 59.2696 66.76C59.9296 66.76 60.5996 66.81 61.2596 66.79C64.7496 66.7 68.2296 66.79 71.7196 66.74C71.8696 66.74 72.0096 66.75 72.1596 66.74C72.3896 66.72 72.4296 66.84 72.3696 67.03C72.2796 67.31 72.1196 67.55 71.9196 67.77C71.8196 67.88 71.6796 67.84 71.5596 67.84C69.0596 67.83 66.5596 67.83 64.0496 67.83Z" fill="#FDFEFE"/>
<path d="M50.0496 87.3897C50.5096 87.3697 50.6396 87.4297 50.7496 87.7397C50.8296 87.9497 50.7996 88.1397 50.6596 88.3297C50.5196 88.5197 50.3296 88.4997 50.1396 88.4897C50.0296 88.4897 49.9796 88.4197 49.9396 88.3297C49.8296 88.1097 49.7296 87.8897 49.5996 87.6797C49.4796 87.4897 49.5296 87.4197 49.7396 87.4097C49.8496 87.3997 49.9496 87.3997 50.0496 87.3897Z" fill="#F9FBFD"/>
<path d="M61.1296 64.9896C61.1096 64.9096 61.0296 64.8896 60.9796 64.8396C60.7996 64.6796 60.7096 64.4896 60.7896 64.2596C60.8696 64.0396 61.0196 63.8996 61.2696 63.8796C62.1196 63.8396 62.9596 63.8496 63.8096 63.8696C64.1396 63.8796 64.4596 63.8596 64.7896 63.8596C66.5796 63.8596 68.3596 63.8496 70.1496 63.8496C70.2896 63.8496 70.4196 63.8596 70.5596 63.8596C70.7696 63.8596 70.8796 63.9696 70.9296 64.1796C71.0796 64.8196 70.9696 64.9696 70.3196 64.9696C67.3896 64.9796 64.4496 64.9796 61.5196 64.9796C61.3796 64.9896 61.2596 64.9896 61.1296 64.9896Z" fill="#FDFEFE"/>
<path d="M66.5696 69.5801C68.9196 69.5801 71.2696 69.5801 73.6196 69.5801C73.7696 69.5801 73.9296 69.5801 74.0796 69.5901C74.2496 69.6101 74.3296 69.6901 74.2596 69.8701C74.1896 70.0301 74.1396 70.1901 74.0696 70.3501C73.9196 70.6301 73.7296 70.7901 73.3596 70.7901C68.8596 70.7701 64.3596 70.7701 59.8596 70.7701C59.5696 70.7701 59.3796 70.6601 59.2596 70.4001C59.1596 70.1901 59.0096 70.0001 58.9496 69.7701C58.9196 69.6501 58.9296 69.5801 59.0796 69.5901C59.2896 69.6001 59.4996 69.5901 59.7096 69.5901C61.9996 69.5801 64.2796 69.5801 66.5696 69.5801Z" fill="#FDFDFE"/>
<path d="M72.7696 73.46C71.3596 73.46 69.9496 73.46 68.5396 73.46C66.2396 73.46 63.9496 73.45 61.6596 73.47C61.1896 73.47 60.9196 73.3 60.7296 72.89C60.4796 72.35 60.4596 72.36 61.0596 72.36C65.0896 72.36 69.1296 72.36 73.1596 72.37C73.2796 72.37 73.4496 72.31 73.5096 72.43C73.5696 72.55 73.4296 72.66 73.3596 72.75C73.1696 72.98 72.9696 73.22 72.7696 73.46Z" fill="#FDFEFE"/>
<path d="M37.0897 31.4096C37.0897 31.8696 37.0597 31.8896 36.5997 31.9196C35.9697 31.9696 35.3597 32.1296 34.7497 32.2896C34.1397 32.4496 33.5597 32.6596 32.9797 32.9096C32.8997 32.9396 32.7997 33.0096 32.7297 32.9096C32.6697 32.8196 32.7497 32.7396 32.8097 32.6696C33.3797 31.8296 34.2097 31.4396 35.1697 31.2396C35.6597 31.1396 36.1397 31.0496 36.6397 31.0096C37.0897 30.9796 37.0897 30.9596 37.0897 31.4096Z" fill="#FCFDFE"/>
<path d="M50.5197 41.2699C48.7897 41.2899 47.0597 41.2999 45.3297 41.3399C44.9497 41.3499 44.7297 41.2399 44.6097 40.8799C44.5497 40.7099 44.4597 40.5499 44.3797 40.3899C44.2897 40.2199 44.3397 40.1699 44.5197 40.1699C46.3997 40.1699 48.2697 40.1799 50.1497 40.1799C50.3997 40.1799 50.6197 40.2699 50.7397 40.5099C50.8497 40.7399 50.7697 40.9499 50.6197 41.1399C50.5797 41.1699 50.5497 41.2199 50.5197 41.2699Z" fill="#FDFEFE"/>
<path d="M46.5899 49.4098C45.7899 49.4098 44.9899 49.4098 44.1899 49.4098C44.1099 49.4098 43.9999 49.4498 43.9599 49.3698C43.8999 49.2798 44.0099 49.1998 44.0499 49.1398C44.1999 48.9298 44.3399 48.7198 44.4399 48.4898C44.4999 48.3498 44.5899 48.3198 44.7099 48.3198C46.3399 48.3198 47.9699 48.3198 49.5999 48.3198C49.7999 48.3198 49.8299 48.3798 49.7299 48.5598C49.5999 48.8198 49.4099 49.0498 49.2699 49.2998C49.1899 49.4398 49.0599 49.4198 48.9299 49.4198C48.1599 49.4198 47.3699 49.4198 46.5899 49.4098Z" fill="#FCFDFD"/>
<path d="M47.4396 42.8498C48.4996 42.8698 49.3496 42.8498 50.1896 42.8998C50.5196 42.9198 50.6896 43.0598 50.6896 43.3398C50.6996 43.6598 50.4696 43.9798 50.1896 43.9898C49.9996 44.0098 49.7996 43.9998 49.5996 43.9998C48.5296 43.9998 47.4496 43.9998 46.3796 43.9998C45.7496 43.9998 45.6496 43.9298 45.4096 43.3498C45.2096 42.8598 45.2196 42.8398 45.7496 42.8498C46.3796 42.8498 47.0196 42.8498 47.4396 42.8498Z" fill="#FCFDFD"/>
<path d="M48.0098 85.83C48.2198 85.48 48.3998 85.21 48.5598 84.93C48.6398 84.79 48.7498 84.73 48.9098 84.73C49.3598 84.73 49.7998 84.72 50.2498 84.73C50.5398 84.73 50.7398 84.94 50.7498 85.23C50.7598 85.57 50.5998 85.82 50.2998 85.83C49.5598 85.84 48.8098 85.83 48.0098 85.83Z" fill="#FEFEFE"/>
<path d="M50.3599 46.68C49.9899 46.68 49.6199 46.67 49.2399 46.67C47.9299 46.67 46.6199 46.66 45.3099 46.66C45.1299 46.66 44.9199 46.69 45.1499 46.41C45.2499 46.29 45.3299 46.13 45.3599 45.98C45.4499 45.58 45.7299 45.54 46.0599 45.55C47.0999 45.61 48.1299 45.58 49.1699 45.58C49.4899 45.58 49.8099 45.57 50.1199 45.55C50.3999 45.53 50.6199 45.62 50.7099 45.88C50.7999 46.14 50.7199 46.38 50.4999 46.56C50.4599 46.6 50.4099 46.64 50.3599 46.68Z" fill="#FCFDFD"/>
<path d="M46.5796 73.4399C46.2296 73.4399 45.8696 73.4299 45.5196 73.4399C45.3396 73.4399 45.2896 73.3699 45.2796 73.1999C45.2696 72.9699 45.3196 72.7699 45.4096 72.5699C45.4696 72.4299 45.5796 72.3499 45.7496 72.3499C46.2396 72.3399 46.7296 72.3399 47.2196 72.3199C47.3796 72.3099 47.4596 72.3699 47.5296 72.5199C47.6296 72.7399 47.7496 72.9599 47.8596 73.1699C47.9596 73.3499 47.9196 73.4399 47.6996 73.4399C47.3196 73.4399 46.9496 73.4399 46.5796 73.4399Z" fill="#FDFDFE"/>
<path d="M50.5797 83.0799C49.8997 83.0799 49.2197 83.0699 48.5397 83.0799C48.3097 83.0799 48.2997 82.9999 48.3897 82.8299C48.4897 82.6399 48.5997 82.4499 48.6597 82.2399C48.7197 82.0399 48.8397 81.9699 49.0397 81.9799C49.4497 81.9899 49.8597 81.9799 50.2697 81.9799C50.6697 81.9799 50.8897 82.3099 50.7597 82.6899C50.6997 82.8199 50.6397 82.9499 50.5797 83.0799Z" fill="#FDFEFE"/>
<path d="M71.0196 55.6398C70.9996 55.5298 70.9696 55.4298 70.9696 55.3198C70.9596 54.9998 71.1596 54.7798 71.4796 54.7698C72.4496 54.7598 73.4296 54.7698 74.3996 54.7598C74.5596 54.7598 74.6196 54.8198 74.6296 54.9798C74.6396 55.2198 74.6596 55.4698 74.6996 55.7098C74.7196 55.8598 74.6596 55.9098 74.5296 55.8998C73.4896 55.8098 72.4396 55.8698 71.3996 55.8498C71.2096 55.8598 71.1596 55.6998 71.0196 55.6398Z" fill="#FDFEFE"/>
<path d="M36.9796 80.4199C36.9396 80.4199 36.9096 80.4199 36.8696 80.4199C36.5196 80.4499 36.2496 80.4099 36.0096 80.0499C35.4696 79.2299 34.1696 79.5199 33.7496 80.5499C33.3796 81.4599 33.8796 82.4699 34.8496 82.6599C35.3496 82.7599 35.7896 82.5499 36.0696 82.1099C36.1996 81.9099 36.3396 81.8599 36.5696 81.8699C36.9096 81.8799 37.2396 81.8799 37.5796 81.8499C37.7896 81.8399 37.7996 81.9399 37.7496 82.0799C37.2496 83.2299 36.4996 83.9699 35.1596 84.0099C33.8896 84.0499 32.7696 83.2899 32.3496 81.9499C31.7896 80.1299 33.2196 78.1799 35.1996 78.2499C36.2796 78.2799 37.3696 79.1399 37.6696 80.1799C37.7196 80.3599 37.6896 80.4299 37.4896 80.4199C37.3296 80.4099 37.1496 80.4099 36.9796 80.4199Z" fill="#FEFEFE"/>
<path d="M33.6498 85.0798C34.2198 85.0598 34.2298 85.0598 34.2698 85.6298C34.2798 85.7898 34.2998 85.9498 34.3798 86.0998C34.5398 86.4198 34.8298 86.6198 35.0998 86.5698C35.4498 86.5098 35.7198 86.2198 35.7598 85.8698C35.7798 85.6798 35.7998 85.4898 35.7898 85.2998C35.7798 85.1398 35.8398 85.0898 35.9898 85.0798C36.2898 85.0698 36.5898 85.0598 36.8898 85.0498C36.9798 85.0498 37.0298 85.0898 37.0298 85.1798C37.0398 85.8398 37.0198 86.4898 36.6398 87.0598C36.3498 87.4898 35.9398 87.6998 35.4298 87.7498C34.9598 87.7898 34.5098 87.7698 34.0798 87.5398C33.5798 87.2798 33.2598 86.8798 33.1398 86.3398C33.0598 85.9998 33.0098 85.6498 33.0198 85.2898C33.0298 85.1298 33.0498 85.0298 33.2498 85.0598C33.3698 85.0998 33.5098 85.0798 33.6498 85.0798Z" fill="#FDFEFE"/>
<path d="M36.4098 77.1601C36.3998 77.1601 36.3898 77.1601 36.3798 77.1601C35.6598 77.1501 35.7798 77.12 35.7598 76.58C35.7498 76.15 35.4698 75.86 35.0298 75.82C34.6798 75.78 34.3398 76.05 34.2598 76.45C34.2198 76.63 34.2098 76.81 34.1998 76.99C34.1898 77.13 34.1398 77.18 33.9998 77.18C33.7398 77.17 33.4698 77.17 33.2098 77.17C33.0998 77.17 33.0098 77.1601 33.0098 77.0101C33.0098 76.5301 32.9998 76.05 33.1998 75.59C33.5498 74.82 34.3598 74.42 35.3398 74.54C36.1098 74.64 36.7898 75.29 36.9298 76.06C36.9798 76.33 37.0198 76.6001 37.0198 76.8701C37.0298 77.0901 36.9698 77.2 36.7298 77.17C36.6298 77.15 36.5198 77.1601 36.4098 77.1601Z" fill="#FBFCFD"/>
<path d="M31.1797 75.4198C31.2497 75.4398 31.2797 75.4698 31.2997 75.5298C31.3797 75.7698 31.4497 76.0198 31.5297 76.2498C31.5797 76.3898 31.5497 76.4898 31.4297 76.5798C30.7797 77.1298 30.2497 77.7798 29.8397 78.5298C29.7497 78.6998 29.6697 78.7898 29.4897 78.5998C29.3697 78.4698 29.1997 78.3798 29.0397 78.2998C28.8397 78.1998 28.8397 78.0898 28.9497 77.9098C29.2197 77.4698 29.5097 77.0398 29.8597 76.6598C30.2297 76.2398 30.6297 75.8398 31.0697 75.4898C31.1097 75.4598 31.1297 75.4098 31.1797 75.4198Z" fill="#F7F9FA"/>
<path d="M38.6195 76.0399C38.6195 75.8999 38.6095 75.8199 38.6195 75.7499C38.6295 75.6499 38.5695 75.4999 38.6895 75.4499C38.7895 75.4099 38.8795 75.5299 38.9695 75.5899C39.8495 76.1899 40.4795 77.0199 41.0095 77.9299C41.1295 78.1399 41.1395 78.2799 40.8695 78.3899C40.6895 78.4599 40.4995 78.5399 40.3495 78.6799C40.2695 78.7599 40.2395 78.7199 40.1895 78.6399C39.7795 77.8899 39.2495 77.2199 38.6895 76.5699C38.5295 76.3699 38.6395 76.1699 38.6195 76.0399Z" fill="#FBFBFC"/>
<path d="M29.5998 83.7398C29.7098 83.6498 29.7698 83.7498 29.8098 83.8198C30.2598 84.5298 30.8298 85.1399 31.4298 85.7199C31.4898 85.7799 31.5598 85.8498 31.5098 85.9298C31.3798 86.1498 31.3898 86.3998 31.3498 86.6398C31.3198 86.8298 31.2498 86.8099 31.1198 86.7199C30.5198 86.3299 29.9898 85.8698 29.5398 85.3198C29.3198 85.0398 29.1298 84.7499 28.9698 84.4399C28.8898 84.2699 28.8798 84.1499 29.0898 84.0499C29.2698 83.9599 29.4198 83.8198 29.5998 83.7398Z" fill="#F7F9FA"/>
<path d="M38.6297 86.14C38.5397 85.82 38.7097 85.56 38.9797 85.3C39.3897 84.89 39.7397 84.43 40.0597 83.94C40.1897 83.75 40.3097 83.71 40.4997 83.86C40.6297 83.96 40.7597 84.05 40.9197 84.1C41.1097 84.15 41.1297 84.25 41.0297 84.41C40.6297 85.07 40.1697 85.67 39.5697 86.15C39.3497 86.33 39.1297 86.5 38.8997 86.66C38.8297 86.71 38.7597 86.81 38.6697 86.76C38.5897 86.72 38.6397 86.61 38.6297 86.53C38.6297 86.42 38.6297 86.31 38.6297 86.14Z" fill="#FBFBFC"/>
<path d="M29.5998 83.7397C29.4498 83.8497 29.2998 83.9897 29.1398 84.0697C28.9298 84.1697 28.9498 84.2997 29.0298 84.4697C29.1698 84.7697 29.4198 85.0097 29.5498 85.3197C29.2598 85.0397 29.0698 84.6997 28.8998 84.3397C28.8598 84.2597 28.8598 84.1598 28.9398 84.1198C29.1498 83.9898 29.3298 83.7797 29.5998 83.7397Z" fill="#7B8CA3"/>
<path d="M82.4095 83.3198C82.4195 83.6698 82.4395 84.3498 82.4195 85.0198C82.4095 85.3298 82.3595 85.3798 82.0895 85.2498C81.2295 84.8398 80.6695 84.1999 80.5395 83.2299C80.3895 82.1099 81.1195 81.0398 82.2295 80.7398C82.3995 80.6898 82.4195 80.7598 82.4195 80.8898C82.4095 81.5998 82.4095 82.2998 82.4095 83.3198Z" fill="#FBFCFC"/>
</g>
<path d="M143.325 33.8824C143.203 40.6983 143.203 47.5448 143.203 54.5441V57.3866C143.203 64.1108 143.203 70.9879 143.325 77.7121L149.957 78.3845V80.6158H125.506V78.3845L132.077 77.7121C132.199 71.1102 132.199 64.2942 132.199 57.4477V54.5441C132.199 47.6059 132.199 40.6677 132.077 33.8824H123.091L119.851 45.4358H116L116.275 31.3149H159.218L159.494 45.4358H155.734L152.403 33.8824H143.325Z" fill="#926034"/>
<path d="M202.65 59.4344C202.65 68.4816 202.65 72.6384 202.772 77.7427L209.405 78.4151V80.6463H184.953V78.4151L191.524 77.7427C191.647 73.0663 191.647 69.154 191.647 61.2989L178.443 33.8824L174.867 33.5462V31.3149H197.454V33.5462L191.005 34.2186L201.213 56.7448L211.239 34.4325L204.851 33.5767V31.3455H220.072V33.5767L214.723 34.3714L202.65 59.4344Z" fill="#926034"/>
<path d="M273.378 78.0782C269.404 80.4623 264.667 81.96 258.615 81.96C244.249 81.96 232.727 73.3713 232.727 55.9494C232.727 38.3136 245.014 30 259.134 30C264.728 30 268.701 31.3754 272.919 33.7595L272.644 45.7714H268.793L265.217 33.1482C263.719 32.6897 262.16 32.4757 260.479 32.4757C251.371 32.4757 244.219 39.7501 244.219 55.98C244.219 72.3015 251.31 79.362 260.754 79.362C262.588 79.362 264.208 79.0869 265.828 78.5061L269.282 66.158H273.133L273.378 78.0782Z" fill="#926034"/>
<path d="M337.227 34.0956C337.105 40.8198 337.105 47.6968 337.105 54.5739V57.4775C337.105 64.2018 337.105 71.0177 337.227 77.803L342.943 78.3838V80.615H320.416V78.3838L325.887 77.803C326.071 71.2622 326.071 64.3852 326.071 56.8051H308.557C308.557 64.2629 308.557 71.1399 308.741 77.8642L314.151 78.3838V80.615H291.625V78.3838L297.401 77.803C297.462 71.1399 297.462 64.324 297.462 57.4775V54.5739C297.462 47.6968 297.462 40.9115 297.401 34.1567L291.625 33.5759V31.3447H314.151V33.5759L308.741 34.0956C308.557 40.6975 308.557 47.5135 308.557 54.2988H326.071C326.071 47.5746 326.071 40.7587 325.887 34.0956L320.416 33.5759V31.3447H342.943V33.5759L337.227 34.0956Z" fill="#926034"/>
<path d="M399.886 80.6462H361.313V78.415L367.181 77.8343C367.365 71.1712 367.365 64.3553 367.365 57.5088V54.6051C367.365 47.7281 367.365 40.9427 367.181 34.1268L361.313 33.6072V31.376H398.541L398.48 44.5188H394.72L391.725 33.9434H378.521C378.399 40.5454 378.399 47.3613 378.399 54.3606H387.262L388.24 47.0251H391.48V63.744H388.24L387.324 56.7447H378.399V56.928C378.399 64.2636 378.399 71.2629 378.521 78.1399H393.161L396.157 67.045H399.794L399.886 80.6462Z" fill="#926034"/>
</svg>
