<svg width="245" height="245" viewBox="0 0 245 245" fill="none" xmlns="http://www.w3.org/2000/svg">
<path d="M122.81 244.21C54.0803 244.17 -0.529744 187.69 0.720256 119.78C1.94026 53.9904 55.8003 -0.169601 123.13 0.000399115C190.8 0.170399 245.47 55.5204 244.86 123.22C244.26 189.67 190.29 244.14 122.8 244.2L122.81 244.21ZM122.87 233.66C183.2 233.79 233.17 185.27 234.36 124.37C235.58 61.7404 185.55 11.3804 124.53 10.5104C61.7803 9.6104 11.7703 60.1004 11.2103 121.03C10.6503 183.29 61.2103 233.88 122.87 233.66Z" fill="#956134"/>
<path d="M212.66 71.8607C221.75 87.7807 226.09 104.871 225.95 123.071C225.82 140.591 221.4 157.001 212.66 172.281V170.911C212.66 159.281 212.66 147.651 212.66 136.021C212.66 135.581 212.66 135.141 212.66 134.701C212.6 132.851 212.04 132.341 210.22 132.491C209.86 132.521 209.5 132.541 209.15 132.551C205.89 132.571 204.32 134.261 204.32 137.581C204.35 152.531 204.33 167.471 204.41 182.421C204.42 184.541 203.98 186.271 202.43 187.781C201.17 189.001 200.33 190.901 198.88 191.591C197.44 192.271 195.47 191.831 193.73 191.831C175.51 191.831 157.28 191.831 139.06 191.841C138.47 191.841 137.73 191.741 137.32 192.051C136.79 192.441 136.23 193.191 136.24 193.781C136.24 194.291 136.97 194.861 137.49 195.261C137.76 195.471 138.26 195.391 138.66 195.391C148.33 195.391 158 195.391 167.67 195.391C176.46 195.391 185.25 195.391 194.04 195.391C194.35 195.391 194.66 195.441 195.26 195.481C194.78 196.001 194.47 196.381 194.11 196.711C191.75 198.801 189.41 200.931 186.98 202.941C186.46 203.371 185.6 203.561 184.9 203.561C168.76 203.591 152.61 203.591 136.46 203.591C134.09 203.591 133.82 203.841 133.84 206.171C133.85 207.571 133.93 208.961 133.95 210.361C133.97 211.591 134.65 212.051 135.79 212.051C137.75 212.051 139.71 212.051 141.66 212.051C151.89 212.051 162.12 212.031 172.35 212.021C172.58 212.021 172.8 212.041 173.38 212.081C160.29 219.361 146.62 223.591 132.07 224.871C106.68 227.101 86.2899 220.001 72.5899 212.021C72.9899 212.021 73.3899 212.021 73.7899 212.021C85.6199 212.031 97.4499 212.041 109.28 212.051C111.58 212.051 111.75 211.911 111.86 209.671C111.93 208.161 111.92 206.641 111.94 205.121C111.96 204.131 111.42 203.671 110.48 203.601C110.04 203.571 109.6 203.581 109.16 203.581C93.1299 203.581 77.1099 203.571 61.0799 203.601C59.8799 203.601 58.9999 203.251 58.0699 202.491C52.2899 197.781 47.0299 192.541 42.3699 186.731C41.8699 186.111 41.4999 185.171 41.4999 184.381C41.4099 170.511 41.3899 156.651 41.3599 142.781C41.3599 140.821 41.4599 138.871 41.4499 136.911C41.4399 134.281 39.6599 132.551 37.0799 132.541C36.4399 132.541 35.7999 132.481 35.1699 132.461C33.9099 132.421 33.3099 132.911 33.1499 134.151C33.0899 134.581 33.1199 135.031 33.1199 135.471C33.1199 147.461 33.1199 159.451 33.1199 171.441V172.731C25.0799 158.881 20.7099 143.961 19.7999 128.051C18.3599 103.081 26.0799 83.1307 33.0899 71.3207V72.8007C33.0899 85.3107 33.0899 97.8207 33.0899 110.331C33.0899 112.961 33.3099 113.221 35.8999 113.361C37.0099 113.421 38.1299 113.361 39.2499 113.351C40.4599 113.351 41.0699 112.661 41.2499 111.541C41.3199 111.071 41.3099 110.591 41.3099 110.111C41.3099 93.4407 41.3199 76.7807 41.2899 60.1107C41.2899 59.0707 41.6299 58.3107 42.2599 57.5307C46.9799 51.7507 52.2599 46.5707 57.9399 41.7307C60.2899 39.7207 62.8999 38.7907 65.8299 38.4407C72.4599 37.6407 78.8099 38.4107 84.6799 41.8607C85.1599 42.1407 85.8199 42.2107 86.3999 42.2107C91.2699 42.2107 96.1499 42.1507 101.02 42.1507C103.86 42.1507 106.69 42.2107 109.53 42.2207C111.22 42.2207 111.56 41.8907 111.59 40.1907C111.62 38.7107 111.62 37.2307 111.59 35.7507C111.57 34.4207 111.13 33.9507 109.82 33.8107C109.42 33.7707 109.02 33.7907 108.62 33.7907C96.1099 33.7907 83.5999 33.7907 71.0899 33.7907H69.7799C80.4199 27.1807 91.8899 22.8307 104.19 20.6007C116.53 18.3707 128.88 18.3207 141.22 20.5307C153.54 22.7307 165.04 27.1207 175.75 33.7907C175.29 33.7907 174.84 33.7907 174.38 33.7907C161.71 33.7807 149.04 33.7707 136.38 33.7607C134.28 33.7607 134.04 33.9507 133.92 36.0407C133.84 37.5107 133.85 38.9907 133.83 40.4707C133.82 41.5807 134.38 42.1707 135.5 42.2007C135.94 42.2107 136.38 42.2107 136.82 42.2107C153.48 42.2107 170.15 42.2107 186.81 42.1907C187.85 42.1907 188.6 42.5207 189.37 43.1907C194.51 47.6007 199.22 52.4207 203.46 57.7007C203.94 58.3007 204.29 59.1807 204.29 59.9407C204.37 75.1307 204.38 90.3107 204.41 105.501C204.41 106.701 204.24 107.911 204.37 109.091C204.46 109.911 204.84 110.741 205.25 111.471C206.76 114.121 209.34 113.151 211.58 113.161C211.91 113.161 212.39 112.441 212.54 111.971C212.72 111.421 212.66 110.791 212.66 110.191C212.66 97.8807 212.66 85.5707 212.66 73.2607V71.8607ZM197.46 152.241C194.84 151.121 192.49 150.131 190.16 149.101C187.31 147.841 187.29 147.811 185.79 150.511C183.58 154.511 181.16 158.361 177.81 161.531C168.32 170.541 157.06 173.091 144.48 170.441C137.85 169.051 132.17 165.891 127.77 160.611C124.46 156.641 122.32 152.051 120.98 147.131C117.59 134.681 118.02 122.291 122.51 110.201C125.88 101.121 132.26 94.7707 141.49 91.4907C147.9 89.2107 154.48 88.7407 161.2 89.7007C170.94 91.1007 179.27 95.2707 186.08 102.411C186.65 103.011 187.18 103.641 187.76 104.301C190.82 102.021 193.77 99.8107 196.76 97.5807C196.48 97.2307 196.32 97.0007 196.13 96.8007C181.94 81.9507 164.47 76.6607 144.55 80.1707C130.48 82.6507 119.73 90.6507 113.21 103.481C105.49 118.681 104.29 134.591 109.73 150.841C112.91 160.351 118.38 168.271 126.8 173.911C136.88 180.661 148.11 182.501 159.98 181.271C168.34 180.401 175.7 176.921 182.51 172.241C188.6 168.051 192.44 161.951 195.95 155.621C196.54 154.551 196.95 153.391 197.45 152.241H197.46ZM117.44 84.1607C120.37 81.2707 123.4 79.1607 126.7 77.4107C127.01 77.2407 127.26 76.6507 127.27 76.2507C127.29 73.8907 127.27 71.5407 127.2 69.1807C127.16 67.6607 127.34 67.4007 128.83 67.4007C130.79 67.4007 132.74 67.4307 134.7 67.4307C151.84 67.4307 168.98 67.4307 186.12 67.4307C189.2 67.4307 192.27 67.4307 195.35 67.4307C195.89 67.4307 196.44 67.4607 196.44 66.6807C196.44 63.5007 196.44 60.3107 196.44 57.1007H85.3799C85.3999 57.3307 85.3799 57.4607 85.4199 57.5607C86.5399 60.5907 87.6499 63.6207 88.8199 66.6307C88.9399 66.9307 89.4399 67.2407 89.7899 67.2707C90.9399 67.3807 92.0999 67.3907 93.2599 67.3907C100.73 67.4107 108.2 67.4207 115.67 67.4307C117.26 67.4307 117.38 67.5407 117.38 69.1207C117.38 73.5607 117.38 77.9907 117.38 82.4307C117.38 82.8907 117.42 83.3607 117.46 84.1607H117.44ZM73.1699 143.251C71.7799 143.401 70.3799 143.471 69.0199 143.731C60.2799 145.361 53.8699 150.181 49.7799 158.061C46.4299 164.511 45.4599 171.181 48.1499 178.141C56.1399 198.841 80.9099 200.761 92.5499 187.781C98.0599 181.641 100.98 174.681 99.8099 166.321C97.9799 153.231 86.5099 143.351 73.1799 143.251H73.1699ZM180.58 126.211C179.63 115.831 170.49 104.221 156.56 104.061C149.95 103.991 144.14 106.361 139.38 111.021C135.16 115.151 133.07 120.371 131.87 126.041C135.64 126.041 139.26 126.061 142.88 126.001C143.19 126.001 143.67 125.481 143.78 125.111C145.06 121.061 147.64 118.181 151.51 116.481C152.2 116.181 152.46 115.751 152.46 115.021C152.46 113.421 152.53 111.831 152.54 110.231C152.54 109.351 152.91 108.891 153.81 108.851C154.96 108.811 156.12 108.751 157.27 108.711C158.27 108.671 158.75 109.141 158.73 110.151C158.71 111.631 158.73 113.111 158.69 114.581C158.66 115.401 158.93 115.771 159.78 115.951C162.35 116.481 164.72 117.491 166.78 119.161C167.85 120.031 167.86 120.401 167.11 121.561C166.17 123.011 165.31 124.521 164.3 126.211H180.57H180.58ZM152.96 132.901C153.61 134.731 155.8 136.381 157.44 136.051C158.92 135.751 160.42 135.191 161.73 134.441C163.49 133.441 163.52 133.381 164.73 135.081C165.48 136.151 166.36 137.151 167.29 138.071C168.45 139.211 168.5 139.691 167.2 140.721C165.03 142.441 162.56 143.521 159.86 144.041C158.97 144.211 158.67 144.621 158.71 145.511C158.77 146.751 158.74 147.991 158.71 149.221C158.68 150.341 158.12 150.801 157.04 150.721C156.05 150.651 155.05 150.581 154.06 150.581C153.06 150.581 152.59 150.131 152.6 149.131C152.61 147.691 152.56 146.251 152.61 144.821C152.64 143.881 152.3 143.411 151.39 143.071C150.4 142.701 149.43 142.161 148.61 141.491C146.28 139.571 144.65 137.111 143.74 134.231C143.41 133.181 142.87 132.891 141.84 132.921C138.77 133.001 135.69 133.011 132.62 133.051C132.4 133.051 132.17 133.121 131.86 133.181C132.04 133.941 132.18 134.631 132.37 135.321C136.76 151.441 152.26 157.401 165.27 152.551C173.51 149.481 178.2 143.001 180.39 134.621C180.82 132.981 180.7 132.861 178.96 132.861C170.73 132.861 162.5 132.861 154.27 132.861C153.88 132.861 153.49 132.891 152.97 132.921L152.96 132.901ZM59.4599 108.511C59.5099 108.561 59.5699 108.621 59.6199 108.671C59.7599 108.611 59.9199 108.581 60.0399 108.491C61.9299 107.031 63.8399 105.591 65.6799 104.071C66.7299 103.201 66.9399 103.221 68.2299 104.441C69.1199 105.281 68.4999 105.711 67.9399 106.261C64.8899 109.241 61.4299 111.701 57.7299 113.751C55.1399 115.181 52.2699 116.141 49.4599 117.131C47.8599 117.691 47.6199 117.841 48.1899 119.501C48.4199 119.501 48.6599 119.521 48.8899 119.501C49.1699 119.471 49.4399 119.421 49.7099 119.351C53.8799 118.361 57.7099 116.541 61.1799 114.121C64.3199 111.931 67.2099 109.401 70.2299 107.051C70.5599 106.791 71.2199 106.521 71.4599 106.671C72.0699 107.051 72.5499 107.661 73.0399 108.231C73.0999 108.301 72.9399 108.701 72.7799 108.831C70.0199 111.131 67.3599 113.561 64.4499 115.651C59.8199 118.981 54.7299 121.441 49.2199 122.991C47.6499 123.431 47.4399 123.941 48.1699 125.311C48.5799 125.261 49.0299 125.271 49.4399 125.161C57.6099 122.941 64.6699 118.701 71.0399 113.231C72.0499 112.361 72.1099 112.331 73.5399 113.861C74.1899 114.561 73.6699 115.041 73.1699 115.451C70.3999 117.661 67.6299 119.881 64.7999 122.021C64.1599 122.501 63.8199 122.941 63.8299 123.751C63.8599 127.711 63.8799 131.661 63.8199 135.621C63.7999 136.761 64.2899 136.901 65.2399 136.921C66.2699 136.941 66.4999 136.541 66.4799 135.581C66.4099 132.621 66.4499 129.671 66.4299 126.711C66.4299 125.981 66.5499 125.481 67.4699 125.491C69.7499 125.531 72.0199 125.521 74.2999 125.511C75.0099 125.511 75.3299 125.831 75.3399 126.511C75.3799 128.791 75.4299 131.061 75.4499 133.341C75.4699 134.981 74.2099 134.401 73.3699 134.491C72.3899 134.591 72.2799 133.921 72.2799 133.181C72.2799 132.341 72.3499 131.501 72.2899 130.671C72.1799 129.021 71.7799 128.811 70.0399 129.361V136.791H77.8699C77.8699 134.861 77.8799 133.031 77.8699 131.201C77.8299 125.811 77.7999 120.421 77.7199 115.041C77.7199 114.741 77.3099 114.221 77.0399 114.191C76.1799 114.081 75.9999 113.561 75.9699 112.871C75.9199 111.311 75.8099 109.761 75.8599 108.201C75.8899 107.241 75.5399 106.781 74.6699 106.431C71.9799 105.361 69.4699 103.991 67.4999 101.791C67.0299 101.271 66.5599 100.741 66.1899 100.341C63.8999 103.121 61.6599 105.831 59.4299 108.531L59.4599 108.511ZM84.9699 88.6707C84.1299 81.9007 83.4799 75.3807 81.7399 69.0507C78.6299 69.6407 73.5999 74.8107 72.7699 78.1407C72.8399 78.1607 72.9299 78.2207 72.9899 78.2107C73.3399 78.1207 73.6799 78.0307 74.0199 77.9207C76.2399 77.2507 78.4799 76.9407 80.6599 78.0107C81.1799 78.2707 81.7499 78.8007 81.8799 79.3107C81.9599 79.6207 81.2699 80.2007 80.8399 80.5407C80.0599 81.1307 79.1099 81.5107 78.9499 82.7007C78.9199 82.9207 78.1399 83.2907 77.8299 83.1907C76.5499 82.7907 75.3399 82.1807 74.0699 81.7607C73.3099 81.5107 72.4099 81.1707 71.7199 81.3707C70.2599 81.7907 69.0999 82.8107 68.6599 84.3307C67.7299 87.5107 67.6299 90.7007 68.8699 93.8307C70.7999 98.7207 73.9599 100.811 78.9699 100.531C80.4299 100.451 81.6799 99.7707 81.8099 98.7707C81.9499 97.6907 81.8399 96.5807 81.8399 95.3107C80.7699 95.3107 79.7799 95.3407 78.7899 95.3107C78.0399 95.2807 77.6399 94.9107 77.6999 94.0707C77.7599 93.2507 78.0799 92.8307 78.9599 92.8607C79.9799 92.9007 80.9999 92.8607 81.9999 92.8607C82.1899 91.1007 82.1799 91.0507 80.8299 91.0907C80.0399 91.1107 79.4899 90.9807 79.5199 90.0207C79.5399 89.1307 79.8299 88.6007 80.8599 88.6507C82.1699 88.7107 83.4799 88.6707 84.9799 88.6707H84.9699ZM117.43 197.901C120.62 197.901 123.65 197.921 126.67 197.861C126.91 197.861 127.33 197.231 127.34 196.891C127.36 192.501 127.33 188.111 127.25 183.721C127.25 183.311 126.89 182.761 126.53 182.521C123.88 180.761 121.18 179.061 118.5 177.341C118.19 177.141 117.88 176.951 117.44 176.661V197.891L117.43 197.901ZM97.8899 136.741C97.6399 134.471 97.5999 132.271 97.1399 130.151C95.7899 123.941 91.4699 120.181 85.6299 119.801C84.6499 119.741 84.3799 120.011 84.3899 120.961C84.4299 125.831 84.4299 130.701 84.3899 135.571C84.3899 136.541 84.6599 136.901 85.6699 136.891C89.3399 136.841 93.0099 136.871 96.6799 136.871C97.0199 136.871 97.3699 136.801 97.8999 136.741H97.8899ZM52.5399 70.9307C53.9599 71.1607 54.8599 71.1207 55.6799 69.8807C57.8399 66.6207 60.6299 63.9707 64.1399 62.1007C67.8199 60.1407 71.6899 58.7007 75.6899 57.6007C76.4299 57.4007 77.1699 57.1507 77.9299 56.9207C77.2966 55.614 76.3532 55.0974 75.0999 55.3707C74.0899 55.5907 73.0699 55.7907 72.0699 56.0507C64.6299 57.9907 58.4599 61.8207 54.0399 68.2207C53.4899 69.0207 53.0899 69.9307 52.5399 70.9207V70.9307ZM188.95 179.071C186.16 179.071 183.36 179.071 180.57 179.071C179.31 179.071 178.59 179.731 178.59 180.801C178.59 181.801 179.3 182.491 180.5 182.491C186.05 182.511 191.59 182.521 197.14 182.491C198.33 182.491 199.21 181.561 199.15 180.561C199.1 179.591 198.4 179.071 197.08 179.071C194.37 179.061 191.65 179.071 188.94 179.071H188.95ZM100.08 77.5207C102.71 77.5207 105.34 77.5207 107.97 77.5207C109.24 77.5207 110.1 76.8307 110.14 75.8007C110.18 74.7507 109.41 74.0907 108.01 74.0807C102.75 74.0607 97.4899 74.0607 92.2299 74.0807C90.9699 74.0807 90.1199 74.8507 90.1299 75.8807C90.1299 76.9007 90.8899 77.5207 92.1899 77.5207C94.8199 77.5207 97.4499 77.5207 100.08 77.5207ZM70.6799 72.1507C69.0599 71.7107 67.9399 72.3507 66.9299 73.3707C65.0199 75.2807 62.7499 76.6207 60.0699 77.0307C58.4599 77.2707 56.8099 77.2207 55.1799 77.2807C52.8999 77.3707 50.5999 77.4407 48.7199 79.0107C47.8799 79.7107 47.0799 80.4607 46.8699 81.9707C50.3599 79.9107 54.0299 80.0207 57.6399 79.9407C63.4499 79.8307 67.7999 77.3607 70.6699 72.1507H70.6799ZM57.5099 126.181C54.3799 127.171 51.3599 128.111 48.3599 129.131C48.1199 129.211 47.9699 129.851 47.9899 130.221C47.9899 130.411 48.4699 130.711 48.7399 130.721C49.9799 130.771 51.2099 130.721 52.4499 130.721C55.0099 130.721 54.9999 130.721 54.9899 133.301C54.9899 134.151 54.6799 134.541 53.7899 134.511C52.2299 134.461 50.6799 134.521 49.1199 134.471C48.2299 134.441 47.9299 134.771 47.9299 135.651C47.9299 136.481 48.1199 136.911 49.0599 136.881C50.4199 136.831 51.7699 136.871 53.1299 136.881C54.5999 136.881 56.0599 136.881 57.5099 136.881V126.201V126.181ZM98.7699 120.871C100.01 119.171 99.9799 116.821 98.8599 115.411C95.3299 110.971 90.5399 109.461 85.1099 109.431C84.7899 109.431 84.1999 109.611 84.1899 109.761C84.0899 110.581 83.9999 111.441 84.1899 112.231C84.2499 112.491 85.1099 112.691 85.6199 112.711C90.8499 112.901 95.0099 114.981 97.8399 119.481C98.1299 119.941 98.4499 120.371 98.7799 120.861L98.7699 120.871ZM101.79 87.3607C101.79 87.3607 101.79 87.3007 101.79 87.2707C99.7499 87.2707 97.7199 87.2207 95.6799 87.2907C94.8699 87.3207 94.0099 87.5107 93.2699 87.8307C92.5599 88.1407 91.9099 88.8507 92.3099 89.6407C92.5699 90.1507 93.3899 90.6507 93.9599 90.6607C98.6699 90.7407 103.38 90.7207 108.08 90.7007C109.28 90.7007 110.09 89.9207 110.1 88.9207C110.11 87.9407 109.42 87.3707 108.12 87.3507C106 87.3307 103.89 87.3507 101.77 87.3507L101.79 87.3607ZM58.9499 73.0407C61.9799 73.2607 62.2799 73.0007 64.0899 71.3107C65.2199 70.2507 66.6299 69.3907 68.0499 68.7507C70.4299 67.6807 72.9399 66.8807 75.3699 65.9107C77.1299 65.2107 78.8499 64.4107 80.5899 63.6607C79.7199 61.4407 79.6999 61.4007 77.6499 62.2207C74.4999 63.4707 71.4099 64.8607 68.2399 66.0407C65.7199 66.9707 63.4799 68.2807 61.5799 70.1507C60.7199 71.0007 59.9499 71.9407 58.9499 73.0507V73.0407ZM104.66 100.691C99.0799 100.691 93.8699 100.661 88.6499 100.721C87.6799 100.721 87.0599 101.741 87.3099 102.611C87.5599 103.491 88.1599 103.901 89.0899 103.901C93.4799 103.901 97.8699 103.911 102.26 103.901C102.59 103.901 103.09 103.801 103.22 103.581C103.72 102.751 104.1 101.851 104.66 100.701V100.691ZM93.9299 195.091C94.4699 195.161 94.8399 195.241 95.2199 195.251C97.7299 195.301 100.24 195.361 102.76 195.371C104.67 195.381 106.59 195.391 108.5 195.291C109.71 195.231 110.28 194.491 110.18 193.421C110.09 192.471 109.34 191.871 108.25 191.871C104.98 191.881 101.71 191.901 98.4499 191.911C95.4499 191.921 95.7399 192.061 93.9399 195.091H93.9299ZM47.8099 94.2607C47.6699 95.3507 47.3899 96.1507 48.5799 96.4107C52.6299 97.2907 56.3499 96.6507 59.5899 93.9807C61.0799 92.7507 62.1699 91.2207 62.5099 89.1207C58.0499 92.1907 53.6999 95.4807 47.8099 94.2707V94.2607ZM58.5799 84.6407C58.5299 84.4907 58.4799 84.3407 58.4199 84.1907C57.3399 84.3707 56.1099 84.2707 55.2199 84.7807C53.1799 85.9507 51.1099 86.6507 48.7399 86.5307C48.3499 86.5107 47.9399 86.9107 47.5299 87.1207C47.8999 87.5107 48.2199 88.1807 48.6399 88.2407C50.0099 88.4507 51.4299 88.6407 52.7899 88.4907C55.3299 88.2007 57.2799 86.8507 58.5599 84.6407H58.5799ZM106.17 182.741C106.89 182.751 107.61 182.751 108.33 182.751C108.41 182.751 108.49 182.751 108.57 182.751C109.67 182.691 110.2 182.101 110.2 180.981C110.2 179.941 109.64 179.321 108.59 179.331C107.27 179.341 105.96 179.411 104.64 179.511C103 179.641 102.76 179.941 102.58 181.581C102.49 182.351 102.78 182.731 103.53 182.741C104.41 182.761 105.29 182.741 106.17 182.741ZM152.66 126.161H161.78C160.09 124.361 158.42 123.421 156.33 123.711C154.81 123.921 153.51 124.671 152.66 126.161ZM56.8199 48.3507C56.2399 48.8207 55.6399 49.1807 55.2599 49.7007C55.1099 49.9107 55.3299 50.5407 55.5499 50.8507C56.4499 52.0707 57.4299 53.2307 58.3499 54.4407C58.7899 55.0207 59.2199 55.2107 59.8299 54.6807C60.3899 54.2107 60.8599 53.7807 60.2999 52.9907C59.3799 51.6907 58.4999 50.3507 57.5799 49.0407C57.4099 48.8007 57.1299 48.6307 56.8099 48.3507H56.8199ZM54.5299 59.5307C54.1999 59.3707 53.8499 59.2607 53.5599 59.0507C52.7799 58.4907 52.0199 57.9207 51.2799 57.3107C49.6299 55.9407 49.6699 55.9507 48.5099 57.7407C48.0599 58.4407 48.2399 58.8107 48.8799 59.1707C49.9899 59.8007 51.0699 60.4807 52.1999 61.0807C52.5399 61.2607 53.1499 61.4307 53.3699 61.2607C53.7799 60.9507 53.9899 60.3807 54.5299 59.5307ZM68.2499 50.0007C67.8799 48.2407 67.5699 46.7607 67.2799 45.2907C67.1699 44.7107 67.1099 44.0607 66.2799 44.5007C65.6399 44.8407 64.2299 44.4307 64.6499 45.9207C65.0599 47.3707 65.5399 48.8007 66.0999 50.2007C66.2199 50.4907 66.8299 50.8107 67.1399 50.7507C67.5599 50.6707 67.9199 50.2407 68.2499 50.0007ZM45.7499 65.6507C45.5899 65.8707 45.0799 66.2407 45.1099 66.5607C45.1799 67.2607 44.3299 68.3507 45.6799 68.6307C46.7999 68.8607 47.9599 68.9707 49.0999 69.0107C49.3799 69.0207 49.8999 68.5507 49.9099 68.2907C49.9299 67.6807 50.6699 66.7907 49.5599 66.4707C48.4199 66.1407 47.2399 65.9607 45.7499 65.6507ZM78.1099 44.9007C77.4399 44.7307 76.9299 44.6607 76.4599 44.4807C75.6299 44.1407 75.2499 44.5007 75.0999 45.2707C74.8999 46.3307 74.6699 47.3807 74.5699 48.4507C74.5399 48.7707 74.8899 49.4107 75.0799 49.4107C75.5599 49.4107 76.3099 49.2907 76.4699 48.9707C77.0899 47.7307 77.5199 46.4007 78.0999 44.9007H78.1099Z" fill="#956134"/>
<path d="M95.1297 175.361C93.6297 179.921 91.3597 183.871 87.6397 186.871C75.1897 196.901 58.2397 191.171 52.5697 178.141C52.5397 178.071 52.4997 178.001 52.4697 177.921C52.2097 177.171 51.9397 176.431 51.6797 175.681C52.3797 175.541 53.0697 175.421 53.7597 175.261C56.0797 174.741 57.7497 172.861 57.9997 170.501C58.2197 168.411 56.5597 165.481 54.5997 164.761C53.7697 164.451 52.8197 164.461 51.7797 164.301C51.9197 163.731 52.0297 163.151 52.2197 162.601C55.6497 152.761 65.3297 146.361 75.6497 147.641C84.2097 148.711 90.4697 153.331 93.9697 161.401C94.0197 161.511 94.0697 161.621 94.1097 161.731C94.3797 162.481 94.9597 163.281 94.8397 163.961C94.6397 165.071 93.4997 164.311 92.7997 164.521C90.5097 165.181 88.4697 167.791 88.5997 170.061C88.7697 172.791 90.6997 174.891 93.3597 175.211C93.9097 175.281 94.4597 175.321 95.1097 175.381L95.1297 175.361ZM79.7597 171.771C78.2797 171.721 76.8297 171.311 75.6597 172.851C75.2297 173.421 74.1097 173.741 73.3297 173.711C71.6397 173.651 70.4397 172.671 69.8797 171.021C69.2997 169.291 69.7597 167.771 71.0197 166.531C72.3497 165.211 74.6497 164.991 75.6397 166.281C76.7997 167.801 78.1497 167.601 79.6697 167.381C78.8997 164.341 75.7997 162.361 72.5797 162.791C69.4197 163.211 66.6697 166.421 66.6997 169.671C66.7297 173.151 69.4997 176.141 73.0197 176.511C76.0797 176.831 79.1397 174.711 79.7697 171.771H79.7597ZM70.9897 159.231C71.0597 158.861 71.1097 158.471 71.1997 158.081C71.5097 156.681 72.2597 156.021 73.4497 156.081C74.7397 156.151 75.4397 156.891 75.4897 158.371C75.5197 159.071 75.7497 159.411 76.4597 159.401C76.9597 159.391 77.4697 159.401 78.1297 159.401C78.0297 158.461 78.0197 157.701 77.8597 156.981C77.2797 154.491 75.3997 153.221 72.6997 153.421C70.4797 153.581 68.9897 155.171 68.7597 157.621C68.5697 159.531 68.8297 159.721 70.9897 159.221V159.231ZM68.6997 179.801C68.7397 181.891 68.7997 183.821 70.6397 185.041C72.3697 186.191 74.2897 186.381 76.0597 185.271C78.0497 184.031 78.0997 181.951 78.0397 179.851H75.6097C75.5697 180.471 75.5597 181.021 75.4897 181.561C75.3697 182.531 74.7997 183.171 73.8597 183.401C72.8897 183.641 72.1097 183.231 71.6397 182.381C71.4197 181.981 71.2897 181.481 71.2697 181.021C71.2397 180.051 70.8197 179.651 69.8497 179.791C69.5397 179.831 69.2197 179.791 68.6797 179.791L68.6997 179.801ZM59.9197 163.051C61.1397 161.571 62.2397 160.121 63.4697 158.771C64.5297 157.611 64.6097 157.421 63.6497 155.861C61.5497 157.651 59.6797 159.581 58.4197 162.101C59.0397 162.491 59.5297 162.811 59.9197 163.051ZM58.4297 177.381C59.6897 179.871 61.4497 181.751 64.0097 183.321C64.0097 182.371 64.2797 181.491 63.9597 181.081C62.7197 179.491 61.2897 178.041 59.8697 176.471C59.4497 176.731 58.9897 177.021 58.4297 177.381ZM88.3297 162.241C86.8997 159.691 85.2797 157.511 82.7597 156.051C82.7197 156.791 82.6197 157.621 82.9597 158.131C84.0797 159.811 85.3697 161.371 86.6397 163.031C87.1097 162.811 87.5997 162.581 88.3297 162.231V162.241ZM82.8597 183.111C85.1897 181.671 86.8797 179.821 88.1897 177.471C87.5997 177.121 87.1097 176.831 86.5697 176.511C85.5797 177.721 84.6997 178.951 83.6597 180.011C82.8197 180.871 82.4797 181.751 82.8597 183.111Z" fill="#956134"/>
<path d="M54.4405 169.91C54.4505 171.14 53.6805 171.92 52.4505 171.92C51.2305 171.92 50.6005 171.25 50.5805 169.96C50.5605 168.64 51.2905 167.81 52.4505 167.83C53.6005 167.85 54.4305 168.72 54.4405 169.91Z" fill="#956134"/>
<path d="M96.1594 169.901C96.1394 171.171 95.3494 171.971 94.1794 171.921C93.0994 171.871 92.2794 170.971 92.3094 169.861C92.3394 168.731 93.2894 167.791 94.3694 167.821C95.4894 167.851 96.1894 168.661 96.1594 169.891V169.901Z" fill="#956134"/>
<path d="M90.5996 130.651C90.2496 128.831 89.2996 127.611 88.0296 126.591C86.9996 125.771 86.5096 124.301 86.9296 123.131C87.2296 122.291 87.8796 122.561 88.4296 122.771C90.5996 123.601 92.1696 125.161 93.3896 127.091C94.6196 129.041 94.9696 131.231 95.0796 133.481C95.1096 134.161 94.7796 134.491 94.0696 134.481C91.9996 134.461 89.9196 134.511 87.8496 134.431C87.5196 134.421 86.9496 133.861 86.9496 133.541C86.8696 130.411 86.7196 130.771 89.3796 130.701C89.7296 130.701 90.0796 130.661 90.6196 130.631L90.5996 130.651Z" fill="#956134"/>
</svg>
