<svg width="35" height="35" viewBox="0 0 35 35" fill="none" xmlns="http://www.w3.org/2000/svg">
<g clip-path="url(#clip0_247_50)">
<path d="M17.5005 33.1059C26.1194 33.1059 33.1064 26.1189 33.1064 17.5C33.1064 8.88106 26.1194 1.89404 17.5005 1.89404C8.88154 1.89404 1.89453 8.88106 1.89453 17.5C1.89453 26.1189 8.88154 33.1059 17.5005 33.1059Z" fill="white"/>
<path d="M17.5 0C14.0388 0 10.6554 1.02636 7.77753 2.94928C4.89967 4.87221 2.65665 7.60533 1.33212 10.803C0.00758242 14.0007 -0.338976 17.5194 0.336265 20.9141C1.01151 24.3088 2.67822 27.427 5.12564 29.8744C7.57306 32.3218 10.6913 33.9885 14.0859 34.6637C17.4806 35.339 20.9993 34.9924 24.197 33.6679C27.3947 32.3434 30.1278 30.1003 32.0507 27.2225C33.9736 24.3446 35 20.9612 35 17.5C35.0067 15.2085 34.562 12.9382 33.6912 10.8186C32.8205 8.69903 31.5408 6.7717 29.9252 5.14667C28.3097 3.52164 26.3898 2.23074 24.2753 1.34768C22.1609 0.464609 19.8932 0.00666766 17.6017 0H17.5ZM17.7966 18.0932L15.9746 24.2373H25.7203C25.7849 24.235 25.8493 24.2455 25.9098 24.2681C25.9703 24.2908 26.0257 24.3251 26.073 24.3692C26.1202 24.4133 26.1583 24.4662 26.185 24.525C26.2117 24.5838 26.2266 24.6473 26.2288 24.7119V24.8729L25.3814 27.7966C25.344 27.9349 25.2607 28.0563 25.1452 28.141C25.0297 28.2257 24.8889 28.2686 24.7458 28.2627H9.83052L12.3305 19.7458L9.53391 20.5932L10.1695 18.6441L12.9661 17.7966L16.4831 5.84746C16.5218 5.70997 16.6054 5.58939 16.7206 5.50492C16.8357 5.42045 16.9759 5.37696 17.1187 5.38136H20.8898C20.9544 5.37909 21.0188 5.38957 21.0793 5.41221C21.1398 5.43484 21.1952 5.46917 21.2424 5.51325C21.2897 5.55732 21.3277 5.61028 21.3545 5.66908C21.3812 5.72788 21.3961 5.79137 21.3983 5.85593V6.01695L18.4322 16.1017L21.2288 15.2542L20.6356 17.2881L17.7966 18.0932Z" fill="#345D9D"/>
</g>
<defs>
<clipPath id="clip0_247_50">
<rect width="35" height="35" fill="white"/>
</clipPath>
</defs>
</svg>
