<svg width="35" height="35" viewBox="0 0 35 35" fill="none" xmlns="http://www.w3.org/2000/svg">
<g clip-path="url(#clip0_251_165)">
<path d="M17 28.7012C22.9102 28.7012 27.7012 23.9102 27.7012 18C27.7012 12.0899 22.9102 7.29883 17 7.29883C11.0899 7.29883 6.29883 12.0899 6.29883 18C6.29883 23.9102 11.0899 28.7012 17 28.7012Z" fill="white"/>
<path d="M17 6C14.6266 6 12.3066 6.70379 10.3332 8.02236C8.35977 9.34094 6.8217 11.2151 5.91345 13.4078C5.0052 15.6005 4.76756 18.0133 5.23058 20.3411C5.6936 22.6689 6.83649 24.8071 8.51472 26.4853C10.193 28.1635 12.3312 29.3064 14.6589 29.7694C16.9867 30.2324 19.3995 29.9948 21.5922 29.0866C23.7849 28.1783 25.6591 26.6402 26.9776 24.6668C28.2962 22.6935 29 20.3734 29 18C29.0046 16.4287 28.6996 14.8719 28.1026 13.4185C27.5055 11.965 26.628 10.6435 25.5202 9.52915C24.4123 8.41484 23.0959 7.52965 21.646 6.92412C20.196 6.31859 18.641 6.00457 17.0697 6H17ZM17.2034 18.4068L15.954 22.6199H22.6368C22.6811 22.6183 22.7252 22.6255 22.7667 22.641C22.8082 22.6565 22.8462 22.6801 22.8786 22.7103C22.911 22.7405 22.9371 22.7768 22.9554 22.8171C22.9738 22.8575 22.984 22.901 22.9855 22.9453V23.0557L22.4044 25.0605C22.3787 25.1553 22.3216 25.2386 22.2424 25.2967C22.1632 25.3548 22.0667 25.3842 21.9685 25.3801H11.7409L13.4552 19.54L11.5375 20.1211L11.9734 18.7845L13.891 18.2034L16.3027 10.0097C16.3292 9.91541 16.3865 9.83272 16.4655 9.7748C16.5445 9.71688 16.6406 9.68705 16.7385 9.69007H19.3245C19.3687 9.68852 19.4129 9.69571 19.4544 9.71123C19.4958 9.72674 19.5339 9.75029 19.5662 9.78051C19.5986 9.81074 19.6247 9.84705 19.6431 9.88737C19.6614 9.92769 19.6716 9.97123 19.6731 10.0155V10.1259L17.6392 17.0412L19.5569 16.46L19.1501 17.8547L17.2034 18.4068Z" fill="#345D9D"/>
</g>
<defs>
<clipPath id="clip0_251_165">
<rect width="24" height="24" fill="white" transform="translate(5 6)"/>
</clipPath>
</defs>
</svg>
