<svg width="151" height="150" viewBox="0 0 151 150" fill="none" xmlns="http://www.w3.org/2000/svg">
<path d="M113.07 81.2506L131.82 100.001V125.001C131.82 128.316 130.503 131.495 128.159 133.839C125.815 136.184 122.636 137.501 119.32 137.501H31.8203C28.5051 137.501 25.3257 136.184 22.9815 133.839C20.6373 131.495 19.3203 128.316 19.3203 125.001V100.001L38.0703 81.2506H43.2578L55.7578 93.7506H42.9453L31.8203 106.251H119.32L108.258 93.7506H96.3203L108.82 81.2506H113.07ZM119.32 125.001V118.751H31.8203V125.001H119.32ZM71.4453 93.7506L40.5078 62.9381C39.9284 62.3599 39.4687 61.6731 39.1551 60.917C38.8415 60.1609 38.68 59.3504 38.68 58.5318C38.68 57.7133 38.8415 56.9028 39.1551 56.1467C39.4687 55.3906 39.9284 54.7038 40.5078 54.1256L80.3203 14.3131C80.8926 13.7312 81.5759 13.2702 82.3297 12.9574C83.0835 12.6447 83.8924 12.4865 84.7085 12.4923C85.5246 12.4982 86.3313 12.6679 87.0805 12.9914C87.8298 13.3149 88.5064 13.7856 89.0703 14.3756L120.008 45.3131C122.445 47.7506 122.445 51.6881 120.008 54.1256L80.2578 93.7506C79.696 94.3584 79.0146 94.8434 78.2563 95.1751C77.498 95.5069 76.6792 95.6781 75.8516 95.6781C75.0239 95.6781 74.2052 95.5069 73.4469 95.1751C72.6886 94.8434 72.0071 94.3584 71.4453 93.7506ZM84.6953 27.5631L53.6953 58.5006L75.8828 80.6256L106.82 49.6881L84.6953 27.5631Z" fill="#BBBBBB"/>
</svg>
