<svg width="150" height="150" viewBox="0 0 150 150" fill="none" xmlns="http://www.w3.org/2000/svg">
<path d="M112.5 81.2496L131.25 99.9996V125C131.25 128.315 129.933 131.494 127.589 133.838C125.245 136.183 122.065 137.5 118.75 137.5H31.25C27.9348 137.5 24.7554 136.183 22.4112 133.838C20.067 131.494 18.75 128.315 18.75 125V99.9996L37.5 81.2496H42.6875L55.1875 93.7496H42.375L31.25 106.25H118.75L107.687 93.7496H95.75L108.25 81.2496H112.5ZM118.75 125V118.75H31.25V125H118.75ZM70.875 93.7496L39.9375 62.9371C39.3581 62.3589 38.8984 61.6721 38.5848 60.916C38.2712 60.1599 38.1097 59.3494 38.1097 58.5308C38.1097 57.7123 38.2712 56.9018 38.5848 56.1457C38.8984 55.3896 39.3581 54.7028 39.9375 54.1246L79.75 14.3121C80.3223 13.7302 81.0056 13.2692 81.7594 12.9565C82.5132 12.6437 83.3221 12.4855 84.1382 12.4914C84.9543 12.4972 85.7609 12.6669 86.5102 12.9904C87.2595 13.3139 87.9361 13.7846 88.5 14.3746L119.438 45.3121C121.875 47.7496 121.875 51.6871 119.438 54.1246L79.6875 93.7496C79.1257 94.3574 78.4443 94.8424 77.686 95.1742C76.9277 95.5059 76.1089 95.6771 75.2813 95.6771C74.4536 95.6771 73.6348 95.5059 72.8765 95.1742C72.1182 94.8424 71.4368 94.3574 70.875 93.7496ZM84.125 27.5621L53.125 58.4996L75.3125 80.6246L106.25 49.6871L84.125 27.5621Z" fill="#F8F8F8"/>
</svg>
