<svg width="35" height="35" viewBox="0 0 35 35" fill="none" xmlns="http://www.w3.org/2000/svg">
<circle cx="17" cy="17" r="12" fill="white"/>
<path d="M21.475 11.1868L18.6135 15.4382C18.4156 15.7277 18.7961 16.0782 19.0701 15.8344L21.886 13.3811C21.9621 13.3201 22.0687 13.3658 22.0687 13.4725V21.1373C22.0687 21.2439 21.9317 21.2897 21.8708 21.2135L13.3469 11.0039C13.073 10.6687 12.6772 10.4858 12.2358 10.4858H11.9314C11.1399 10.4858 10.4854 11.1411 10.4854 11.9487V22.7373C10.4854 23.5449 11.1399 24.2001 11.9466 24.2001C12.4489 24.2001 12.9207 23.9411 13.1947 23.4992L16.0563 19.2477C16.2542 18.9582 15.8737 18.6077 15.5997 18.8516L12.7838 21.2897C12.7076 21.3506 12.6011 21.3049 12.6011 21.1982V13.5487C12.6011 13.442 12.7381 13.3963 12.799 13.4725L21.3228 23.682C21.5968 24.0173 22.0078 24.2001 22.434 24.2001H22.7384C23.5451 24.2001 24.1996 23.5449 24.1996 22.7373V11.9487C24.1996 11.1411 23.5451 10.4858 22.7384 10.4858C22.2209 10.4858 21.749 10.7449 21.475 11.1868Z" fill="black"/>
</svg>
