<svg width="35" height="35" viewBox="0 0 35 35" fill="none" xmlns="http://www.w3.org/2000/svg">
<path d="M17 29C23.6274 29 29 23.6274 29 17C29 10.3726 23.6274 5 17 5C10.3726 5 5 10.3726 5 17C5 23.6274 10.3726 29 17 29Z" fill="#3D8130"/>
<path d="M21.5701 20.9095L21.5654 20.9048L21.5701 20.9095Z" fill="#3D8130"/>
<path d="M12.1301 14.5157L11.591 15.5657L11.0332 16.6673L10.6395 17.6985L10.377 18.7954L10.2129 19.9954L10.1145 21.0313L10.002 21.711L10.1145 22.2407L10.3066 22.6954L10.6629 23.3235L11.4879 23.8392L12.0973 24.0782C12.2473 24.1251 12.4066 24.172 12.5426 24.2142L13.2645 24.3454L14.2957 24.3923H15.1488C15.2473 24.3923 16.1098 24.3454 16.1145 24.3407L17.2113 24.3595L18.2707 24.2282L18.7301 24.036L19.0441 23.661L19.0582 23.1642C19.0395 23.122 18.9785 22.9626 18.9598 22.9017C18.9457 22.8595 18.7348 22.611 18.5426 22.3954L18.5379 22.3907C18.4535 22.2688 18.3176 22.0579 18.3176 21.9876C18.3176 21.9173 18.402 21.711 18.4207 21.6735L18.4301 21.6548L18.8707 21.5282L19.1613 21.7392L19.4238 21.5938L19.7191 21.2985L20.2348 20.9188L20.7035 20.6517L21.0738 20.5813L21.5613 20.9142L21.5285 20.8767L21.7301 20.6985L21.9176 20.3892V20.0657L21.8801 19.972L21.641 20.1642L21.2145 20.286H21.2051L20.5488 20.272L19.5973 20.3704L19.2973 20.4032L19.0676 20.3704L18.4535 20.286L17.7598 20.1548L16.6395 19.972H16.6348L15.5613 19.5267L14.6191 18.9829L14.0426 18.5938L13.9863 18.3173L14.0613 18.0595L14.291 17.8907L14.8254 18.0126L15.9926 18.3735C16.5645 18.4907 17.4363 18.6642 17.4926 18.6688C17.5207 18.6688 17.6332 18.6876 17.9145 18.7345C18.2145 18.7813 18.627 18.8517 18.7113 18.8517C18.8566 18.8517 19.977 18.9126 20.0426 18.9173C20.1035 18.9173 21.0129 18.8985 21.1113 18.8985C21.177 18.8985 21.5285 18.7813 21.7395 18.7063L22.0582 18.3267L22.3629 17.797C22.3816 17.6423 22.3629 17.4876 22.3066 17.3423C22.2316 17.1454 22.091 16.9767 21.9129 16.8642C21.8191 17.0423 21.6973 17.1548 21.5566 17.2063C21.5051 17.2251 21.4441 17.2345 21.3879 17.2345C21.3035 17.2345 21.2191 17.2157 21.1488 17.1782L21.1957 17.0938C21.2988 17.1454 21.416 17.1548 21.5285 17.1173C21.6551 17.0704 21.7629 16.9579 21.8473 16.7845C21.7441 16.822 21.6316 16.8454 21.5191 16.8454C21.4488 16.8454 21.3785 16.8407 21.3082 16.822L21.3176 16.7751L21.327 16.7282C21.3316 16.7282 21.6926 16.8173 21.9645 16.6063C22.1566 16.461 22.2645 16.1985 22.2832 15.8376L21.9691 16.2079L21.5895 16.3813C21.4207 16.4235 20.8582 16.5642 20.8066 16.5642C20.7879 16.5642 20.7129 16.5548 20.5301 16.522C20.3004 16.4845 19.9582 16.4329 19.8691 16.4329C19.7098 16.4329 19.4848 16.2595 19.4613 16.2407L19.4332 16.222L19.6113 15.7017L20.1035 15.1438L20.6238 14.7735H21.2707L21.8801 14.8392L22.1426 15.1392L22.2691 15.3267V14.8204L21.7629 14.6376C21.7066 14.6282 21.2051 14.5579 21.0832 14.5579C20.966 14.5579 20.516 14.6282 20.441 14.6376L19.7895 15.0595L19.7379 14.9798L20.4035 14.5485H20.4129C20.4363 14.5438 20.9426 14.4642 21.0785 14.4642C21.2098 14.4642 21.7535 14.5438 21.777 14.5485L21.7863 14.5532L22.3348 14.7548L22.3863 14.7829L22.391 14.7454L22.1332 14.5204L21.6691 14.2954L21.1066 14.2485L20.4598 14.361L20.202 14.4735L20.1645 14.3845L20.4363 14.2673L21.102 14.1501L21.6926 14.2017L21.716 14.2157L21.5379 13.9392L21.0363 13.4985L21.041 13.4938L19.091 13.5501C19.091 13.5501 18.8379 13.5829 18.5473 13.6204L18.8238 14.0188L18.9645 14.2673L18.8941 14.5157L18.8004 14.4876L18.8613 14.2767L18.7395 14.0657L18.4441 13.6392L18.4629 13.6251C18.0973 13.672 17.7082 13.7188 17.6848 13.7188C17.6426 13.7188 16.077 13.836 16.0113 13.836C15.8801 13.8267 15.7488 13.8126 15.6223 13.7845C15.5988 13.7704 14.5535 13.3907 14.516 13.3673C14.4785 13.3438 14.1129 12.9923 14.1129 12.9923L13.4004 12.772L12.777 13.5407L12.1301 14.5157ZM19.7379 16.6673C19.8316 16.7095 19.916 16.761 20.0051 16.8126L20.5395 16.8735L20.8441 16.8079L20.8629 16.9017L20.5441 16.9673L20.1738 16.9251C20.3332 17.0423 20.4785 17.1735 20.6098 17.3235C20.7035 17.4313 20.7879 17.5485 20.8582 17.6704L20.7738 17.7173C20.6895 17.5767 20.591 17.4407 20.4738 17.3235C20.3191 17.1642 20.1457 17.0188 19.9582 16.9017L19.6863 16.747L19.7379 16.6673ZM14.3801 14.9142L14.8066 14.5063L15.177 14.2017L15.7066 14.0985L16.2645 14.0798H16.8598L17.352 14.0985L18.3504 14.1173L18.6645 14.3095L19.0488 14.661L19.2691 14.9329L19.3723 15.486L19.2785 15.5048L19.1801 14.9751L18.9785 14.722L18.6082 14.3845L18.327 14.211L17.5441 14.197L17.8863 14.3845C18.0691 14.4782 18.3832 14.647 18.416 14.7173C18.4395 14.7548 18.6879 14.9985 18.9176 15.2142L18.9223 15.2188L19.2738 15.6735L19.3254 16.0485L19.2316 16.0626L19.1848 15.7157L18.852 15.2845C18.7348 15.1767 18.3691 14.8298 18.3363 14.7642C18.3082 14.7267 18.0645 14.586 17.8488 14.4735L17.3473 14.197L16.8645 14.1829H16.2738L15.7207 14.197L15.2285 14.2907L14.877 14.5767L14.4785 14.961L14.4363 15.2142L14.5207 15.2892L14.7316 15.1767L15.0785 14.7454L15.7066 14.5063L16.5223 14.422L17.2113 14.4876L18.1066 14.9517L18.477 15.172L18.8332 15.6454L18.9973 16.161L19.2363 16.3157V16.5267L19.016 16.7282L18.6223 16.8923L18.4535 17.0329L18.2754 17.3235L18.1863 17.4688L18.177 17.4735C18.0598 17.5345 17.8535 17.6423 17.7973 17.6423C17.7551 17.6517 17.4926 17.7688 17.2582 17.886L17.2348 17.8907C17.216 17.8954 16.8035 18.022 16.7004 18.0407L16.6863 17.947C16.7754 17.9329 17.1645 17.8157 17.202 17.8017C17.4363 17.6892 17.727 17.5532 17.7785 17.5532C17.891 17.511 17.9988 17.4595 18.1066 17.3985L18.1488 17.3282L18.3645 16.9767L18.416 16.9345C18.266 16.9204 18.0691 16.897 18.0176 16.8688C17.9941 16.8595 17.8535 16.8407 17.1176 16.8407C16.9348 16.8407 16.5035 16.7423 16.4426 16.7235C16.3957 16.7095 15.9551 16.5782 15.9504 16.5782L15.941 16.5735L15.9316 16.5642C15.927 16.5595 15.5191 16.1704 15.2191 15.997L15.266 15.9126C15.5566 16.0813 15.927 16.4282 15.9926 16.4892C16.0629 16.5079 16.4285 16.6204 16.4754 16.6345C16.527 16.6532 16.9488 16.747 17.1176 16.747C18.0035 16.747 18.041 16.7704 18.0645 16.7892C18.0973 16.8079 18.3082 16.8313 18.4863 16.8454L18.4816 16.8782L18.552 16.8173L18.9457 16.6532L19.1191 16.4938V16.3767L18.9973 16.297L19.002 16.311L18.5941 16.461L18.0316 16.5267C18.0035 16.5267 17.8816 16.5313 17.7457 16.5313C17.5863 16.5313 17.4129 16.5267 17.3613 16.5079C17.2863 16.4845 16.8129 16.3813 16.5785 16.3298H16.5738L16.5691 16.3251C16.2738 16.1657 15.9082 15.9642 15.8801 15.9126C15.8566 15.8845 15.6738 15.7907 15.5191 15.7157H15.5145L14.9941 15.411L14.9238 15.4251L14.9145 15.3642L14.7504 15.2704L14.4973 15.4063L14.3191 15.2517L14.3801 14.9142ZM14.5957 17.1595L14.6191 17.2532L14.3004 17.3282L14.141 17.3657L14.1316 17.3282L14.1176 17.272L14.5957 17.1595ZM14.7973 17.6048L14.7738 17.6985C14.666 17.6751 14.5535 17.6798 14.4457 17.6985C14.2676 17.7313 14.0051 17.8345 13.752 18.1251L13.6816 18.0642C14.202 17.4548 14.7738 17.5954 14.7973 17.6048Z" fill="#3D8130"/>
<path d="M15.4395 15.233C15.4676 15.2283 16.1332 15.1486 16.2176 15.1486C16.2504 15.1486 16.3441 15.158 16.466 15.1674C16.6301 15.1814 16.9066 15.2049 16.9488 15.2002C17.0145 15.1814 17.6707 15.1252 17.7457 15.1158L18.1348 15.0877L18.0551 15.0408L17.1785 14.5861L16.5176 14.5205L15.7207 14.6002L15.1301 14.8252L14.8301 15.2002L15.0223 15.3127L15.4395 15.233Z" fill="#3D8130"/>
<path d="M17.7498 15.2142C17.4592 15.2423 17.0139 15.2845 16.967 15.2938C16.9248 15.3032 16.7748 15.2938 16.4561 15.2657C16.3482 15.2563 16.2451 15.247 16.217 15.247C16.1514 15.247 15.6451 15.3079 15.4529 15.3267L15.1436 15.3829L15.5654 15.6313C15.6967 15.6923 15.9217 15.8048 15.9592 15.861C15.9967 15.8985 16.3154 16.0813 16.6107 16.2407C16.6857 16.2548 17.3045 16.3907 17.3982 16.4235C17.4639 16.447 17.8248 16.4423 18.0357 16.4376L18.5889 16.372L18.9217 16.2454L18.9029 16.236L18.7342 15.7017L18.4014 15.2563L18.2045 15.1392L18.2092 15.186L17.7498 15.2142Z" fill="#3D8130"/>
<path d="M22.0812 15.1768L21.8469 14.9143L21.275 14.8486H20.6656L20.1734 15.2002L19.7047 15.7299L19.5547 16.1658C19.6297 16.2221 19.7797 16.3158 19.8781 16.3158C19.9766 16.3158 20.2953 16.3674 20.5531 16.4096C20.675 16.4283 20.7969 16.4471 20.8156 16.4471C20.8578 16.4424 21.2984 16.3346 21.5703 16.2689L21.9172 16.1096L22.1937 15.7908L22.1703 15.6408L21.3172 15.2939L20.225 15.2611L20.2297 15.1674L21.3406 15.2002L22.2594 15.5752L22.2969 15.8143C22.2969 15.8002 22.2969 15.7861 22.2969 15.7721V15.5096L22.0812 15.1768Z" fill="#3D8130"/>
<path d="M21.0594 20.6748L20.7406 20.7357L20.2906 20.9936L19.7844 21.3686L19.6437 21.5092L19.9625 21.7342L19.9859 21.9123L19.7703 22.1279L19.7047 22.0623L19.8875 21.8795L19.8781 21.7904L19.5781 21.5795L19.4891 21.6686L19.3016 21.7717L19.25 22.0248L19.5125 22.2545L19.8922 22.2404C19.9625 22.1889 20.0797 22.1139 20.1359 22.1092C20.1922 22.0764 20.2484 22.0389 20.3 21.9967C20.4266 21.8982 20.4781 21.8654 20.5156 21.8654C20.6281 21.8092 20.7359 21.7482 20.8391 21.6779L20.8531 21.6686L21.3125 21.7201L21.4719 21.8795L21.4391 21.9123C21.3406 22.0201 21.2281 22.1607 21.2234 22.1936C21.2234 22.217 21.2187 22.2404 21.2094 22.2592L21.3172 22.1982L21.8234 21.8373L21.8797 21.917L21.3641 22.2826L21.125 22.4139C21.1156 22.4279 21.1063 22.442 21.1016 22.4467L21.0828 22.4326L20.7172 22.6342L20.4641 22.9998L20.375 23.2154L20.5578 23.4732L20.7594 23.7029L20.9984 23.7311L21.2188 23.6842L21.2141 23.6373L21.4578 23.2529L21.9172 22.8076L21.9828 22.8779L21.5281 23.3186L21.3078 23.6607L21.3219 23.9186L21.5563 24.0779L21.8656 24.1107L22.0391 24.0592L22.0062 24.0076L22.0297 23.9795C22.0391 23.9654 22.2922 23.6795 22.3438 23.6326C22.3813 23.5951 22.5969 23.3467 22.7047 23.2248L22.775 23.2857C22.7609 23.2998 22.4609 23.6514 22.4094 23.6982C22.3719 23.7357 22.1891 23.9373 22.1234 24.0123L22.2875 24.2561H22.5641L22.8031 24.1482L23 23.8576L23.2625 23.5764L23.3328 23.642L23.0703 23.9186L22.8688 24.2232L22.5828 24.3498H22.2359L22.0906 24.1342L21.8703 24.1998L21.5187 24.167L21.2281 23.9654L21.2188 23.7779L20.9984 23.8248L20.7078 23.7873L20.4875 23.5342L20.1594 23.3373L19.8172 22.9576L19.7328 22.367L19.8266 22.3529L19.8969 22.8592L20.3047 22.5357L20.7453 22.1139L20.9984 21.767L20.8766 21.7529C20.7406 21.842 20.5813 21.9404 20.525 21.9498C20.4688 21.9826 20.4125 22.0201 20.3609 22.0623C20.2297 22.1607 20.1781 22.1936 20.1453 22.1936C20.075 22.2264 20.0047 22.2686 19.9437 22.3154L19.9297 22.3248L19.4844 22.3436L19.1516 22.0482L19.1984 21.8232L19.1656 21.842L18.8656 21.6264L18.5141 21.7295C18.4766 21.8139 18.4484 21.8982 18.4297 21.9873C18.4344 22.0248 18.5375 22.1982 18.6312 22.3342C18.7578 22.4748 19.0484 22.8076 19.0672 22.8779C19.0813 22.9295 19.1422 23.0795 19.1656 23.1357L19.1703 23.1451L19.1563 23.7826L19.3391 24.0545C19.4328 24.1107 20.1219 24.5139 20.2016 24.5607C20.2578 24.5936 20.7547 24.7342 21.0594 24.8186L22.0859 24.917L22.9109 24.8045L23.6188 24.4811L24.0031 24.1107L23.9141 23.7826L23.4406 22.9014L23.0984 22.3811L22.5031 21.7342L21.6266 21.2514L21.4953 20.9701L21.0594 20.6748Z" fill="#3D8130"/>
<path d="M21.8045 18.7766L21.7904 18.7812C21.6967 18.8141 21.2186 18.9828 21.1154 18.9828C21.017 18.9828 20.0561 18.9969 20.0467 19.0016C20.0326 19.0016 18.8607 18.9359 18.7154 18.9359C18.6217 18.9359 18.242 18.875 17.9045 18.8187C17.717 18.7859 17.5248 18.7578 17.4967 18.7578C17.4311 18.7578 16.217 18.5094 15.9732 18.4625H15.9686L14.8014 18.1016L14.3139 17.9938L14.1451 18.1203L14.0889 18.3219L14.1311 18.5375L14.6748 18.9031L15.6076 19.4422L16.667 19.8828L17.7779 20.0609L18.4717 20.1922L19.3014 20.3047L20.5482 20.1734H20.5529L21.2045 20.1875L21.5982 20.075L21.9311 19.8078L22.2029 19.3906L22.2639 19.1984L22.1748 18.9828C21.7811 19.3391 21.7389 19.3531 21.7154 19.3578L21.3123 19.4562L20.192 19.5078H20.1873L19.0154 19.4422L17.8529 19.2313L16.9154 19.25H16.9107L15.9357 19.0016L15.0732 18.7016L14.6139 18.4203L14.6654 18.3406L15.1201 18.6172L15.9686 18.9125L16.9295 19.1562L17.867 19.1375H17.8717L19.0342 19.3484L20.1967 19.4141L21.3076 19.3672L21.6967 19.2687C21.7201 19.2594 21.8514 19.1563 22.1279 18.9031C22.1654 18.8703 22.1889 18.8469 22.1982 18.8375L22.5545 18.35L22.6764 18.1203C22.6576 18.0406 22.6389 17.9656 22.6295 17.8859C22.5826 17.8109 22.5311 17.7453 22.4701 17.6797C22.4701 17.7219 22.4701 17.7641 22.4607 17.8063V17.8156L22.1373 18.3734L21.8045 18.7766Z" fill="#983B1F"/>
<path d="M23.9891 23.75L23.5109 22.8594L23.1641 22.3297L22.5641 21.6594L21.6969 21.1859L21.5703 20.9141L21.5469 20.9281C21.5469 20.9281 21.6266 21.2188 21.6828 21.2469C21.7391 21.275 22.4891 21.6594 22.5266 21.6781C22.5641 21.6969 23.2156 22.475 23.2156 22.475L23.7406 23.3891L24.0547 24.0922C24.0547 24.0922 23.6516 24.5047 23.6281 24.5094C23.6047 24.5141 22.8266 24.8937 22.8031 24.8937C22.7797 24.8937 22.025 24.9781 21.9828 24.9688C21.9406 24.9547 21.0125 24.875 20.9422 24.8703C20.8672 24.8656 20.0094 24.5234 20.0094 24.5234L19.2687 24.0781L19.0578 23.75L18.7625 24.0828C18.7625 24.0828 18.3453 24.2938 18.2891 24.2938C18.2328 24.2938 17.2109 24.4297 17.1312 24.4297H15.0734C15.0734 24.4297 13.0391 24.3922 12.95 24.35C12.9219 24.3359 12.7578 24.2844 12.5422 24.2141L12.3687 24.1813L12.0969 24.0781C11.7641 23.975 11.4641 23.8859 11.4641 23.8859L10.625 23.3422C10.625 23.3422 10.2734 22.7328 10.2594 22.7C10.2453 22.6672 10.0297 22.1562 10.0297 22.1328C10.0297 22.1094 9.95469 21.7016 9.95469 21.7016L10.1047 20.7687L10.1703 19.7891L10.3297 18.7203C10.3297 18.7203 10.5969 17.6469 10.6016 17.6C10.6063 17.5484 11.0375 16.4891 11.0375 16.4891L11.4922 15.6688L12.0922 14.4312L12.7531 13.4984L13.3953 12.7344L13.4375 12.7484L13.3625 12.6875L12.7391 13.4609L12.0453 14.4688L11.5016 15.5281L10.9438 16.625L10.5453 17.6656L10.2781 18.7719L10.1141 19.9813L10.0156 21.0172L9.89844 21.7156L10.0156 22.2687L10.2172 22.7375L10.5875 23.3937L11.4359 23.9281L12.3312 24.2797L13.2453 24.4484L14.2906 24.5H15.1437C15.2422 24.5 16.0625 24.4531 16.1141 24.4484L17.2156 24.4672H17.2203L18.2938 24.3359H18.2984L18.7906 24.1297L19.0438 23.825L19.2547 24.1391L19.2641 24.1437C19.2734 24.1484 20.0562 24.6031 20.1359 24.6547C20.2203 24.7062 20.9375 24.9031 21.0219 24.9219L22.0719 25.0203L22.9156 24.9031H22.9203L23.6516 24.5703L23.6609 24.5656L24.0969 24.1437L23.9891 23.75Z" fill="black"/>
<path d="M12.7535 13.4984L12.0926 14.4312L11.4926 15.6688L11.0379 16.4891C11.0379 16.4891 10.6066 17.5484 10.602 17.6C10.5973 17.6516 10.3301 18.7203 10.3301 18.7203L10.1707 19.7891L10.1051 20.7687L9.95508 21.7016C9.95508 21.7016 10.0301 22.1094 10.0301 22.1328C10.0301 22.1562 10.2457 22.6672 10.2598 22.7C10.2738 22.7328 10.6254 23.3422 10.6254 23.3422L11.4645 23.8859C11.4645 23.8859 11.7645 23.975 12.0973 24.0781L11.4879 23.8391L10.6629 23.3234L10.3066 22.6953L10.1145 22.2406L10.002 21.7109L10.1145 21.0312L10.2129 19.9953L10.377 18.7953L10.6395 17.6984L11.0332 16.6672L11.591 15.5656L12.1301 14.5156L12.8191 13.5172L13.4426 12.7484L13.4004 12.7344L12.7535 13.4984Z" fill="black"/>
<path d="M21.0781 20.5767L20.7078 20.647L20.2391 20.9142L19.7234 21.2938L19.4281 21.5892L19.1656 21.7345L18.875 21.5235L18.4344 21.6501L18.425 21.6688C18.4062 21.711 18.3219 21.9126 18.3219 21.9829C18.3219 22.0532 18.4625 22.2688 18.5422 22.386L18.5469 22.3907C18.7391 22.6063 18.95 22.8548 18.9641 22.897C18.9781 22.9579 19.0437 23.1173 19.0625 23.1595L19.0484 23.6563L18.7344 24.0313L18.275 24.2235L17.2156 24.3548L16.1187 24.336C16.1094 24.336 15.2469 24.3876 15.1531 24.3876H14.3L13.2687 24.3407L12.5469 24.2095C12.7578 24.2751 12.9266 24.3313 12.9547 24.3454C13.0391 24.3876 15.0781 24.4251 15.0781 24.4251H17.1359C17.2156 24.4251 18.2422 24.2892 18.2937 24.2892C18.35 24.2892 18.7672 24.0782 18.7672 24.0782L19.0625 23.7454L19.2734 24.0735L20.0141 24.5188C20.0141 24.5188 20.8719 24.8563 20.9469 24.8657C21.0219 24.8704 21.9453 24.9501 21.9875 24.9642C22.0297 24.9782 22.7844 24.8892 22.8078 24.8892C22.8312 24.8892 23.6094 24.5142 23.6328 24.5048C23.6562 24.5001 24.0594 24.0876 24.0594 24.0876L23.7453 23.3845L23.2203 22.4704C23.2203 22.4704 22.5687 21.6923 22.5312 21.6735C22.4937 21.6548 21.7437 21.2704 21.6875 21.2423C21.6312 21.2142 21.5516 20.9235 21.5516 20.9235L21.575 20.9095V20.9048L21.0781 20.5767ZM21.6219 21.2517L22.4984 21.7345L23.0844 22.3813L23.4266 22.9017L23.9 23.7829L23.9891 24.111L23.6047 24.4813L22.8969 24.8048L22.0719 24.9173L21.0453 24.8188C20.7406 24.7345 20.2437 24.5938 20.1875 24.561C20.1078 24.5142 19.4187 24.111 19.325 24.0548L19.1422 23.7829L19.1562 23.1454V23.1407C19.1328 23.0845 19.0719 22.9345 19.0578 22.8829C19.0391 22.8126 18.7484 22.4798 18.6219 22.3392C18.5281 22.1985 18.4203 22.0251 18.4203 21.9923C18.4391 21.9032 18.4672 21.8188 18.5047 21.7345L18.8562 21.6313L19.1562 21.847L19.1891 21.8282L19.1422 22.0532L19.475 22.3485L19.9203 22.3298L19.9344 22.3204C19.9953 22.2735 20.0656 22.2313 20.1359 22.1985C20.1734 22.1985 20.2203 22.1657 20.3516 22.0673C20.4031 22.0251 20.4594 21.9876 20.5156 21.9548C20.5719 21.9501 20.7359 21.847 20.8672 21.7579L20.9891 21.772L20.7359 22.1188L20.2953 22.5407L19.8875 22.8642L19.8172 22.3579L19.7234 22.372L19.8078 22.9626L20.15 23.3423L20.4781 23.5392L20.6984 23.7923L20.9891 23.8298L21.2094 23.7829L21.2187 23.9704L21.5094 24.172L21.8609 24.2048L22.0812 24.1392L22.2266 24.3548H22.5734L22.8594 24.2282L23.0609 23.9235L23.3234 23.647L23.2531 23.5813L22.9906 23.8626L22.7937 24.1532L22.5547 24.261H22.2781L22.1141 24.0173C22.1797 23.9423 22.3625 23.7407 22.4 23.7032C22.4516 23.6517 22.7516 23.3048 22.7656 23.2907L22.6953 23.2298C22.5875 23.3563 22.3719 23.6001 22.3344 23.6376C22.2828 23.6892 22.0297 23.9751 22.0203 23.9845L21.9969 24.0126L22.0297 24.0642L21.8562 24.1157L21.5469 24.0829L21.3125 23.9235L21.2984 23.6657L21.5187 23.3235L21.9734 22.8829L21.9078 22.8126L21.4484 23.2579L21.2047 23.6423L21.2094 23.6892L20.9891 23.736L20.75 23.7079L20.5484 23.4782L20.3656 23.2204L20.4547 23.0048L20.7078 22.6392L21.0734 22.4376L21.0922 22.4517C21.0969 22.4423 21.1062 22.4329 21.1156 22.4188L21.3547 22.2876L21.8703 21.922L21.8141 21.8423L21.3078 22.2032L21.2 22.2642C21.2094 22.2454 21.2141 22.222 21.2141 22.1985C21.2187 22.161 21.3312 22.0251 21.4297 21.9173L21.4625 21.8845L21.3031 21.7251L20.8437 21.6735L20.8297 21.6829C20.7266 21.7532 20.6187 21.8188 20.5062 21.8704C20.4687 21.8704 20.4172 21.9079 20.2906 22.0017C20.2391 22.0438 20.1828 22.0813 20.1266 22.1142C20.0703 22.1188 19.9578 22.1938 19.8828 22.2454L19.5031 22.2595L19.2406 22.0298L19.2922 21.7767L19.4797 21.6735L19.5687 21.5845L19.8687 21.7954L19.8781 21.8845L19.6953 22.0673L19.7609 22.1329L19.9766 21.9173L19.9531 21.7392L19.6344 21.5142L19.775 21.3735L20.2812 20.9985L20.7312 20.7407L21.05 20.6798L21.4812 20.9751L21.6219 21.2517ZM20.3375 23.347L20.2109 23.272L19.9297 22.9626L20.3609 22.6251L20.8062 22.1938L21.0969 21.7907L21.2609 21.8095L21.3312 21.8798C21.2422 21.9782 21.1203 22.1235 21.1203 22.1892C21.1062 22.2454 21.0781 22.297 21.0453 22.3392L20.6375 22.5642L20.3656 22.9532L20.2531 23.2345L20.3375 23.347Z" fill="black"/>
<path d="M21.4857 13.7939L21.7248 14.108C21.7248 14.108 21.842 14.2908 21.8842 14.3049C21.9264 14.3189 22.3154 14.5439 22.3154 14.5439L22.4748 14.7221L22.442 14.8252L22.3201 14.7877L22.3389 15.3924H22.3764V14.8486L22.4842 14.9096L22.5123 14.6799L22.2076 14.4127L21.8795 14.2533L21.8936 14.2439L21.6404 13.8455L21.1295 13.3955L21.0732 13.4611H21.1248L21.4857 13.7939Z" fill="black"/>
<path d="M22.2826 16.2642C22.2826 16.2642 22.1092 16.611 22.0904 16.6204C22.0717 16.6345 21.917 16.7001 21.917 16.7001L21.9311 16.7845C22.0014 16.836 22.0717 16.8923 22.1326 16.9532C22.142 16.9673 22.2451 17.1735 22.3295 17.3282H22.4139C22.3342 17.0938 22.1748 16.8923 21.9639 16.7657C21.9732 16.747 21.9826 16.7235 21.992 16.7048C22.0061 16.6954 22.0248 16.686 22.0389 16.672C22.2686 16.4985 22.3857 16.1985 22.3998 15.7767V15.4813L22.3436 15.397L22.3576 15.8517L22.2826 16.2642Z" fill="black"/>
<path d="M21.5705 13.9157L21.7486 14.1923L21.7252 14.1782L21.1346 14.1267L20.4689 14.2438L20.1971 14.361L20.2346 14.4501L20.4924 14.3376L21.1393 14.2251L21.7018 14.272L22.1658 14.497L22.4236 14.722L22.4189 14.7595L22.3674 14.7313L21.8189 14.5298L21.8096 14.5251C21.7861 14.5204 21.2471 14.4407 21.1111 14.4407C20.9752 14.4407 20.4689 14.5204 20.4455 14.5251H20.4361L19.7705 14.9563L19.8221 15.036L20.4736 14.6142C20.5486 14.6048 20.9986 14.5345 21.1158 14.5345C21.2377 14.5345 21.7393 14.6095 21.7955 14.6142L22.3018 14.797V15.3126L22.1752 15.1251L21.9127 14.8251L21.3033 14.7595H20.6564L20.1361 15.1298L19.6439 15.6876L19.4658 16.2079L19.4939 16.2267C19.5174 16.2454 19.7424 16.4188 19.9018 16.4188C19.9908 16.4188 20.3377 16.4751 20.5627 16.5079C20.7455 16.536 20.8205 16.5501 20.8393 16.5501C20.8908 16.5501 21.4533 16.4095 21.6221 16.3673L22.0018 16.1938L22.3158 15.8235C22.2971 16.1845 22.1893 16.447 21.9971 16.5923C21.7205 16.8032 21.3596 16.7142 21.3596 16.7142L21.3502 16.761L21.3408 16.8079C21.4111 16.822 21.4814 16.8313 21.5518 16.8313C21.6643 16.8313 21.7768 16.8126 21.8799 16.7704C21.7955 16.9438 21.6877 17.0563 21.5611 17.1032C21.4533 17.1407 21.3314 17.1313 21.2283 17.0798L21.1814 17.1642C21.2564 17.2017 21.3408 17.2204 21.4205 17.2204C21.4768 17.2204 21.533 17.211 21.5893 17.1923C21.7299 17.1407 21.8471 17.0282 21.9455 16.8501C22.1236 16.9626 22.2643 17.1313 22.3393 17.3282H22.3533C22.2736 17.1735 22.1658 16.9673 22.1564 16.9532C22.0908 16.8923 22.0252 16.836 21.9549 16.7845L21.9408 16.7001C21.9408 16.7001 22.0955 16.6345 22.1143 16.6204C22.133 16.6063 22.3064 16.2642 22.3064 16.2642L22.3814 15.8563L22.3674 15.4017L22.3486 14.797L22.4705 14.8345L22.5033 14.7313L22.3439 14.5532C22.3439 14.5532 21.9549 14.3235 21.9127 14.3142C21.8705 14.3001 21.7533 14.1173 21.7533 14.1173L21.5143 13.8032L21.1486 13.4751H21.0971L21.0924 13.4798L21.5705 13.9157ZM22.3018 15.8142L22.2643 15.5751L21.3455 15.2001L20.2346 15.1673L20.2299 15.261L21.3221 15.2938L22.1752 15.6407L22.1986 15.7907L21.9221 16.1095L21.5752 16.2688C21.3033 16.3345 20.8627 16.4423 20.8205 16.447C20.8018 16.447 20.6799 16.4282 20.558 16.4095C20.3002 16.3673 19.9814 16.3157 19.883 16.3157C19.7893 16.3157 19.6393 16.222 19.5596 16.1657L19.7096 15.7298L20.1783 15.2001L20.6705 14.8485H21.2799L21.8518 14.9142L22.0861 15.1767L22.3064 15.5095V15.772C22.3018 15.786 22.3018 15.8001 22.3018 15.8142Z" fill="black"/>
<path d="M19.3059 20.3937L19.6059 20.3608H19.0762L19.3059 20.3937Z" fill="black"/>
<path d="M21.9732 20.3796C21.9592 20.403 21.6873 20.8437 21.6873 20.8437L21.5654 20.9093L21.5936 20.9421L21.8092 20.7546L22.0154 20.4077V20.3608H21.9732C21.9779 20.3702 21.9779 20.3749 21.9732 20.3796Z" fill="black"/>
<path d="M21.973 20.3796C21.973 20.3749 21.9777 20.3655 21.9777 20.3608H21.9262V20.3796L21.7387 20.689L21.5371 20.8671L21.5699 20.9046L21.5746 20.9093L21.6965 20.8437C21.6918 20.8437 21.9637 20.4077 21.973 20.3796Z" fill="black"/>
<path d="M22.4238 17.5062L22.466 17.5672C22.4566 17.4875 22.4426 17.4078 22.4145 17.3281H22.3301C22.3816 17.4266 22.4238 17.5062 22.4238 17.5062Z" fill="black"/>
<path d="M22.7283 18.0312C22.7236 18.0546 22.6674 18.2421 22.6533 18.2702C22.6393 18.303 22.1986 18.9077 22.1986 18.9077L22.3018 19.1187C22.3018 19.1187 22.3205 19.2687 22.3064 19.2921C22.2924 19.3155 21.9033 19.9202 21.9033 19.9202L21.9643 20.089C21.9643 20.089 21.9783 20.2999 21.9736 20.3655H22.0158V20.0421L21.9643 19.9015L22.0064 19.8687L22.2924 19.428L22.3674 19.189L22.2549 18.9124C22.2643 18.903 22.2689 18.8983 22.2689 18.8983L22.6346 18.3968L22.7799 18.1296L22.7752 18.1108C22.7564 18.0358 22.7377 17.9562 22.7283 17.8765C22.7283 17.8577 22.7283 17.8062 22.4846 17.5483L22.4658 17.5671L22.6111 17.7733C22.6111 17.7733 22.733 18.0077 22.7283 18.0312Z" fill="black"/>
<path d="M22.3293 17.3281H22.3152C22.3715 17.4734 22.3902 17.6281 22.3715 17.7828L22.0621 18.3125L21.7434 18.6922C21.5277 18.7672 21.1762 18.8844 21.1152 18.8844C21.0168 18.8844 20.1074 18.8984 20.0465 18.9031C19.9762 18.8984 18.8605 18.8375 18.7152 18.8375C18.6309 18.8375 18.2184 18.7719 17.9184 18.7203C17.6418 18.6734 17.5246 18.6547 17.4965 18.6547C17.4355 18.65 16.5684 18.4766 15.9965 18.3594L14.8293 17.9984L14.2949 17.8766L14.0652 18.0453L13.9902 18.3031L14.0465 18.5797L14.623 18.9688L15.5652 19.5125L16.6387 19.9578H16.6434L17.7637 20.1406L18.4574 20.2719L19.0715 20.3563H19.6059L20.5574 20.2578L21.2137 20.2719H21.223L21.6496 20.15L21.8887 19.9578L21.9262 20.0516V20.3563H21.9777C21.9824 20.2906 21.9684 20.0797 21.9684 20.0797L21.9074 19.9109C21.9074 19.9109 22.2965 19.3063 22.3105 19.2828C22.3246 19.2594 22.3059 19.1094 22.3059 19.1094L22.2027 18.8984C22.2027 18.8984 22.648 18.2937 22.6574 18.2609C22.6715 18.2281 22.723 18.0453 22.7324 18.0219C22.7371 17.9984 22.6152 17.7641 22.6152 17.7641L22.4699 17.5578L22.4277 17.4969C22.423 17.5063 22.3809 17.4266 22.3293 17.3281ZM22.4652 17.8063C22.4699 17.7641 22.4746 17.7219 22.4746 17.6797C22.5355 17.7406 22.5871 17.8109 22.634 17.8859C22.6434 17.9656 22.6574 18.0453 22.6809 18.1203L22.559 18.35L22.2027 18.8375C22.1934 18.8469 22.1652 18.8703 22.1324 18.9031C21.8559 19.1563 21.7293 19.2547 21.7012 19.2687L21.3121 19.3672L20.2012 19.4141L19.0387 19.3484L17.8762 19.1375H17.8715L16.934 19.1562L15.973 18.9125L15.1246 18.6172L14.6699 18.3406L14.6184 18.4203L15.0777 18.7016L15.9402 19.0016L16.9152 19.25H16.9199L17.8574 19.2313L19.0199 19.4422L20.1918 19.5078H20.1965L21.3168 19.4562L21.7199 19.3578C21.7387 19.3531 21.7855 19.3391 22.1793 18.9828L22.2684 19.1984L22.2074 19.3906L21.9355 19.8078L21.6027 20.075L21.209 20.1875L20.5574 20.1734H20.5527L19.3059 20.3047L18.4762 20.1922L17.7824 20.0609L16.6715 19.8828L15.6121 19.4422L14.6793 18.9031L14.1355 18.5375L14.0934 18.3219L14.1496 18.1203L14.3184 17.9938L14.8059 18.1016L15.973 18.4625H15.9777C16.2215 18.5141 17.4309 18.7578 17.5012 18.7578C17.5246 18.7578 17.7215 18.7906 17.909 18.8187C18.2465 18.875 18.6262 18.9359 18.7199 18.9359C18.8652 18.9359 20.0371 19.0016 20.0512 19.0016C20.0605 19.0016 21.0215 18.9828 21.1199 18.9828C21.223 18.9828 21.7012 18.8141 21.7949 18.7812L21.809 18.7766L22.1465 18.3734L22.4699 17.8156L22.4652 17.8063Z" fill="black"/>
<path d="M14.4457 17.6986C14.5535 17.6751 14.666 17.6751 14.7738 17.6986L14.7973 17.6048C14.7738 17.6001 14.202 17.4548 13.6816 18.0642L13.752 18.1251C14.0051 17.8298 14.2676 17.7314 14.4457 17.6986Z" fill="black"/>
<path d="M14.2953 17.3279L14.6141 17.2529L14.5953 17.1592L14.1172 17.2717L14.1313 17.3279H14.2953Z" fill="black"/>
<path d="M14.1402 17.3656L14.2949 17.3281H14.1309L14.1402 17.3656Z" fill="black"/>
<path d="M19.9674 16.9062C20.1549 17.0281 20.3283 17.1687 20.483 17.3281H20.6143C20.483 17.1781 20.3377 17.0469 20.1783 16.9297L20.5486 16.9719L20.8674 16.9062L20.8486 16.8125L20.5439 16.8781L20.0096 16.8172C19.9252 16.7609 19.8361 16.7141 19.7424 16.6719L19.7002 16.7563L19.9674 16.9062Z" fill="black"/>
<path d="M20.7777 17.7219L20.8621 17.675C20.7918 17.5531 20.7074 17.4359 20.6137 17.3281H20.4824C20.5949 17.45 20.6934 17.5812 20.7777 17.7219Z" fill="black"/>
<path d="M14.7502 15.2704L14.9143 15.3642L14.9236 15.4251L14.9939 15.411L15.5143 15.7157H15.5189C15.6736 15.7907 15.8564 15.8845 15.8799 15.9126C15.9127 15.9595 16.2736 16.161 16.5689 16.3251L16.5736 16.3298H16.5783C16.8174 16.3813 17.2861 16.4845 17.3611 16.5079C17.4174 16.5267 17.5908 16.5313 17.7455 16.5313C17.8814 16.5313 18.008 16.5267 18.0314 16.5267L18.5939 16.461L19.0018 16.311L18.9971 16.297L19.1189 16.3767V16.4938L18.9455 16.6532L18.5518 16.8173L18.4814 16.8782L18.4861 16.8454C18.308 16.8313 18.0971 16.8032 18.0643 16.7892C18.0408 16.7751 18.0033 16.747 17.1174 16.747C16.9486 16.747 16.5268 16.6532 16.4752 16.6345C16.4283 16.6204 16.0627 16.5079 15.9924 16.4892C15.9314 16.4282 15.5611 16.086 15.2658 15.9126L15.2189 15.997C15.5236 16.1751 15.9314 16.5595 15.9314 16.5642L15.9408 16.5735L15.9502 16.5782C15.9549 16.5782 16.3955 16.7095 16.4424 16.7235C16.4986 16.7423 16.9299 16.8407 17.1174 16.8407C17.8533 16.8407 17.9893 16.8595 18.0174 16.8688C18.0689 16.897 18.2658 16.9204 18.4158 16.9345L18.3643 16.9767L18.1486 17.3282H18.2611L18.4393 17.0376L18.608 16.897L19.0018 16.7329L19.2221 16.5313V16.3204L18.983 16.1657L18.8189 15.6501L18.4627 15.1767L18.0924 14.9563L17.1971 14.4923L16.508 14.4267L15.6924 14.511L15.0643 14.7501L14.7174 15.1813L14.5064 15.2938L14.4221 15.2188L14.4643 14.9657L14.8627 14.5813L15.2143 14.2954L15.7064 14.2017L16.2596 14.1876H16.8502L17.333 14.2017L17.8346 14.4782C18.0502 14.5907 18.2986 14.7313 18.3221 14.7688C18.3549 14.8345 18.7205 15.1813 18.8377 15.2892L19.1705 15.7204L19.2174 16.0673L19.3111 16.0532L19.2596 15.6782L18.908 15.2235L18.9033 15.2188C18.6736 15.0079 18.4252 14.7642 18.4018 14.722C18.3689 14.6517 18.0549 14.4829 17.8721 14.3892L17.5299 14.2017L18.3127 14.2157L18.5939 14.3892L18.9643 14.7267L19.1658 14.9798L19.2643 15.5095L19.358 15.4907L19.2549 14.9376L19.0346 14.6657L18.6502 14.3142L18.3361 14.122L17.3377 14.1032L16.8455 14.0845H16.2502L15.6924 14.1032L15.1627 14.2063L14.7924 14.511L14.3658 14.9188L14.3096 15.2563L14.4877 15.411L14.7502 15.2704ZM18.4064 15.2517L18.7393 15.697L18.908 16.2313L18.9268 16.2407L18.5939 16.3673L18.0408 16.4329C17.8299 16.4376 17.4689 16.4423 17.4033 16.4188C17.3096 16.386 16.6908 16.2548 16.6158 16.236C16.3205 16.0767 15.9971 15.8938 15.9643 15.8563C15.9268 15.8048 15.7018 15.6923 15.5705 15.6267L15.1486 15.3782L15.458 15.322C15.6502 15.2985 16.1564 15.2423 16.2221 15.2423C16.2502 15.2423 16.3533 15.2517 16.4611 15.261C16.7799 15.2892 16.9299 15.2985 16.9721 15.2892C17.0189 15.2798 17.4643 15.2329 17.7549 15.2095L18.2143 15.1767L18.2096 15.1298L18.4064 15.2517ZM15.1252 14.8298L15.7158 14.6048L16.5127 14.5251L17.1736 14.5907L18.0502 15.0454L18.1299 15.0923L17.7408 15.1204C17.6658 15.1251 17.0096 15.186 16.9439 15.2048C16.9018 15.2142 16.6299 15.186 16.4611 15.172C16.3393 15.1626 16.2455 15.1532 16.2127 15.1532C16.1283 15.1532 15.4627 15.2329 15.4346 15.2376L15.0127 15.3173L14.8205 15.2048L15.1252 14.8298Z" fill="black"/>
<path d="M18.1059 17.3982C17.998 17.4592 17.8902 17.5061 17.7777 17.5529C17.7262 17.5529 17.4355 17.6889 17.2012 17.8014C17.159 17.8154 16.7746 17.9326 16.6855 17.9467L16.6996 18.0404C16.798 18.0217 17.2152 17.8951 17.234 17.8904L17.2387 17.8857C17.473 17.7732 17.7402 17.6514 17.7777 17.642C17.834 17.6373 18.0402 17.5342 18.1574 17.4732L18.1668 17.4686L18.2559 17.3232H18.1434L18.1059 17.3982Z" fill="black"/>
<path d="M18.5561 13.5596L18.4951 13.6018C18.5232 13.5971 18.5514 13.5971 18.5795 13.5924L18.5561 13.5596Z" fill="black"/>
<path d="M18.7768 14.042L18.8986 14.2529L18.8377 14.4639L18.9314 14.492L19.0018 14.2436L18.8611 13.9951L18.5846 13.5967C18.5564 13.6014 18.5283 13.6014 18.5002 13.6061L18.4814 13.6201L18.7768 14.042Z" fill="black"/>
<path d="M21.6451 13.9298L22.0623 13.8876C22.0623 13.8876 23.1029 14.197 23.1451 14.2392C23.1873 14.2813 23.7123 14.511 23.7123 14.511L24.0217 14.5392L24.0639 14.2579L23.8342 13.9298L23.1732 13.4423L22.4186 13.0767L21.9451 12.9126L21.7764 10.522L21.3779 9.92666L20.7826 9.43916L20.0139 9.05947L19.217 9.04541L17.717 9.23291L16.3389 9.50478L16.2592 9.27041C16.1514 9.24228 16.0436 9.22354 15.9357 9.20947C15.8561 9.20947 15.1248 9.43447 15.1248 9.43447L14.6795 9.66885L14.5857 9.94072L13.9482 10.2923L13.4326 10.9392L13.1373 11.5626C13.1373 11.5626 12.9873 12.186 12.9873 12.2235C12.9873 12.261 13.067 12.6032 13.1232 12.6267C13.1795 12.6501 13.5967 12.7626 13.5967 12.7626L14.1451 13.0345L14.9373 13.4938L15.9217 13.8173C15.9217 13.8173 16.8545 13.7517 16.9482 13.7517C17.042 13.7517 18.4482 13.6017 18.5279 13.6017C18.6076 13.6017 20.1498 13.4798 20.192 13.4798C20.2342 13.4798 21.1529 13.4657 21.1529 13.4657L21.5186 13.7892L21.6451 13.9298Z" fill="#C82727"/>
<path d="M21.2797 15.2562L21.4016 15.514L21.4766 15.8093L21.4391 15.9968L21.2797 16.4046L20.7734 16.489L19.9578 16.3437L19.8594 16.0577L19.8969 15.7999L19.9813 15.3921L20.1922 15.1577L20.3281 15.2327L21.2281 15.2562" fill="black"/>
<path d="M17.5674 15.2187L17.7174 15.5046L17.7314 15.8515L17.6564 16.1608L17.4971 16.4093L17.2393 16.4233L16.2502 16.128L15.8564 15.7812L15.908 15.5608L16.0439 15.3499L16.2268 15.2046L16.9205 15.2233C16.9111 15.2187 17.5393 15.2702 17.5674 15.2187Z" fill="black"/>
<path d="M23.9373 13.9672L23.5529 13.6297L22.9998 13.2594L22.0904 12.9266L21.9639 12.875L21.9264 12.0922C21.8795 11.7078 21.8139 11.1266 21.8139 11.0797C21.8139 11.0141 21.7811 10.5359 21.7811 10.5172V10.5078L21.5092 10.0156L21.0545 9.54687L20.3561 9.14844L19.7748 8.98438H18.9779L18.1951 9.08281C17.8811 9.13437 17.3889 9.21406 17.3326 9.21406C17.2482 9.21406 16.592 9.36406 16.517 9.37813L16.2873 9.43906L16.3248 9.42031L16.2498 9.27031L16.0061 9.17656L15.6498 9.20938L15.0779 9.35L14.6467 9.62656L14.5576 9.85625L14.6186 9.87969L14.3795 9.94062H14.3701L13.8639 10.2594L13.5123 10.6578L13.1936 11.1922L12.9404 12.0641V12.3781L13.1045 12.6687L14.1311 13.0344L14.4732 13.3437L15.2373 13.6906L15.9123 13.8594L17.1732 13.775L18.9967 13.5781L20.2951 13.4797L21.3732 13.4937L22.5123 13.6578L23.4123 14.0844L23.4545 14L22.5451 13.5687L21.3873 13.4047L20.2951 13.3859L18.992 13.4844L17.1686 13.6812L15.9264 13.7609L15.2795 13.6016L14.5342 13.2594L14.1873 12.9453L13.1748 12.5844L13.0436 12.35V12.0734L13.2873 11.2297L13.5967 10.7141L13.9342 10.3297L14.417 10.025L16.5451 9.46719C16.8217 9.40625 17.2857 9.30313 17.342 9.30313C17.4264 9.30313 18.1389 9.18594 18.2186 9.17187L18.9873 9.07344H19.7654L20.3139 9.23281L20.9936 9.62187L21.4295 10.0719L21.6826 10.5359C21.692 10.7094 21.7154 11.0328 21.7154 11.0797C21.7154 11.1453 21.8186 12.0078 21.8326 12.1016L21.8701 12.8375L21.317 12.6266L20.2248 12.5094L19.3998 12.425L18.5889 12.4906L17.6514 12.5891L16.5592 12.8375L15.7389 13.0344L15.1904 13.0672L14.4873 12.9266L14.8436 13.1844L15.1342 13.3531L15.7998 13.5172L16.4514 13.5359H16.4561L17.0373 13.4703L17.8576 13.3391L18.6592 13.2078L19.5592 13.1422L20.1826 13.1094L20.9326 13.1562L21.9498 13.2875L23.2623 13.5359L23.492 13.6859L23.8576 14.0047L23.9607 14.2437L23.9373 14.4219L23.7404 14.4359L23.3561 14.2578L22.6482 13.9766L22.0904 13.8078L21.6029 13.8594L21.6123 13.9531L22.0811 13.9062L22.6107 14.0656L23.3139 14.3422L23.7217 14.5297L24.017 14.5109L24.0592 14.2297L23.9373 13.9672ZM14.6561 9.86563L14.7264 9.6875L15.1154 9.43906L15.6639 9.30781L15.9967 9.275L16.1842 9.34531L16.2357 9.44844L14.6561 9.86563ZM21.9639 13.2125L20.9373 13.0812L20.1779 13.0297L19.5498 13.0625L18.6451 13.1281L17.8342 13.2594L17.0139 13.3906L16.442 13.4562L15.8092 13.4422L15.1623 13.2828L14.8904 13.1234H14.8857L15.1717 13.1797L15.7389 13.1469L16.5686 12.95L17.6514 12.7062L18.5842 12.6078L19.3857 12.5422L20.2014 12.6219L21.2795 12.7344L22.0482 13.0297L22.9482 13.3578L23.0514 13.4281L21.9639 13.2125Z" fill="black"/>
<path d="M17.2577 15.9961C17.4141 15.9496 17.5091 15.8053 17.47 15.6737C17.4308 15.5422 17.2724 15.4733 17.1161 15.5198C16.9597 15.5663 16.8647 15.7106 16.9038 15.8421C16.943 15.9736 17.1014 16.0426 17.2577 15.9961Z" fill="white"/>
<path d="M16.4939 15.9688C16.5613 15.9688 16.6158 15.9143 16.6158 15.847C16.6158 15.7797 16.5613 15.7251 16.4939 15.7251C16.4266 15.7251 16.3721 15.7797 16.3721 15.847C16.3721 15.9143 16.4266 15.9688 16.4939 15.9688Z" fill="white"/>
<path d="M16.4188 15.589C16.4861 15.589 16.5406 15.5344 16.5406 15.4671C16.5406 15.3998 16.4861 15.3452 16.4188 15.3452C16.3514 15.3452 16.2969 15.3998 16.2969 15.4671C16.2969 15.5344 16.3514 15.589 16.4188 15.589Z" fill="white"/>
<path d="M20.3889 16.1234C20.451 16.1234 20.5014 16.0731 20.5014 16.0109C20.5014 15.9488 20.451 15.8984 20.3889 15.8984C20.3267 15.8984 20.2764 15.9488 20.2764 16.0109C20.2764 16.0731 20.3267 16.1234 20.3889 16.1234Z" fill="white"/>
<path d="M20.3748 15.6969C20.4421 15.6969 20.4967 15.6423 20.4967 15.575C20.4967 15.5077 20.4421 15.4531 20.3748 15.4531C20.3075 15.4531 20.2529 15.5077 20.2529 15.575C20.2529 15.6423 20.3075 15.6969 20.3748 15.6969Z" fill="white"/>
<path d="M21.0455 16.0437C21.1672 16.0437 21.2658 15.945 21.2658 15.8233C21.2658 15.7017 21.1672 15.603 21.0455 15.603C20.9238 15.603 20.8252 15.7017 20.8252 15.8233C20.8252 15.945 20.9238 16.0437 21.0455 16.0437Z" fill="white"/>
</svg>
