<svg width="35" height="35" viewBox="0 0 35 35" fill="none" xmlns="http://www.w3.org/2000/svg">
<path d="M17.5 35C27.165 35 35 27.165 35 17.5C35 7.83502 27.165 0 17.5 0C7.83502 0 0 7.83502 0 17.5C0 27.165 7.83502 35 17.5 35Z" fill="#3D8130"/>
<path d="M24.165 23.2012L24.1582 23.1943L24.165 23.2012Z" fill="#3D8130"/>
<path d="M10.3975 13.877L9.61133 15.4082L8.79785 17.0146L8.22363 18.5186L7.84082 20.1182L7.60156 21.8682L7.45801 23.3789L7.29395 24.3701L7.45801 25.1426L7.73828 25.8057L8.25781 26.7217L9.46094 27.4736L10.3496 27.8223C10.5684 27.8906 10.8008 27.959 10.999 28.0205L12.0518 28.2119L13.5557 28.2803H14.7998C14.9434 28.2803 16.2012 28.2119 16.208 28.2051L17.8076 28.2324L19.3525 28.041L20.0225 27.7607L20.4805 27.2139L20.501 26.4893C20.4736 26.4277 20.3848 26.1953 20.3574 26.1064C20.3369 26.0449 20.0293 25.6826 19.749 25.3682L19.7422 25.3613C19.6191 25.1836 19.4209 24.876 19.4209 24.7734C19.4209 24.6709 19.5439 24.3701 19.5713 24.3154L19.585 24.2881L20.2275 24.1035L20.6514 24.4111L21.0342 24.1992L21.4648 23.7686L22.2168 23.2148L22.9004 22.8252L23.4404 22.7227L24.1514 23.208L24.1035 23.1533L24.3975 22.8936L24.6709 22.4424V21.9707L24.6162 21.834L24.2676 22.1143L23.6455 22.292H23.6318L22.6748 22.2715L21.2871 22.415L20.8496 22.4629L20.5146 22.415L19.6191 22.292L18.6074 22.1006L16.9736 21.834H16.9668L15.4014 21.1846L14.0273 20.3916L13.1865 19.8242L13.1045 19.4209L13.2139 19.0449L13.5488 18.7988L14.3281 18.9766L16.0303 19.5029C16.8643 19.6738 18.1357 19.9268 18.2178 19.9336C18.2588 19.9336 18.4229 19.9609 18.833 20.0293C19.2705 20.0977 19.8721 20.2002 19.9951 20.2002C20.207 20.2002 21.8408 20.2891 21.9365 20.2959C22.0254 20.2959 23.3516 20.2686 23.4951 20.2686C23.5908 20.2686 24.1035 20.0977 24.4111 19.9883L24.876 19.4346L25.3203 18.6621C25.3477 18.4365 25.3203 18.2109 25.2383 17.999C25.1289 17.7119 24.9238 17.4658 24.6641 17.3018C24.5273 17.5615 24.3496 17.7256 24.1445 17.8008C24.0693 17.8281 23.9805 17.8418 23.8984 17.8418C23.7754 17.8418 23.6523 17.8145 23.5498 17.7598L23.6182 17.6367C23.7686 17.7119 23.9395 17.7256 24.1035 17.6709C24.2881 17.6025 24.4453 17.4385 24.5684 17.1855C24.418 17.2402 24.2539 17.2744 24.0898 17.2744C23.9873 17.2744 23.8848 17.2676 23.7822 17.2402L23.7959 17.1719L23.8096 17.1035C23.8164 17.1035 24.3428 17.2334 24.7393 16.9258C25.0195 16.7139 25.1768 16.3311 25.2041 15.8047L24.7461 16.3447L24.1924 16.5977C23.9463 16.6592 23.126 16.8643 23.0508 16.8643C23.0234 16.8643 22.9141 16.8506 22.6475 16.8027C22.3125 16.748 21.8135 16.6729 21.6836 16.6729C21.4512 16.6729 21.123 16.4199 21.0889 16.3926L21.0479 16.3652L21.3076 15.6064L22.0254 14.793L22.7842 14.2529H23.7275L24.6162 14.3486L24.999 14.7861L25.1836 15.0596V14.3213L24.4453 14.0547C24.3633 14.041 23.6318 13.9385 23.4541 13.9385C23.2832 13.9385 22.627 14.041 22.5176 14.0547L21.5674 14.6699L21.4922 14.5537L22.4629 13.9248H22.4766C22.5107 13.918 23.249 13.8018 23.4473 13.8018C23.6387 13.8018 24.4316 13.918 24.4658 13.9248L24.4795 13.9316L25.2793 14.2256L25.3545 14.2666L25.3613 14.2119L24.9854 13.8838L24.3086 13.5557L23.4883 13.4873L22.5449 13.6514L22.1689 13.8154L22.1143 13.6855L22.5107 13.5146L23.4814 13.3437L24.3428 13.4189L24.377 13.4395L24.1172 13.0361L23.3857 12.3936L23.3926 12.3867L20.5488 12.4687C20.5488 12.4687 20.1797 12.5166 19.7559 12.5713L20.1592 13.1523L20.3643 13.5146L20.2617 13.877L20.125 13.8359L20.2139 13.5283L20.0361 13.2207L19.6055 12.5986L19.6328 12.5781C19.0996 12.6465 18.5322 12.7148 18.498 12.7148C18.4365 12.7148 16.1533 12.8857 16.0576 12.8857C15.8662 12.8721 15.6748 12.8516 15.4902 12.8105C15.4561 12.79 13.9316 12.2363 13.877 12.2021C13.8223 12.168 13.2891 11.6553 13.2891 11.6553L12.25 11.334L11.3408 12.4551L10.3975 13.877ZM21.4922 17.0146C21.6289 17.0762 21.752 17.1514 21.8818 17.2266L22.6611 17.3154L23.1055 17.2197L23.1328 17.3564L22.668 17.4521L22.1279 17.3906C22.3604 17.5615 22.5723 17.7529 22.7637 17.9717C22.9004 18.1289 23.0234 18.2998 23.126 18.4775L23.0029 18.5459C22.8799 18.3408 22.7363 18.1426 22.5654 17.9717C22.3398 17.7393 22.0869 17.5273 21.8135 17.3564L21.417 17.1309L21.4922 17.0146ZM13.6787 14.458L14.3008 13.8633L14.8408 13.4189L15.6133 13.2686L16.4268 13.2412H17.2949L18.0127 13.2686L19.4687 13.2959L19.9268 13.5762L20.4873 14.0889L20.8086 14.4854L20.959 15.292L20.8223 15.3193L20.6787 14.5469L20.3848 14.1777L19.8447 13.6855L19.4346 13.4326L18.293 13.4121L18.792 13.6855C19.0586 13.8223 19.5166 14.0684 19.5645 14.1709C19.5986 14.2256 19.9609 14.5811 20.2959 14.8955L20.3027 14.9023L20.8154 15.5654L20.8906 16.1123L20.7539 16.1328L20.6855 15.627L20.2002 14.998C20.0293 14.8408 19.4961 14.335 19.4482 14.2393C19.4072 14.1846 19.0518 13.9795 18.7373 13.8154L18.0059 13.4121L17.3018 13.3916H16.4404L15.6338 13.4121L14.916 13.5488L14.4033 13.9658L13.8223 14.5264L13.7607 14.8955L13.8838 15.0049L14.1914 14.8408L14.6973 14.2119L15.6133 13.8633L16.8027 13.7402L17.8076 13.8359L19.1133 14.5127L19.6533 14.834L20.1729 15.5244L20.4121 16.2764L20.7607 16.502V16.8096L20.4395 17.1035L19.8652 17.3428L19.6191 17.5479L19.3594 17.9717L19.2295 18.1836L19.2158 18.1904C19.0449 18.2793 18.7441 18.4365 18.6621 18.4365C18.6006 18.4502 18.2178 18.6211 17.876 18.792L17.8418 18.7988C17.8145 18.8057 17.2129 18.9902 17.0625 19.0176L17.042 18.8809C17.1719 18.8604 17.7393 18.6895 17.7939 18.6689C18.1357 18.5049 18.5596 18.3066 18.6348 18.3066C18.7988 18.2451 18.9561 18.1699 19.1133 18.0811L19.1748 17.9785L19.4893 17.4658L19.5645 17.4043C19.3457 17.3838 19.0586 17.3496 18.9834 17.3086C18.9492 17.2949 18.7441 17.2676 17.6709 17.2676C17.4043 17.2676 16.7754 17.124 16.6865 17.0967C16.6182 17.0762 15.9756 16.8848 15.9688 16.8848L15.9551 16.8779L15.9414 16.8643C15.9346 16.8574 15.3398 16.29 14.9023 16.0371L14.9707 15.9141C15.3945 16.1602 15.9346 16.666 16.0303 16.7549C16.1328 16.7822 16.666 16.9463 16.7344 16.9668C16.8096 16.9941 17.4248 17.1309 17.6709 17.1309C18.9629 17.1309 19.0176 17.165 19.0518 17.1924C19.0996 17.2197 19.4072 17.2539 19.667 17.2744L19.6602 17.3223L19.7627 17.2334L20.3369 16.9941L20.5898 16.7617V16.5908L20.4121 16.4746L20.4189 16.4951L19.8242 16.7139L19.0039 16.8096C18.9629 16.8096 18.7852 16.8164 18.5869 16.8164C18.3545 16.8164 18.1016 16.8096 18.0264 16.7822C17.917 16.748 17.2266 16.5977 16.8848 16.5225H16.8779L16.8711 16.5156C16.4404 16.2832 15.9072 15.9893 15.8662 15.9141C15.832 15.873 15.5654 15.7363 15.3398 15.627H15.333L14.5742 15.1826L14.4717 15.2031L14.458 15.1143L14.2188 14.9775L13.8496 15.1758L13.5898 14.9502L13.6787 14.458ZM13.9932 17.7324L14.0273 17.8691L13.5625 17.9785L13.3301 18.0332L13.3164 17.9785L13.2959 17.8965L13.9932 17.7324ZM14.2871 18.3818L14.2529 18.5186C14.0957 18.4844 13.9316 18.4912 13.7744 18.5186C13.5146 18.5664 13.1318 18.7168 12.7627 19.1406L12.6602 19.0518C13.4189 18.1631 14.2529 18.3682 14.2871 18.3818Z" fill="#3D8130"/>
<path d="M15.2236 14.9229C15.2646 14.916 16.2354 14.7998 16.3584 14.7998C16.4063 14.7998 16.543 14.8135 16.7207 14.8271C16.96 14.8477 17.3633 14.8818 17.4248 14.875C17.5205 14.8477 18.4775 14.7656 18.5869 14.752L19.1543 14.7109L19.0381 14.6426L17.7598 13.9795L16.7959 13.8838L15.6338 14L14.7725 14.3281L14.335 14.875L14.6152 15.0391L15.2236 14.9229Z" fill="#3D8130"/>
<path d="M18.5938 14.8955C18.1699 14.9365 17.5205 14.998 17.4521 15.0117C17.3906 15.0254 17.1719 15.0117 16.707 14.9707C16.5498 14.957 16.3994 14.9434 16.3584 14.9434C16.2627 14.9434 15.5244 15.0322 15.2441 15.0596L14.793 15.1416L15.4082 15.5039C15.5996 15.5928 15.9277 15.7568 15.9824 15.8389C16.0371 15.8936 16.502 16.1602 16.9326 16.3926C17.042 16.4131 17.9443 16.6113 18.0811 16.6592C18.1768 16.6934 18.7031 16.6865 19.0107 16.6797L19.8174 16.584L20.3027 16.3994L20.2754 16.3857L20.0293 15.6064L19.5439 14.957L19.2568 14.7861L19.2637 14.8545L18.5938 14.8955Z" fill="#3D8130"/>
<path d="M24.9102 14.8408L24.5684 14.458L23.7344 14.3623H22.8457L22.1279 14.875L21.4443 15.6475L21.2256 16.2832C21.335 16.3652 21.5537 16.502 21.6973 16.502C21.8408 16.502 22.3057 16.5771 22.6816 16.6387C22.8594 16.666 23.0371 16.6934 23.0645 16.6934C23.126 16.6865 23.7686 16.5293 24.165 16.4336L24.6709 16.2012L25.0742 15.7363L25.04 15.5176L23.7959 15.0117L22.2031 14.9639L22.21 14.8271L23.8301 14.875L25.1699 15.4219L25.2246 15.7705C25.2246 15.75 25.2246 15.7295 25.2246 15.709V15.3262L24.9102 14.8408Z" fill="#3D8130"/>
<path d="M23.4199 22.8594L22.9551 22.9482L22.2988 23.3242L21.5605 23.8711L21.3555 24.0762L21.8203 24.4043L21.8545 24.6641L21.54 24.9785L21.4443 24.8828L21.7109 24.6162L21.6973 24.4863L21.2598 24.1787L21.1299 24.3086L20.8564 24.459L20.7812 24.8281L21.1641 25.1631L21.7178 25.1426C21.8203 25.0674 21.9912 24.958 22.0732 24.9512C22.1553 24.9033 22.2373 24.8486 22.3125 24.7871C22.4971 24.6436 22.5723 24.5957 22.627 24.5957C22.791 24.5137 22.9482 24.4248 23.0986 24.3223L23.1191 24.3086L23.7891 24.3838L24.0215 24.6162L23.9736 24.6641C23.8301 24.8213 23.666 25.0264 23.6592 25.0742C23.6592 25.1084 23.6523 25.1426 23.6387 25.1699L23.7959 25.0811L24.5342 24.5547L24.6162 24.6709L23.8643 25.2041L23.5156 25.3955C23.502 25.416 23.4883 25.4365 23.4814 25.4434L23.4541 25.4229L22.9209 25.7168L22.5518 26.25L22.4219 26.5645L22.6885 26.9404L22.9824 27.2754L23.3311 27.3164L23.6523 27.248L23.6455 27.1797L24.001 26.6191L24.6709 25.9697L24.7666 26.0723L24.1035 26.7148L23.7822 27.2139L23.8027 27.5898L24.1445 27.8223L24.5957 27.8701L24.8486 27.7949L24.8008 27.7197L24.835 27.6787C24.8486 27.6582 25.2178 27.2412 25.293 27.1729C25.3477 27.1182 25.6621 26.7559 25.8193 26.5781L25.9219 26.667C25.9014 26.6875 25.4639 27.2002 25.3887 27.2686C25.334 27.3232 25.0674 27.6172 24.9717 27.7266L25.2109 28.082H25.6143L25.9629 27.9248L26.25 27.501L26.6328 27.0908L26.7354 27.1865L26.3525 27.5898L26.0586 28.0342L25.6416 28.2187H25.1357L24.9238 27.9043L24.6025 28L24.0898 27.9521L23.666 27.6582L23.6523 27.3848L23.3311 27.4531L22.9072 27.3984L22.5859 27.0293L22.1074 26.7422L21.6084 26.1885L21.4854 25.3271L21.6221 25.3066L21.7246 26.0449L22.3193 25.5732L22.9619 24.958L23.3311 24.4521L23.1533 24.4316C22.9551 24.5615 22.7227 24.7051 22.6406 24.7188C22.5586 24.7666 22.4766 24.8213 22.4014 24.8828C22.21 25.0264 22.1348 25.0742 22.0869 25.0742C21.9844 25.1221 21.8818 25.1836 21.793 25.252L21.7725 25.2656L21.123 25.293L20.6377 24.8623L20.7061 24.5342L20.6582 24.5615L20.2207 24.2471L19.708 24.3975C19.6533 24.5205 19.6123 24.6436 19.585 24.7734C19.5918 24.8281 19.7422 25.0811 19.8789 25.2793C20.0635 25.4844 20.4873 25.9697 20.5146 26.0723C20.5352 26.1475 20.624 26.3662 20.6582 26.4482L20.665 26.4619L20.6445 27.3916L20.9111 27.7881C21.0479 27.8701 22.0527 28.458 22.1689 28.5264C22.251 28.5742 22.9756 28.7793 23.4199 28.9023L24.917 29.0459L26.1201 28.8818L27.1523 28.4102L27.7129 27.8701L27.583 27.3916L26.8926 26.1064L26.3936 25.3477L25.5254 24.4043L24.2471 23.7002L24.0557 23.29L23.4199 22.8594Z" fill="#3D8130"/>
<path d="M24.5068 20.0908L24.4863 20.0977C24.3496 20.1455 23.6523 20.3916 23.502 20.3916C23.3584 20.3916 21.957 20.4121 21.9434 20.4189C21.9229 20.4189 20.2139 20.3232 20.002 20.3232C19.8652 20.3232 19.3115 20.2344 18.8193 20.1523C18.5459 20.1045 18.2656 20.0635 18.2246 20.0635C18.1289 20.0635 16.3584 19.7012 16.0029 19.6328H15.9961L14.2939 19.1064L13.583 18.9492L13.3369 19.1338L13.2549 19.4277L13.3164 19.7422L14.1094 20.2754L15.4697 21.0615L17.0146 21.7041L18.6348 21.9639L19.6465 22.1553L20.8564 22.3193L22.6748 22.1279H22.6816L23.6318 22.1484L24.2061 21.9844L24.6914 21.5947L25.0879 20.9863L25.1768 20.7061L25.0469 20.3916C24.4727 20.9111 24.4111 20.9316 24.377 20.9385L23.7891 21.082L22.1553 21.1572H22.1484L20.4395 21.0615L18.7441 20.7539L17.377 20.7812H17.3701L15.9482 20.4189L14.6904 19.9814L14.0205 19.5713L14.0957 19.4551L14.7588 19.8584L15.9961 20.2891L17.3975 20.6445L18.7646 20.6172H18.7715L20.4668 20.9248L22.1621 21.0205L23.7822 20.9521L24.3496 20.8086C24.3838 20.7949 24.5752 20.6445 24.9785 20.2754C25.0332 20.2275 25.0674 20.1934 25.0811 20.1797L25.6006 19.4687L25.7783 19.1338C25.751 19.0176 25.7236 18.9082 25.71 18.792C25.6416 18.6826 25.5664 18.5869 25.4775 18.4912C25.4775 18.5527 25.4775 18.6143 25.4639 18.6758V18.6895L24.9922 19.5029L24.5068 20.0908Z" fill="#983B1F"/>
<path d="M27.6924 27.3438L26.9951 26.0449L26.4893 25.2725L25.6143 24.2949L24.3496 23.6045L24.165 23.208L24.1309 23.2285C24.1309 23.2285 24.2471 23.6523 24.3291 23.6934C24.4111 23.7344 25.5049 24.2949 25.5596 24.3223C25.6143 24.3496 26.5645 25.4844 26.5645 25.4844L27.3301 26.8174L27.7881 27.8428C27.7881 27.8428 27.2002 28.4443 27.166 28.4512C27.1318 28.458 25.9971 29.0117 25.9629 29.0117C25.9287 29.0117 24.8281 29.1348 24.7666 29.1211C24.7051 29.1006 23.3516 28.9844 23.249 28.9775C23.1396 28.9707 21.8887 28.4717 21.8887 28.4717L20.8086 27.8223L20.501 27.3438L20.0703 27.8291C20.0703 27.8291 19.4619 28.1367 19.3799 28.1367C19.2979 28.1367 17.8076 28.335 17.6914 28.335H14.6904C14.6904 28.335 11.7236 28.2803 11.5938 28.2187C11.5527 28.1982 11.3135 28.123 10.999 28.0205L10.7461 27.9727L10.3496 27.8223C9.86426 27.6719 9.42676 27.542 9.42676 27.542L8.20312 26.749C8.20312 26.749 7.69043 25.8604 7.66992 25.8125C7.64941 25.7646 7.33496 25.0195 7.33496 24.9854C7.33496 24.9512 7.22559 24.3564 7.22559 24.3564L7.44434 22.9961L7.54004 21.5674L7.77246 20.0088C7.77246 20.0088 8.16211 18.4434 8.16895 18.375C8.17578 18.2998 8.80469 16.7549 8.80469 16.7549L9.46777 15.5586L10.3428 13.7539L11.3066 12.3936L12.2432 11.2793L12.3047 11.2998L12.1953 11.2109L11.2861 12.3389L10.2744 13.8086L9.48145 15.3535L8.66797 16.9531L8.08691 18.4707L7.69727 20.084L7.45801 21.8477L7.31445 23.3584L7.14355 24.377L7.31445 25.1836L7.6084 25.8672L8.14844 26.8242L9.38574 27.6035L10.6914 28.1162L12.0244 28.3623L13.5488 28.4375H14.793C14.9365 28.4375 16.1328 28.3691 16.208 28.3623L17.8145 28.3896H17.8213L19.3867 28.1982H19.3936L20.1113 27.8975L20.4805 27.4531L20.7881 27.9111L20.8018 27.918C20.8154 27.9248 21.957 28.5879 22.0732 28.6631C22.1963 28.7383 23.2422 29.0254 23.3652 29.0527L24.8965 29.1963L26.127 29.0254H26.1338L27.2002 28.54L27.2139 28.5332L27.8496 27.918L27.6924 27.3438Z" fill="black"/>
<path d="M11.3066 12.3936L10.3428 13.7539L9.46777 15.5586L8.80469 16.7549C8.80469 16.7549 8.17578 18.2998 8.16895 18.375C8.16211 18.4502 7.77246 20.0088 7.77246 20.0088L7.54004 21.5674L7.44434 22.9961L7.22559 24.3564C7.22559 24.3564 7.33496 24.9512 7.33496 24.9854C7.33496 25.0195 7.64941 25.7646 7.66992 25.8125C7.69043 25.8604 8.20313 26.749 8.20313 26.749L9.42676 27.542C9.42676 27.542 9.86426 27.6719 10.3496 27.8223L9.46094 27.4736L8.25781 26.7217L7.73828 25.8057L7.45801 25.1426L7.29395 24.3701L7.45801 23.3789L7.60156 21.8682L7.84082 20.1182L8.22363 18.5186L8.79785 17.0146L9.61133 15.4082L10.3975 13.877L11.4023 12.4209L12.3115 11.2998L12.25 11.2793L11.3066 12.3936Z" fill="black"/>
<path d="M23.4473 22.7158L22.9072 22.8184L22.2236 23.208L21.4717 23.7617L21.041 24.1924L20.6582 24.4043L20.2344 24.0967L19.5918 24.2813L19.5781 24.3086C19.5508 24.3701 19.4277 24.6641 19.4277 24.7666C19.4277 24.8691 19.6328 25.1836 19.749 25.3545L19.7559 25.3613C20.0361 25.6758 20.3437 26.0381 20.3643 26.0996C20.3848 26.1885 20.4805 26.4209 20.5078 26.4824L20.4873 27.207L20.0293 27.7539L19.3594 28.0342L17.8145 28.2256L16.2148 28.1982C16.2012 28.1982 14.9434 28.2734 14.8066 28.2734H13.5625L12.0586 28.2051L11.0059 28.0137C11.3135 28.1094 11.5596 28.1914 11.6006 28.2119C11.7236 28.2734 14.6973 28.3281 14.6973 28.3281H17.6982C17.8145 28.3281 19.3115 28.1299 19.3867 28.1299C19.4688 28.1299 20.0771 27.8223 20.0771 27.8223L20.5078 27.3369L20.8154 27.8154L21.8955 28.4648C21.8955 28.4648 23.1465 28.957 23.2559 28.9707C23.3652 28.9775 24.7119 29.0938 24.7734 29.1143C24.835 29.1348 25.9355 29.0049 25.9697 29.0049C26.0039 29.0049 27.1387 28.458 27.1729 28.4443C27.207 28.4375 27.7949 27.8359 27.7949 27.8359L27.3369 26.8105L26.5713 25.4775C26.5713 25.4775 25.6211 24.3428 25.5664 24.3154C25.5117 24.2881 24.418 23.7275 24.3359 23.6865C24.2539 23.6455 24.1377 23.2217 24.1377 23.2217L24.1719 23.2012V23.1943L23.4473 22.7158ZM24.2402 23.7002L25.5186 24.4043L26.373 25.3477L26.8721 26.1064L27.5625 27.3916L27.6924 27.8701L27.1318 28.4102L26.0996 28.8818L24.8965 29.0459L23.3994 28.9023C22.9551 28.7793 22.2305 28.5742 22.1484 28.5264C22.0322 28.458 21.0273 27.8701 20.8906 27.7881L20.624 27.3916L20.6445 26.4619V26.4551C20.6104 26.373 20.5215 26.1543 20.501 26.0791C20.4736 25.9766 20.0498 25.4912 19.8652 25.2861C19.7285 25.0811 19.5713 24.8281 19.5713 24.7803C19.5986 24.6504 19.6396 24.5273 19.6943 24.4043L20.207 24.2539L20.6445 24.5684L20.6924 24.541L20.624 24.8691L21.1094 25.2998L21.7588 25.2725L21.7793 25.2588C21.8682 25.1904 21.9707 25.1289 22.0732 25.0811C22.1279 25.0811 22.1963 25.0332 22.3877 24.8896C22.4629 24.8281 22.5449 24.7734 22.627 24.7256C22.709 24.7188 22.9482 24.5684 23.1396 24.4385L23.3174 24.459L22.9482 24.9648L22.3057 25.5801L21.7109 26.0518L21.6084 25.3135L21.4717 25.334L21.5947 26.1953L22.0938 26.749L22.5723 27.0361L22.8936 27.4053L23.3174 27.46L23.6387 27.3916L23.6523 27.665L24.0762 27.959L24.5889 28.0068L24.9102 27.9111L25.1221 28.2256H25.6279L26.0449 28.041L26.3389 27.5967L26.7217 27.1934L26.6191 27.0977L26.2363 27.5078L25.9492 27.9316L25.6006 28.0889H25.1973L24.958 27.7334C25.0537 27.624 25.3203 27.3301 25.375 27.2754C25.4502 27.2002 25.8877 26.6943 25.9082 26.6738L25.8057 26.585C25.6484 26.7695 25.334 27.125 25.2793 27.1797C25.2041 27.2549 24.835 27.6719 24.8213 27.6855L24.7871 27.7266L24.835 27.8018L24.582 27.877L24.1309 27.8291L23.7891 27.5967L23.7686 27.2207L24.0898 26.7217L24.7529 26.0791L24.6572 25.9766L23.9873 26.626L23.6318 27.1865L23.6387 27.2549L23.3174 27.3232L22.9688 27.2822L22.6748 26.9473L22.4082 26.5713L22.5381 26.2568L22.9072 25.7236L23.4404 25.4297L23.4678 25.4502C23.4746 25.4365 23.4883 25.4229 23.502 25.4023L23.8506 25.2109L24.6025 24.6777L24.5205 24.5615L23.7822 25.0879L23.625 25.1768C23.6387 25.1494 23.6455 25.1152 23.6455 25.0811C23.6523 25.0264 23.8164 24.8281 23.96 24.6709L24.0078 24.623L23.7754 24.3906L23.1055 24.3154L23.085 24.3291C22.9346 24.4316 22.7773 24.5273 22.6133 24.6025C22.5586 24.6025 22.4834 24.6572 22.2988 24.7939C22.2236 24.8555 22.1416 24.9102 22.0596 24.958C21.9775 24.9648 21.8135 25.0742 21.7041 25.1494L21.1504 25.1699L20.7676 24.835L20.8428 24.4658L21.1162 24.3154L21.2461 24.1855L21.6836 24.4932L21.6973 24.623L21.4307 24.8896L21.5264 24.9854L21.8408 24.6709L21.8066 24.4111L21.3418 24.083L21.5469 23.8779L22.2852 23.3311L22.9414 22.9551L23.4062 22.8662L24.0352 23.2969L24.2402 23.7002ZM22.3672 26.7559L22.1826 26.6465L21.7725 26.1953L22.4014 25.7031L23.0508 25.0742L23.4746 24.4863L23.7139 24.5137L23.8164 24.6162C23.6865 24.7598 23.5088 24.9717 23.5088 25.0674C23.4883 25.1494 23.4473 25.2246 23.3994 25.2861L22.8047 25.6143L22.4082 26.1816L22.2441 26.5918L22.3672 26.7559Z" fill="black"/>
<path d="M24.042 12.8242L24.3906 13.2822C24.3906 13.2822 24.5615 13.5488 24.623 13.5693C24.6846 13.5898 25.252 13.918 25.252 13.918L25.4844 14.1777L25.4365 14.3281L25.2588 14.2734L25.2861 15.1553H25.3408V14.3623L25.498 14.4512L25.5391 14.1162L25.0947 13.7266L24.6162 13.4941L24.6367 13.4805L24.2676 12.8994L23.5225 12.2432L23.4404 12.3389H23.5156L24.042 12.8242Z" fill="black"/>
<path d="M25.2041 16.4268C25.2041 16.4268 24.9512 16.9326 24.9238 16.9463C24.8965 16.9668 24.6709 17.0625 24.6709 17.0625L24.6914 17.1855C24.7939 17.2607 24.8965 17.3428 24.9854 17.4316C24.999 17.4521 25.1494 17.7529 25.2725 17.9785H25.3955C25.2793 17.6367 25.0469 17.3428 24.7393 17.1582C24.7529 17.1309 24.7666 17.0967 24.7803 17.0693C24.8008 17.0557 24.8281 17.042 24.8486 17.0215C25.1836 16.7686 25.3545 16.3311 25.375 15.7158V15.2852L25.293 15.1621L25.3135 15.8252L25.2041 16.4268Z" fill="black"/>
<path d="M24.165 13.002L24.4248 13.4053L24.3906 13.3848L23.5293 13.3096L22.5586 13.4805L22.1621 13.6514L22.2168 13.7813L22.5928 13.6172L23.5361 13.4531L24.3564 13.5215L25.0332 13.8496L25.4092 14.1777L25.4023 14.2324L25.3271 14.1914L24.5273 13.8975L24.5137 13.8906C24.4795 13.8838 23.6934 13.7676 23.4951 13.7676C23.2969 13.7676 22.5586 13.8838 22.5244 13.8906H22.5107L21.54 14.5195L21.6152 14.6357L22.5654 14.0205C22.6748 14.0068 23.3311 13.9043 23.502 13.9043C23.6797 13.9043 24.4111 14.0137 24.4932 14.0205L25.2314 14.2871V15.0391L25.0469 14.7656L24.6641 14.3281L23.7754 14.2324H22.832L22.0732 14.7725L21.3555 15.5859L21.0957 16.3447L21.1367 16.3721C21.1709 16.3994 21.499 16.6523 21.7314 16.6523C21.8613 16.6523 22.3672 16.7344 22.6953 16.7822C22.9619 16.8232 23.0713 16.8437 23.0986 16.8437C23.1738 16.8437 23.9941 16.6387 24.2402 16.5771L24.7939 16.3242L25.252 15.7842C25.2246 16.3105 25.0674 16.6934 24.7871 16.9053C24.3838 17.2129 23.8574 17.083 23.8574 17.083L23.8437 17.1514L23.8301 17.2197C23.9326 17.2402 24.0352 17.2539 24.1377 17.2539C24.3018 17.2539 24.4658 17.2266 24.6162 17.165C24.4932 17.418 24.3359 17.582 24.1514 17.6504C23.9941 17.7051 23.8164 17.6914 23.666 17.6162L23.5977 17.7393C23.707 17.7939 23.8301 17.8213 23.9463 17.8213C24.0283 17.8213 24.1104 17.8076 24.1924 17.7803C24.3975 17.7051 24.5684 17.541 24.7119 17.2812C24.9717 17.4453 25.1768 17.6914 25.2861 17.9785H25.3066C25.1904 17.7529 25.0332 17.4521 25.0195 17.4316C24.9238 17.3428 24.8281 17.2607 24.7256 17.1855L24.7051 17.0625C24.7051 17.0625 24.9307 16.9668 24.958 16.9463C24.9854 16.9258 25.2383 16.4268 25.2383 16.4268L25.3477 15.832L25.3271 15.1689L25.2998 14.2871L25.4775 14.3418L25.5254 14.1914L25.293 13.9316C25.293 13.9316 24.7256 13.5967 24.6641 13.583C24.6025 13.5625 24.4316 13.2959 24.4316 13.2959L24.083 12.8379L23.5498 12.3594H23.4746L23.4678 12.3662L24.165 13.002ZM25.2314 15.7705L25.1768 15.4219L23.8369 14.875L22.2168 14.8271L22.21 14.9639L23.8027 15.0117L25.0469 15.5176L25.0811 15.7363L24.6777 16.2012L24.1719 16.4336C23.7754 16.5293 23.1328 16.6865 23.0713 16.6934C23.0439 16.6934 22.8662 16.666 22.6885 16.6387C22.3125 16.5771 21.8477 16.502 21.7041 16.502C21.5674 16.502 21.3486 16.3652 21.2324 16.2832L21.4512 15.6475L22.1348 14.875L22.8525 14.3623H23.7412L24.5752 14.458L24.917 14.8408L25.2383 15.3262V15.709C25.2314 15.7295 25.2314 15.75 25.2314 15.7705Z" fill="black"/>
<path d="M20.8633 22.4492L21.3008 22.4014H20.5283L20.8633 22.4492Z" fill="black"/>
<path d="M24.7529 22.4287C24.7324 22.4629 24.3359 23.1055 24.3359 23.1055L24.1582 23.2012L24.1992 23.249L24.5137 22.9756L24.8145 22.4697V22.4014H24.7529C24.7598 22.415 24.7598 22.4219 24.7529 22.4287Z" fill="black"/>
<path d="M24.7529 22.4287C24.7529 22.4219 24.7598 22.4082 24.7598 22.4014H24.6846V22.4287L24.4111 22.8799L24.1172 23.1396L24.165 23.1943L24.1719 23.2012L24.3496 23.1055C24.3428 23.1055 24.7393 22.4697 24.7529 22.4287Z" fill="black"/>
<path d="M25.4092 18.2383L25.4707 18.3271C25.457 18.2109 25.4365 18.0947 25.3955 17.9785H25.2725C25.3477 18.1221 25.4092 18.2383 25.4092 18.2383Z" fill="black"/>
<path d="M25.8535 19.0039C25.8467 19.0381 25.7646 19.3115 25.7441 19.3525C25.7236 19.4004 25.0811 20.2822 25.0811 20.2822L25.2314 20.5898C25.2314 20.5898 25.2588 20.8086 25.2383 20.8428C25.2178 20.877 24.6504 21.7588 24.6504 21.7588L24.7393 22.0049C24.7393 22.0049 24.7598 22.3125 24.7529 22.4082H24.8145V21.9365L24.7393 21.7314L24.8008 21.6836L25.2178 21.041L25.3271 20.6924L25.1631 20.2891C25.1768 20.2754 25.1836 20.2686 25.1836 20.2686L25.7168 19.5371L25.9287 19.1475L25.9219 19.1201C25.8945 19.0107 25.8672 18.8945 25.8535 18.7783C25.8535 18.751 25.8535 18.6758 25.498 18.2998L25.4707 18.3271L25.6826 18.6279C25.6826 18.6279 25.8604 18.9697 25.8535 19.0039Z" fill="black"/>
<path d="M25.2725 17.9785H25.252C25.334 18.1904 25.3613 18.416 25.334 18.6416L24.8828 19.4141L24.418 19.9678C24.1035 20.0771 23.5908 20.248 23.502 20.248C23.3584 20.248 22.0322 20.2686 21.9434 20.2754C21.8408 20.2686 20.2139 20.1797 20.002 20.1797C19.8789 20.1797 19.2773 20.084 18.8398 20.0088C18.4365 19.9404 18.2656 19.9131 18.2246 19.9131C18.1357 19.9062 16.8711 19.6533 16.0371 19.4824L14.335 18.9561L13.5557 18.7783L13.2207 19.0244L13.1113 19.4004L13.1934 19.8037L14.0342 20.3711L15.4082 21.1641L16.9736 21.8135H16.9805L18.6143 22.0801L19.626 22.2715L20.5215 22.3945H21.3008L22.6885 22.251L23.6455 22.2715H23.6592L24.2813 22.0938L24.6299 21.8135L24.6846 21.9502V22.3945H24.7598C24.7666 22.2988 24.7461 21.9912 24.7461 21.9912L24.6572 21.7451C24.6572 21.7451 25.2246 20.8633 25.2451 20.8291C25.2656 20.7949 25.2383 20.5762 25.2383 20.5762L25.0879 20.2686C25.0879 20.2686 25.7373 19.3867 25.751 19.3389C25.7715 19.291 25.8467 19.0244 25.8604 18.9902C25.8672 18.9561 25.6895 18.6143 25.6895 18.6143L25.4775 18.3135L25.416 18.2246C25.4092 18.2383 25.3477 18.1221 25.2725 17.9785ZM25.4707 18.6758C25.4775 18.6143 25.4844 18.5527 25.4844 18.4912C25.5732 18.5801 25.6484 18.6826 25.7168 18.792C25.7305 18.9082 25.751 19.0244 25.7852 19.1338L25.6074 19.4687L25.0879 20.1797C25.0742 20.1934 25.0332 20.2275 24.9854 20.2754C24.582 20.6445 24.3975 20.7881 24.3564 20.8086L23.7891 20.9521L22.1689 21.0205L20.4736 20.9248L18.7783 20.6172H18.7715L17.4043 20.6445L16.0029 20.2891L14.7656 19.8584L14.1025 19.4551L14.0273 19.5713L14.6973 19.9814L15.9551 20.4189L17.377 20.7812H17.3838L18.751 20.7539L20.4463 21.0615L22.1553 21.1572H22.1621L23.7959 21.082L24.3838 20.9385C24.4111 20.9316 24.4795 20.9111 25.0537 20.3916L25.1836 20.7061L25.0947 20.9863L24.6982 21.5947L24.2129 21.9844L23.6387 22.1484L22.6885 22.1279H22.6816L20.8633 22.3193L19.6533 22.1553L18.6416 21.9639L17.0215 21.7041L15.4766 21.0615L14.1162 20.2754L13.3232 19.7422L13.2617 19.4277L13.3437 19.1338L13.5898 18.9492L14.3008 19.1064L16.0029 19.6328H16.0098C16.3652 19.708 18.1289 20.0635 18.2314 20.0635C18.2656 20.0635 18.5527 20.1113 18.8262 20.1523C19.3184 20.2344 19.8721 20.3232 20.0088 20.3232C20.2207 20.3232 21.9297 20.4189 21.9502 20.4189C21.9639 20.4189 23.3652 20.3916 23.5088 20.3916C23.6592 20.3916 24.3564 20.1455 24.4932 20.0977L24.5137 20.0908L25.0059 19.5029L25.4775 18.6895L25.4707 18.6758Z" fill="black"/>
<path d="M13.7744 18.5185C13.9316 18.4844 14.0957 18.4844 14.2529 18.5185L14.2871 18.3818C14.2529 18.375 13.4189 18.1631 12.6602 19.0517L12.7627 19.1406C13.1318 18.71 13.5146 18.5664 13.7744 18.5185Z" fill="black"/>
<path d="M13.5557 17.9785L14.0205 17.8691L13.9932 17.7324L13.2959 17.8965L13.3164 17.9785H13.5557Z" fill="black"/>
<path d="M13.3301 18.0332L13.5557 17.9785H13.3164L13.3301 18.0332Z" fill="black"/>
<path d="M21.8271 17.3633C22.1006 17.541 22.3535 17.7461 22.5791 17.9785H22.7705C22.5791 17.7598 22.3672 17.5684 22.1348 17.3975L22.6748 17.459L23.1396 17.3633L23.1123 17.2266L22.668 17.3223L21.8887 17.2334C21.7656 17.1514 21.6357 17.083 21.499 17.0215L21.4375 17.1445L21.8271 17.3633Z" fill="black"/>
<path d="M23.0098 18.5527L23.1328 18.4844C23.0303 18.3066 22.9072 18.1357 22.7705 17.9785H22.5791C22.7432 18.1562 22.8867 18.3477 23.0098 18.5527Z" fill="black"/>
<path d="M14.2187 14.9775L14.458 15.1143L14.4717 15.2031L14.5742 15.1826L15.333 15.627H15.3398C15.5654 15.7363 15.832 15.873 15.8662 15.9141C15.9141 15.9824 16.4404 16.2764 16.8711 16.5156L16.8779 16.5225H16.8848C17.2334 16.5977 17.917 16.748 18.0264 16.7822C18.1084 16.8096 18.3613 16.8164 18.5869 16.8164C18.7852 16.8164 18.9697 16.8096 19.0039 16.8096L19.8242 16.7139L20.4189 16.4951L20.4121 16.4746L20.5898 16.5908V16.7617L20.3369 16.9941L19.7627 17.2334L19.6602 17.3223L19.667 17.2744C19.4072 17.2539 19.0996 17.2129 19.0518 17.1924C19.0176 17.1719 18.9629 17.1309 17.6709 17.1309C17.4248 17.1309 16.8096 16.9941 16.7344 16.9668C16.666 16.9463 16.1328 16.7822 16.0303 16.7549C15.9414 16.666 15.4014 16.167 14.9707 15.9141L14.9023 16.0371C15.3467 16.2969 15.9414 16.8574 15.9414 16.8643L15.9551 16.8779L15.9688 16.8848C15.9756 16.8848 16.6182 17.0762 16.6865 17.0967C16.7686 17.124 17.3975 17.2676 17.6709 17.2676C18.7441 17.2676 18.9424 17.2949 18.9834 17.3086C19.0586 17.3496 19.3457 17.3838 19.5645 17.4043L19.4893 17.4658L19.1748 17.9785H19.3389L19.5986 17.5547L19.8447 17.3496L20.4189 17.1104L20.7402 16.8164V16.5088L20.3916 16.2832L20.1523 15.5312L19.6328 14.8408L19.0928 14.5195L17.7871 13.8428L16.7822 13.7471L15.5928 13.8701L14.6768 14.2187L14.1709 14.8477L13.8633 15.0117L13.7402 14.9023L13.8018 14.5332L14.3828 13.9727L14.8955 13.5557L15.6133 13.4189L16.4199 13.3984H17.2812L17.9854 13.4189L18.7168 13.8223C19.0312 13.9863 19.3936 14.1914 19.4277 14.2461C19.4756 14.3418 20.0088 14.8477 20.1797 15.0049L20.665 15.6338L20.7334 16.1396L20.8701 16.1191L20.7949 15.5723L20.2822 14.9092L20.2754 14.9023C19.9404 14.5947 19.5781 14.2393 19.5439 14.1777C19.4961 14.0752 19.0381 13.8291 18.7715 13.6924L18.2725 13.4189L19.4141 13.4395L19.8242 13.6924L20.3643 14.1846L20.6582 14.5537L20.8018 15.3262L20.9385 15.2988L20.7881 14.4922L20.4668 14.0957L19.9063 13.583L19.4482 13.3027L17.9922 13.2754L17.2744 13.248H16.4062L15.5928 13.2754L14.8203 13.4258L14.2803 13.8701L13.6582 14.4648L13.5762 14.957L13.8359 15.1826L14.2187 14.9775ZM19.5508 14.9502L20.0361 15.5996L20.2822 16.3789L20.3096 16.3926L19.8242 16.5771L19.0176 16.6729C18.71 16.6797 18.1836 16.6865 18.0879 16.6523C17.9512 16.6045 17.0488 16.4131 16.9395 16.3857C16.5088 16.1533 16.0371 15.8867 15.9893 15.832C15.9346 15.7568 15.6064 15.5928 15.415 15.4971L14.7998 15.1348L15.251 15.0527C15.5312 15.0186 16.2695 14.9365 16.3652 14.9365C16.4062 14.9365 16.5566 14.9502 16.7139 14.9639C17.1787 15.0049 17.3975 15.0186 17.459 15.0049C17.5273 14.9912 18.1768 14.9229 18.6006 14.8887L19.2705 14.8408L19.2637 14.7725L19.5508 14.9502ZM14.7656 14.335L15.627 14.0068L16.7891 13.8906L17.7529 13.9863L19.0312 14.6494L19.1475 14.7178L18.5801 14.7588C18.4707 14.7656 17.5137 14.8545 17.418 14.8818C17.3564 14.8955 16.96 14.8545 16.7139 14.834C16.5361 14.8203 16.3994 14.8066 16.3516 14.8066C16.2285 14.8066 15.2578 14.9229 15.2168 14.9297L14.6016 15.0459L14.3213 14.8818L14.7656 14.335Z" fill="black"/>
<path d="M19.1133 18.0811C18.9561 18.1699 18.7988 18.2383 18.6348 18.3066C18.5596 18.3066 18.1357 18.5049 17.7939 18.6689C17.7324 18.6895 17.1719 18.8604 17.042 18.8809L17.0625 19.0176C17.2061 18.9902 17.8145 18.8057 17.8418 18.7988L17.8486 18.792C18.1904 18.6279 18.5801 18.4502 18.6348 18.4365C18.7168 18.4297 19.0176 18.2793 19.1885 18.1904L19.2021 18.1836L19.332 17.9717H19.168L19.1133 18.0811Z" fill="black"/>
<path d="M19.7695 12.4824L19.6807 12.5439C19.7217 12.5371 19.7627 12.5371 19.8037 12.5303L19.7695 12.4824Z" fill="black"/>
<path d="M20.0908 13.1865L20.2686 13.4941L20.1797 13.8018L20.3164 13.8428L20.4189 13.4805L20.2139 13.1182L19.8105 12.5371C19.7695 12.5439 19.7285 12.5439 19.6875 12.5508L19.6602 12.5713L20.0908 13.1865Z" fill="black"/>
<path d="M24.2744 13.0225L24.8828 12.9609C24.8828 12.9609 26.4004 13.4121 26.4619 13.4736C26.5234 13.5352 27.2891 13.8701 27.2891 13.8701L27.7402 13.9111L27.8018 13.501L27.4668 13.0225L26.5029 12.3115L25.4023 11.7783L24.7119 11.5391L24.4658 8.05273L23.8848 7.18457L23.0166 6.47363L21.8955 5.91992L20.7334 5.89941L18.5459 6.17285L16.5361 6.56934L16.4199 6.22754C16.2627 6.18652 16.1055 6.15918 15.9482 6.13867C15.832 6.13867 14.7656 6.4668 14.7656 6.4668L14.1162 6.80859L13.9795 7.20508L13.0498 7.71777L12.2979 8.66113L11.8672 9.57031C11.8672 9.57031 11.6484 10.4795 11.6484 10.5342C11.6484 10.5889 11.7646 11.0879 11.8467 11.1221C11.9287 11.1562 12.5371 11.3203 12.5371 11.3203L13.3369 11.7168L14.4922 12.3867L15.9277 12.8584C15.9277 12.8584 17.2881 12.7627 17.4248 12.7627C17.5615 12.7627 19.6123 12.5439 19.7285 12.5439C19.8447 12.5439 22.0937 12.3662 22.1553 12.3662C22.2168 12.3662 23.5566 12.3457 23.5566 12.3457L24.0898 12.8174L24.2744 13.0225Z" fill="#C82727"/>
<path d="M23.7412 14.957L23.9189 15.333L24.0283 15.7637L23.9736 16.0371L23.7412 16.6318L23.0029 16.7549L21.8135 16.543L21.6699 16.126L21.7246 15.75L21.8477 15.1553L22.1553 14.8135L22.3535 14.9229L23.666 14.957" fill="black"/>
<path d="M18.3271 14.9023L18.5459 15.3193L18.5664 15.8252L18.457 16.2764L18.2246 16.6387L17.8486 16.6592L16.4062 16.2285L15.832 15.7227L15.9072 15.4014L16.1055 15.0938L16.3721 14.8818L17.3838 14.9092C17.3701 14.9023 18.2861 14.9775 18.3271 14.9023Z" fill="black"/>
<path d="M27.6172 13.0771L27.0566 12.585L26.25 12.0449L24.9238 11.5596L24.7393 11.4844L24.6846 10.3428C24.6162 9.78223 24.5205 8.93457 24.5205 8.86621C24.5205 8.77051 24.4727 8.07324 24.4727 8.0459V8.03223L24.0762 7.31445L23.4131 6.63086L22.3945 6.0498L21.5469 5.81055H20.3848L19.2432 5.9541C18.7852 6.0293 18.0674 6.14551 17.9854 6.14551C17.8623 6.14551 16.9053 6.36426 16.7959 6.38477L16.4609 6.47363L16.5156 6.44629L16.4063 6.22754L16.0508 6.09082L15.5313 6.13867L14.6973 6.34375L14.0684 6.74707L13.9385 7.08203L14.0273 7.11621L13.6787 7.20508H13.665L12.9268 7.66992L12.4141 8.25098L11.9492 9.03027L11.5801 10.3018V10.7598L11.8193 11.1836L13.3164 11.7168L13.8154 12.168L14.9297 12.6738L15.9141 12.9199L17.7529 12.7969L20.4121 12.5098L22.3057 12.3662L23.8779 12.3867L25.5391 12.626L26.8516 13.248L26.9131 13.125L25.5869 12.4961L23.8984 12.2568L22.3057 12.2295L20.4053 12.373L17.7461 12.6602L15.9346 12.7764L14.9912 12.5439L13.9043 12.0449L13.3984 11.5869L11.9219 11.0605L11.7305 10.7188V10.3154L12.0859 9.08496L12.5371 8.33301L13.0293 7.77246L13.7334 7.32812L16.8369 6.51465C17.2402 6.42578 17.917 6.27539 17.999 6.27539C18.1221 6.27539 19.1611 6.10449 19.2773 6.08398L20.3984 5.94043H21.5332L22.333 6.17285L23.3242 6.74023L23.96 7.39648L24.3291 8.07324C24.3428 8.32617 24.377 8.79785 24.377 8.86621C24.377 8.96191 24.5273 10.2197 24.5479 10.3564L24.6025 11.4297L23.7959 11.1221L22.2031 10.9512L21 10.8281L19.8174 10.9238L18.4502 11.0674L16.8574 11.4297L15.6611 11.7168L14.8613 11.7646L13.8359 11.5596L14.3555 11.9355L14.7793 12.1816L15.75 12.4209L16.7002 12.4482H16.707L17.5547 12.3525L18.751 12.1611L19.9199 11.9697L21.2324 11.874L22.1416 11.8262L23.2354 11.8945L24.7188 12.0859L26.6328 12.4482L26.9678 12.667L27.501 13.1318L27.6514 13.4805L27.6172 13.7402L27.3301 13.7607L26.7695 13.501L25.7373 13.0908L24.9238 12.8447L24.2129 12.9199L24.2266 13.0566L24.9102 12.9883L25.6826 13.2207L26.708 13.624L27.3027 13.8975L27.7334 13.8701L27.7949 13.46L27.6172 13.0771ZM14.082 7.0957L14.1846 6.83594L14.752 6.47363L15.5518 6.28223L16.0371 6.23437L16.3105 6.33691L16.3857 6.4873L14.082 7.0957ZM24.7393 11.9766L23.2422 11.7852L22.1348 11.71L21.2188 11.7578L19.8994 11.8535L18.7168 12.0449L17.5205 12.2363L16.6865 12.332L15.7637 12.3115L14.8203 12.0791L14.4238 11.8467H14.417L14.834 11.9287L15.6611 11.8809L16.8711 11.5938L18.4502 11.2383L19.8105 11.0947L20.9795 10.999L22.1689 11.1152L23.7412 11.2793L24.8623 11.71L26.1748 12.1885L26.3252 12.291L24.7393 11.9766Z" fill="black"/>
<path d="M17.8762 16.0356C18.1042 15.9678 18.2428 15.7574 18.1857 15.5656C18.1287 15.3738 17.8976 15.2733 17.6696 15.3411C17.4416 15.4089 17.3031 15.6193 17.3601 15.8111C17.4172 16.0029 17.6482 16.1034 17.8762 16.0356Z" fill="white"/>
<path d="M16.7617 15.9961C16.8599 15.9961 16.9395 15.9165 16.9395 15.8184C16.9395 15.7202 16.8599 15.6406 16.7617 15.6406C16.6636 15.6406 16.584 15.7202 16.584 15.8184C16.584 15.9165 16.6636 15.9961 16.7617 15.9961Z" fill="white"/>
<path d="M16.6523 15.4424C16.7505 15.4424 16.8301 15.3628 16.8301 15.2646C16.8301 15.1665 16.7505 15.0869 16.6523 15.0869C16.5542 15.0869 16.4746 15.1665 16.4746 15.2646C16.4746 15.3628 16.5542 15.4424 16.6523 15.4424Z" fill="white"/>
<path d="M22.4424 16.2217C22.533 16.2217 22.6064 16.1482 22.6064 16.0576C22.6064 15.967 22.533 15.8936 22.4424 15.8936C22.3518 15.8936 22.2783 15.967 22.2783 16.0576C22.2783 16.1482 22.3518 16.2217 22.4424 16.2217Z" fill="white"/>
<path d="M22.4219 15.5996C22.52 15.5996 22.5996 15.52 22.5996 15.4219C22.5996 15.3237 22.52 15.2441 22.4219 15.2441C22.3237 15.2441 22.2441 15.3237 22.2441 15.4219C22.2441 15.52 22.3237 15.5996 22.4219 15.5996Z" fill="white"/>
<path d="M23.3994 16.1055C23.5769 16.1055 23.7207 15.9616 23.7207 15.7842C23.7207 15.6067 23.5769 15.4629 23.3994 15.4629C23.222 15.4629 23.0781 15.6067 23.0781 15.7842C23.0781 15.9616 23.222 16.1055 23.3994 16.1055Z" fill="white"/>
</svg>
