<svg width="35" height="35" viewBox="0 0 35 35" fill="none" xmlns="http://www.w3.org/2000/svg">
<circle cx="17" cy="17" r="12" fill="#F00500"/>
<g clip-path="url(#clip0_251_167)">
<path d="M21.53 11.2089C21.0454 11.6935 20.6014 12.2187 20.2068 12.7787L20.082 12.7381C19.3624 12.503 18.6166 12.358 17.8651 12.3086C17.6387 12.2912 16.7943 12.2912 16.5187 12.3086C15.6858 12.3638 15.0475 12.4885 14.322 12.741C14.293 12.7526 14.2669 12.7613 14.2408 12.77C13.8316 12.2129 13.376 11.6906 12.874 11.2118C15.2825 9.97851 18.1001 9.83051 20.6218 10.8026C20.8916 10.9042 21.1557 11.0231 21.4139 11.1508L21.53 11.2089Z" fill="#F00500"/>
<path d="M26.0219 22.2151C25.6563 23.2569 25.1078 24.2232 24.3969 25.0647C24.0109 25.5174 23.5844 25.9323 23.1259 26.3095C22.0522 27.1743 20.7987 27.7923 19.461 28.1173C17.9811 28.4743 16.4373 28.4743 14.9574 28.1173C13.6168 27.7923 12.3661 27.1743 11.2925 26.3095C10.834 25.9323 10.4074 25.5174 10.0215 25.0647C7.97574 22.6475 7.35476 19.3279 8.39649 16.3361C8.59381 15.7819 8.84047 15.248 9.13645 14.7402C9.27283 14.508 9.44113 14.2469 9.52238 14.1395C9.80095 15.3379 10.1434 16.3913 10.271 16.7714C10.2623 16.7917 10.2507 16.8149 10.2391 16.8352C9.56301 18.2049 9.19738 19.5252 9.11033 20.9296C9.11033 20.9471 9.10743 20.9674 9.10743 20.9848C9.08421 21.4055 9.09582 21.6058 9.16546 21.8698C9.3831 22.6968 10.0534 23.608 11.1039 24.5017C12.8246 25.9642 15.1576 27.0205 16.9248 27.1423C18.7674 27.2671 21.4864 26.1906 23.2971 24.6178C23.5815 24.3654 23.8484 24.0984 24.098 23.814C24.2779 23.6051 24.5449 23.2453 24.5246 23.2453C24.5188 23.2453 24.5246 23.2395 24.5362 23.2337C24.5449 23.2279 24.5536 23.2191 24.5478 23.2133C24.5449 23.2104 24.5507 23.2017 24.5594 23.1988C24.5681 23.1959 24.5739 23.1901 24.571 23.1843C24.5681 23.1785 24.571 23.1727 24.5826 23.1698C24.5913 23.1669 24.5942 23.1582 24.5913 23.1524C24.5884 23.1466 24.5913 23.1408 24.5971 23.1408C24.6029 23.1408 24.6087 23.1321 24.6087 23.1263C24.6087 23.1205 24.6145 23.1118 24.6203 23.1118C24.6261 23.1118 24.6319 23.106 24.6319 23.1002C24.6406 23.077 24.6551 23.0537 24.6696 23.0334C24.7132 22.9667 24.8873 22.6562 24.9105 22.604C25.0759 22.2296 25.1804 21.8959 25.2297 21.5622C25.2529 21.4026 25.2674 21.1096 25.2558 21.0399C25.2529 21.0283 25.2529 21.008 25.25 20.9761C25.2442 20.918 25.2413 20.831 25.2355 20.7439C25.2297 20.6134 25.2181 20.4305 25.2094 20.3406C25.0846 19.0232 24.748 17.9466 24.1096 16.8062C24.0835 16.7627 24.0603 16.7192 24.0458 16.6844C24.04 16.6756 24.0371 16.6669 24.0342 16.6611C24.1241 16.3913 24.4926 15.2625 24.7857 13.9712L24.7915 13.977L24.835 14.035C24.9105 14.1366 25.1107 14.4384 25.2007 14.5835C25.6098 15.2509 25.929 15.9676 26.1554 16.7163C26.6806 18.5183 26.6371 20.4392 26.0219 22.2151Z" fill="#F00500"/>
<path d="M22.2557 18.7475C22.2469 18.794 22.1106 18.9333 21.9742 19.0348C21.5737 19.3279 20.857 19.6007 20.1287 19.7312C19.7137 19.8067 19.2987 19.8183 19.174 19.7574C19.0927 19.7167 19.0811 19.6848 19.1101 19.5804C19.1711 19.3627 19.3684 19.1248 19.676 18.9013C19.8327 18.7882 20.4682 18.4022 20.7641 18.2397C21.2516 17.9728 21.6463 17.8132 21.9132 17.7754C21.9974 17.7638 22.099 17.7609 22.1309 17.7754C22.1831 17.7958 22.2411 17.9496 22.2644 18.1353C22.276 18.2339 22.2702 18.6692 22.2557 18.7475Z" fill="black"/>
<path d="M15.4184 19.7082C15.401 19.743 15.314 19.7807 15.2153 19.7952C15.1166 19.8097 14.8149 19.801 14.6437 19.7807C14.0285 19.6995 13.3756 19.5108 12.8997 19.2787C12.6327 19.1481 12.4412 19.0175 12.299 18.8754L12.2178 18.7912L12.2091 18.6809C12.1946 18.4894 12.1975 18.1876 12.2207 18.0803C12.2352 17.9903 12.2671 17.9033 12.3106 17.8249C12.3338 17.7959 12.3338 17.7959 12.4383 17.7959C12.566 17.7959 12.6733 17.8162 12.8475 17.8713C13.2044 17.9816 13.7354 18.2486 14.3825 18.6374C14.9164 18.9566 15.1166 19.1133 15.2704 19.328C15.3749 19.4615 15.4445 19.6501 15.4184 19.7082Z" fill="black"/>
<path d="M19.5276 23.7472C19.5276 23.7559 19.4928 23.8952 19.4493 24.0606C19.4057 24.226 19.3709 24.3595 19.3709 24.3653C19.339 24.3682 19.31 24.3711 19.2781 24.3682H19.1852L19.0575 24.67C18.9879 24.8354 18.924 24.9892 18.9153 25.0124L18.8979 25.053L18.837 24.9544L18.7761 24.8557V24.0519L18.7528 24.0577C18.7035 24.0693 18.3524 24.1158 18.1986 24.1303C17.5631 24.1941 16.9247 24.1796 16.2921 24.0896C16.1906 24.0751 16.1035 24.0635 16.1006 24.0664C16.0977 24.0693 16.1006 24.255 16.1064 24.4843L16.1151 24.8963L16.0658 24.9718C16.0397 25.0124 16.0136 25.0472 16.0136 25.0501C16.0049 25.0588 15.9758 25.0124 15.9091 24.8789C15.8366 24.7396 15.7843 24.5916 15.7466 24.4379L15.7263 24.3537L15.6363 24.3595L15.5464 24.3682L15.5232 24.2608C15.5116 24.2028 15.497 24.1129 15.4912 24.0635L15.4825 23.9707L15.4071 23.9039C15.3636 23.8662 15.32 23.8285 15.3113 23.8227C15.2968 23.8111 15.291 23.7908 15.291 23.7733V23.7385L15.6537 23.7414L16.0165 23.7443L16.0281 23.782L16.0397 23.8198L16.1645 23.8256C16.2341 23.8285 16.4546 23.8343 16.6519 23.8401L17.0147 23.8488L17.1075 23.7037L17.2033 23.5586H17.3252L17.3223 23.2568L17.3194 22.955L17.1598 22.8854C16.6461 22.6591 16.3444 22.4008 16.2312 22.0874C16.208 22.0236 16.208 22.0004 16.2022 21.7102C16.1993 21.4229 16.1993 21.3968 16.2196 21.333C16.2602 21.1879 16.3734 21.0747 16.5185 21.037C16.5678 21.0225 16.6984 21.0225 17.3832 21.0225L18.1899 21.0254L18.2798 21.0689C18.3872 21.1211 18.4365 21.1588 18.4975 21.2401C18.5671 21.333 18.5874 21.4055 18.5874 21.5825C18.5874 21.835 18.57 22.0526 18.5439 22.1396C18.5062 22.2586 18.4481 22.3718 18.3756 22.4733C18.2305 22.6591 17.9665 22.8448 17.7256 22.9289L17.656 22.955L17.6589 23.2597L17.6618 23.5644L17.7256 23.5702L17.7894 23.576L17.8765 23.7066L17.9606 23.8372H18.3495C18.5642 23.8372 18.7528 23.8401 18.7702 23.843C18.7993 23.8488 18.8051 23.8459 18.8341 23.7966L18.8689 23.7443H19.2026C19.4522 23.7327 19.5276 23.7385 19.5276 23.7472Z" fill="black"/>
<path d="M17.9951 24.5801C17.9399 24.6121 17.9022 24.6266 17.8935 24.6208C17.8848 24.6179 17.8442 24.583 17.8007 24.5511L17.7223 24.4873L17.6411 24.5743C17.4641 24.7659 17.4583 24.7746 17.406 24.7775C17.3248 24.7862 17.3074 24.7717 17.2087 24.6237C17.1565 24.5482 17.1158 24.4844 17.1158 24.4844C17.1158 24.4844 17.0781 24.4786 17.0346 24.4757L16.9533 24.467L16.9156 24.5453L16.8779 24.6237L16.8112 24.6034C16.7589 24.586 16.7067 24.5656 16.6574 24.5424L16.5703 24.4989V24.3335L17.3422 24.3364L18.1141 24.3393L18.117 24.4176C18.1199 24.5105 18.1228 24.5076 17.9951 24.5801Z" fill="black"/>
<path d="M25.2501 21.0399C25.2472 21.0282 25.2472 21.0079 25.2443 20.976C24.5479 20.9006 22.5602 20.8541 20.7146 22.3776C20.7146 22.3776 20.1198 19.6499 17.3341 19.6499C14.5484 19.6499 13.5153 22.3776 13.5153 22.3776C11.9542 20.6974 9.86491 20.8193 9.11045 20.9296C9.11045 20.947 9.10754 20.9673 9.10754 20.9847C9.08433 21.4055 9.09594 21.6057 9.16558 21.8698C9.38321 22.6968 10.0535 23.6079 11.104 24.5017C12.8247 25.9642 15.1577 27.0204 16.9249 27.1423C18.7676 27.2671 21.4865 26.1905 23.2972 24.6177C23.5816 24.3653 23.8486 24.0983 24.0981 23.8139C24.278 23.605 24.545 23.2452 24.5247 23.2452C24.5189 23.2452 24.5247 23.2394 24.5363 23.2336C24.545 23.2278 24.5537 23.2191 24.5479 23.2133C24.545 23.2104 24.5508 23.2017 24.5595 23.1988C24.5682 23.1959 24.574 23.1901 24.5711 23.1843C24.5682 23.1785 24.5711 23.1727 24.5827 23.1698C24.5914 23.1669 24.5943 23.1581 24.5914 23.1523C24.5885 23.1465 24.5914 23.1407 24.5972 23.1407C24.603 23.1407 24.6088 23.132 24.6088 23.1262C24.6088 23.1204 24.6146 23.1117 24.6204 23.1117C24.6262 23.1117 24.632 23.1059 24.632 23.1001C24.6407 23.0769 24.6553 23.0537 24.6698 23.0334C24.7133 22.9666 24.8874 22.6561 24.9106 22.6039C25.076 22.2296 25.1805 21.8959 25.2298 21.5622C25.2472 21.4026 25.2617 21.1095 25.2501 21.0399ZM17.9957 24.58C17.9405 24.6119 17.9028 24.6264 17.8941 24.6206C17.8854 24.6177 17.8448 24.5829 17.8013 24.551L17.7229 24.4872L17.6417 24.5742C17.4647 24.7657 17.4589 24.7744 17.4066 24.7773C17.3254 24.786 17.308 24.7715 17.2093 24.6235C17.1571 24.5481 17.1164 24.4843 17.1164 24.4843C17.1164 24.4843 17.0787 24.4785 17.0352 24.4756L16.9539 24.4668L16.9162 24.5452L16.8785 24.6235L16.8118 24.6032C16.7595 24.5858 16.7073 24.5655 16.658 24.5423L16.5709 24.4988V24.3334L17.3428 24.3363L18.1147 24.3392L18.1176 24.4175C18.1205 24.5104 18.1234 24.5075 17.9957 24.58ZM19.4466 24.0577C19.403 24.2231 19.3682 24.3566 19.3682 24.3624C19.3363 24.3653 19.3073 24.3682 19.2754 24.3653H19.1825L19.0577 24.67C18.9881 24.8354 18.9242 24.9892 18.9155 25.0124L18.8981 25.053L18.8372 24.9543L18.7763 24.8557V24.0519L18.753 24.0577C18.7037 24.0693 18.3526 24.1157 18.1988 24.1302C17.5633 24.1941 16.9249 24.1796 16.2923 24.0896C16.1908 24.0751 16.1037 24.0635 16.1008 24.0664C16.0979 24.0693 16.1008 24.255 16.1066 24.4843L16.1153 24.8963L16.066 24.9718C16.0399 25.0124 16.0138 25.0472 16.0138 25.0501C16.0051 25.0588 15.976 25.0124 15.9093 24.8789C15.8368 24.7396 15.7845 24.5916 15.7468 24.4378L15.7265 24.3537L15.6365 24.3595L15.5466 24.3682L15.5234 24.2608C15.5118 24.2028 15.4973 24.1128 15.4914 24.0635L15.4827 23.9706L15.4073 23.9039C15.3638 23.8662 15.3202 23.8285 15.3115 23.8227C15.297 23.811 15.2912 23.7907 15.2912 23.7733V23.7385L15.6539 23.7414L16.0167 23.7443L16.0283 23.782L16.0399 23.8198L16.1647 23.8256C16.2343 23.8285 16.4548 23.8343 16.6522 23.8401L17.0149 23.8488L17.1077 23.7037L17.2035 23.5586H17.3254L17.3225 23.2568L17.3196 22.955L17.16 22.8854C16.6464 22.659 16.3446 22.4008 16.2314 22.0874C16.2082 22.0236 16.2082 22.0003 16.2024 21.7102C16.1995 21.4229 16.1995 21.3968 16.2198 21.3329C16.2604 21.1878 16.3736 21.0747 16.5187 21.037C16.568 21.0224 16.6986 21.0224 17.3834 21.0224L18.1901 21.0253L18.2801 21.0689C18.3874 21.1211 18.4367 21.1588 18.4977 21.2401C18.5673 21.3329 18.5876 21.4055 18.5876 21.5825C18.5876 21.8349 18.5702 22.0526 18.5441 22.1396C18.5064 22.2586 18.4484 22.3718 18.3758 22.4733C18.2307 22.659 17.9667 22.8448 17.7258 22.9289L17.6562 22.955L17.6591 23.2597L17.662 23.5644L17.7258 23.5702L17.7897 23.576L17.8767 23.7066L17.9609 23.8372H18.3497C18.5644 23.8372 18.753 23.8401 18.7705 23.843C18.7995 23.8488 18.8053 23.8459 18.8343 23.7965L18.8691 23.7443H19.2028C19.4611 23.7443 19.5365 23.7472 19.5365 23.7559C19.5278 23.753 19.4901 23.8952 19.4466 24.0577Z" fill="white"/>
<path d="M25.2268 20.744C25.2209 20.6134 25.2093 20.4306 25.2006 20.3407C25.0759 19.0233 24.7393 17.9467 24.1009 16.8063C24.0748 16.7628 24.0515 16.7193 24.037 16.6844C24.0312 16.6757 24.0283 16.667 24.0254 16.6612C24.1154 16.3914 24.4839 15.2626 24.777 13.9713C25.1745 12.2186 25.427 10.1699 24.6551 9.55477C24.6551 9.55477 23.3203 9.45611 21.5328 11.2088C21.0482 11.6934 20.6042 12.2186 20.2096 12.7786L20.0848 12.738C19.3652 12.503 18.6194 12.3579 17.8679 12.3086C17.6415 12.2911 16.7971 12.2911 16.5214 12.3086C15.6886 12.3637 15.0502 12.4885 14.3248 12.7409C14.2958 12.7525 14.2697 12.7612 14.2435 12.7699C13.8344 12.2128 13.3788 11.6905 12.8768 11.2117C11.0168 9.45031 9.63262 9.55187 9.63262 9.55187C8.81432 10.1874 9.09289 12.3289 9.51654 14.1396C9.79512 15.338 10.1375 16.3914 10.2652 16.7715C10.2565 16.7918 10.2449 16.815 10.2333 16.8353C9.55717 18.205 9.19155 19.5253 9.10449 20.9297C9.86186 20.8195 11.9482 20.6947 13.5123 22.3777C13.5123 22.3777 14.5453 19.65 17.331 19.65C20.1167 19.65 20.7116 22.3777 20.7116 22.3777C22.5571 20.8543 24.5448 20.9036 25.2413 20.9762C25.2384 20.9181 25.2326 20.8311 25.2268 20.744ZM10.8136 15.6775C10.8136 15.6775 9.72837 12.9644 10.0069 11.4148C10.0534 11.1536 10.1404 10.9244 10.2768 10.7503C10.2768 10.7503 11.5072 10.8722 13.492 13.0775C13.492 13.0775 13.1147 13.2603 12.6098 13.6492C12.6098 13.6492 12.6069 13.6521 12.604 13.6521C12.0556 14.0728 11.3534 14.7402 10.8136 15.6775ZM15.4188 19.7081C15.4013 19.7429 15.3143 19.7806 15.2156 19.7951C15.117 19.8096 14.8152 19.8009 14.644 19.7806C14.0288 19.6994 13.3759 19.5108 12.9 19.2786C12.6331 19.148 12.4415 19.0175 12.2993 18.8753L12.2181 18.7911L12.2094 18.6809C12.1949 18.4893 12.1978 18.1876 12.221 18.0802C12.2355 17.9902 12.2674 17.9032 12.311 17.8248C12.3342 17.7958 12.3342 17.7958 12.4386 17.7958C12.5663 17.7958 12.6737 17.8161 12.8478 17.8713C13.2047 17.9815 13.7357 18.2485 14.3828 18.6373C14.9167 18.9565 15.117 19.1132 15.2708 19.3279C15.3752 19.4614 15.4449 19.65 15.4188 19.7081ZM22.2553 18.7476C22.2466 18.794 22.1102 18.9333 21.9739 19.0349C21.5734 19.3279 20.8567 19.6007 20.1283 19.7313C19.7134 19.8067 19.2984 19.8183 19.1737 19.7574C19.0924 19.7168 19.0808 19.6849 19.1098 19.5804C19.1708 19.3628 19.3681 19.1248 19.6757 18.9014C19.8324 18.7882 20.4678 18.4023 20.7638 18.2398C21.2513 17.9728 21.646 17.8132 21.9129 17.7755C21.9971 17.7639 22.0986 17.761 22.1306 17.7755C22.1828 17.7958 22.2408 17.9496 22.264 18.1353C22.2756 18.234 22.2698 18.6692 22.2553 18.7476ZM21.7736 13.6492L21.7678 13.6463C21.2803 13.2574 20.9147 13.0746 20.9147 13.0746C22.8328 10.8693 24.0196 10.7474 24.0196 10.7474C24.1502 10.9244 24.2343 11.1507 24.2808 11.4119C24.5506 12.9615 23.5031 15.6775 23.5031 15.6775C23.0649 14.8969 22.4759 14.2063 21.7736 13.6492Z" fill="#FFA409"/>
<path d="M24.284 11.4121C24.0577 11.383 22.9869 11.3772 21.774 13.6493L21.7682 13.6464C21.2807 13.2576 20.915 13.0748 20.915 13.0748C22.8331 10.8694 24.0199 10.7476 24.0199 10.7476C24.1534 10.9246 24.2376 11.1509 24.284 11.4121Z" fill="#FF9300"/>
<path d="M23.5068 15.6776C23.0657 14.8941 22.4795 14.2064 21.7744 13.6493C22.9874 11.3772 24.0552 11.383 24.2844 11.412C24.5543 12.9645 23.5068 15.6776 23.5068 15.6776Z" fill="#FF8300"/>
<path d="M24.3277 11.4208C24.3132 11.4179 24.2987 11.415 24.2842 11.4121L24.3277 11.4208Z" fill="#FF8300"/>
<path d="M13.4928 13.0748C13.4928 13.0748 13.1156 13.2576 12.6107 13.6464C12.6107 13.6464 12.6078 13.6493 12.6049 13.6493C11.3484 11.3743 10.2428 11.383 10.0049 11.4121C10.0513 11.1509 10.1384 10.9217 10.2747 10.7476C10.2777 10.7476 11.508 10.8694 13.4928 13.0748Z" fill="#FF9300"/>
<path d="M12.6076 13.6493C12.0563 14.0729 11.3541 14.7374 10.8143 15.6776C10.8143 15.6776 9.72907 12.9645 10.0076 11.412C10.2427 11.383 11.3512 11.3772 12.6076 13.6493Z" fill="#FF8300"/>
<path d="M10.0074 11.4121C9.99286 11.415 9.97545 11.4179 9.96094 11.4208L10.0074 11.4121Z" fill="#FF8300"/>
<path d="M20.5696 17.1836C20.5696 17.1836 19.641 17.2417 19.7571 16.5162C19.8732 15.7908 20.5986 15.7037 20.8017 15.7327C21.0049 15.7617 21.8174 16.0519 21.6723 16.6613C21.5272 17.2707 21.3241 17.1546 21.208 17.1836C21.0919 17.2126 20.5696 17.1836 20.5696 17.1836Z" fill="white"/>
<path d="M13.721 17.1836C13.721 17.1836 12.7924 17.2417 12.9085 16.5162C13.0245 15.7908 13.75 15.7037 13.9531 15.7327C14.1562 15.7617 14.9687 16.0519 14.8236 16.6613C14.6786 17.2707 14.4754 17.1546 14.3594 17.1836C14.2433 17.2126 13.721 17.1836 13.721 17.1836Z" fill="white"/>
</g>
<defs>
<clipPath id="clip0_251_167">
<rect width="18.6207" height="18.8325" fill="white" transform="translate(7.89551 9.55176)"/>
</clipPath>
</defs>
</svg>
