<svg width="35" height="35" viewBox="0 0 35 35" fill="none" xmlns="http://www.w3.org/2000/svg">
<circle cx="17.5" cy="17.5" r="17.5" fill="#F00500"/>
<g clip-path="url(#clip0_247_76)">
<path d="M24.1067 9.05406C23.4 9.76076 22.7526 10.5267 22.177 11.3434L21.9951 11.2842C20.9456 10.9414 19.858 10.7298 18.762 10.6579C18.4319 10.6325 17.2005 10.6325 16.7985 10.6579C15.584 10.7383 14.653 10.9203 13.595 11.2884C13.5527 11.3053 13.5146 11.318 13.4766 11.3307C12.8799 10.5182 12.2155 9.75653 11.4834 9.05829C14.9958 7.25979 19.1048 7.04397 22.7822 8.46161C23.1757 8.60972 23.5608 8.78322 23.9374 8.96942L24.1067 9.05406Z" fill="#F00500"/>
<path d="M30.6571 25.1052C30.1239 26.6244 29.3241 28.0336 28.2873 29.2608C27.7245 29.9209 27.1024 30.5261 26.4338 31.0762C24.8681 32.3372 23.0399 33.2386 21.0891 33.7126C18.9309 34.2331 16.6796 34.2331 14.5214 33.7126C12.5663 33.2386 10.7425 32.3372 9.17672 31.0762C8.5081 30.5261 7.88603 29.9209 7.32321 29.2608C4.33982 25.7357 3.43422 20.8946 4.95342 16.5316C5.24118 15.7234 5.60088 14.9447 6.03252 14.2042C6.23141 13.8656 6.47686 13.4848 6.59535 13.3282C7.00159 15.0759 7.50094 16.612 7.68714 17.1664C7.67444 17.196 7.65752 17.2299 7.64059 17.2595C6.65459 19.2569 6.12139 21.1823 5.99444 23.2305C5.99444 23.2559 5.9902 23.2855 5.9902 23.3109C5.95635 23.9245 5.97328 24.2165 6.07484 24.6016C6.39222 25.8077 7.36976 27.1364 8.90165 28.4398C11.4111 30.5726 14.8134 32.113 17.3906 32.2907C20.0777 32.4727 24.0429 30.9027 26.6835 28.6091C27.0982 28.2409 27.4875 27.8516 27.8514 27.4369C28.1138 27.1322 28.5031 26.6075 28.4735 26.6075C28.4651 26.6075 28.4735 26.599 28.4904 26.5905C28.5031 26.5821 28.5158 26.5694 28.5074 26.5609C28.5031 26.5567 28.5116 26.544 28.5243 26.5397C28.537 26.5355 28.5455 26.527 28.5412 26.5186C28.537 26.5101 28.5412 26.5017 28.5582 26.4974C28.5708 26.4932 28.5751 26.4805 28.5708 26.472C28.5666 26.4636 28.5708 26.4551 28.5793 26.4551C28.5878 26.4551 28.5962 26.4424 28.5962 26.434C28.5962 26.4255 28.6047 26.4128 28.6132 26.4128C28.6216 26.4128 28.6301 26.4043 28.6301 26.3959C28.6428 26.362 28.6639 26.3282 28.6851 26.2985C28.7486 26.2012 29.0025 25.7484 29.0363 25.6722C29.2775 25.1263 29.4299 24.6397 29.5018 24.153C29.5357 23.9203 29.5568 23.4929 29.5399 23.3913C29.5357 23.3744 29.5357 23.3448 29.5315 23.2982C29.523 23.2136 29.5188 23.0866 29.5103 22.9597C29.5018 22.7693 29.4849 22.5027 29.4722 22.3715C29.2902 20.4502 28.7994 18.8803 27.8684 17.2172C27.8303 17.1537 27.7964 17.0902 27.7753 17.0395C27.7668 17.0268 27.7626 17.0141 27.7584 17.0056C27.8895 16.612 28.427 14.9659 28.8544 13.0828L28.8628 13.0912L28.9263 13.1759C29.0363 13.324 29.3283 13.7641 29.4595 13.9757C30.0562 14.949 30.5217 15.9942 30.8518 17.086C31.6177 19.7139 31.5542 22.5153 30.6571 25.1052Z" fill="#F00500"/>
<path d="M25.1639 20.0482C25.1512 20.1159 24.9523 20.319 24.7534 20.4671C24.1695 20.8945 23.1242 21.2923 22.062 21.4827C21.4569 21.5928 20.8518 21.6097 20.6698 21.5208C20.5513 21.4616 20.5344 21.415 20.5767 21.2627C20.6656 20.9453 20.9533 20.5983 21.4019 20.2725C21.6304 20.1074 22.5572 19.5446 22.9888 19.3076C23.6997 18.9183 24.2753 18.6855 24.6646 18.6305C24.7873 18.6136 24.9354 18.6094 24.982 18.6305C25.0581 18.6602 25.1428 18.8844 25.1766 19.1553C25.1935 19.2992 25.1851 19.9339 25.1639 20.0482Z" fill="black"/>
<path d="M15.1942 21.4489C15.1688 21.4997 15.0419 21.5547 14.898 21.5758C14.7541 21.597 14.314 21.5843 14.0644 21.5547C13.1672 21.4362 12.2151 21.1611 11.5211 20.8226C11.1317 20.6322 10.8524 20.4417 10.6451 20.2344L10.5266 20.1117L10.5139 19.9508C10.4928 19.6715 10.497 19.2314 10.5308 19.0749C10.552 18.9437 10.5985 18.8167 10.662 18.7025C10.6959 18.6602 10.6959 18.6602 10.8482 18.6602C11.0344 18.6602 11.191 18.6898 11.4449 18.7702C11.9654 18.931 12.7398 19.3203 13.6835 19.8874C14.4621 20.3529 14.7541 20.5814 14.9784 20.8945C15.1308 21.0892 15.2323 21.3642 15.1942 21.4489Z" fill="black"/>
<path d="M21.1862 27.3396C21.1862 27.3523 21.1354 27.5554 21.0719 27.7966C21.0084 28.0378 20.9577 28.2325 20.9577 28.2409C20.9111 28.2452 20.8688 28.2494 20.8222 28.2452H20.6868L20.5006 28.6853C20.3991 28.9265 20.306 29.1508 20.2933 29.1846L20.2679 29.2439L20.179 29.1L20.0902 28.9561V27.7839L20.0563 27.7924C19.9844 27.8093 19.4723 27.877 19.248 27.8982C18.3213 27.9913 17.3903 27.9701 16.4678 27.8389C16.3197 27.8178 16.1927 27.8008 16.1885 27.8051C16.1842 27.8093 16.1885 28.0801 16.1969 28.4144L16.2096 29.0154L16.1377 29.1254C16.0996 29.1846 16.0615 29.2354 16.0615 29.2396C16.0488 29.2523 16.0065 29.1846 15.9092 28.99C15.8034 28.7868 15.7272 28.571 15.6722 28.3467L15.6426 28.224L15.5114 28.2325L15.3802 28.2452L15.3464 28.0886C15.3294 28.004 15.3083 27.8728 15.2998 27.8008L15.2871 27.6654L15.1771 27.5681C15.1136 27.5131 15.0501 27.4581 15.0374 27.4496C15.0163 27.4327 15.0078 27.4031 15.0078 27.3777V27.3269L15.5368 27.3311L16.0658 27.3354L16.0827 27.3904L16.0996 27.4454L16.2816 27.4538C16.3831 27.4581 16.7047 27.4665 16.9925 27.475L17.5215 27.4877L17.6569 27.2761L17.7965 27.0645H17.9743L17.97 26.6244L17.9658 26.1843L17.7331 26.0828C16.984 25.7527 16.5439 25.3761 16.3789 24.919C16.345 24.8259 16.345 24.7921 16.3366 24.3689C16.3324 23.9499 16.3324 23.9119 16.362 23.8188C16.4212 23.6072 16.5863 23.4421 16.7978 23.3871C16.8698 23.366 17.0602 23.366 18.0589 23.366L19.2353 23.3702L19.3665 23.4337C19.5231 23.5098 19.595 23.5649 19.6839 23.6833C19.7855 23.8188 19.8151 23.9246 19.8151 24.1827C19.8151 24.5509 19.7897 24.8682 19.7516 24.9952C19.6966 25.1687 19.612 25.3337 19.5062 25.4818C19.2946 25.7527 18.9095 26.0235 18.5583 26.1462L18.4567 26.1843L18.4609 26.6287L18.4652 27.073L18.5583 27.0814L18.6514 27.0899L18.7783 27.2803L18.901 27.4708H19.4681C19.7812 27.4708 20.0563 27.475 20.0817 27.4792C20.124 27.4877 20.1325 27.4835 20.1748 27.4115L20.2256 27.3354H20.7122C21.0762 27.3184 21.1862 27.3269 21.1862 27.3396Z" fill="black"/>
<path d="M18.9518 28.554C18.8714 28.6006 18.8164 28.6217 18.8037 28.6133C18.791 28.609 18.7318 28.5583 18.6683 28.5117L18.554 28.4186L18.4355 28.5456C18.1774 28.8249 18.1689 28.8376 18.0928 28.8418C17.9743 28.8545 17.9489 28.8333 17.805 28.6175C17.7288 28.5075 17.6696 28.4144 17.6696 28.4144C17.6696 28.4144 17.6146 28.4059 17.5511 28.4017L17.4326 28.389L17.3776 28.5033L17.3226 28.6175L17.2253 28.5879C17.1491 28.5625 17.0729 28.5329 17.001 28.499L16.874 28.4355V28.1943L17.9997 28.1986L19.1253 28.2028L19.1295 28.3171C19.1338 28.4525 19.138 28.4482 18.9518 28.554Z" fill="black"/>
<path d="M29.5317 23.3913C29.5275 23.3743 29.5275 23.3447 29.5232 23.2982C28.5076 23.1881 25.6089 23.1204 22.9175 25.3421C22.9175 25.3421 22.05 21.3643 17.9875 21.3643C13.925 21.3643 12.4185 25.3421 12.4185 25.3421C10.1418 22.8919 7.09494 23.0697 5.99469 23.2305C5.99469 23.2559 5.99045 23.2855 5.99045 23.3109C5.9566 23.9245 5.97353 24.2165 6.07509 24.6016C6.39247 25.8076 7.37001 27.1364 8.9019 28.4398C11.4113 30.5726 14.8137 32.1129 17.3908 32.2907C20.078 32.4726 24.0431 30.9026 26.6837 28.609C27.0984 28.2409 27.4878 27.8515 27.8517 27.4368C28.1141 27.1321 28.5034 26.6074 28.4738 26.6074C28.4653 26.6074 28.4738 26.5989 28.4907 26.5905C28.5034 26.582 28.5161 26.5693 28.5076 26.5609C28.5034 26.5566 28.5119 26.5439 28.5245 26.5397C28.5372 26.5355 28.5457 26.527 28.5415 26.5185C28.5372 26.5101 28.5415 26.5016 28.5584 26.4974C28.5711 26.4931 28.5753 26.4805 28.5711 26.472C28.5669 26.4635 28.5711 26.4551 28.5796 26.4551C28.588 26.4551 28.5965 26.4424 28.5965 26.4339C28.5965 26.4254 28.605 26.4127 28.6134 26.4127C28.6219 26.4127 28.6303 26.4043 28.6303 26.3958C28.643 26.362 28.6642 26.3281 28.6854 26.2985C28.7488 26.2012 29.0027 25.7484 29.0366 25.6722C29.2778 25.1263 29.4301 24.6396 29.5021 24.153C29.5275 23.9202 29.5486 23.4928 29.5317 23.3913ZM18.9523 28.554C18.8719 28.6006 18.8169 28.6217 18.8042 28.6133C18.7915 28.609 18.7323 28.5582 18.6688 28.5117L18.5545 28.4186L18.436 28.5455C18.1779 28.8248 18.1694 28.8375 18.0933 28.8418C17.9748 28.8545 17.9494 28.8333 17.8055 28.6175C17.7293 28.5075 17.6701 28.4144 17.6701 28.4144C17.6701 28.4144 17.6151 28.4059 17.5516 28.4017L17.4331 28.389L17.3781 28.5032L17.3231 28.6175L17.2258 28.5879C17.1496 28.5625 17.0734 28.5329 17.0015 28.499L16.8745 28.4355V28.1943L18.0002 28.1985L19.1258 28.2028L19.1301 28.317C19.1343 28.4524 19.1385 28.4482 18.9523 28.554ZM21.0682 27.7923C21.0047 28.0335 20.9539 28.2282 20.9539 28.2366C20.9074 28.2409 20.8651 28.2451 20.8185 28.2409H20.6831L20.5011 28.6852C20.3996 28.9264 20.3065 29.1507 20.2938 29.1845L20.2684 29.2438L20.1795 29.0999L20.0907 28.956V27.7838L20.0568 27.7923C19.9849 27.8092 19.4728 27.8769 19.2485 27.8981C18.3218 27.9912 17.3908 27.97 16.4683 27.8388C16.3202 27.8177 16.1932 27.8008 16.189 27.805C16.1848 27.8092 16.189 28.0801 16.1974 28.4144L16.2101 29.0153L16.1382 29.1253C16.1001 29.1845 16.062 29.2353 16.062 29.2396C16.0493 29.2522 16.007 29.1845 15.9097 28.9899C15.8039 28.7868 15.7277 28.5709 15.6727 28.3467L15.6431 28.2239L15.5119 28.2324L15.3807 28.2451L15.3469 28.0885C15.3299 28.0039 15.3088 27.8727 15.3003 27.8008L15.2876 27.6653L15.1776 27.568C15.1141 27.513 15.0506 27.458 15.0379 27.4495C15.0168 27.4326 15.0083 27.403 15.0083 27.3776V27.3268L15.5373 27.331L16.0663 27.3353L16.0832 27.3903L16.1001 27.4453L16.2821 27.4538C16.3836 27.458 16.7053 27.4665 16.993 27.4749L17.522 27.4876L17.6574 27.276L17.797 27.0644H17.9748L17.9706 26.6243L17.9663 26.1842L17.7336 26.0827C16.9846 25.7526 16.5445 25.376 16.3794 24.9189C16.3456 24.8258 16.3456 24.792 16.3371 24.3688C16.3329 23.9499 16.3329 23.9118 16.3625 23.8187C16.4217 23.6071 16.5868 23.442 16.7984 23.387C16.8703 23.3659 17.0607 23.3659 18.0594 23.3659L19.2358 23.3701L19.367 23.4336C19.5236 23.5098 19.5955 23.5648 19.6844 23.6833C19.786 23.8187 19.8156 23.9245 19.8156 24.1826C19.8156 24.5508 19.7902 24.8682 19.7521 24.9951C19.6971 25.1686 19.6125 25.3336 19.5067 25.4818C19.2951 25.7526 18.91 26.0234 18.5588 26.1461L18.4572 26.1842L18.4614 26.6286L18.4657 27.0729L18.5588 27.0814L18.6519 27.0898L18.7788 27.2803L18.9015 27.4707H19.4686C19.7817 27.4707 20.0568 27.4749 20.0822 27.4791C20.1245 27.4876 20.133 27.4834 20.1753 27.4114L20.2261 27.3353H20.7127C21.0894 27.3353 21.1994 27.3395 21.1994 27.3522C21.1867 27.348 21.1317 27.5553 21.0682 27.7923Z" fill="white"/>
<path d="M29.498 22.9597C29.4895 22.7693 29.4726 22.5027 29.4599 22.3715C29.2779 20.4503 28.787 18.8803 27.856 17.2172C27.818 17.1537 27.7841 17.0902 27.7629 17.0395C27.7545 17.0268 27.7502 17.0141 27.746 17.0056C27.8772 16.6121 28.4146 14.9659 28.842 13.0828C29.4218 10.5268 29.79 7.53918 28.6643 6.64205C28.6643 6.64205 26.7177 6.49817 24.1109 9.05415C23.4042 9.76085 22.7568 10.5268 22.1813 11.3435L21.9993 11.2843C20.9498 10.9415 19.8623 10.7299 18.7662 10.658C18.4362 10.6326 17.2047 10.6326 16.8027 10.658C15.5882 10.7384 14.6572 10.9203 13.5993 11.2885C13.5569 11.3054 13.5189 11.3181 13.4808 11.3308C12.8841 10.5183 12.2197 9.75662 11.4876 9.05838C8.77505 6.4897 6.75651 6.63781 6.75651 6.63781C5.56315 7.56457 5.9694 10.6876 6.58724 13.3282C6.99349 15.0759 7.49283 16.6121 7.67903 17.1664C7.66633 17.196 7.64941 17.2299 7.63248 17.2595C6.64648 19.2569 6.11328 21.1824 5.98633 23.2305C7.09082 23.0697 10.1334 22.8878 12.4144 25.3422C12.4144 25.3422 13.9209 21.3643 17.9834 21.3643C22.0458 21.3643 22.9133 25.3422 22.9133 25.3422C25.6047 23.1205 28.5035 23.1924 29.5191 23.2982C29.5149 23.2136 29.5064 23.0866 29.498 22.9597ZM8.47883 15.571C8.47883 15.571 6.89615 11.6144 7.3024 9.3546C7.37011 8.97374 7.49707 8.63943 7.69596 8.38553C7.69596 8.38553 9.49022 8.56326 12.3847 11.7794C12.3847 11.7794 11.8346 12.046 11.0983 12.6131C11.0983 12.6131 11.0941 12.6173 11.0898 12.6173C10.29 13.2309 9.26594 14.2042 8.47883 15.571ZM15.1946 21.449C15.1692 21.4997 15.0423 21.5548 14.8984 21.5759C14.7545 21.5971 14.3144 21.5844 14.0647 21.5548C13.1676 21.4363 12.2155 21.1612 11.5215 20.8227C11.1321 20.6322 10.8528 20.4418 10.6455 20.2344L10.527 20.1117L10.5143 19.9509C10.4931 19.6716 10.4974 19.2315 10.5312 19.0749C10.5524 18.9438 10.5989 18.8168 10.6624 18.7025C10.6963 18.6602 10.6963 18.6602 10.8486 18.6602C11.0348 18.6602 11.1914 18.6899 11.4453 18.7703C11.9658 18.9311 12.7402 19.3204 13.6839 19.8874C14.4625 20.3529 14.7545 20.5814 14.9788 20.8946C15.1312 21.0893 15.2327 21.3643 15.1946 21.449ZM25.1646 20.0482C25.1519 20.116 24.9531 20.3191 24.7542 20.4672C24.1702 20.8946 23.1249 21.2924 22.0628 21.4828C21.4576 21.5928 20.8525 21.6098 20.6705 21.5209C20.552 21.4617 20.5351 21.4151 20.5774 21.2628C20.6663 20.9454 20.954 20.5984 21.4026 20.2725C21.6311 20.1075 22.5579 19.5447 22.9895 19.3077C23.7005 18.9184 24.276 18.6856 24.6653 18.6306C24.788 18.6137 24.9361 18.6094 24.9827 18.6306C25.0588 18.6602 25.1435 18.8845 25.1773 19.1553C25.1943 19.2992 25.1858 19.934 25.1646 20.0482ZM24.4622 12.6131L24.4537 12.6088C23.7428 12.0418 23.2096 11.7752 23.2096 11.7752C26.0068 8.55903 27.7375 8.3813 27.7375 8.3813C27.928 8.63943 28.0507 8.96951 28.1184 9.35037C28.512 11.6101 26.9843 15.571 26.9843 15.571C26.3453 14.4327 25.4863 13.4255 24.4622 12.6131Z" fill="#FFA409"/>
<path d="M28.1221 9.35042C27.792 9.3081 26.2305 9.29964 24.4616 12.6131L24.4531 12.6089C23.7422 12.0418 23.209 11.7752 23.209 11.7752C26.0062 8.55908 27.737 8.38135 27.737 8.38135C27.9316 8.63948 28.0543 8.96956 28.1221 9.35042Z" fill="#FF9300"/>
<path d="M26.9883 15.5711C26.345 14.4286 25.4902 13.4256 24.4619 12.6131C26.2308 9.29967 27.7881 9.30813 28.1224 9.35045C28.5159 11.6144 26.9883 15.5711 26.9883 15.5711Z" fill="#FF8300"/>
<path d="M28.1855 9.36304C28.1644 9.3588 28.1432 9.35457 28.1221 9.35034L28.1855 9.36304Z" fill="#FF8300"/>
<path d="M12.3844 11.7752C12.3844 11.7752 11.8343 12.0418 11.098 12.6089C11.098 12.6089 11.0937 12.6131 11.0895 12.6131C9.25715 9.29541 7.64486 9.3081 7.29785 9.35042C7.36556 8.96956 7.49251 8.63525 7.69141 8.38135C7.69564 8.38135 9.4899 8.55908 12.3844 11.7752Z" fill="#FF9300"/>
<path d="M11.0937 12.6131C10.2897 13.231 9.26557 14.2 8.47847 15.5711C8.47847 15.5711 6.89579 11.6144 7.30204 9.35045C7.64481 9.30813 9.26134 9.29967 11.0937 12.6131Z" fill="#FF8300"/>
<path d="M7.30208 9.35034C7.28092 9.35457 7.25553 9.3588 7.23438 9.36304L7.30208 9.35034Z" fill="#FF8300"/>
<path d="M22.7054 17.7673C22.7054 17.7673 21.3512 17.8519 21.5205 16.794C21.6898 15.736 22.7477 15.6091 23.0439 15.6514C23.3402 15.6937 24.525 16.1169 24.3135 17.0056C24.1019 17.8942 23.8056 17.7249 23.6364 17.7673C23.4671 17.8096 22.7054 17.7673 22.7054 17.7673Z" fill="white"/>
<path d="M12.7191 17.7673C12.7191 17.7673 11.3649 17.8519 11.5342 16.794C11.7034 15.736 12.7614 15.6091 13.0576 15.6514C13.3538 15.6937 14.5387 16.1169 14.3271 17.0056C14.1155 17.8942 13.8193 17.7249 13.6501 17.7673C13.4808 17.8096 12.7191 17.7673 12.7191 17.7673Z" fill="white"/>
</g>
<defs>
<clipPath id="clip0_247_76">
<rect width="27.1552" height="27.4641" fill="white" transform="translate(4.22363 6.63794)"/>
</clipPath>
</defs>
</svg>
