<svg width="35" height="35" viewBox="0 0 35 35" fill="none" xmlns="http://www.w3.org/2000/svg">
<path d="M17 29C23.6274 29 29 23.6274 29 17C29 10.3726 23.6274 5 17 5C10.3726 5 5 10.3726 5 17C5 23.6274 10.3726 29 17 29Z" fill="black"/>
<mask id="mask0_156_219" style="mask-type:luminance" maskUnits="userSpaceOnUse" x="8" y="10" width="18" height="14">
<path d="M25.2758 10.3793H8.72412V23.3519H25.2758V10.3793Z" fill="white"/>
</mask>
<g mask="url(#mask0_156_219)">
<path d="M11.413 20.2804C11.5129 20.1805 11.6502 20.1223 11.7959 20.1223H25.0057C25.2471 20.1223 25.3677 20.4136 25.1971 20.5842L22.5876 23.1937C22.4877 23.2936 22.3504 23.3519 22.2047 23.3519H8.99499C8.75361 23.3519 8.63291 23.0605 8.80355 22.8899L11.413 20.2804Z" fill="url(#paint0_linear_156_219)"/>
<path d="M11.413 10.5375C11.5171 10.4376 11.6544 10.3793 11.7959 10.3793H25.0057C25.2471 10.3793 25.3677 10.6706 25.1971 10.8413L22.5876 13.4508C22.4877 13.5507 22.3504 13.6089 22.2047 13.6089H8.99499C8.75361 13.6089 8.63291 13.3176 8.80355 13.147L11.413 10.5375Z" fill="url(#paint1_linear_156_219)"/>
<path d="M22.5876 15.3778C22.4877 15.2779 22.3504 15.2196 22.2047 15.2196H8.99499C8.75361 15.2196 8.63291 15.5109 8.80355 15.6816L11.413 18.291C11.5129 18.3909 11.6502 18.4492 11.7959 18.4492H25.0057C25.2471 18.4492 25.3677 18.1579 25.1971 17.9872L22.5876 15.3778Z" fill="url(#paint2_linear_156_219)"/>
</g>
<defs>
<linearGradient id="paint0_linear_156_219" x1="23.7438" y1="8.8205" x2="14.6015" y2="26.3315" gradientUnits="userSpaceOnUse">
<stop stop-color="#00FFA3"/>
<stop offset="1" stop-color="#DC1FFF"/>
</linearGradient>
<linearGradient id="paint1_linear_156_219" x1="19.7463" y1="6.73349" x2="10.6041" y2="24.2445" gradientUnits="userSpaceOnUse">
<stop stop-color="#00FFA3"/>
<stop offset="1" stop-color="#DC1FFF"/>
</linearGradient>
<linearGradient id="paint2_linear_156_219" x1="21.7323" y1="7.77036" x2="12.5901" y2="25.2814" gradientUnits="userSpaceOnUse">
<stop stop-color="#00FFA3"/>
<stop offset="1" stop-color="#DC1FFF"/>
</linearGradient>
</defs>
</svg>
