<svg width="58" height="58" viewBox="0 0 58 58" fill="none" xmlns="http://www.w3.org/2000/svg">
<circle cx="29" cy="29" r="29" fill="black"/>
<g clip-path="url(#clip0_26_79)">
<path d="M15.4974 36.9276C15.7388 36.6862 16.0707 36.5454 16.4228 36.5454H48.3463C48.9297 36.5454 49.2213 37.2495 48.809 37.6618L42.5027 43.9681C42.2613 44.2095 41.9294 44.3503 41.5774 44.3503H9.65383C9.07048 44.3503 8.7788 43.6462 9.19117 43.2339L15.4974 36.9276Z" fill="url(#paint0_linear_26_79)"/>
<path d="M15.4974 13.3822C15.7489 13.1408 16.0808 13 16.4228 13H48.3463C48.9297 13 49.2213 13.704 48.809 14.1164L42.5027 20.4227C42.2613 20.6641 41.9294 20.8049 41.5774 20.8049H9.65383C9.07048 20.8049 8.7788 20.1008 9.19117 19.6885L15.4974 13.3822Z" fill="url(#paint1_linear_26_79)"/>
<path d="M42.5027 25.0795C42.2613 24.8381 41.9294 24.6973 41.5774 24.6973H9.65383C9.07048 24.6973 8.7788 25.4013 9.19117 25.8137L15.4974 32.1199C15.7388 32.3613 16.0707 32.5021 16.4228 32.5021H48.3463C48.9297 32.5021 49.2213 31.7981 48.809 31.3857L42.5027 25.0795Z" fill="url(#paint2_linear_26_79)"/>
</g>
<defs>
<linearGradient id="paint0_linear_26_79" x1="45.2967" y1="9.23283" x2="23.203" y2="51.5511" gradientUnits="userSpaceOnUse">
<stop stop-color="#00FFA3"/>
<stop offset="1" stop-color="#DC1FFF"/>
</linearGradient>
<linearGradient id="paint1_linear_26_79" x1="35.6361" y1="4.1892" x2="13.5425" y2="46.5074" gradientUnits="userSpaceOnUse">
<stop stop-color="#00FFA3"/>
<stop offset="1" stop-color="#DC1FFF"/>
</linearGradient>
<linearGradient id="paint2_linear_26_79" x1="40.4357" y1="6.69496" x2="18.342" y2="49.0132" gradientUnits="userSpaceOnUse">
<stop stop-color="#00FFA3"/>
<stop offset="1" stop-color="#DC1FFF"/>
</linearGradient>
<clipPath id="clip0_26_79">
<rect width="40" height="31.3503" fill="white" transform="translate(9 13)"/>
</clipPath>
</defs>
</svg>
