<svg width="35" height="35" viewBox="0 0 35 35" fill="none" xmlns="http://www.w3.org/2000/svg">
<circle cx="17" cy="17" r="12" fill="white"/>
<path fill-rule="evenodd" clip-rule="evenodd" d="M21.4614 15.7895C22.1745 16.6921 22.6042 17.8387 22.6042 19.082C22.6042 20.3253 22.1654 21.5041 21.4294 22.4159L21.3654 22.4941L21.3471 22.3928C21.3334 22.3099 21.3151 22.2225 21.2968 22.135C20.9311 20.5095 19.7334 19.1142 17.7585 17.9814C16.4282 17.2216 15.6648 16.3053 15.4636 15.2646C15.3356 14.5923 15.4316 13.9154 15.6145 13.3351C15.8019 12.7549 16.0762 12.2714 16.3094 11.9813L17.0774 11.0373C17.2099 10.8716 17.4659 10.8716 17.5985 11.0373L21.4614 15.7895ZM22.6728 14.8455L17.5345 8.5185C17.4385 8.39878 17.2511 8.39878 17.1551 8.5185L12.0122 14.8455L11.9939 14.8686C11.0522 16.052 10.4854 17.5532 10.4854 19.1879C10.4854 22.9961 13.5574 26.0859 17.3425 26.0859C21.1276 26.0859 24.1996 22.9961 24.1996 19.1879C24.1996 17.5532 23.6328 16.052 22.6865 14.8686L22.6728 14.8455ZM13.2419 15.7711L13.6991 15.2047L13.7128 15.3106C13.7219 15.3935 13.7356 15.4764 13.7539 15.5593C14.0511 17.1295 15.1162 18.4419 16.8899 19.455C18.4351 20.3391 19.3311 21.3567 19.5916 22.4757C19.7014 22.9408 19.7196 23.4013 19.6739 23.8019L19.6694 23.8249L19.6465 23.8341C18.9516 24.1749 18.1654 24.3683 17.3379 24.3683C14.4351 24.3683 12.0808 22.0014 12.0808 19.082C12.0808 17.8295 12.5151 16.6736 13.2419 15.7711Z" fill="#4DA2FF"/>
</svg>
