<svg width="35" height="35" viewBox="0 0 35 35" fill="none" xmlns="http://www.w3.org/2000/svg">
<circle cx="17.5" cy="17.5" r="17.5" fill="white"/>
<path fill-rule="evenodd" clip-rule="evenodd" d="M24.0067 15.7345C25.0467 17.0507 25.6733 18.7228 25.6733 20.536C25.6733 22.3491 25.0333 24.0683 23.96 25.3979L23.8667 25.5121L23.84 25.3643C23.82 25.2435 23.7933 25.1159 23.7667 24.9883C23.2333 22.6178 21.4867 20.583 18.6067 18.931C16.6667 17.823 15.5533 16.4866 15.26 14.969C15.0733 13.9885 15.2133 13.0014 15.48 12.1552C15.7533 11.3091 16.1533 10.604 16.4933 10.1809L17.6133 8.80425C17.8067 8.5625 18.18 8.5625 18.3733 8.80425L24.0067 15.7345ZM25.7733 14.3579L18.28 5.13095C18.14 4.95635 17.8667 4.95635 17.7267 5.13095L10.2267 14.3579L10.2 14.3914C8.82667 16.1173 8 18.3065 8 20.6905C8 26.2441 12.48 30.7501 18 30.7501C23.52 30.7501 28 26.2441 28 20.6905C28 18.3065 27.1733 16.1173 25.7933 14.3914L25.7733 14.3579ZM12.02 15.7077L12.6867 14.8817L12.7067 15.0361C12.72 15.157 12.74 15.2779 12.7667 15.3987C13.2 17.6887 14.7533 19.6026 17.34 21.0799C19.5933 22.3693 20.9 23.8534 21.28 25.4852C21.44 26.1635 21.4667 26.835 21.4 27.4192L21.3933 27.4528L21.36 27.4663C20.3467 27.9632 19.2 28.2452 17.9933 28.2452C13.76 28.2452 10.3267 24.7935 10.3267 20.536C10.3267 18.7094 10.96 17.0239 12.02 15.7077Z" fill="#4DA2FF"/>
</svg>
