<svg width="35" height="35" viewBox="0 0 35 35" fill="none" xmlns="http://www.w3.org/2000/svg">
<path d="M17 29C23.6274 29 29 23.6274 29 17C29 10.3726 23.6274 5 17 5C10.3726 5 5 10.3726 5 17C5 23.6274 10.3726 29 17 29Z" fill="#0088CC"/>
<path fill-rule="evenodd" clip-rule="evenodd" d="M13.6565 12.9287H20.3851C20.6423 12.9287 20.8565 12.9716 21.1137 13.1001C21.4137 13.2287 21.5851 13.443 21.6708 13.6144C21.6708 13.6144 21.6708 13.6573 21.7137 13.6573C21.8423 13.8716 21.928 14.1287 21.928 14.4287C21.928 14.6859 21.8851 14.943 21.7137 15.2001L17.4708 22.4859C17.3851 22.6573 17.2137 22.743 16.9994 22.743C16.828 22.743 16.6565 22.6573 16.528 22.4859L12.3708 15.2001C12.2851 15.0287 12.1137 14.8144 12.1137 14.4716C12.0708 14.1716 12.1565 13.9144 12.2851 13.6573C12.4137 13.4001 12.628 13.1859 12.928 13.1001C13.1851 12.9287 13.4851 12.9287 13.6565 12.9287ZM16.4851 13.9573H13.6565C13.4851 13.9573 13.3994 13.9573 13.3565 14.0001C13.2708 14.043 13.228 14.0859 13.1851 14.1716C13.1423 14.2144 13.1423 14.3001 13.1423 14.3859C13.1423 14.4287 13.1851 14.4716 13.2708 14.643L16.4851 20.2144V13.9573ZM17.5137 13.9573V20.2573L20.7708 14.643C20.8137 14.5573 20.8137 14.4716 20.8137 14.3859C20.8137 14.3001 20.8137 14.2144 20.7708 14.1716C20.728 14.1287 20.728 14.0859 20.6851 14.0859L20.6423 14.043C20.5565 14.0001 20.4708 14.0001 20.3423 14.0001H17.5137V13.9573Z" fill="white"/>
</svg>
