<svg width="35" height="35" viewBox="0 0 35 35" fill="none" xmlns="http://www.w3.org/2000/svg">
<path d="M17.5 35C27.165 35 35 27.165 35 17.5C35 7.83502 27.165 0 17.5 0C7.83502 0 0 7.83502 0 17.5C0 27.165 7.83502 35 17.5 35Z" fill="#0088CC"/>
<path fill-rule="evenodd" clip-rule="evenodd" d="M12.6247 11.5625H22.4372C22.8122 11.5625 23.1247 11.625 23.4997 11.8125C23.9372 12 24.1872 12.3125 24.3122 12.5625C24.3122 12.5625 24.3122 12.625 24.3747 12.625C24.5622 12.9375 24.6872 13.3125 24.6872 13.75C24.6872 14.125 24.6247 14.5 24.3747 14.875L18.1872 25.5C18.0622 25.75 17.8122 25.875 17.4997 25.875C17.2497 25.875 16.9997 25.75 16.8122 25.5L10.7497 14.875C10.6247 14.625 10.3747 14.3125 10.3747 13.8125C10.3122 13.375 10.4372 13 10.6247 12.625C10.8122 12.25 11.1247 11.9375 11.5622 11.8125C11.9372 11.5625 12.3747 11.5625 12.6247 11.5625ZM16.7497 13.0625H12.6247C12.3747 13.0625 12.2497 13.0625 12.1872 13.125C12.0622 13.1875 11.9997 13.25 11.9372 13.375C11.8747 13.4375 11.8747 13.5625 11.8747 13.6875C11.8747 13.75 11.9372 13.8125 12.0622 14.0625L16.7497 22.1875V13.0625ZM18.2497 13.0625V22.25L22.9997 14.0625C23.0622 13.9375 23.0622 13.8125 23.0622 13.6875C23.0622 13.5625 23.0622 13.4375 22.9997 13.375C22.9372 13.3125 22.9372 13.25 22.8747 13.25L22.8122 13.1875C22.6872 13.125 22.5622 13.125 22.3747 13.125H18.2497V13.0625Z" fill="white"/>
</svg>
