<svg width="35" height="35" viewBox="0 0 35 35" fill="none" xmlns="http://www.w3.org/2000/svg">
<path d="M17 29C23.6274 29 29 23.6274 29 17C29 10.3726 23.6274 5 17 5C10.3726 5 5 10.3726 5 17C5 23.6274 10.3726 29 17 29Z" fill="#FF060A"/>
<mask id="mask0_156_218" style="mask-type:luminance" maskUnits="userSpaceOnUse" x="9" y="9" width="17" height="17">
<path d="M25.1379 9H9V25.1379H25.1379V9Z" fill="white"/>
</mask>
<g mask="url(#mask0_156_218)">
<path d="M24.5199 13.8615C23.7635 13.1631 22.717 12.0965 21.8647 11.34L21.8143 11.3047C21.7304 11.2373 21.6358 11.1845 21.5344 11.1483C19.4794 10.7651 9.91511 8.97729 9.72853 8.99997C9.67622 9.00729 9.62628 9.02625 9.58229 9.05546L9.53438 9.09328C9.47537 9.1532 9.43056 9.22557 9.40325 9.3051L9.39062 9.33787V9.51688V9.54465C10.4674 12.5427 14.7187 22.3642 15.5559 24.6689C15.6063 24.8252 15.7021 25.1228 15.8811 25.1379H15.9214C16.0173 25.1379 16.4258 24.5983 16.4258 24.5983C16.4258 24.5983 23.7282 15.7426 24.467 14.7996C24.5626 14.6834 24.6471 14.5585 24.7191 14.4264C24.7375 14.323 24.7289 14.2167 24.694 14.1177C24.6591 14.0187 24.5991 13.9305 24.5199 13.8615ZM18.2993 14.8928L21.4159 12.3082L23.244 13.9927L18.2993 14.8928ZM17.089 14.7239L11.7231 10.3263L20.4048 11.9275L17.089 14.7239ZM17.5731 15.8763L23.065 14.9912L16.7863 22.5558L17.5731 15.8763ZM10.9944 10.7651L16.6401 15.556L15.8231 22.5609L10.9944 10.7651Z" fill="white"/>
</g>
</svg>
