<svg width="58" height="58" viewBox="0 0 58 58" fill="none" xmlns="http://www.w3.org/2000/svg">
<circle cx="29" cy="29" r="29" fill="#FF060A"/>
<g clip-path="url(#clip0_26_27)">
<path d="M48.5068 23.7488C46.6787 22.0608 44.1498 19.4832 42.0901 17.655L41.9682 17.5697C41.7655 17.4069 41.5368 17.2792 41.2918 17.1919C36.3254 16.2657 13.2118 11.9452 12.7609 12C12.6345 12.0177 12.5138 12.0635 12.4075 12.1341L12.2917 12.2255C12.1491 12.3703 12.0408 12.5452 11.9748 12.7374L11.9443 12.8166V13.2492V13.3163C14.5464 20.5617 24.8204 44.2969 26.8436 49.8666C26.9654 50.2444 27.197 50.9635 27.6296 51H27.7271C27.9587 51 28.9459 49.696 28.9459 49.696C28.9459 49.696 46.5934 28.2947 48.3789 26.0157C48.61 25.7349 48.814 25.433 48.9882 25.1138C49.0327 24.8641 49.0117 24.6071 48.9274 24.3679C48.843 24.1286 48.6981 23.9154 48.5068 23.7488ZM33.4736 26.2411L41.0054 19.995L45.4234 24.0657L33.4736 26.2411ZM30.5486 25.8328L17.5811 15.2053L38.5618 19.0749L30.5486 25.8328ZM31.7186 28.6177L44.9907 26.4788L29.8173 44.76L31.7186 28.6177ZM15.82 16.2657L29.4639 27.8438L27.4895 44.7722L15.82 16.2657Z" fill="white"/>
</g>
<defs>
<clipPath id="clip0_26_27">
<rect width="39" height="39" fill="white" transform="translate(11 12)"/>
</clipPath>
</defs>
</svg>
