<svg width="20" height="14" viewBox="0 0 20 14" fill="none" xmlns="http://www.w3.org/2000/svg">
<path d="M16.0001 5.00019C16.0001 4.73497 15.8948 4.48062 15.7072 4.29308C15.5197 4.10554 15.2654 4.00019 15.0001 4.00019H3.41014L5.71014 1.71019C5.89844 1.52188 6.00423 1.26649 6.00423 1.00019C6.00423 0.733884 5.89844 0.478489 5.71014 0.290185C5.52184 0.101882 5.26644 -0.00390625 5.00014 -0.00390625C4.73384 -0.00390625 4.47844 0.101882 4.29014 0.290185L0.290139 4.29019C0.151382 4.43081 0.0573856 4.60938 0.0200115 4.80337C-0.0173626 4.99736 0.00356002 5.19808 0.0801395 5.38019C0.15516 5.56281 0.282557 5.71913 0.446278 5.82947C0.609998 5.9398 0.802714 5.9992 1.00014 6.00019H15.0001C15.2654 6.00019 15.5197 5.89483 15.7072 5.70729C15.8948 5.51976 16.0001 5.2654 16.0001 5.00019ZM19.9201 8.62019C19.8451 8.43757 19.7177 8.28124 19.554 8.17091C19.3903 8.06057 19.1976 8.00117 19.0001 8.00019H5.00014C4.73492 8.00019 4.48057 8.10554 4.29303 8.29308C4.1055 8.48062 4.00014 8.73497 4.00014 9.00019C4.00014 9.2654 4.1055 9.51976 4.29303 9.70729C4.48057 9.89483 4.73492 10.0002 5.00014 10.0002H16.5901L14.2901 12.2902C14.1964 12.3832 14.122 12.4938 14.0712 12.6156C14.0205 12.7375 13.9943 12.8682 13.9943 13.0002C13.9943 13.1322 14.0205 13.2629 14.0712 13.3848C14.122 13.5066 14.1964 13.6172 14.2901 13.7102C14.3831 13.8039 14.4937 13.8783 14.6156 13.9291C14.7374 13.9798 14.8681 14.006 15.0001 14.006C15.1322 14.006 15.2629 13.9798 15.3847 13.9291C15.5066 13.8783 15.6172 13.8039 15.7101 13.7102L19.7101 9.71019C19.8489 9.56956 19.9429 9.39099 19.9803 9.197C20.0176 9.00301 19.9967 8.8023 19.9201 8.62019Z" fill="#414D5A"/>
</svg>
