<svg width="58" height="58" viewBox="0 0 58 58" fill="none" xmlns="http://www.w3.org/2000/svg">
<g clip-path="url(#clip0_26_101)">
<path d="M29 58C45.0709 58 58 45.0709 58 29C58 12.9291 45.0709 0 29 0C12.9291 0 0 12.9291 0 29C0 45.0709 12.9291 58 29 58Z" fill="#2775CA"/>
<path d="M36.9748 33.5915C36.9748 29.3624 34.4373 27.9124 29.3623 27.3083C25.7373 26.8249 25.0123 25.8583 25.0123 24.1665C25.0123 22.4746 26.2207 21.3874 28.6373 21.3874C30.8123 21.3874 32.0207 22.1124 32.6248 23.9249C32.7457 24.2874 33.1082 24.529 33.4707 24.529H35.4038C35.8873 24.529 36.2498 24.1665 36.2498 23.6833V23.5624C35.7663 20.904 33.5913 18.8499 30.8123 18.6083V15.7083C30.8123 15.2249 30.4498 14.8624 29.8457 14.7415H28.0332C27.5498 14.7415 27.1873 15.104 27.0663 15.7083V18.4874C23.4413 18.9708 21.1457 21.3874 21.1457 24.4083C21.1457 28.3958 23.5623 29.9665 28.6373 30.5708C32.0207 31.1749 33.1082 31.8999 33.1082 33.8333C33.1082 35.7667 31.4163 37.0958 29.1207 37.0958C25.9788 37.0958 24.8913 35.7665 24.5288 33.954C24.4082 33.4708 24.0457 33.229 23.6832 33.229H21.6288C21.1457 33.229 20.7832 33.5915 20.7832 34.0749V34.1958C21.2663 37.2165 23.1998 39.3915 27.1873 39.9958V42.8958C27.1873 43.379 27.5498 43.7415 28.1538 43.8624H29.9663C30.4498 43.8624 30.8123 43.4999 30.9332 42.8958V39.9958C34.5582 39.3915 36.9748 36.854 36.9748 33.5915Z" fill="white"/>
<path d="M22.8379 46.2791C13.4129 42.896 8.57947 32.3835 12.0838 23.0791C13.8963 18.0041 17.8838 14.1376 22.8379 12.3251C23.3213 12.0835 23.5629 11.721 23.5629 11.1166V9.42507C23.5629 8.94164 23.3213 8.57914 22.8379 8.4585C22.717 8.4585 22.4754 8.4585 22.3545 8.57914C10.8754 12.2041 4.59197 24.4085 8.21697 35.8876C10.392 42.6541 15.5879 47.8501 22.3545 50.0251C22.8379 50.2666 23.3213 50.0251 23.442 49.5416C23.5629 49.421 23.5629 49.3001 23.5629 49.0585V47.3666C23.5629 47.0041 23.2004 46.521 22.8379 46.2791ZM35.6463 8.57914C35.1629 8.33757 34.6795 8.57914 34.5588 9.06257C34.4379 9.1835 34.4379 9.30414 34.4379 9.546V11.2376C34.4379 11.721 34.8004 12.2041 35.1629 12.446C44.5879 15.8291 49.4213 26.3416 45.917 35.646C44.1045 40.721 40.117 44.5876 35.1629 46.4001C34.6795 46.6416 34.4379 47.0041 34.4379 47.6085V49.3001C34.4379 49.7835 34.6795 50.146 35.1629 50.2666C35.2838 50.2666 35.5254 50.2666 35.6463 50.146C47.1254 46.521 53.4088 34.3166 49.7838 22.8376C47.6088 15.9501 42.292 10.7541 35.6463 8.57914Z" fill="white"/>
</g>
<defs>
<clipPath id="clip0_26_101">
<rect width="58" height="58" fill="white"/>
</clipPath>
</defs>
</svg>
