<svg width="35" height="35" viewBox="0 0 35 35" fill="none" xmlns="http://www.w3.org/2000/svg">
<path d="M17 29C23.65 29 29 23.65 29 17C29 10.35 23.65 5 17 5C10.35 5 5 10.35 5 17C5 23.65 10.35 29 17 29Z" fill="#2775CA"/>
<path d="M20.3001 18.8999C20.3001 17.1499 19.2501 16.5499 17.1501 16.3C15.6501 16.0999 15.3501 15.7 15.3501 14.9999C15.3501 14.2998 15.8501 13.8499 16.8501 13.8499C17.7501 13.8499 18.2501 14.1499 18.5001 14.8999C18.5501 15.0499 18.7001 15.1499 18.8501 15.1499H19.65C19.8501 15.1499 20.0001 14.9999 20.0001 14.8V14.7499C19.8 13.6499 18.9 12.7999 17.7501 12.7V11.5C17.7501 11.2999 17.6001 11.1499 17.3501 11.0999H16.6001C16.4001 11.0999 16.2501 11.2499 16.2 11.5V12.6499C14.7 12.85 13.7501 13.8499 13.7501 15.1C13.7501 16.75 14.7501 17.3999 16.8501 17.65C18.2501 17.8999 18.7001 18.1999 18.7001 19C18.7001 19.8 18 20.35 17.0501 20.35C15.75 20.35 15.3 19.7999 15.15 19.0499C15.1001 18.85 14.9501 18.7499 14.8001 18.7499H13.95C13.7501 18.7499 13.6001 18.8999 13.6001 19.0999V19.15C13.8 20.3999 14.6001 21.2999 16.2501 21.55V22.75C16.2501 22.9499 16.4001 23.0999 16.65 23.1499H17.4C17.6001 23.1499 17.7501 22.9999 17.8001 22.75V21.55C19.3001 21.2999 20.3001 20.2499 20.3001 18.8999Z" fill="white"/>
<path d="M14.45 24.15C10.55 22.7501 8.54996 18.4001 10 14.55C10.75 12.45 12.4 10.85 14.45 10.1C14.65 10.0001 14.75 9.85006 14.75 9.59996V8.90002C14.75 8.69998 14.65 8.54998 14.45 8.50006C14.4 8.50006 14.3 8.50006 14.25 8.54998C9.5 10.05 6.89996 15.1001 8.39996 19.85C9.29997 22.65 11.45 24.8 14.25 25.7C14.45 25.8 14.65 25.7 14.7 25.5C14.75 25.4501 14.75 25.4 14.75 25.3001V24.6C14.75 24.45 14.6 24.2501 14.45 24.15ZM19.75 8.54998C19.55 8.45002 19.35 8.54998 19.3 8.75002C19.25 8.80006 19.25 8.84998 19.25 8.95006V9.65003C19.25 9.85006 19.4 10.05 19.55 10.1501C23.45 11.55 25.45 15.9 24 19.7501C23.25 21.8501 21.6 23.45 19.55 24.2C19.35 24.3 19.25 24.45 19.25 24.7001V25.4C19.25 25.6001 19.35 25.7501 19.55 25.8C19.6 25.8 19.7 25.8 19.75 25.7501C24.5 24.2501 27.1 19.2 25.6 14.45C24.7 11.6 22.5 9.44996 19.75 8.54998Z" fill="white"/>
</svg>
