<svg width="35" height="35" viewBox="0 0 35 35" fill="none" xmlns="http://www.w3.org/2000/svg">
<path d="M17 29C23.6274 29 29 23.6274 29 17C29 10.3726 23.6274 5 17 5C10.3726 5 5 10.3726 5 17C5 23.6274 10.3726 29 17 29Z" fill="#50AF95"/>
<mask id="mask0_179_171" style="mask-type:luminance" maskUnits="userSpaceOnUse" x="6" y="9" width="22" height="19">
<path d="M27.3449 9.13794H6.65527V27.1359H27.3449V9.13794Z" fill="white"/>
</mask>
<g mask="url(#mask0_179_171)">
<path fill-rule="evenodd" clip-rule="evenodd" d="M10.4437 9.22634L6.67127 17.1504C6.65692 17.1799 6.65237 17.2132 6.65829 17.2454C6.66421 17.2776 6.68029 17.3071 6.70419 17.3296L16.8927 27.0926C16.9216 27.1204 16.9602 27.1358 17.0003 27.1358C17.0404 27.1358 17.0789 27.1204 17.1079 27.0926L27.2963 17.3302C27.3202 17.3078 27.3363 17.2783 27.3422 17.246C27.3481 17.2137 27.3436 17.1805 27.3292 17.151L23.5568 9.22696C23.5446 9.20035 23.525 9.1778 23.5004 9.16203C23.4758 9.14623 23.4471 9.13788 23.4178 9.13795H10.5839C10.5545 9.13759 10.5256 9.14573 10.5007 9.16141C10.4759 9.1771 10.4561 9.19965 10.4437 9.22634Z" fill="white"/>
<path fill-rule="evenodd" clip-rule="evenodd" d="M18.309 17.9641C18.2359 17.9696 17.858 17.9921 17.015 17.9921C16.3445 17.9921 15.8684 17.972 15.7014 17.9641C13.1103 17.8501 11.1762 17.399 11.1762 16.859C11.1762 16.3189 13.1103 15.8685 15.7014 15.7526V17.5148C15.8708 17.527 16.356 17.5557 17.0266 17.5557C17.8311 17.5557 18.234 17.5221 18.3066 17.5154V15.7539C20.8923 15.8691 22.8221 16.3202 22.8221 16.859C22.8221 17.3978 20.8929 17.8489 18.3066 17.9635L18.309 17.9641ZM18.309 15.5716V13.9947H21.9175V11.5901H12.0929V13.9947H15.7008V15.571C12.7683 15.7057 10.563 16.2866 10.563 16.9827C10.563 17.6788 12.7683 18.2591 15.7008 18.3944V23.4475H18.3084V18.3926C21.2342 18.2579 23.4359 17.6776 23.4359 16.9821C23.4359 16.2866 21.236 15.7063 18.3084 15.571L18.309 15.5716Z" fill="#50AF95"/>
</g>
</svg>
