<svg width="58" height="58" viewBox="0 0 58 58" fill="none" xmlns="http://www.w3.org/2000/svg">
<circle cx="29" cy="29" r="29" fill="#50AF95"/>
<g clip-path="url(#clip0_26_31)">
<path fill-rule="evenodd" clip-rule="evenodd" d="M13.1552 10.2136L4.03846 29.3634C4.00377 29.4346 3.99277 29.5151 4.00708 29.593C4.0214 29.6709 4.06026 29.7422 4.118 29.7965L28.7402 53.3904C28.8101 53.4575 28.9033 53.4949 29.0002 53.4949C29.0971 53.4949 29.1902 53.4575 29.2602 53.3904L53.8823 29.7979C53.9401 29.7437 53.9789 29.6724 53.9932 29.5945C54.0075 29.5165 53.9966 29.4361 53.9619 29.3648L44.8451 10.2151C44.8157 10.1508 44.7684 10.0963 44.7088 10.0582C44.6493 10.02 44.58 9.99984 44.5093 10H13.494C13.423 9.99914 13.3532 10.0188 13.293 10.0567C13.2329 10.0946 13.1851 10.1491 13.1552 10.2136Z" fill="white"/>
<path fill-rule="evenodd" clip-rule="evenodd" d="M32.163 31.3298C31.9862 31.3431 31.0729 31.3976 29.0357 31.3976C27.4153 31.3976 26.2649 31.3489 25.8612 31.3298C19.5993 31.0543 14.9253 29.9643 14.9253 28.6591C14.9253 27.354 19.5993 26.2654 25.8612 25.9855V30.2441C26.2707 30.2736 27.4433 30.3428 29.0637 30.3428C31.0081 30.3428 31.9818 30.2618 32.1571 30.2456V25.9885C38.4058 26.2669 43.0695 27.357 43.0695 28.6591C43.0695 29.9613 38.4073 31.0514 32.1571 31.3283L32.163 31.3298ZM32.163 25.548V21.7372H40.8835V15.926H17.1407V21.7372H25.8598V25.5466C18.7729 25.8721 13.4434 27.2759 13.4434 28.9582C13.4434 30.6404 18.7729 32.0428 25.8598 32.3698V44.5814H32.1615V32.3654C39.2322 32.0398 44.5529 30.6375 44.5529 28.9567C44.5529 27.2759 39.2366 25.8736 32.1615 25.5466L32.163 25.548Z" fill="#50AF95"/>
</g>
<defs>
<clipPath id="clip0_26_31">
<rect width="50" height="43.495" fill="white" transform="translate(4 10)"/>
</clipPath>
</defs>
</svg>
