<svg width="24" height="18" viewBox="0 0 24 18" fill="none" xmlns="http://www.w3.org/2000/svg">
<path d="M19.1978 6.00491C19.1978 5.68665 19.0714 5.38142 18.8463 5.15638C18.6213 4.93134 18.3161 4.80491 17.9978 4.80491H4.08982L6.84982 2.05691C7.07579 1.83094 7.20274 1.52447 7.20274 1.20491C7.20274 0.885352 7.07579 0.578874 6.84982 0.35291C6.62386 0.126946 6.31738 2.38092e-09 5.99782 0C5.67826 -2.38092e-09 5.37179 0.126946 5.14582 0.35291L0.345824 5.15291C0.179314 5.32166 0.066519 5.53594 0.02167 5.76874C-0.0231789 6.00152 0.00192831 6.24238 0.0938232 6.46091C0.183848 6.68006 0.336725 6.86765 0.53319 7.00005C0.729654 7.13245 0.960912 7.20373 1.19782 7.20491H17.9978C18.3161 7.20491 18.6213 7.07848 18.8463 6.85344C19.0714 6.62839 19.1978 6.32317 19.1978 6.00491ZM23.9018 10.3489C23.8118 10.1298 23.659 9.94216 23.4625 9.80976C23.266 9.67736 23.0347 9.60608 22.7978 9.60488H5.99782C5.67957 9.60488 5.37434 9.73136 5.1493 9.9564C4.92426 10.1814 4.79782 10.4866 4.79782 10.8049C4.79782 11.1232 4.92426 11.4284 5.1493 11.6534C5.37434 11.8785 5.67957 12.0049 5.99782 12.0049H19.9058L17.1458 14.7529C17.0334 14.8645 16.9441 14.9972 16.8831 15.1434C16.8222 15.2897 16.7909 15.4465 16.7909 15.6049C16.7909 15.7634 16.8222 15.9202 16.8831 16.0664C16.9441 16.2126 17.0334 16.3454 17.1458 16.4569C17.2574 16.5694 17.3901 16.6586 17.5363 16.7196C17.6826 16.7805 17.8394 16.8118 17.9978 16.8118C18.1562 16.8118 18.3131 16.7805 18.4593 16.7196C18.6055 16.6586 18.7382 16.5694 18.8498 16.4569L23.6498 11.6569C23.8163 11.4882 23.9291 11.2738 23.974 11.0411C24.0188 10.8083 23.9937 10.5674 23.9018 10.3489Z" fill="#F8F8F8"/>
</svg>
