<svg width="35" height="35" viewBox="0 0 35 35" fill="none" xmlns="http://www.w3.org/2000/svg">
<path d="M17 5C10.372 5 5 10.372 5 17C5 23.628 10.372 29 17 29C23.628 29 29 23.628 29 17C29 10.372 23.628 5 17 5ZM22.96 18.88C22.44 17.72 20.52 15.16 17.72 15.44C14.8 15.76 11.48 17.4 10.52 19.8C9.04 18.64 10.32 16.64 11.2 15.72C11 14.84 11.56 12.92 11.88 12.12C12 11.44 12.56 10.96 12.84 10.84C12.8 10.36 13.64 10.12 14.04 10.04L14.08 9.96C14.2 9.6 14.32 9.16 15.36 8.84C16.24 8.52 17.04 9.32 17.36 9.76C17.44 9.52 17.76 9.16 18.08 9.44C20.96 9.88 21.92 13.04 22.08 14.52C22.64 14.92 23.8 15.96 24.08 16.92C24.36 18.08 24.04 18.32 23.64 18.64L23.56 18.72C23.36 18.96 23.12 18.96 22.96 18.88ZM22.4 20.12C21.772 22.752 19.66 24.772 17 25.28C15.32 25.28 12.64 22.64 11.88 21.4C10.32 21.28 10.68 20.48 11.04 20.12L10.84 20.04C11.56 18.36 13.6 16.36 17.6 15.88C19.8 15.6 21.48 17.16 22.48 18.76C22.52 19.28 22.48 19.84 22.4 20.12ZM13.64 18.12C13.88 18.72 14.6 19.68 15.64 18.56C15.56 18.24 15 17.68 13.64 18.12ZM15.24 23.8C15.08 23.56 16.04 23.44 16.52 23.4L17.16 23.24C17.28 22.72 17.04 22.68 16.92 22.72C15.96 22.8 16.04 21.68 16.28 21.32C16.56 21 17.16 21.12 17.36 21.16C17.56 21.24 17.88 21.16 18 21.12C18.6 21.08 18.56 21.8 18.44 22.16C18.4 22.64 17.72 22.8 17.4 22.8C17.36 23.16 17.44 23.32 17.52 23.32L18.88 23.64C19.4 23.84 19.12 23.88 18.88 23.92C18.2 23.48 17.72 23.64 17.4 23.72L17.16 23.8C16.6 23.6 16 23.64 15.76 23.72C15.64 23.84 15.36 24 15.24 23.8ZM18.8 18.76C18.84 18.28 19.32 17.48 20.72 18.2C20.52 18.68 19.84 19.44 18.8 18.76Z" fill="#EFBFA8"/>
</svg>
