<svg width="35" height="35" viewBox="0 0 35 35" fill="none" xmlns="http://www.w3.org/2000/svg">
<path d="M17.5 0C7.83417 0 0 7.83417 0 17.5C0 27.1658 7.83417 35 17.5 35C27.1658 35 35 27.1658 35 17.5C35 7.83417 27.1658 0 17.5 0ZM26.1917 20.2417C25.4333 18.55 22.6333 14.8167 18.55 15.225C14.2917 15.6917 9.45 18.0833 8.05 21.5833C5.89167 19.8917 7.75833 16.975 9.04167 15.6333C8.75 14.35 9.56667 11.55 10.0333 10.3833C10.2083 9.39167 11.025 8.69167 11.4333 8.51667C11.375 7.81667 12.6 7.46667 13.1833 7.35L13.2417 7.23333C13.4167 6.70833 13.5917 6.06667 15.1083 5.6C16.3917 5.13333 17.5583 6.3 18.025 6.94167C18.1417 6.59167 18.6083 6.06667 19.075 6.475C23.275 7.11667 24.675 11.725 24.9083 13.8833C25.725 14.4667 27.4167 15.9833 27.825 17.3833C28.2333 19.075 27.7667 19.425 27.1833 19.8917L27.0667 20.0083C26.775 20.3583 26.425 20.3583 26.1917 20.2417ZM25.375 22.05C24.4592 25.8883 21.3792 28.8342 17.5 29.575C15.05 29.575 11.1417 25.725 10.0333 23.9167C7.75833 23.7417 8.28333 22.575 8.80833 22.05L8.51667 21.9333C9.56667 19.4833 12.5417 16.5667 18.375 15.8667C21.5833 15.4583 24.0333 17.7333 25.4917 20.0667C25.55 20.825 25.4917 21.6417 25.375 22.05ZM12.6 19.1333C12.95 20.0083 14 21.4083 15.5167 19.775C15.4 19.3083 14.5833 18.4917 12.6 19.1333ZM14.9333 27.4167C14.7 27.0667 16.1 26.8917 16.8 26.8333L17.7333 26.6C17.9083 25.8417 17.5583 25.7833 17.3833 25.8417C15.9833 25.9583 16.1 24.325 16.45 23.8C16.8583 23.3333 17.7333 23.5083 18.025 23.5667C18.3167 23.6833 18.7833 23.5667 18.9583 23.5083C19.8333 23.45 19.775 24.5 19.6 25.025C19.5417 25.725 18.55 25.9583 18.0833 25.9583C18.025 26.4833 18.1417 26.7167 18.2583 26.7167L20.2417 27.1833C21 27.475 20.5917 27.5333 20.2417 27.5917C19.25 26.95 18.55 27.1833 18.0833 27.3L17.7333 27.4167C16.9167 27.125 16.0417 27.1833 15.6917 27.3C15.5167 27.475 15.1083 27.7083 14.9333 27.4167ZM20.125 20.0667C20.1833 19.3667 20.8833 18.2 22.925 19.25C22.6333 19.95 21.6417 21.0583 20.125 20.0667Z" fill="#EFBFA8"/>
</svg>
