<svg width="35" height="35" viewBox="0 0 35 35" fill="none" xmlns="http://www.w3.org/2000/svg">
<path d="M17 29C23.6274 29 29 23.6274 29 17C29 10.3726 23.6274 5 17 5C10.3726 5 5 10.3726 5 17C5 23.6274 10.3726 29 17 29Z" fill="#23292F"/>
<mask id="mask0_156_222" style="mask-type:luminance" maskUnits="userSpaceOnUse" x="9" y="11" width="17" height="14">
<path d="M25.5517 11H9V24.7069H25.5517V11Z" fill="white"/>
</mask>
<g mask="url(#mask0_156_222)">
<path d="M23.127 11H25.5193L20.5408 15.9293C18.7379 17.7135 15.8148 17.7135 14.0107 15.9293L9.03027 11H11.4245L15.2068 14.7445C15.7579 15.2876 16.5005 15.5921 17.2743 15.5921C18.048 15.5921 18.7907 15.2876 19.3418 14.7445L23.127 11Z" fill="white"/>
<path d="M11.3939 24.7069H9L14.0108 19.7472C15.8137 17.963 18.7368 17.963 20.5409 19.7472L25.5517 24.7069H23.1595L19.3448 20.932C18.7937 20.3889 18.0511 20.0844 17.2773 20.0844C16.5036 20.0844 15.7609 20.3889 15.2098 20.932L11.3939 24.7069Z" fill="white"/>
</g>
</svg>
