<svg width="58" height="58" viewBox="0 0 58 58" fill="none" xmlns="http://www.w3.org/2000/svg">
<circle cx="29" cy="29" r="29" fill="#23292F"/>
<g clip-path="url(#clip0_26_49)">
<path d="M43.1404 12H48.9217L36.8904 23.9125C32.5334 28.2242 25.4693 28.2242 21.1092 23.9125L9.07324 12H14.8592L23.9998 21.0492C25.3316 22.3618 27.1264 23.0976 28.9963 23.0976C30.8662 23.0976 32.661 22.3618 33.9928 21.0492L43.1404 12Z" fill="white"/>
<path d="M14.7852 45.125H9L21.1094 33.1391C25.4664 28.8273 32.5305 28.8273 36.8906 33.1391L49 45.125H43.2188L34 36.0023C32.6682 34.6898 30.8734 33.954 29.0035 33.954C27.1336 33.954 25.3388 34.6898 24.007 36.0023L14.7852 45.125Z" fill="white"/>
</g>
<defs>
<clipPath id="clip0_26_49">
<rect width="40" height="33.125" fill="white" transform="translate(9 12)"/>
</clipPath>
</defs>
</svg>
