<svg xmlns="http://www.w3.org/2000/svg" xmlns:xlink="http://www.w3.org/1999/xlink" viewBox="0 0 32 32" width="30" height="30" style="" filter="none">
    
    <g>
    <path d="M24.889 27.346v-23.79h-17.778v23.79l8.889-4.444 8.889 4.444zM7.111 1.778h17.778c0.982 0 1.778 0.796 1.778 1.778v23.79c0 0.982-0.796 1.778-1.778 1.778-0.29 0-0.563-0.069-0.805-0.192l0.010 0.005-8.094-4.047-8.094 4.047c-0.878 0.439-1.946 0.083-2.385-0.795-0.118-0.232-0.188-0.505-0.188-0.795v0-23.79c0-0.982 0.796-1.778 1.778-1.778zM11.556 8.889h8.889c0.491 0 0.889 0.398 0.889 0.889s-0.398 0.889-0.889 0.889h-8.889c-0.491 0-0.889-0.398-0.889-0.889s0.398-0.889 0.889-0.889zM11.556 14.222h8.889c0.491 0 0.889 0.398 0.889 0.889s-0.398 0.889-0.889 0.889h-8.889c-0.491 0-0.889-0.398-0.889-0.889s0.398-0.889 0.889-0.889z" fill="rgba(248,248,248,1)"></path>
    </g>
  </svg>